<svg width="2624" height="1747" xmlns="http://www.w3.org/2000/svg" xmlns:xlink="http://www.w3.org/1999/xlink" xml:space="preserve" overflow="hidden"><g transform="translate(-635 -426)"><rect x="2522.5" y="1590.5" width="392" height="205" stroke="#000000" stroke-width="9.16667" stroke-miterlimit="8" fill="#5B9BD5"/><path d="M2690.46 1679.07 2703.27 1679.07 2697.65 1703.37C2697.17 1705.44 2696.76 1707.36 2696.42 1709.12 2696.07 1710.89 2695.9 1712.36 2695.9 1713.53 2695.9 1714.84 2696.15 1715.85 2696.66 1716.54 2697.17 1717.23 2698.03 1717.57 2699.22 1717.57 2700.81 1717.57 2702.45 1716.82 2704.14 1715.32 2705.83 1713.83 2707.3 1712.1 2708.54 1710.14 2709.79 1708.17 2710.68 1705.94 2711.22 1703.42L2716.61 1679.07 2729.59 1679.07 2722.31 1709.62C2721.86 1711.51 2721.64 1713.21 2721.64 1714.74 2721.64 1715.73 2721.8 1716.49 2722.13 1717.03 2722.46 1717.57 2723.03 1717.84 2723.84 1717.84 2724.68 1717.84 2725.61 1717.47 2726.63 1716.72 2727.64 1715.97 2728.84 1714.83 2730.22 1713.3L2733.45 1716.54C2730.67 1719.32 2728.12 1721.32 2725.82 1722.53 2723.51 1723.75 2721.16 1724.35 2718.76 1724.35 2716.16 1724.35 2714.11 1723.66 2712.61 1722.29 2711.11 1720.91 2710.36 1719.07 2710.36 1716.76 2710.36 1715.8 2710.45 1715.08 2710.63 1714.61L2710 1714.52C2707.43 1717.66 2705.03 1720 2702.79 1721.52 2700.56 1723.05 2698.37 1723.81 2696.21 1723.81 2693.94 1723.81 2692.02 1723.16 2690.46 1721.84L2690.1 1721.97C2689.77 1725.39 2689.61 1728.83 2689.61 1732.3 2689.61 1734.1 2689.66 1735.7 2689.74 1737.11L2688.85 1741.65 2679.01 1741.65 2676.72 1738.59C2677.2 1737.1 2677.84 1734.79 2678.65 1731.68 2679.46 1728.56 2680.12 1725.82 2680.63 1723.45Z" fill-rule="evenodd"/><text fill="#000000" fill-opacity="0" font-family="Arial,Arial_MSFontService,sans-serif" font-size="62.5762" x="2676.72" y="1733.83">ğ</text><rect x="1205.5" y="1590.5" width="1317" height="205" stroke="#172C51" stroke-width="9.16667" stroke-miterlimit="8" fill="#70AD47"/><text font-family="DengXian,DengXian_MSFontService,sans-serif" font-weight="700" font-size="92" transform="matrix(1 0 0 1 1321.11 1724)">noise</text><text font-family="DengXian,DengXian_MSFontService,sans-serif" font-weight="700" font-size="92" transform="matrix(1 0 0 1 1566.89 1724)">and payload</text><text font-family="DengXian,DengXian_MSFontService,sans-serif" font-weight="700" font-size="92" transform="matrix(1 0 0 1 2105.43 1724)">budget</text><rect x="2906.5" y="1590.5" width="327" height="205" stroke="#172C51" stroke-width="9.16667" stroke-miterlimit="8" fill="#ED7D31"/><path d="M3062.94 1683.03C3060.16 1683.03 3057.65 1684.4 3055.42 1687.16 3053.19 1689.91 3051.35 1693.93 3049.92 1699.2 3055.43 1699.05 3059.64 1697.99 3062.56 1696.03 3065.48 1694.07 3066.94 1691.29 3066.94 1687.7 3066.94 1686.17 3066.59 1685.01 3065.89 1684.22 3065.18 1683.42 3064.2 1683.03 3062.94 1683.03ZM3064.07 1678.35C3073.23 1678.35 3077.81 1681.66 3077.81 1688.28 3077.81 1690.56 3077.36 1692.56 3076.44 1694.3 3075.53 1696.04 3074.01 1697.61 3071.88 1699.02 3069.76 1700.42 3066.76 1701.56 3062.88 1702.43 3059 1703.3 3054.32 1703.79 3048.84 1703.91 3048.45 1705.68 3048.26 1707.51 3048.26 1709.39 3048.26 1712.18 3048.84 1714.28 3050.01 1715.68 3051.18 1717.09 3052.94 1717.79 3055.31 1717.79 3057.94 1717.79 3060.32 1717.26 3062.45 1716.2 3064.58 1715.14 3067.08 1713.24 3069.95 1710.52L3073.73 1714.29C3070.7 1717.7 3067.44 1720.24 3063.96 1721.88 3060.47 1723.53 3056.69 1724.35 3052.61 1724.35 3049.11 1724.35 3046.13 1723.74 3043.67 1722.51 3041.22 1721.28 3039.37 1719.46 3038.13 1717.05 3036.88 1714.64 3036.26 1711.76 3036.26 1708.41 3036.26 1706.85 3036.47 1704.86 3036.89 1702.43 3037.46 1699.14 3038.33 1696.2 3039.5 1693.63 3040.96 1690.45 3042.88 1687.73 3045.25 1685.45 3047.61 1683.17 3050.39 1681.42 3053.58 1680.19 3056.77 1678.97 3060.26 1678.35 3064.07 1678.35Z" fill-rule="evenodd"/><text fill="#000000" fill-opacity="0" font-family="Arial,Arial_MSFontService,sans-serif" font-size="46" x="3036.26" y="1718.6">ğ’†</text><path d="M3240.5 1934.62C3240.5 1963.58 3236.59 1987.06 3231.76 1987.06L2231.74 1987.06C2226.91 1987.06 2223 2010.54 2223 2039.5 2223 2010.54 2219.09 1987.06 2214.26 1987.06L1214.24 1987.06C1209.41 1987.06 1205.5 1963.58 1205.5 1934.62" stroke="#000000" stroke-width="3.4375" stroke-linejoin="round" stroke-miterlimit="10" stroke-dasharray="13.75 10.3125" fill="none" fill-rule="evenodd"/><path d="M2226.32 2090.17C2223.5 2090.17 2221.03 2091.55 2218.9 2094.3 2216.78 2097.06 2215.05 2100.81 2213.72 2105.56 2212.38 2110.3 2211.72 2114.58 2211.72 2118.38 2211.72 2120.57 2212.04 2122.2 2212.68 2123.28 2213.33 2124.36 2214.32 2124.89 2215.67 2124.89 2217.65 2124.89 2219.66 2123.93 2221.71 2122 2223.76 2120.07 2225.42 2117.8 2226.68 2115.19 2227.93 2112.59 2229.06 2109.02 2230.04 2104.5L2230.4 2102.84C2230.88 2100.62 2231.12 2098.44 2231.12 2096.28 2231.12 2094.24 2230.75 2092.72 2230 2091.7 2229.25 2090.68 2228.02 2090.17 2226.32 2090.17ZM2225.78 2085.5C2230.24 2085.5 2234.04 2086.58 2237.19 2088.73L2241.23 2085.5 2246.26 2086.22 2234.85 2138.15C2234.52 2139.61 2234.31 2140.71 2234.22 2141.43 2234.13 2142.14 2234.09 2142.76 2234.09 2143.27 2234.09 2144.58 2234.42 2145.51 2235.08 2146.05 2235.73 2146.59 2236.9 2146.97 2238.58 2147.18L2238.09 2150.14 2219.44 2150.14 2226.77 2122.51 2226.18 2122.33C2223.73 2125.45 2221.29 2127.76 2218.88 2129.27 2216.47 2130.79 2213.59 2131.54 2210.23 2131.54 2206.82 2131.54 2204.18 2130.31 2202.31 2127.84 2200.43 2125.37 2199.5 2121.81 2199.5 2117.17 2199.5 2113.12 2200.08 2109.11 2201.25 2105.13 2202.42 2101.15 2204.09 2097.71 2206.28 2094.82 2208.47 2091.93 2211.21 2089.65 2214.52 2087.99 2217.83 2086.33 2221.58 2085.5 2225.78 2085.5Z" fill-rule="evenodd"/><text fill="#000000" fill-opacity="0" font-family="Arial,Arial_MSFontService,sans-serif" font-size="64.6426" x="2199.5" y="2142.06">ğ’’</text><text font-family="DengXian,DengXian_MSFontService,sans-serif" font-weight="700" font-size="92" transform="matrix(1 0 0 1 690.307 1731)">CKKS</text><rect x="2486.5" y="1560.5" width="768" height="277" stroke="#000000" stroke-width="4.58333" stroke-linecap="square" stroke-miterlimit="8" stroke-dasharray="13.75 4.58333" fill="none"/><rect x="3036.5" y="1135.5" width="204" height="205" stroke="#000000" stroke-width="9.16667" stroke-miterlimit="8" fill="#5B9BD5"/><path d="M3110.58 1223.94 3123.38 1223.94 3117.76 1248.25C3117.29 1250.31 3116.87 1252.23 3116.53 1254 3116.18 1255.76 3116.01 1257.23 3116.01 1258.4 3116.01 1259.72 3116.27 1260.72 3116.78 1261.41 3117.29 1262.1 3118.14 1262.44 3119.34 1262.44 3120.92 1262.44 3122.56 1261.69 3124.26 1260.2 3125.95 1258.7 3127.42 1256.97 3128.66 1255.01 3129.9 1253.05 3130.79 1250.81 3131.33 1248.29L3136.72 1223.94 3149.7 1223.94 3142.43 1254.49C3141.98 1256.38 3141.75 1258.08 3141.75 1259.61 3141.75 1260.6 3141.92 1261.36 3142.25 1261.9 3142.58 1262.44 3143.15 1262.71 3143.95 1262.71 3144.79 1262.71 3145.72 1262.34 3146.74 1261.59 3147.76 1260.84 3148.96 1259.7 3150.33 1258.17L3153.57 1261.41C3150.78 1264.19 3148.24 1266.19 3145.93 1267.41 3143.62 1268.62 3141.27 1269.22 3138.88 1269.22 3136.27 1269.22 3134.22 1268.54 3132.72 1267.16 3131.23 1265.78 3130.48 1263.94 3130.48 1261.63 3130.48 1260.67 3130.57 1259.96 3130.75 1259.48L3130.12 1259.39C3127.54 1262.53 3125.14 1264.87 3122.91 1266.39 3120.68 1267.92 3118.48 1268.69 3116.33 1268.69 3114.05 1268.69 3112.13 1268.03 3110.58 1266.71L3110.22 1266.84C3109.89 1270.26 3109.72 1273.7 3109.72 1277.18 3109.72 1278.97 3109.77 1280.58 3109.86 1281.98L3108.96 1286.52 3099.12 1286.52 3096.83 1283.47C3097.31 1281.97 3097.95 1279.66 3098.76 1276.55 3099.57 1273.43 3100.23 1270.69 3100.74 1268.33Z" fill-rule="evenodd"/><text fill="#000000" fill-opacity="0" font-family="Arial,Arial_MSFontService,sans-serif" font-size="62.5762" x="3096.83" y="1278.7">ğ</text><rect x="1205.5" y="1135.5" width="1035" height="205" stroke="#172C51" stroke-width="9.16667" stroke-miterlimit="8" fill="#70AD47"/><text font-family="DengXian,DengXian_MSFontService,sans-serif" font-weight="700" font-size="92" transform="matrix(1 0 0 1 1449.53 1269)">noise budget</text><rect x="2241.5" y="1135.5" width="382" height="205" stroke="#172C51" stroke-width="9.16667" stroke-miterlimit="8" fill="#ED7D31"/><path d="M2425.55 1227.57C2422.77 1227.57 2420.26 1228.94 2418.03 1231.7 2415.8 1234.45 2413.96 1238.47 2412.52 1243.74 2418.03 1243.59 2422.25 1242.53 2425.17 1240.57 2428.09 1238.61 2429.55 1235.83 2429.55 1232.24 2429.55 1230.71 2429.2 1229.55 2428.49 1228.76 2427.79 1227.96 2426.81 1227.57 2425.55 1227.57ZM2426.67 1222.89C2435.84 1222.89 2440.42 1226.2 2440.42 1232.82 2440.42 1235.1 2439.96 1237.1 2439.05 1238.84 2438.14 1240.58 2436.62 1242.15 2434.49 1243.56 2432.36 1244.97 2429.36 1246.1 2425.48 1246.97 2421.61 1247.84 2416.93 1248.34 2411.45 1248.46 2411.06 1250.22 2410.86 1252.05 2410.86 1253.94 2410.86 1256.72 2411.45 1258.82 2412.61 1260.22 2413.78 1261.63 2415.55 1262.34 2417.91 1262.34 2420.55 1262.34 2422.93 1261.8 2425.06 1260.74 2427.18 1259.68 2429.68 1257.78 2432.56 1255.06L2436.33 1258.83C2433.31 1262.25 2430.05 1264.78 2426.56 1266.42 2423.07 1268.07 2419.29 1268.89 2415.22 1268.89 2411.71 1268.89 2408.74 1268.28 2406.28 1267.05 2403.82 1265.82 2401.97 1264.01 2400.73 1261.59 2399.49 1259.18 2398.87 1256.3 2398.87 1252.95 2398.87 1251.39 2399.08 1249.4 2399.5 1246.97 2400.07 1243.68 2400.93 1240.74 2402.1 1238.17 2403.57 1234.99 2405.49 1232.27 2407.85 1229.99 2410.22 1227.72 2413 1225.96 2416.18 1224.74 2419.37 1223.51 2422.87 1222.89 2426.67 1222.89Z" fill-rule="evenodd"/><text fill="#000000" fill-opacity="0" font-family="Arial,Arial_MSFontService,sans-serif" font-size="46" x="2398.87" y="1263.14">ğ’†</text><path d="M3240.5 1345.5C3240.5 1373.39 3240.5 1396 3240.5 1396L2932 1396C2932 1396 2932 1418.61 2932 1446.5 2932 1418.61 2932 1396 2932 1396L2623.5 1396C2623.5 1396 2623.5 1373.39 2623.5 1345.5" stroke="#000000" stroke-width="3.4375" stroke-linejoin="round" stroke-miterlimit="10" stroke-dasharray="13.75 10.3125" fill="none" fill-rule="evenodd"/><path d="M2936.62 1454.79 2947.4 1454.79 2944.8 1466.02 2955.71 1466.02 2954.5 1471.64 2943.49 1471.64 2939.14 1489.6C2938.39 1492.69 2937.87 1495.03 2937.59 1496.63 2937.3 1498.24 2937.16 1499.59 2937.16 1500.7 2937.16 1502.11 2937.42 1503.13 2937.92 1503.78 2938.43 1504.42 2939.18 1504.74 2940.17 1504.74 2941.52 1504.74 2942.9 1504.26 2944.33 1503.31 2945.75 1502.35 2947.28 1500.86 2948.93 1498.86L2952.39 1502.41C2949.36 1505.73 2946.59 1508.04 2944.06 1509.35 2941.53 1510.65 2938.54 1511.3 2935.09 1511.3 2931.68 1511.3 2929.06 1510.43 2927.23 1508.67 2925.41 1506.92 2924.49 1504.5 2924.49 1501.42 2924.49 1500.01 2924.6 1498.67 2924.81 1497.4 2925.02 1496.13 2925.45 1494.04 2926.11 1491.13L2930.74 1471.64 2923.73 1471.64 2924.58 1468C2926.68 1468 2928.27 1467.8 2929.34 1467.41 2930.42 1467.02 2931.33 1466.44 2932.06 1465.66 2932.8 1464.88 2933.51 1463.7 2934.2 1462.11 2934.88 1460.53 2935.69 1458.08 2936.62 1454.79Z" fill-rule="evenodd"/><text fill="#000000" fill-opacity="0" font-family="Arial,Arial_MSFontService,sans-serif" font-size="56.5117" x="2923.73" y="1504.24">ğ’•</text><text font-family="DengXian,DengXian_MSFontService,sans-serif" font-weight="700" font-size="92" transform="matrix(1 0 0 1 732.275 1268)">BGV</text><rect x="2624.5" y="1135.5" width="411" height="205" stroke="#172C51" stroke-width="9.16667" stroke-miterlimit="8" fill="#70AD47"/><text font-family="DengXian,DengXian_MSFontService,sans-serif" font-weight="700" font-size="73" transform="matrix(1 0 0 1 2697.06 1217)">payload </text><text font-family="DengXian,DengXian_MSFontService,sans-serif" font-weight="700" font-size="73" transform="matrix(1 0 0 1 2709.09 1305)">budget</text><rect x="1813.5" y="685.5" width="1058" height="205" stroke="#172C51" stroke-width="9.16667" stroke-miterlimit="8" fill="#70AD47"/><text font-family="DengXian,DengXian_MSFontService,sans-serif" font-weight="700" font-size="92" transform="matrix(1 0 0 1 2069.34 818)">noise budget</text><rect x="2871.5" y="685.5" width="383" height="205" stroke="#172C51" stroke-width="9.16667" stroke-miterlimit="8" fill="#ED7D31"/><path d="M3056.36 777.613C3053.58 777.613 3051.07 778.99 3048.84 781.746 3046.6 784.501 3044.77 788.514 3043.33 793.785 3048.84 793.635 3053.06 792.579 3055.98 790.618 3058.9 788.656 3060.36 785.878 3060.36 782.285 3060.36 780.757 3060.01 779.597 3059.3 778.803 3058.6 778.01 3057.62 777.613 3056.36 777.613ZM3057.48 772.941C3066.65 772.941 3071.23 776.25 3071.23 782.869 3071.23 785.145 3070.77 787.151 3069.86 788.888 3068.95 790.625 3067.43 792.198 3065.3 793.605 3063.17 795.013 3060.17 796.151 3056.29 797.019 3052.41 797.888 3047.74 798.382 3042.25 798.502 3041.87 800.268 3041.67 802.095 3041.67 803.982 3041.67 806.767 3042.25 808.864 3043.42 810.271 3044.59 811.679 3046.36 812.382 3048.72 812.382 3051.36 812.382 3053.74 811.851 3055.87 810.788 3057.99 809.724 3060.49 807.83 3063.37 805.105L3067.14 808.878C3064.12 812.293 3060.86 814.823 3057.37 816.47 3053.88 818.117 3050.1 818.941 3046.03 818.941 3042.52 818.941 3039.54 818.327 3037.09 817.099 3034.63 815.871 3032.78 814.052 3031.54 811.641 3030.3 809.23 3029.68 806.348 3029.68 802.994 3029.68 801.436 3029.89 799.445 3030.31 797.019 3030.87 793.725 3031.74 790.79 3032.91 788.214 3034.38 785.04 3036.3 782.315 3038.66 780.039 3041.03 777.763 3043.8 776.011 3046.99 774.783 3050.18 773.555 3053.68 772.941 3057.48 772.941Z" fill-rule="evenodd"/><text fill="#000000" fill-opacity="0" font-family="Arial,Arial_MSFontService,sans-serif" font-size="46" x="3029.68" y="813.191">ğ’†</text><text font-family="DengXian,DengXian_MSFontService,sans-serif" font-weight="700" font-size="83" transform="matrix(1 0 0 1 1193.6 528)">MSB</text><text font-family="DengXian,DengXian_MSFontService,sans-serif" font-weight="700" font-size="83" transform="matrix(1 0 0 1 1560.1 528)">payload</text><text font-family="DengXian,DengXian_MSFontService,sans-serif" font-weight="700" font-size="83" transform="matrix(1 0 0 1 2960.07 528)">noise</text><path d="M1228.94 568.5 1228.94 662.151 1222.06 662.151 1222.06 568.5ZM1239.25 657.568 1225.5 685.068 1211.75 657.568Z"/><path d="M1714.94 568.5 1714.94 661.691 1708.06 661.692 1708.06 568.5ZM1725.25 657.108 1711.5 684.608 1697.75 657.108Z"/><path d="M3066.94 565.5 3066.94 659.151 3060.06 659.151 3060.06 565.5ZM3077.25 654.568 3063.5 682.068 3049.75 654.568Z"/><path d="M1813.5 889.5C1813.5 918.771 1809.55 942.5 1804.67 942.5L1514.33 942.5C1509.45 942.5 1505.5 966.229 1505.5 995.5 1505.5 966.229 1501.55 942.5 1496.67 942.5L1206.33 942.5C1201.45 942.5 1197.5 918.771 1197.5 889.499" stroke="#000000" stroke-width="3.4375" stroke-linejoin="round" stroke-miterlimit="10" stroke-dasharray="13.75 10.3125" fill="none" fill-rule="evenodd"/><path d="M1503.74 1016.69 1514.52 1016.69 1511.92 1027.92 1522.83 1027.92 1521.62 1033.53 1510.62 1033.53 1506.26 1051.5C1505.51 1054.59 1504.99 1056.93 1504.71 1058.53 1504.42 1060.14 1504.28 1061.49 1504.28 1062.6 1504.28 1064.01 1504.54 1065.03 1505.05 1065.68 1505.55 1066.32 1506.3 1066.64 1507.29 1066.64 1508.64 1066.64 1510.02 1066.16 1511.45 1065.2 1512.87 1064.25 1514.4 1062.76 1516.05 1060.76L1519.51 1064.31C1516.49 1067.63 1513.71 1069.94 1511.18 1071.25 1508.65 1072.55 1505.66 1073.2 1502.22 1073.2 1498.8 1073.2 1496.18 1072.32 1494.35 1070.57 1492.53 1068.82 1491.61 1066.4 1491.61 1063.32 1491.61 1061.91 1491.72 1060.57 1491.93 1059.3 1492.14 1058.02 1492.57 1055.94 1493.23 1053.03L1497.86 1033.53 1490.85 1033.53 1491.7 1029.9C1493.8 1029.9 1495.39 1029.7 1496.47 1029.31 1497.54 1028.92 1498.45 1028.34 1499.18 1027.56 1499.92 1026.78 1500.63 1025.6 1501.32 1024.01 1502.01 1022.42 1502.81 1019.98 1503.74 1016.69Z" fill-rule="evenodd"/><text fill="#000000" fill-opacity="0" font-family="Arial,Arial_MSFontService,sans-serif" font-size="56.5117" x="1490.85" y="1066.14">ğ’•</text><text font-family="DengXian,DengXian_MSFontService,sans-serif" font-weight="700" font-size="92" transform="matrix(1 0 0 1 746.518 805)">BFV</text><rect x="1608.5" y="684.5" width="205" height="205" stroke="#000000" stroke-width="9.16667" stroke-miterlimit="8" fill="#5B9BD5"/><path d="M1683.36 773.2 1696.16 773.2 1690.54 797.502C1690.06 799.569 1689.65 801.485 1689.31 803.252 1688.96 805.019 1688.79 806.487 1688.79 807.655 1688.79 808.972 1689.05 809.976 1689.56 810.664 1690.06 811.353 1690.92 811.698 1692.12 811.698 1693.7 811.698 1695.34 810.949 1697.04 809.452 1698.73 807.954 1700.19 806.225 1701.44 804.263 1702.68 802.301 1703.57 800.063 1704.11 797.547L1709.5 773.2 1722.48 773.2 1715.21 803.746C1714.76 805.633 1714.53 807.34 1714.53 808.868 1714.53 809.856 1714.7 810.62 1715.03 811.159 1715.36 811.698 1715.92 811.967 1716.73 811.967 1717.57 811.967 1718.5 811.593 1719.52 810.844 1720.54 810.095 1721.73 808.957 1723.11 807.43L1726.35 810.664C1723.56 813.45 1721.02 815.449 1718.71 816.661 1716.4 817.874 1714.05 818.481 1711.66 818.481 1709.05 818.481 1707 817.792 1705.5 816.414 1704.01 815.037 1703.26 813.195 1703.26 810.889 1703.26 809.931 1703.35 809.212 1703.53 808.733L1702.9 808.643C1700.32 811.787 1697.92 814.123 1695.69 815.651 1693.46 817.178 1691.26 817.942 1689.11 817.942 1686.83 817.942 1684.91 817.283 1683.36 815.965L1683 816.1C1682.67 819.514 1682.5 822.958 1682.5 826.432 1682.5 828.229 1682.55 829.831 1682.64 831.239L1681.74 835.776 1671.9 835.776 1669.61 832.721C1670.09 831.224 1670.73 828.918 1671.54 825.803 1672.35 822.689 1673.01 819.948 1673.52 817.582Z" fill-rule="evenodd"/><text fill="#000000" fill-opacity="0" font-family="Arial,Arial_MSFontService,sans-serif" font-size="62.5762" x="1669.61" y="827.954">ğ</text><rect x="1197.5" y="684.5" width="411" height="205" stroke="#172C51" stroke-width="9.16667" stroke-miterlimit="8" fill="#70AD47"/><text font-family="DengXian,DengXian_MSFontService,sans-serif" font-weight="700" font-size="73" transform="matrix(1 0 0 1 1269.84 766)">payload </text><text font-family="DengXian,DengXian_MSFontService,sans-serif" font-weight="700" font-size="73" transform="matrix(1 0 0 1 1281.87 854)">budget</text></g></svg>