<svg width="6520" height="1793" xmlns="http://www.w3.org/2000/svg" xmlns:xlink="http://www.w3.org/1999/xlink" xml:space="preserve" overflow="hidden"><g transform="translate(1021 -107)"><rect x="-399.5" y="355.5" width="1058" height="205" stroke="#172C51" stroke-width="9.16667" stroke-miterlimit="8" fill="#70AD47"/><rect x="658.5" y="355.5" width="383" height="205" stroke="#172C51" stroke-width="9.16667" stroke-miterlimit="8" fill="#ED7D31"/><path d="M821.035 448.18C818.25 448.18 815.742 449.558 813.511 452.313 811.28 455.068 809.445 459.081 808.008 464.352 813.518 464.202 817.733 463.147 820.653 461.185 823.573 459.223 825.033 456.446 825.033 452.852 825.033 451.325 824.681 450.164 823.978 449.371 823.274 448.577 822.293 448.18 821.035 448.18ZM822.158 443.508C831.322 443.508 835.904 446.818 835.904 453.436 835.904 455.712 835.448 457.719 834.534 459.456 833.621 461.193 832.101 462.765 829.975 464.172 827.848 465.58 824.846 466.718 820.968 467.586 817.09 468.455 812.41 468.949 806.93 469.069 806.54 470.836 806.346 472.663 806.346 474.549 806.346 477.334 806.93 479.431 808.098 480.838 809.266 482.246 811.033 482.95 813.398 482.95 816.034 482.95 818.415 482.418 820.541 481.355 822.667 480.292 825.168 478.398 828.043 475.672L831.816 479.446C828.792 482.86 825.535 485.39 822.046 487.038 818.557 488.685 814.776 489.508 810.703 489.508 807.199 489.508 804.219 488.894 801.764 487.667 799.308 486.439 797.459 484.619 796.216 482.208 794.973 479.798 794.352 476.915 794.352 473.561 794.352 472.004 794.561 470.012 794.981 467.586 795.55 464.292 796.418 461.357 797.586 458.782 799.053 455.607 800.97 452.882 803.336 450.606 805.702 448.33 808.48 446.578 811.669 445.35 814.858 444.122 818.355 443.508 822.158 443.508Z" fill-rule="evenodd"/><text fill="#000000" fill-opacity="0" font-family="Arial,Arial_MSFontService,sans-serif" font-size="46" x="794.352" y="483.758">𝒆</text><path d="M862.494 462.31 866.681 462.31C866.551 464.404 866.485 467.305 866.485 471.013L866.485 498.362C866.485 499.627 866.556 500.581 866.698 501.225 866.84 501.868 867.09 502.392 867.45 502.795 867.81 503.198 868.328 503.515 869.004 503.744 869.68 503.973 870.531 504.147 871.556 504.267 872.581 504.387 873.933 504.469 875.613 504.513L875.613 507.49 847.38 507.49 847.38 504.513C849.801 504.403 851.529 504.256 852.565 504.071 853.601 503.885 854.392 503.607 854.937 503.237 855.482 502.866 855.88 502.342 856.131 501.666 856.382 500.99 856.507 499.889 856.507 498.362L856.507 474.709C856.507 473.815 856.338 473.172 856 472.779 855.662 472.387 855.198 472.19 854.61 472.19 854.064 472.19 853.296 472.441 852.303 472.943 851.311 473.444 849.681 474.469 847.412 476.018L845.417 472.55Z" fill-rule="evenodd"/><text fill="#000000" fill-opacity="0" font-family="Arial,Arial_MSFontService,sans-serif" font-size="45.1792" x="845.417" y="501.842">𝟏</text><text font-family="DengXian,DengXian_MSFontService,sans-serif" font-weight="700" font-size="92" transform="matrix(1 0 0 1 -51.3517 229)">BFV</text><rect x="-604.5" y="355.5" width="205" height="205" stroke="#000000" stroke-width="9.16667" stroke-miterlimit="8" fill="#5B9BD5"/><path d="M-551.969 443.767-539.166 443.767-544.781 468.07C-545.26 470.136-545.672 472.053-546.017 473.82-546.361 475.587-546.533 477.054-546.533 478.222-546.533 479.54-546.279 480.543-545.769 481.232-545.26 481.921-544.407 482.265-543.209 482.265-541.622 482.265-539.982 481.516-538.29 480.019-536.598 478.521-535.13 476.792-533.888 474.83-532.645 472.869-531.754 470.63-531.215 468.115L-525.824 443.767-512.842 443.767-520.119 474.314C-520.568 476.201-520.793 477.908-520.793 479.435-520.793 480.423-520.628 481.187-520.299 481.726-519.969 482.265-519.4 482.534-518.592 482.534-517.753 482.534-516.825 482.16-515.807 481.411-514.788 480.663-513.59 479.525-512.213 477.997L-508.978 481.232C-511.764 484.017-514.309 486.016-516.615 487.229-518.921 488.442-521.272 489.048-523.668 489.048-526.273 489.048-528.325 488.359-529.822 486.982-531.32 485.604-532.068 483.762-532.068 481.456-532.068 480.498-531.978 479.779-531.799 479.3L-532.428 479.21C-535.003 482.355-537.406 484.691-539.638 486.218-541.869 487.745-544.062 488.509-546.219 488.509-548.495 488.509-550.411 487.85-551.969 486.533L-552.328 486.667C-552.657 490.081-552.822 493.525-552.822 496.999-552.822 498.796-552.777 500.398-552.687 501.806L-553.586 506.343-563.424 506.343-565.715 503.288C-565.236 501.791-564.592 499.485-563.783 496.37-562.975 493.256-562.316 490.516-561.807 488.15Z" fill-rule="evenodd"/><text fill="#000000" fill-opacity="0" font-family="Arial,Arial_MSFontService,sans-serif" font-size="62.5762" x="-565.715" y="498.521">𝝁</text><path d="M-485.509 461.85-481.321 461.85C-481.452 463.944-481.518 466.845-481.518 470.552L-481.518 497.902C-481.518 499.167-481.447 500.121-481.305 500.765-481.163 501.408-480.912 501.931-480.552 502.335-480.193 502.738-479.675 503.055-478.999 503.284-478.322 503.513-477.472 503.687-476.447 503.807-475.422 503.927-474.069 504.009-472.39 504.052L-472.39 507.029-500.623 507.029-500.623 504.052C-498.202 503.943-496.474 503.796-495.438 503.611-494.402 503.425-493.611 503.147-493.066 502.776-492.521 502.406-492.123 501.882-491.872 501.206-491.621 500.53-491.496 499.429-491.496 497.902L-491.496 474.249C-491.496 473.355-491.665 472.712-492.003 472.319-492.341 471.926-492.804 471.73-493.393 471.73-493.938 471.73-494.707 471.981-495.699 472.483-496.692 472.984-498.322 474.009-500.59 475.558L-502.586 472.09Z" fill-rule="evenodd"/><text fill="#000000" fill-opacity="0" font-family="Arial,Arial_MSFontService,sans-serif" font-size="45.1792" x="-502.586" y="501.382">𝟏</text><rect x="-1016.5" y="354.5" width="411" height="206" stroke="#172C51" stroke-width="9.16667" stroke-miterlimit="8" fill="#70AD47"/><rect x="-399.5" y="768.5" width="1058" height="205" stroke="#172C51" stroke-width="9.16667" stroke-miterlimit="8" fill="#70AD47"/><rect x="658.5" y="768.5" width="383" height="205" stroke="#172C51" stroke-width="9.16667" stroke-miterlimit="8" fill="#ED7D31"/><path d="M821.035 860.68C818.25 860.68 815.742 862.058 813.511 864.813 811.28 867.568 809.445 871.581 808.008 876.852 813.518 876.702 817.733 875.647 820.653 873.685 823.573 871.723 825.033 868.946 825.033 865.352 825.033 863.825 824.681 862.664 823.978 861.871 823.274 861.077 822.293 860.68 821.035 860.68ZM822.158 856.008C831.322 856.008 835.904 859.318 835.904 865.936 835.904 868.212 835.448 870.219 834.534 871.956 833.621 873.693 832.101 875.265 829.975 876.672 827.848 878.08 824.846 879.218 820.968 880.086 817.09 880.955 812.41 881.449 806.93 881.569 806.54 883.336 806.346 885.163 806.346 887.049 806.346 889.834 806.93 891.931 808.098 893.338 809.266 894.746 811.033 895.45 813.398 895.45 816.034 895.45 818.415 894.918 820.541 893.855 822.667 892.792 825.168 890.898 828.043 888.172L831.816 891.946C828.792 895.36 825.535 897.89 822.046 899.538 818.557 901.185 814.776 902.008 810.703 902.008 807.199 902.008 804.219 901.394 801.764 900.167 799.308 898.939 797.459 897.119 796.216 894.708 794.973 892.298 794.352 889.415 794.352 886.061 794.352 884.504 794.561 882.512 794.981 880.086 795.55 876.792 796.418 873.857 797.586 871.282 799.053 868.107 800.97 865.382 803.336 863.106 805.702 860.83 808.48 859.078 811.669 857.85 814.858 856.622 818.355 856.008 822.158 856.008Z" fill-rule="evenodd"/><text fill="#000000" fill-opacity="0" font-family="Arial,Arial_MSFontService,sans-serif" font-size="46" x="794.352" y="896.258">𝒆</text><path d="M859.942 874.81C863.148 874.81 865.765 875.241 867.794 876.103 869.822 876.964 871.289 878.131 872.194 879.603 873.099 881.075 873.552 882.793 873.552 884.756 873.552 886.479 873.23 888.082 872.586 889.565 871.943 891.048 870.831 892.738 869.25 894.636 867.668 896.533 865.002 899.248 861.251 902.782 860.095 903.872 858.715 905.306 857.112 907.084 855.509 908.861 854.239 910.382 853.301 911.647L853.301 911.974 864.915 911.974C866.332 911.974 867.39 911.871 868.088 911.664 868.786 911.456 869.337 911.097 869.74 910.584 870.144 910.072 870.476 909.303 870.738 908.278L874.5 908.278 873.748 919.99 843.781 919.99 843.781 917.83C845.46 913.97 848.895 908.997 854.086 902.912 856.442 900.143 858.236 897.863 859.468 896.075 860.7 894.287 861.622 892.596 862.232 891.004 862.843 889.412 863.148 887.765 863.148 886.064 863.148 883.665 862.614 881.784 861.545 880.421 860.477 879.058 859.015 878.376 857.161 878.376 853.606 878.376 851.327 880.939 850.324 886.064L844.435 886.064 844.435 878.344C847.99 876.904 850.858 875.955 853.039 875.497 855.22 875.039 857.521 874.81 859.942 874.81Z" fill-rule="evenodd"/><text fill="#000000" fill-opacity="0" font-family="Arial,Arial_MSFontService,sans-serif" font-size="45.1792" x="843.781" y="914.342">𝟐</text><rect x="-604.5" y="767.5" width="205" height="205" stroke="#000000" stroke-width="9.16667" stroke-miterlimit="8" fill="#5B9BD5"/><path d="M-551.969 856.267-539.166 856.267-544.781 880.57C-545.26 882.636-545.672 884.553-546.017 886.32-546.361 888.087-546.533 889.554-546.533 890.722-546.533 892.04-546.279 893.043-545.769 893.732-545.26 894.421-544.407 894.765-543.209 894.765-541.622 894.765-539.982 894.016-538.29 892.519-536.598 891.021-535.13 889.292-533.888 887.33-532.645 885.369-531.754 883.13-531.215 880.615L-525.824 856.267-512.842 856.267-520.119 886.814C-520.568 888.701-520.793 890.408-520.793 891.935-520.793 892.923-520.628 893.687-520.299 894.226-519.969 894.765-519.4 895.034-518.592 895.034-517.753 895.034-516.825 894.66-515.807 893.911-514.788 893.163-513.59 892.025-512.213 890.497L-508.978 893.732C-511.764 896.517-514.309 898.516-516.615 899.729-518.921 900.942-521.272 901.548-523.668 901.548-526.273 901.548-528.325 900.859-529.822 899.482-531.32 898.104-532.068 896.262-532.068 893.956-532.068 892.998-531.978 892.279-531.799 891.8L-532.428 891.71C-535.003 894.855-537.406 897.191-539.638 898.718-541.869 900.245-544.062 901.009-546.219 901.009-548.495 901.009-550.411 900.35-551.969 899.033L-552.328 899.167C-552.657 902.581-552.822 906.025-552.822 909.499-552.822 911.296-552.777 912.898-552.687 914.306L-553.586 918.843-563.424 918.843-565.715 915.788C-565.236 914.291-564.592 911.985-563.783 908.87-562.975 905.756-562.316 903.016-561.807 900.65Z" fill-rule="evenodd"/><text fill="#000000" fill-opacity="0" font-family="Arial,Arial_MSFontService,sans-serif" font-size="62.5762" x="-565.715" y="911.021">𝝁</text><path d="M-488.061 874.35C-484.854 874.35-482.237 874.781-480.209 875.642-478.181 876.504-476.714 877.671-475.809 879.143-474.904 880.615-474.451 882.333-474.451 884.296-474.451 886.018-474.773 887.622-475.416 889.105-476.06 890.588-477.172 892.278-478.753 894.175-480.334 896.073-483.001 898.788-486.752 902.321-487.908 903.412-489.287 904.846-490.89 906.623-492.493 908.401-493.764 909.922-494.702 911.187L-494.702 911.514-483.088 911.514C-481.67 911.514-480.612 911.411-479.915 911.203-479.217 910.996-478.666 910.636-478.262 910.124-477.859 909.611-477.526 908.843-477.265 907.818L-473.502 907.818-474.255 919.529-504.222 919.529-504.222 917.37C-502.542 913.51-499.107 908.537-493.916 902.452-491.561 899.682-489.767 897.403-488.535 895.615-487.303 893.826-486.381 892.136-485.77 890.544-485.16 888.952-484.854 887.305-484.854 885.604-484.854 883.205-485.389 881.324-486.457 879.961-487.526 878.598-488.987 877.916-490.841 877.916-494.396 877.916-496.675 880.479-497.679 885.604L-503.567 885.604-503.567 877.883C-500.012 876.444-497.144 875.495-494.963 875.037-492.782 874.579-490.481 874.35-488.061 874.35Z" fill-rule="evenodd"/><text fill="#000000" fill-opacity="0" font-family="Arial,Arial_MSFontService,sans-serif" font-size="45.1792" x="-504.222" y="913.882">𝟐</text><rect x="-1016.5" y="767.5" width="411" height="205" stroke="#172C51" stroke-width="9.16667" stroke-miterlimit="8" fill="#70AD47"/><path d="M-100.5 665.5C-100.5 634.572-75.4279 609.5-44.5 609.5-13.5722 609.5 11.4998 634.572 11.4998 665.5 11.4998 696.428-13.5722 721.5-44.5 721.5-75.4279 721.5-100.5 696.428-100.5 665.5Z" fill="#FFFFFF" fill-rule="evenodd"/><path d="M-84.0979 625.902-4.90217 705.098M-4.90217 625.902-84.0979 705.098" stroke="#000000" stroke-width="4.58333" stroke-miterlimit="8" fill="none" fill-rule="evenodd"/><path d="M-100.5 665.5C-100.5 634.572-75.4279 609.5-44.5 609.5-13.5722 609.5 11.4998 634.572 11.4998 665.5 11.4998 696.428-13.5722 721.5-44.5 721.5-75.4279 721.5-100.5 696.428-100.5 665.5Z" stroke="#000000" stroke-width="4.58333" stroke-miterlimit="8" fill="none" fill-rule="evenodd"/><path d="M-21.0624 1028.5-21.0621 1127.5-27.9371 1127.5-27.9374 1028.5ZM-10.7496 1122.92-24.4995 1150.42-38.2496 1122.92Z"/><rect x="-399.5" y="1220.5" width="722" height="205" stroke="#172C51" stroke-width="9.16667" stroke-miterlimit="8" fill="#70AD47"/><rect x="322.5" y="1220.5" width="719" height="205" stroke="#172C51" stroke-width="9.16667" stroke-miterlimit="8" fill="#ED7D31"/><path d="M649.971 1312.98C647.186 1312.98 644.678 1314.36 642.447 1317.12 640.216 1319.87 638.381 1323.89 636.944 1329.16 642.454 1329.01 646.669 1327.95 649.589 1325.99 652.509 1324.03 653.969 1321.25 653.969 1317.66 653.969 1316.13 653.617 1314.97 652.914 1314.18 652.21 1313.38 651.229 1312.98 649.971 1312.98ZM651.094 1308.31C660.258 1308.31 664.84 1311.62 664.84 1318.24 664.84 1320.52 664.384 1322.52 663.47 1324.26 662.557 1326 661.037 1327.57 658.911 1328.98 656.784 1330.38 653.782 1331.52 649.904 1332.39 646.026 1333.26 641.346 1333.75 635.866 1333.87 635.476 1335.64 635.282 1337.47 635.282 1339.35 635.282 1342.14 635.866 1344.24 637.034 1345.64 638.202 1347.05 639.969 1347.75 642.334 1347.75 644.97 1347.75 647.351 1347.22 649.477 1346.16 651.603 1345.1 654.104 1343.2 656.979 1340.48L660.752 1344.25C657.728 1347.66 654.471 1350.2 650.982 1351.84 647.493 1353.49 643.712 1354.31 639.639 1354.31 636.135 1354.31 633.155 1353.7 630.7 1352.47 628.244 1351.24 626.395 1349.42 625.152 1347.01 623.909 1344.6 623.288 1341.72 623.288 1338.37 623.288 1336.81 623.497 1334.82 623.917 1332.39 624.486 1329.1 625.354 1326.16 626.522 1323.59 627.989 1320.41 629.906 1317.69 632.272 1315.41 634.638 1313.13 637.416 1311.38 640.605 1310.15 643.794 1308.93 647.291 1308.31 651.094 1308.31Z" fill-rule="evenodd"/><text fill="#000000" fill-opacity="0" font-family="Arial,Arial_MSFontService,sans-serif" font-size="46" x="623.288" y="1348.56">𝒆</text><path d="M678.049 1327.64 694.701 1327.64 694.211 1329.8C693.273 1329.88 692.591 1330.17 692.166 1330.66 691.741 1331.16 691.528 1331.79 691.528 1332.58 691.528 1333.23 691.648 1334.01 691.888 1334.92 692.128 1335.82 692.498 1336.91 693 1338.17L695.061 1343.6 699.445 1338.17C700.841 1336.43 701.811 1335.11 702.357 1334.23 702.902 1333.35 703.174 1332.61 703.174 1332.02 703.174 1331.28 702.989 1330.75 702.618 1330.44 702.247 1330.12 701.637 1329.91 700.786 1329.8L701.277 1327.64 714.886 1327.64 714.396 1329.83C713.872 1329.92 713.349 1330.12 712.825 1330.45 712.302 1330.78 711.588 1331.39 710.682 1332.28 709.777 1333.18 708.278 1334.85 706.184 1337.29L696.795 1348.18 702.586 1363.26C703.458 1365.55 704.238 1367.21 704.925 1368.22 705.612 1369.24 706.522 1369.87 707.656 1370.14L707.198 1372.29 690.514 1372.29 690.972 1370.14C692.695 1369.96 693.556 1369.18 693.556 1367.78 693.556 1366.99 693.458 1366.2 693.262 1365.39 693.066 1364.58 692.782 1363.69 692.411 1362.71L689.5 1355.02 682.728 1363.1C681.724 1364.3 681.016 1365.25 680.601 1365.95 680.187 1366.65 679.98 1367.33 679.98 1368.01 679.98 1369.32 680.787 1370.03 682.401 1370.14L681.943 1372.29 668.3 1372.29 668.758 1370.14C669.653 1369.9 670.541 1369.39 671.425 1368.63 672.308 1367.87 673.982 1366.08 676.446 1363.26L687.733 1350.51 682.728 1337.29C682.379 1336.4 681.959 1335.38 681.468 1334.25 680.977 1333.11 680.53 1332.25 680.127 1331.65 679.723 1331.05 679.331 1330.62 678.949 1330.35 678.567 1330.09 678.104 1329.91 677.559 1329.8Z" fill-rule="evenodd"/><text fill="#000000" fill-opacity="0" font-family="Arial,Arial_MSFontService,sans-serif" font-size="44.6558" x="668.3" y="1366.71">𝑿</text><rect x="-782.5" y="1220.5" width="383" height="205" stroke="#000000" stroke-width="9.16667" stroke-miterlimit="8" fill="#5B9BD5"/><path d="M-692.008 1308.57-679.205 1308.57-684.82 1332.87C-685.3 1334.94-685.711 1336.86-686.056 1338.62-686.4 1340.39-686.572 1341.86-686.572 1343.03-686.572 1344.34-686.318 1345.35-685.809 1346.04-685.3 1346.73-684.446 1347.07-683.248 1347.07-681.661 1347.07-680.021 1346.32-678.329 1344.82-676.637 1343.33-675.17 1341.6-673.927 1339.64-672.684 1337.67-671.793 1335.43-671.254 1332.92L-665.863 1308.57-652.881 1308.57-660.158 1339.12C-660.608 1341.01-660.832 1342.71-660.832 1344.24-660.832 1345.23-660.667 1345.99-660.338 1346.53-660.009 1347.07-659.44 1347.34-658.631 1347.34-657.792 1347.34-656.864 1346.96-655.846 1346.22-654.828 1345.47-653.63 1344.33-652.252 1342.8L-649.018 1346.04C-651.803 1348.82-654.348 1350.82-656.654 1352.03-658.96 1353.25-661.311 1353.85-663.707 1353.85-666.313 1353.85-668.364 1353.16-669.861 1351.79-671.359 1350.41-672.108 1348.57-672.108 1346.26-672.108 1345.3-672.018 1344.58-671.838 1344.1L-672.467 1344.01C-675.042 1347.16-677.446 1349.5-679.677 1351.02-681.908 1352.55-684.102 1353.31-686.258 1353.31-688.534 1353.31-690.451 1352.65-692.008 1351.34L-692.367 1351.47C-692.697 1354.89-692.861 1358.33-692.861 1361.8-692.861 1363.6-692.817 1365.2-692.727 1366.61L-693.625 1371.15-703.463 1371.15-705.754 1368.09C-705.275 1366.6-704.631 1364.29-703.822 1361.18-703.014 1358.06-702.355 1355.32-701.846 1352.95Z" fill-rule="evenodd"/><text fill="#000000" fill-opacity="0" font-family="Arial,Arial_MSFontService,sans-serif" font-size="62.5762" x="-705.754" y="1363.33">𝝁</text><path d="M-625.548 1326.65-621.36 1326.65C-621.491 1328.75-621.557 1331.65-621.557 1335.36L-621.557 1362.71C-621.557 1363.97-621.486 1364.93-621.344 1365.57-621.202 1366.21-620.952 1366.74-620.592 1367.14-620.232 1367.54-619.714 1367.86-619.038 1368.09-618.362 1368.32-617.511 1368.49-616.486 1368.61-615.461 1368.73-614.109 1368.81-612.429 1368.86L-612.429 1371.83-640.662 1371.83-640.662 1368.86C-638.241 1368.75-636.513 1368.6-635.477 1368.42-634.441 1368.23-633.65 1367.95-633.105 1367.58-632.56 1367.21-632.162 1366.69-631.911 1366.01-631.66 1365.33-631.535 1364.23-631.535 1362.71L-631.535 1339.05C-631.535 1338.16-631.704 1337.52-632.042 1337.12-632.38 1336.73-632.843 1336.53-633.432 1336.53-633.977 1336.53-634.746 1336.79-635.739 1337.29-636.731 1337.79-638.361 1338.81-640.63 1340.36L-642.625 1336.89Z" fill-rule="evenodd"/><text fill="#000000" fill-opacity="0" font-family="Arial,Arial_MSFontService,sans-serif" font-size="45.1792" x="-642.625" y="1366.19">𝟏</text><path d="M-589.662 1308.57-576.859 1308.57-582.475 1332.87C-582.954 1334.94-583.366 1336.86-583.71 1338.62-584.054 1340.39-584.227 1341.86-584.227 1343.03-584.227 1344.34-583.972 1345.35-583.463 1346.04-582.954 1346.73-582.1 1347.07-580.902 1347.07-579.315 1347.07-577.675 1346.32-575.983 1344.82-574.291 1343.33-572.824 1341.6-571.581 1339.64-570.338 1337.67-569.447 1335.43-568.908 1332.92L-563.518 1308.57-550.535 1308.57-557.812 1339.12C-558.262 1341.01-558.486 1342.71-558.486 1344.24-558.486 1345.23-558.322 1345.99-557.992 1346.53-557.663 1347.07-557.094 1347.34-556.285 1347.34-555.447 1347.34-554.518 1346.96-553.5 1346.22-552.482 1345.47-551.284 1344.33-549.906 1342.8L-546.672 1346.04C-549.457 1348.82-552.003 1350.82-554.309 1352.03-556.615 1353.25-558.966 1353.85-561.361 1353.85-563.967 1353.85-566.018 1353.16-567.516 1351.79-569.013 1350.41-569.762 1348.57-569.762 1346.26-569.762 1345.3-569.672 1344.58-569.492 1344.1L-570.121 1344.01C-572.697 1347.16-575.1 1349.5-577.331 1351.02-579.562 1352.55-581.756 1353.31-583.912 1353.31-586.188 1353.31-588.105 1352.65-589.662 1351.34L-590.021 1351.47C-590.351 1354.89-590.516 1358.33-590.516 1361.8-590.516 1363.6-590.471 1365.2-590.381 1366.61L-591.279 1371.15-601.117 1371.15-603.408 1368.09C-602.929 1366.6-602.285 1364.29-601.477 1361.18-600.668 1358.06-600.009 1355.32-599.5 1352.95Z" fill-rule="evenodd"/><text fill="#000000" fill-opacity="0" font-family="Arial,Arial_MSFontService,sans-serif" font-size="62.5762" x="-603.408" y="1363.33">𝝁</text><path d="M-525.754 1326.65C-522.548 1326.65-519.931 1327.09-517.902 1327.95-515.874 1328.81-514.407 1329.98-513.502 1331.45-512.597 1332.92-512.145 1334.64-512.145 1336.6-512.145 1338.32-512.466 1339.93-513.11 1341.41-513.753 1342.89-514.865 1344.58-516.447 1346.48-518.028 1348.38-520.694 1351.09-524.445 1354.63-525.601 1355.72-526.981 1357.15-528.584 1358.93-530.187 1360.71-531.457 1362.23-532.395 1363.49L-532.395 1363.82-520.781 1363.82C-519.364 1363.82-518.306 1363.72-517.608 1363.51-516.91 1363.3-516.359 1362.94-515.956 1362.43-515.552 1361.92-515.22 1361.15-514.958 1360.12L-511.196 1360.12-511.948 1371.83-541.915 1371.83-541.915 1369.67C-540.236 1365.81-536.801 1360.84-531.61 1354.76-529.254 1351.99-527.461 1349.71-526.228 1347.92-524.996 1346.13-524.075 1344.44-523.464 1342.85-522.853 1341.26-522.548 1339.61-522.548 1337.91-522.548 1335.51-523.082 1333.63-524.151 1332.27-525.22 1330.9-526.681 1330.22-528.535 1330.22-532.09 1330.22-534.369 1332.78-535.372 1337.91L-541.261 1337.91-541.261 1330.19C-537.706 1328.75-534.838 1327.8-532.657 1327.34-530.476 1326.88-528.175 1326.65-525.754 1326.65Z" fill-rule="evenodd"/><text fill="#000000" fill-opacity="0" font-family="Arial,Arial_MSFontService,sans-serif" font-size="45.1792" x="-541.915" y="1366.19">𝟐</text><rect x="-1016.5" y="1219.5" width="234" height="205" stroke="#172C51" stroke-width="9.16667" stroke-miterlimit="8" fill="#70AD47"/><path d="M1041.5 1618.5C1041.5 1647.77 1037.54 1671.5 1032.67 1671.5L21.3339 1671.5C16.4551 1671.5 12.5001 1695.23 12.5001 1724.5 12.5001 1695.23 8.5451 1671.5 3.66626 1671.5L-1007.67 1671.5C-1012.54 1671.5-1016.5 1647.77-1016.5 1618.5" stroke="#000000" stroke-width="3.4375" stroke-linejoin="round" stroke-miterlimit="10" stroke-dasharray="13.75 10.3125" fill="none" fill-rule="evenodd"/><path d="M26.6028 1774.76C23.7877 1774.76 21.317 1776.13 19.1907 1778.89 17.0644 1781.65 15.3349 1785.4 14.0023 1790.14 12.6696 1794.89 12.0032 1799.16 12.0032 1802.97 12.0032 1805.15 12.3252 1806.79 12.9691 1807.86 13.6129 1808.94 14.6087 1809.48 15.9564 1809.48 17.9329 1809.48 19.9469 1808.52 21.9983 1806.58 24.0498 1804.65 25.7044 1802.38 26.9622 1799.78 28.22 1797.17 29.3431 1793.61 30.3314 1789.09L30.6907 1787.43C31.1699 1785.21 31.4095 1783.02 31.4095 1780.87 31.4095 1778.83 31.0351 1777.3 30.2864 1776.28 29.5377 1775.27 28.3099 1774.76 26.6028 1774.76ZM26.0638 1770.09C30.526 1770.09 34.3294 1771.16 37.4739 1773.32L41.5169 1770.09 46.5481 1770.8 35.138 1822.73C34.8086 1824.2 34.5989 1825.29 34.5091 1826.01 34.4192 1826.73 34.3743 1827.35 34.3743 1827.85 34.3743 1829.17 34.7037 1830.1 35.3626 1830.64 36.0215 1831.18 37.1894 1831.55 38.8665 1831.76L38.3724 1834.73 19.7298 1834.73 27.0521 1807.1 26.4681 1806.92C24.0123 1810.04 21.5791 1812.35 19.1683 1813.86 16.7575 1815.37 13.875 1816.13 10.5208 1816.13 7.10675 1816.13 4.46384 1814.9 2.5921 1812.42 0.720356 1809.95-0.215517 1806.4-0.215517 1801.76-0.215517 1797.71 0.368467 1793.7 1.53644 1789.72 2.7044 1785.73 4.38149 1782.3 6.56768 1779.41 8.75388 1776.52 11.5016 1774.24 14.8108 1772.58 18.1201 1770.92 21.8711 1770.09 26.0638 1770.09Z" fill-rule="evenodd"/><text fill="#000000" fill-opacity="0" font-family="Arial,Arial_MSFontService,sans-serif" font-size="64.6426" x="-0.215517" y="1826.65">𝒒</text><path d="M-399.5 1466.5C-399.5 1495.77-403.455 1519.5-408.333 1519.5L-699.167 1519.5C-704.045 1519.5-708 1543.23-708 1572.5-708 1543.23-711.955 1519.5-716.833 1519.5L-1007.67 1519.5C-1012.55 1519.5-1016.5 1495.77-1016.5 1466.5" stroke="#000000" stroke-width="3.4375" stroke-linejoin="round" stroke-miterlimit="10" stroke-dasharray="13.75 10.3125" fill="none" fill-rule="evenodd"/><path d="M-709.628 1593.28-698.847 1593.28-701.453 1604.51-690.537 1604.51-691.749 1610.13-702.755 1610.13-707.113 1628.1C-707.861 1631.18-708.378 1633.53-708.663 1635.13-708.947 1636.73-709.089 1638.09-709.089 1639.19-709.089 1640.6-708.835 1641.63-708.326 1642.27-707.817 1642.92-707.068 1643.24-706.08 1643.24-704.732 1643.24-703.347 1642.76-701.924 1641.8-700.502 1640.84-698.967 1639.36-697.32 1637.35L-693.861 1640.9C-696.885 1644.23-699.663 1646.54-702.194 1647.84-704.724 1649.14-707.712 1649.8-711.156 1649.8-714.57 1649.8-717.19 1648.92-719.017 1647.17-720.844 1645.42-721.757 1643-721.757 1639.91-721.757 1638.51-721.652 1637.17-721.443 1635.89-721.233 1634.62-720.799 1632.53-720.14 1629.63L-715.513 1610.13-722.521 1610.13-721.667 1606.49C-719.571 1606.49-717.984 1606.3-716.906 1605.91-715.828 1605.52-714.922 1604.93-714.188 1604.16-713.454 1603.38-712.743 1602.19-712.054 1600.61-711.365 1599.02-710.557 1596.58-709.628 1593.28Z" fill-rule="evenodd"/><text fill="#000000" fill-opacity="0" font-family="Arial,Arial_MSFontService,sans-serif" font-size="56.5117" x="-722.521" y="1642.73">𝒕</text><text font-family="DengXian,DengXian_MSFontService,sans-serif" font-weight="700" font-size="92" transform="matrix(1 0 0 1 2112.88 221)">B</text><text font-family="DengXian,DengXian_MSFontService,sans-serif" font-weight="700" font-size="92" transform="matrix(1 0 0 1 2168.46 221)">G</text><text font-family="DengXian,DengXian_MSFontService,sans-serif" font-weight="700" font-size="92" transform="matrix(1 0 0 1 2232.62 221)">V</text><path d="M2125.5 708C2125.5 676.796 2150.8 651.5 2182 651.5 2213.2 651.5 2238.5 676.796 2238.5 708 2238.5 739.204 2213.2 764.5 2182 764.5 2150.8 764.5 2125.5 739.204 2125.5 708Z" fill="#FFFFFF" fill-rule="evenodd"/><path d="M2142.05 668.048 2221.95 747.951M2221.95 668.048 2142.05 747.951" stroke="#000000" stroke-width="4.58333" stroke-miterlimit="8" fill="none" fill-rule="evenodd"/><path d="M2125.5 708C2125.5 676.796 2150.8 651.5 2182 651.5 2213.2 651.5 2238.5 676.796 2238.5 708 2238.5 739.204 2213.2 764.5 2182 764.5 2150.8 764.5 2125.5 739.204 2125.5 708Z" stroke="#000000" stroke-width="4.58333" stroke-miterlimit="8" fill="none" fill-rule="evenodd"/><path d="M2205.94 1071.5 2205.94 1170.5 2199.06 1170.5 2199.06 1071.5ZM2216.25 1165.92 2202.5 1193.42 2188.75 1165.92Z"/><path d="M3268.5 1661.5C3268.5 1690.77 3264.54 1714.5 3259.67 1714.5L2248.33 1714.5C2243.46 1714.5 2239.5 1738.23 2239.5 1767.5 2239.5 1738.23 2235.54 1714.5 2230.67 1714.5L1219.33 1714.5C1214.45 1714.5 1210.5 1690.77 1210.5 1661.5" stroke="#000000" stroke-width="3.4375" stroke-linejoin="round" stroke-miterlimit="10" stroke-dasharray="13.75 10.3125" fill="none" fill-rule="evenodd"/><path d="M2253.5 1817.6C2250.69 1817.6 2248.22 1818.98 2246.09 1821.74 2243.96 1824.49 2242.24 1828.24 2240.9 1832.99 2239.57 1837.74 2238.9 1842.01 2238.9 1845.82 2238.9 1848 2239.23 1849.63 2239.87 1850.71 2240.51 1851.79 2241.51 1852.33 2242.86 1852.33 2244.83 1852.33 2246.85 1851.36 2248.9 1849.43 2250.95 1847.5 2252.6 1845.23 2253.86 1842.63 2255.12 1840.02 2256.24 1836.46 2257.23 1831.94L2257.59 1830.27C2258.07 1828.06 2258.31 1825.87 2258.31 1823.71 2258.31 1821.68 2257.94 1820.15 2257.19 1819.13 2256.44 1818.11 2255.21 1817.6 2253.5 1817.6ZM2252.96 1812.93C2257.43 1812.93 2261.23 1814.01 2264.37 1816.17L2268.42 1812.93 2273.45 1813.65 2262.04 1865.58C2261.71 1867.05 2261.5 1868.14 2261.41 1868.86 2261.32 1869.58 2261.27 1870.19 2261.27 1870.7 2261.27 1872.02 2261.6 1872.95 2262.26 1873.49 2262.92 1874.03 2264.09 1874.4 2265.77 1874.61L2265.27 1877.58 2246.63 1877.58 2253.95 1849.95 2253.37 1849.77C2250.91 1852.88 2248.48 1855.2 2246.07 1856.71 2243.66 1858.22 2240.78 1858.98 2237.42 1858.98 2234.01 1858.98 2231.36 1857.74 2229.49 1855.27 2227.62 1852.8 2226.68 1849.24 2226.68 1844.6 2226.68 1840.56 2227.27 1836.55 2228.44 1832.56 2229.6 1828.58 2231.28 1825.14 2233.47 1822.25 2235.65 1819.36 2238.4 1817.09 2241.71 1815.43 2245.02 1813.76 2248.77 1812.93 2252.96 1812.93Z" fill-rule="evenodd"/><text fill="#000000" fill-opacity="0" font-family="Arial,Arial_MSFontService,sans-serif" font-size="64.6426" x="2226.68" y="1869.5">𝒒</text><rect x="3058.5" y="356.5" width="210" height="205" stroke="#000000" stroke-width="9.16667" stroke-miterlimit="8" fill="#5B9BD5"/><path d="M3113.52 444.722 3126.32 444.722 3120.71 469.025C3120.23 471.092 3119.82 473.008 3119.47 474.775 3119.13 476.542 3118.96 478.009 3118.96 479.177 3118.96 480.495 3119.21 481.498 3119.72 482.187 3120.23 482.876 3121.08 483.22 3122.28 483.22 3123.87 483.22 3125.51 482.472 3127.2 480.974 3128.89 479.477 3130.36 477.747 3131.6 475.786 3132.84 473.824 3133.73 471.586 3134.27 469.07L3139.66 444.722 3152.65 444.722 3145.37 475.269C3144.92 477.156 3144.7 478.863 3144.7 480.39 3144.7 481.379 3144.86 482.142 3145.19 482.681 3145.52 483.22 3146.09 483.49 3146.9 483.49 3147.74 483.49 3148.66 483.116 3149.68 482.367 3150.7 481.618 3151.9 480.48 3153.28 478.953L3156.51 482.187C3153.72 484.972 3151.18 486.971 3148.87 488.184 3146.57 489.397 3144.22 490.004 3141.82 490.004 3139.21 490.004 3137.16 489.315 3135.67 487.937 3134.17 486.56 3133.42 484.718 3133.42 482.412 3133.42 481.453 3133.51 480.735 3133.69 480.256L3133.06 480.166C3130.49 483.31 3128.08 485.646 3125.85 487.174 3123.62 488.701 3121.43 489.465 3119.27 489.465 3116.99 489.465 3115.08 488.806 3113.52 487.488L3113.16 487.623C3112.83 491.037 3112.67 494.481 3112.67 497.955 3112.67 499.752 3112.71 501.354 3112.8 502.761L3111.9 507.299 3102.06 507.299 3099.77 504.244C3100.25 502.746 3100.9 500.44 3101.71 497.326 3102.51 494.211 3103.17 491.471 3103.68 489.105Z" fill-rule="evenodd"/><text fill="#000000" fill-opacity="0" font-family="Arial,Arial_MSFontService,sans-serif" font-size="62.5762" x="3099.77" y="499.477">𝝁</text><path d="M3179.98 462.806 3184.17 462.806C3184.04 464.899 3183.97 467.8 3183.97 471.508L3183.97 498.857C3183.97 500.122 3184.04 501.077 3184.18 501.72 3184.33 502.363 3184.58 502.887 3184.94 503.29 3185.3 503.694 3185.81 504.01 3186.49 504.239 3187.17 504.468 3188.02 504.643 3189.04 504.762 3190.07 504.882 3191.42 504.964 3193.1 505.008L3193.1 507.985 3164.87 507.985 3164.87 505.008C3167.29 504.899 3169.01 504.752 3170.05 504.566 3171.09 504.381 3171.88 504.103 3172.42 503.732 3172.97 503.361 3173.37 502.838 3173.62 502.162 3173.87 501.486 3173.99 500.384 3173.99 498.857L3173.99 475.205C3173.99 474.31 3173.82 473.667 3173.49 473.274 3173.15 472.882 3172.68 472.686 3172.1 472.686 3171.55 472.686 3170.78 472.936 3169.79 473.438 3168.8 473.94 3167.17 474.965 3164.9 476.513L3162.9 473.045Z" fill-rule="evenodd"/><text fill="#000000" fill-opacity="0" font-family="Arial,Arial_MSFontService,sans-serif" font-size="45.1792" x="3162.9" y="502.337">𝟏</text><rect x="1209.5" y="356.5" width="1058" height="204" stroke="#172C51" stroke-width="9.16667" stroke-miterlimit="8" fill="#70AD47"/><rect x="2259.5" y="356.5" width="391" height="204" stroke="#172C51" stroke-width="9.16667" stroke-miterlimit="8" fill="#ED7D31"/><path d="M2426.51 448.345C2423.72 448.345 2421.21 449.723 2418.98 452.478 2416.75 455.233 2414.92 459.246 2413.48 464.517 2418.99 464.367 2423.21 463.312 2426.12 461.35 2429.04 459.389 2430.5 456.611 2430.5 453.017 2430.5 451.49 2430.15 450.329 2429.45 449.536 2428.75 448.742 2427.76 448.345 2426.51 448.345ZM2427.63 443.673C2436.79 443.673 2441.38 446.983 2441.38 453.601 2441.38 455.877 2440.92 457.884 2440.01 459.621 2439.09 461.358 2437.57 462.93 2435.45 464.337 2433.32 465.745 2430.32 466.883 2426.44 467.752 2422.56 468.62 2417.88 469.114 2412.4 469.234 2412.01 471.001 2411.82 472.828 2411.82 474.714 2411.82 477.5 2412.4 479.596 2413.57 481.003 2414.74 482.411 2416.5 483.115 2418.87 483.115 2421.51 483.115 2423.89 482.583 2426.01 481.52 2428.14 480.457 2430.64 478.563 2433.51 475.837L2437.29 479.611C2434.26 483.025 2431.01 485.556 2427.52 487.203 2424.03 488.85 2420.25 489.673 2416.17 489.673 2412.67 489.673 2409.69 489.059 2407.24 487.832 2404.78 486.604 2402.93 484.784 2401.69 482.374 2400.44 479.963 2399.82 477.08 2399.82 473.726 2399.82 472.169 2400.03 470.177 2400.45 467.752 2401.02 464.457 2401.89 461.522 2403.06 458.947 2404.53 455.772 2406.44 453.047 2408.81 450.771 2411.17 448.495 2413.95 446.743 2417.14 445.515 2420.33 444.287 2423.83 443.673 2427.63 443.673Z" fill-rule="evenodd"/><text fill="#000000" fill-opacity="0" font-family="Arial,Arial_MSFontService,sans-serif" font-size="46" x="2399.82" y="483.923">𝒆</text><path d="M2467.97 462.475 2472.15 462.475C2472.02 464.569 2471.96 467.47 2471.96 471.178L2471.96 498.527C2471.96 499.792 2472.03 500.746 2472.17 501.39 2472.31 502.033 2472.56 502.557 2472.92 502.96 2473.28 503.364 2473.8 503.68 2474.48 503.909 2475.15 504.138 2476 504.312 2477.03 504.432 2478.05 504.552 2479.4 504.634 2481.08 504.678L2481.08 507.655 2452.85 507.655 2452.85 504.678C2455.27 504.569 2457 504.421 2458.04 504.236 2459.07 504.051 2459.86 503.772 2460.41 503.402 2460.95 503.031 2461.35 502.508 2461.6 501.831 2461.85 501.155 2461.98 500.054 2461.98 498.527L2461.98 474.874C2461.98 473.98 2461.81 473.337 2461.47 472.944 2461.13 472.552 2460.67 472.355 2460.08 472.355 2459.54 472.355 2458.77 472.606 2457.77 473.108 2456.78 473.609 2455.15 474.634 2452.88 476.183L2450.89 472.715Z" fill-rule="evenodd"/><text fill="#000000" fill-opacity="0" font-family="Arial,Arial_MSFontService,sans-serif" font-size="45.1792" x="2450.89" y="502.007">𝟏</text><rect x="2642.5" y="356.5" width="420" height="205" stroke="#172C51" stroke-width="9.16667" stroke-miterlimit="8" fill="#70AD47"/><rect x="3058.5" y="805.5" width="210" height="205" stroke="#000000" stroke-width="9.16667" stroke-miterlimit="8" fill="#5B9BD5"/><path d="M3113.52 893.846 3126.32 893.846 3120.71 918.148C3120.23 920.215 3119.82 922.132 3119.47 923.898 3119.13 925.665 3118.96 927.133 3118.96 928.301 3118.96 929.618 3119.21 930.622 3119.72 931.311 3120.23 931.999 3121.08 932.344 3122.28 932.344 3123.87 932.344 3125.51 931.595 3127.2 930.098 3128.89 928.6 3130.36 926.871 3131.6 924.909 3132.84 922.948 3133.73 920.709 3134.27 918.193L3139.66 893.846 3152.65 893.846 3145.37 924.393C3144.92 926.279 3144.7 927.986 3144.7 929.514 3144.7 930.502 3144.86 931.266 3145.19 931.805 3145.52 932.344 3146.09 932.613 3146.9 932.613 3147.74 932.613 3148.66 932.239 3149.68 931.49 3150.7 930.742 3151.9 929.604 3153.28 928.076L3156.51 931.311C3153.72 934.096 3151.18 936.095 3148.87 937.308 3146.57 938.521 3144.22 939.127 3141.82 939.127 3139.21 939.127 3137.16 938.438 3135.67 937.061 3134.17 935.683 3133.42 933.841 3133.42 931.535 3133.42 930.577 3133.51 929.858 3133.69 929.379L3133.06 929.289C3130.49 932.434 3128.08 934.77 3125.85 936.297 3123.62 937.824 3121.43 938.588 3119.27 938.588 3116.99 938.588 3115.08 937.929 3113.52 936.611L3113.16 936.746C3112.83 940.16 3112.67 943.604 3112.67 947.078 3112.67 948.875 3112.71 950.477 3112.8 951.885L3111.9 956.422 3102.06 956.422 3099.77 953.367C3100.25 951.87 3100.9 949.564 3101.71 946.449 3102.51 943.335 3103.17 940.594 3103.68 938.229Z" fill-rule="evenodd"/><text fill="#000000" fill-opacity="0" font-family="Arial,Arial_MSFontService,sans-serif" font-size="62.5762" x="3099.77" y="948.6">𝝁</text><path d="M3177.43 911.929C3180.63 911.929 3183.25 912.36 3185.28 913.221 3187.31 914.083 3188.77 915.25 3189.68 916.722 3190.58 918.194 3191.04 919.911 3191.04 921.874 3191.04 923.597 3190.72 925.2 3190.07 926.683 3189.43 928.167 3188.32 929.857 3186.74 931.754 3185.15 933.652 3182.49 936.367 3178.74 939.9 3177.58 940.991 3176.2 942.425 3174.6 944.202 3172.99 945.98 3171.72 947.501 3170.79 948.766L3170.79 949.093 3182.4 949.093C3183.82 949.093 3184.88 948.99 3185.57 948.782 3186.27 948.575 3186.82 948.215 3187.23 947.703 3187.63 947.19 3187.96 946.421 3188.22 945.396L3191.99 945.396 3191.23 957.108 3161.27 957.108 3161.27 954.949C3162.95 951.089 3166.38 946.116 3171.57 940.031 3173.93 937.261 3175.72 934.982 3176.95 933.194 3178.19 931.405 3179.11 929.715 3179.72 928.123 3180.33 926.531 3180.63 924.884 3180.63 923.183 3180.63 920.784 3180.1 918.903 3179.03 917.54 3177.96 916.177 3176.5 915.495 3174.65 915.495 3171.09 915.495 3168.81 918.058 3167.81 923.183L3161.92 923.183 3161.92 915.462C3165.48 914.023 3168.34 913.074 3170.52 912.616 3172.71 912.158 3175.01 911.929 3177.43 911.929Z" fill-rule="evenodd"/><text fill="#000000" fill-opacity="0" font-family="Arial,Arial_MSFontService,sans-serif" font-size="45.1792" x="3161.27" y="951.461">𝟐</text><rect x="1209.5" y="805.5" width="1058" height="205" stroke="#172C51" stroke-width="9.16667" stroke-miterlimit="8" fill="#70AD47"/><rect x="2259.5" y="805.5" width="391" height="205" stroke="#172C51" stroke-width="9.16667" stroke-miterlimit="8" fill="#ED7D31"/><path d="M2426.51 897.469C2423.72 897.469 2421.21 898.846 2418.98 901.601 2416.75 904.357 2414.92 908.37 2413.48 913.641 2418.99 913.491 2423.21 912.435 2426.12 910.474 2429.04 908.512 2430.5 905.734 2430.5 902.141 2430.5 900.613 2430.15 899.453 2429.45 898.659 2428.75 897.865 2427.76 897.469 2426.51 897.469ZM2427.63 892.797C2436.79 892.797 2441.38 896.106 2441.38 902.724 2441.38 905.001 2440.92 907.007 2440.01 908.744 2439.09 910.481 2437.57 912.053 2435.45 913.461 2433.32 914.868 2430.32 916.006 2426.44 916.875 2422.56 917.743 2417.88 918.237 2412.4 918.357 2412.01 920.124 2411.82 921.951 2411.82 923.838 2411.82 926.623 2412.4 928.719 2413.57 930.127 2414.74 931.534 2416.5 932.238 2418.87 932.238 2421.51 932.238 2423.89 931.707 2426.01 930.643 2428.14 929.58 2430.64 927.686 2433.51 924.961L2437.29 928.734C2434.26 932.148 2431.01 934.679 2427.52 936.326 2424.03 937.973 2420.25 938.797 2416.17 938.797 2412.67 938.797 2409.69 938.183 2407.24 936.955 2404.78 935.727 2402.93 933.908 2401.69 931.497 2400.44 929.086 2399.82 926.204 2399.82 922.849 2399.82 921.292 2400.03 919.301 2400.45 916.875 2401.02 913.581 2401.89 910.646 2403.06 908.07 2404.53 904.896 2406.44 902.17 2408.81 899.894 2411.17 897.618 2413.95 895.866 2417.14 894.639 2420.33 893.411 2423.83 892.797 2427.63 892.797Z" fill-rule="evenodd"/><text fill="#000000" fill-opacity="0" font-family="Arial,Arial_MSFontService,sans-serif" font-size="46" x="2399.82" y="933.047">𝒆</text><path d="M2465.41 911.599C2468.62 911.599 2471.24 912.03 2473.27 912.891 2475.29 913.753 2476.76 914.919 2477.67 916.392 2478.57 917.864 2479.02 919.581 2479.02 921.544 2479.02 923.267 2478.7 924.87 2478.06 926.353 2477.41 927.836 2476.3 929.527 2474.72 931.424 2473.14 933.321 2470.47 936.037 2466.72 939.57 2465.57 940.661 2464.19 942.094 2462.58 943.872 2460.98 945.65 2459.71 947.171 2458.77 948.436L2458.77 948.763 2470.39 948.763C2471.8 948.763 2472.86 948.659 2473.56 948.452 2474.26 948.245 2474.81 947.885 2475.21 947.372 2475.62 946.86 2475.95 946.091 2476.21 945.066L2479.97 945.066 2479.22 956.778 2449.25 956.778 2449.25 954.619C2450.93 950.758 2454.37 945.786 2459.56 939.701 2461.91 936.931 2463.71 934.652 2464.94 932.863 2466.17 931.075 2467.09 929.385 2467.7 927.793 2468.31 926.201 2468.62 924.554 2468.62 922.853 2468.62 920.454 2468.09 918.573 2467.02 917.209 2465.95 915.846 2464.49 915.165 2462.63 915.165 2459.08 915.165 2456.8 917.727 2455.8 922.853L2449.91 922.853 2449.91 915.132C2453.46 913.693 2456.33 912.744 2458.51 912.286 2460.69 911.828 2462.99 911.599 2465.41 911.599Z" fill-rule="evenodd"/><text fill="#000000" fill-opacity="0" font-family="Arial,Arial_MSFontService,sans-serif" font-size="45.1792" x="2449.25" y="951.131">𝟐</text><rect x="2642.5" y="805.5" width="420" height="205" stroke="#172C51" stroke-width="9.16667" stroke-miterlimit="8" fill="#70AD47"/><rect x="2903.5" y="1232.5" width="361" height="206" stroke="#000000" stroke-width="9.16667" stroke-miterlimit="8" fill="#5B9BD5"/><path d="M2982.77 1321.35 2995.58 1321.35 2989.96 1345.65C2989.48 1347.72 2989.07 1349.63 2988.73 1351.4 2988.38 1353.17 2988.21 1354.64 2988.21 1355.8 2988.21 1357.12 2988.46 1358.12 2988.97 1358.81 2989.48 1359.5 2990.34 1359.85 2991.53 1359.85 2993.12 1359.85 2994.76 1359.1 2996.45 1357.6 2998.14 1356.1 2999.61 1354.37 3000.85 1352.41 3002.1 1350.45 3002.99 1348.21 3003.53 1345.7L3008.92 1321.35 3021.9 1321.35 3014.62 1351.9C3014.17 1353.78 3013.95 1355.49 3013.95 1357.02 3013.95 1358 3014.11 1358.77 3014.44 1359.31 3014.77 1359.85 3015.34 1360.12 3016.15 1360.12 3016.99 1360.12 3017.92 1359.74 3018.94 1358.99 3019.95 1358.24 3021.15 1357.11 3022.53 1355.58L3025.76 1358.81C3022.98 1361.6 3020.43 1363.6 3018.13 1364.81 3015.82 1366.02 3013.47 1366.63 3011.07 1366.63 3008.47 1366.63 3006.42 1365.94 3004.92 1364.56 3003.42 1363.19 3002.67 1361.34 3002.67 1359.04 3002.67 1358.08 3002.76 1357.36 3002.94 1356.88L3002.31 1356.79C2999.74 1359.94 2997.34 1362.27 2995.1 1363.8 2992.87 1365.33 2990.68 1366.09 2988.52 1366.09 2986.25 1366.09 2984.33 1365.43 2982.77 1364.11L2982.41 1364.25C2982.08 1367.66 2981.92 1371.11 2981.92 1374.58 2981.92 1376.38 2981.96 1377.98 2982.05 1379.39L2981.16 1383.92 2971.32 1383.92 2969.03 1380.87C2969.51 1379.37 2970.15 1377.07 2970.96 1373.95 2971.77 1370.84 2972.43 1368.1 2972.94 1365.73Z" fill-rule="evenodd"/><text fill="#000000" fill-opacity="0" font-family="Arial,Arial_MSFontService,sans-serif" font-size="62.5762" x="2969.03" y="1376.1">𝝁</text><path d="M3049.23 1339.43 3053.42 1339.43C3053.29 1341.53 3053.22 1344.43 3053.22 1348.13L3053.22 1375.48C3053.22 1376.75 3053.3 1377.7 3053.44 1378.35 3053.58 1378.99 3053.83 1379.51 3054.19 1379.92 3054.55 1380.32 3055.07 1380.64 3055.74 1380.86 3056.42 1381.09 3057.27 1381.27 3058.3 1381.39 3059.32 1381.51 3060.67 1381.59 3062.35 1381.63L3062.35 1384.61 3034.12 1384.61 3034.12 1381.63C3036.54 1381.52 3038.27 1381.38 3039.3 1381.19 3040.34 1381.01 3041.13 1380.73 3041.68 1380.36 3042.22 1379.99 3042.62 1379.46 3042.87 1378.79 3043.12 1378.11 3043.25 1377.01 3043.25 1375.48L3043.25 1351.83C3043.25 1350.94 3043.08 1350.29 3042.74 1349.9 3042.4 1349.51 3041.94 1349.31 3041.35 1349.31 3040.8 1349.31 3040.04 1349.56 3039.04 1350.06 3038.05 1350.57 3036.42 1351.59 3034.15 1353.14L3032.16 1349.67Z" fill-rule="evenodd"/><text fill="#000000" fill-opacity="0" font-family="Arial,Arial_MSFontService,sans-serif" font-size="45.1792" x="3032.16" y="1378.96">𝟏</text><path d="M3085.12 1321.35 3097.92 1321.35 3092.31 1345.65C3091.83 1347.72 3091.42 1349.63 3091.07 1351.4 3090.73 1353.17 3090.55 1354.64 3090.55 1355.8 3090.55 1357.12 3090.81 1358.12 3091.32 1358.81 3091.83 1359.5 3092.68 1359.85 3093.88 1359.85 3095.47 1359.85 3097.11 1359.1 3098.8 1357.6 3100.49 1356.1 3101.96 1354.37 3103.2 1352.41 3104.44 1350.45 3105.33 1348.21 3105.87 1345.7L3111.26 1321.35 3124.25 1321.35 3116.97 1351.9C3116.52 1353.78 3116.3 1355.49 3116.3 1357.02 3116.3 1358 3116.46 1358.77 3116.79 1359.31 3117.12 1359.85 3117.69 1360.12 3118.5 1360.12 3119.33 1360.12 3120.26 1359.74 3121.28 1358.99 3122.3 1358.24 3123.5 1357.11 3124.88 1355.58L3128.11 1358.81C3125.32 1361.6 3122.78 1363.6 3120.47 1364.81 3118.17 1366.02 3115.82 1366.63 3113.42 1366.63 3110.81 1366.63 3108.76 1365.94 3107.27 1364.56 3105.77 1363.19 3105.02 1361.34 3105.02 1359.04 3105.02 1358.08 3105.11 1357.36 3105.29 1356.88L3104.66 1356.79C3102.08 1359.94 3099.68 1362.27 3097.45 1363.8 3095.22 1365.33 3093.03 1366.09 3090.87 1366.09 3088.59 1366.09 3086.68 1365.43 3085.12 1364.11L3084.76 1364.25C3084.43 1367.66 3084.27 1371.11 3084.27 1374.58 3084.27 1376.38 3084.31 1377.98 3084.4 1379.39L3083.5 1383.92 3073.66 1383.92 3071.37 1380.87C3071.85 1379.37 3072.5 1377.07 3073.3 1373.95 3074.11 1370.84 3074.77 1368.1 3075.28 1365.73Z" fill-rule="evenodd"/><text fill="#000000" fill-opacity="0" font-family="Arial,Arial_MSFontService,sans-serif" font-size="62.5762" x="3071.37" y="1376.1">𝝁</text><path d="M3149.03 1339.43C3152.23 1339.43 3154.85 1339.86 3156.88 1340.72 3158.91 1341.59 3160.37 1342.75 3161.28 1344.22 3162.18 1345.7 3162.64 1347.41 3162.64 1349.38 3162.64 1351.1 3162.32 1352.7 3161.67 1354.19 3161.03 1355.67 3159.92 1357.36 3158.33 1359.26 3156.75 1361.15 3154.09 1363.87 3150.34 1367.4 3149.18 1368.49 3147.8 1369.93 3146.2 1371.7 3144.59 1373.48 3143.32 1375 3142.39 1376.27L3142.39 1376.6 3154 1376.6C3155.42 1376.6 3156.48 1376.49 3157.17 1376.28 3157.87 1376.08 3158.42 1375.72 3158.83 1375.21 3159.23 1374.69 3159.56 1373.92 3159.82 1372.9L3163.59 1372.9 3162.83 1384.61 3132.87 1384.61 3132.87 1382.45C3134.55 1378.59 3137.98 1373.62 3143.17 1367.53 3145.53 1364.76 3147.32 1362.48 3148.55 1360.7 3149.79 1358.91 3150.71 1357.22 3151.32 1355.63 3151.93 1354.03 3152.23 1352.39 3152.23 1350.69 3152.23 1348.29 3151.7 1346.41 3150.63 1345.04 3149.56 1343.68 3148.1 1343 3146.25 1343 3142.69 1343 3140.41 1345.56 3139.41 1350.69L3133.52 1350.69 3133.52 1342.96C3137.08 1341.53 3139.94 1340.58 3142.12 1340.12 3144.31 1339.66 3146.61 1339.43 3149.03 1339.43Z" fill-rule="evenodd"/><text fill="#000000" fill-opacity="0" font-family="Arial,Arial_MSFontService,sans-serif" font-size="45.1792" x="3132.87" y="1378.96">𝟐</text><rect x="1205.5" y="1233.5" width="825" height="204" stroke="#172C51" stroke-width="9.16667" stroke-miterlimit="8" fill="#70AD47"/><rect x="2030.5" y="1232.5" width="616" height="205" stroke="#172C51" stroke-width="9.16667" stroke-miterlimit="8" fill="#ED7D31"/><path d="M2306.73 1325.14C2303.95 1325.14 2301.44 1326.51 2299.21 1329.27 2296.98 1332.02 2295.14 1336.04 2293.71 1341.31 2299.22 1341.16 2303.43 1340.1 2306.35 1338.14 2309.27 1336.18 2310.73 1333.4 2310.73 1329.81 2310.73 1328.28 2310.38 1327.12 2309.68 1326.33 2308.97 1325.53 2307.99 1325.14 2306.73 1325.14ZM2307.86 1320.46C2317.02 1320.46 2321.6 1323.77 2321.6 1330.39 2321.6 1332.67 2321.15 1334.67 2320.23 1336.41 2319.32 1338.15 2317.8 1339.72 2315.67 1341.13 2313.55 1342.54 2310.54 1343.67 2306.67 1344.54 2302.79 1345.41 2298.11 1345.9 2292.63 1346.02 2292.24 1347.79 2292.04 1349.62 2292.04 1351.51 2292.04 1354.29 2292.63 1356.39 2293.8 1357.79 2294.96 1359.2 2296.73 1359.91 2299.1 1359.91 2301.73 1359.91 2304.11 1359.37 2306.24 1358.31 2308.36 1357.25 2310.87 1355.35 2313.74 1352.63L2317.51 1356.4C2314.49 1359.82 2311.23 1362.35 2307.74 1363.99 2304.25 1365.64 2300.47 1366.46 2296.4 1366.46 2292.9 1366.46 2289.92 1365.85 2287.46 1364.62 2285.01 1363.39 2283.16 1361.57 2281.91 1359.16 2280.67 1356.75 2280.05 1353.87 2280.05 1350.52 2280.05 1348.96 2280.26 1346.97 2280.68 1344.54 2281.25 1341.25 2282.12 1338.31 2283.28 1335.74 2284.75 1332.56 2286.67 1329.84 2289.03 1327.56 2291.4 1325.29 2294.18 1323.53 2297.37 1322.31 2300.56 1321.08 2304.05 1320.46 2307.86 1320.46Z" fill-rule="evenodd"/><text fill="#000000" fill-opacity="0" font-family="Arial,Arial_MSFontService,sans-serif" font-size="46" x="2280.05" y="1360.71">𝒆</text><path d="M2334.81 1339.79 2351.46 1339.79 2350.97 1341.95C2350.03 1342.04 2349.35 1342.32 2348.93 1342.82 2348.5 1343.31 2348.29 1343.94 2348.29 1344.73 2348.29 1345.38 2348.41 1346.16 2348.65 1347.07 2348.89 1347.97 2349.26 1349.06 2349.76 1350.32L2351.82 1355.75 2356.21 1350.32C2357.6 1348.58 2358.57 1347.26 2359.12 1346.38 2359.66 1345.5 2359.94 1344.76 2359.94 1344.17 2359.94 1343.43 2359.75 1342.9 2359.38 1342.59 2359.01 1342.27 2358.4 1342.06 2357.55 1341.95L2358.04 1339.79 2371.65 1339.79 2371.16 1341.98C2370.63 1342.07 2370.11 1342.28 2369.59 1342.6 2369.06 1342.93 2368.35 1343.54 2367.44 1344.43 2366.54 1345.33 2365.04 1347 2362.95 1349.44L2353.56 1360.33 2359.35 1375.42C2360.22 1377.71 2361 1379.36 2361.69 1380.37 2362.37 1381.39 2363.28 1382.02 2364.42 1382.29L2363.96 1384.45 2347.28 1384.45 2347.73 1382.29C2349.46 1382.11 2350.32 1381.33 2350.32 1379.93 2350.32 1379.15 2350.22 1378.35 2350.02 1377.54 2349.83 1376.74 2349.54 1375.84 2349.17 1374.86L2346.26 1367.17 2339.49 1375.25C2338.49 1376.45 2337.78 1377.4 2337.36 1378.1 2336.95 1378.8 2336.74 1379.48 2336.74 1380.16 2336.74 1381.47 2337.55 1382.18 2339.16 1382.29L2338.7 1384.45 2325.06 1384.45 2325.52 1382.29C2326.41 1382.05 2327.3 1381.54 2328.19 1380.78 2329.07 1380.02 2330.74 1378.23 2333.21 1375.42L2344.49 1362.66 2339.49 1349.44C2339.14 1348.55 2338.72 1347.53 2338.23 1346.4 2337.74 1345.26 2337.29 1344.4 2336.89 1343.8 2336.49 1343.2 2336.09 1342.77 2335.71 1342.5 2335.33 1342.24 2334.87 1342.06 2334.32 1341.95Z" fill-rule="evenodd"/><text fill="#000000" fill-opacity="0" font-family="Arial,Arial_MSFontService,sans-serif" font-size="44.6558" x="2325.06" y="1378.86">𝑿</text><rect x="2638.5" y="1232.5" width="265" height="206" stroke="#172C51" stroke-width="9.16667" stroke-miterlimit="8" fill="#70AD47"/><path d="M3268.5 1484.5C3268.5 1509.63 3268.5 1530 3268.5 1530L2953.5 1530C2953.5 1530 2953.5 1550.37 2953.5 1575.5 2953.5 1550.37 2953.5 1530 2953.5 1530L2638.5 1530C2638.5 1530 2638.5 1509.63 2638.5 1484.5" stroke="#000000" stroke-width="3.4375" stroke-linejoin="round" stroke-miterlimit="10" stroke-dasharray="13.75 10.3125" fill="none" fill-rule="evenodd"/><path d="M2963.81 1583.62 2974.59 1583.62 2971.98 1594.85 2982.9 1594.85 2981.69 1600.47 2970.68 1600.47 2966.32 1618.44C2965.58 1621.52 2965.06 1623.87 2964.77 1625.47 2964.49 1627.07 2964.35 1628.43 2964.35 1629.53 2964.35 1630.94 2964.6 1631.97 2965.11 1632.61 2965.62 1633.26 2966.37 1633.58 2967.36 1633.58 2968.71 1633.58 2970.09 1633.1 2971.51 1632.14 2972.94 1631.18 2974.47 1629.7 2976.12 1627.69L2979.58 1631.24C2976.55 1634.57 2973.77 1636.88 2971.24 1638.18 2968.71 1639.48 2965.73 1640.14 2962.28 1640.14 2958.87 1640.14 2956.25 1639.26 2954.42 1637.51 2952.59 1635.76 2951.68 1633.34 2951.68 1630.25 2951.68 1628.85 2951.78 1627.51 2951.99 1626.23 2952.2 1624.96 2952.64 1622.87 2953.3 1619.97L2957.92 1600.47 2950.92 1600.47 2951.77 1596.83C2953.87 1596.83 2955.45 1596.64 2956.53 1596.25 2957.61 1595.86 2958.52 1595.27 2959.25 1594.5 2959.98 1593.72 2960.69 1592.53 2961.38 1590.95 2962.07 1589.36 2962.88 1586.92 2963.81 1583.62Z" fill-rule="evenodd"/><text fill="#000000" fill-opacity="0" font-family="Arial,Arial_MSFontService,sans-serif" font-size="56.5117" x="2950.92" y="1633.07">𝒕</text><path d="M4352.5 687C4352.5 655.796 4377.8 630.5 4409 630.5 4440.2 630.5 4465.5 655.796 4465.5 687 4465.5 718.204 4440.2 743.5 4409 743.5 4377.8 743.5 4352.5 718.204 4352.5 687Z" fill="#FFFFFF" fill-rule="evenodd"/><path d="M4369.05 647.048 4448.95 726.952M4448.95 647.048 4369.05 726.952" stroke="#000000" stroke-width="4.58333" stroke-miterlimit="8" fill="none" fill-rule="evenodd"/><path d="M4352.5 687C4352.5 655.796 4377.8 630.5 4409 630.5 4440.2 630.5 4465.5 655.796 4465.5 687 4465.5 718.204 4440.2 743.5 4409 743.5 4377.8 743.5 4352.5 718.204 4352.5 687Z" stroke="#000000" stroke-width="4.58333" stroke-miterlimit="8" fill="none" fill-rule="evenodd"/><path d="M4432.94 1050.5 4432.94 1149.5 4426.06 1149.5 4426.06 1050.5ZM4443.25 1144.92 4429.5 1172.42 4415.75 1144.92Z"/><path d="M5494.5 1640.55C5494.5 1669.81 5490.55 1693.53 5485.67 1693.53L4474.83 1693.52C4469.95 1693.52 4466 1717.24 4466 1746.5 4466 1717.24 4462.05 1693.52 4457.17 1693.52L3446.33 1693.52C3441.45 1693.52 3437.5 1669.81 3437.5 1640.55" stroke="#000000" stroke-width="3.4375" stroke-linejoin="round" stroke-miterlimit="10" stroke-dasharray="13.75 10.3125" fill="none" fill-rule="evenodd"/><path d="M4480.28 1796.41C4477.47 1796.41 4475 1797.78 4472.87 1800.54 4470.74 1803.29 4469.01 1807.05 4467.68 1811.79 4466.35 1816.54 4465.68 1820.81 4465.68 1824.62 4465.68 1826.8 4466 1828.44 4466.65 1829.51 4467.29 1830.59 4468.29 1831.13 4469.63 1831.13 4471.61 1831.13 4473.62 1830.17 4475.68 1828.23 4477.73 1826.3 4479.38 1824.03 4480.64 1821.43 4481.9 1818.82 4483.02 1815.26 4484.01 1810.74L4484.37 1809.07C4484.85 1806.86 4485.09 1804.67 4485.09 1802.52 4485.09 1800.48 4484.71 1798.95 4483.96 1797.93 4483.22 1796.92 4481.99 1796.41 4480.28 1796.41ZM4479.74 1791.73C4484.2 1791.73 4488.01 1792.81 4491.15 1794.97L4495.19 1791.73 4500.23 1792.45 4488.82 1844.38C4488.49 1845.85 4488.28 1846.94 4488.19 1847.66 4488.1 1848.38 4488.05 1849 4488.05 1849.5 4488.05 1850.82 4488.38 1851.75 4489.04 1852.29 4489.7 1852.83 4490.87 1853.2 4492.54 1853.41L4492.05 1856.38 4473.41 1856.38 4480.73 1828.75 4480.15 1828.57C4477.69 1831.69 4475.26 1834 4472.85 1835.51 4470.44 1837.02 4467.55 1837.78 4464.2 1837.78 4460.78 1837.78 4458.14 1836.54 4456.27 1834.07 4454.4 1831.6 4453.46 1828.05 4453.46 1823.4 4453.46 1819.36 4454.05 1815.35 4455.21 1811.37 4456.38 1807.38 4458.06 1803.95 4460.25 1801.06 4462.43 1798.17 4465.18 1795.89 4468.49 1794.23 4471.8 1792.57 4475.55 1791.73 4479.74 1791.73Z" fill-rule="evenodd"/><text fill="#000000" fill-opacity="0" font-family="Arial,Arial_MSFontService,sans-serif" font-size="64.6426" x="4453.46" y="1848.3">𝒒</text><rect x="4774.5" y="354.5" width="402" height="206" stroke="#000000" stroke-width="9.16667" stroke-miterlimit="8" fill="#5B9BD5"/><path d="M4925.72 443.437 4938.52 443.437 4932.91 467.739C4932.43 469.806 4932.02 471.723 4931.67 473.489 4931.33 475.256 4931.16 476.724 4931.16 477.892 4931.16 479.21 4931.41 480.213 4931.92 480.902 4932.43 481.59 4933.28 481.935 4934.48 481.935 4936.07 481.935 4937.71 481.186 4939.4 479.689 4941.09 478.191 4942.56 476.462 4943.8 474.5 4945.05 472.539 4945.94 470.3 4946.48 467.784L4951.87 443.437 4964.85 443.437 4957.57 473.984C4957.12 475.87 4956.9 477.577 4956.9 479.105 4956.9 480.093 4957.06 480.857 4957.39 481.396 4957.72 481.935 4958.29 482.204 4959.1 482.204 4959.94 482.204 4960.87 481.83 4961.88 481.081 4962.9 480.333 4964.1 479.195 4965.48 477.667L4968.71 480.902C4965.93 483.687 4963.38 485.686 4961.08 486.899 4958.77 488.112 4956.42 488.718 4954.02 488.718 4951.42 488.718 4949.37 488.029 4947.87 486.652 4946.37 485.274 4945.62 483.432 4945.62 481.126 4945.62 480.168 4945.71 479.449 4945.89 478.97L4945.26 478.88C4942.69 482.025 4940.28 484.361 4938.05 485.888 4935.82 487.415 4933.63 488.179 4931.47 488.179 4929.2 488.179 4927.28 487.52 4925.72 486.202L4925.36 486.337C4925.03 489.751 4924.87 493.195 4924.87 496.669 4924.87 498.466 4924.91 500.068 4925 501.476L4924.1 506.013 4914.27 506.013 4911.98 502.958C4912.45 501.461 4913.1 499.155 4913.91 496.04 4914.72 492.926 4915.37 490.185 4915.88 487.82Z" fill-rule="evenodd"/><text fill="#000000" fill-opacity="0" font-family="Arial,Arial_MSFontService,sans-serif" font-size="62.5762" x="4911.98" y="498.191">𝝁</text><path d="M4992.18 461.52 4996.37 461.52C4996.24 463.614 4996.17 466.514 4996.17 470.222L4996.17 497.572C4996.17 498.837 4996.24 499.791 4996.39 500.434 4996.53 501.078 4996.78 501.601 4997.14 502.005 4997.5 502.408 4998.02 502.724 4998.69 502.953 4999.37 503.182 5000.22 503.357 5001.24 503.477 5002.27 503.597 5003.62 503.679 5005.3 503.722L5005.3 506.699 4977.07 506.699 4977.07 503.722C4979.49 503.613 4981.22 503.466 4982.25 503.28 4983.29 503.095 4984.08 502.817 4984.62 502.446 4985.17 502.076 4985.57 501.552 4985.82 500.876 4986.07 500.2 4986.19 499.098 4986.19 497.572L4986.19 473.919C4986.19 473.025 4986.03 472.381 4985.69 471.989 4985.35 471.596 4984.89 471.4 4984.3 471.4 4983.75 471.4 4982.98 471.651 4981.99 472.152 4981 472.654 4979.37 473.679 4977.1 475.228L4975.1 471.76Z" fill-rule="evenodd"/><text fill="#000000" fill-opacity="0" font-family="Arial,Arial_MSFontService,sans-serif" font-size="45.1792" x="4975.1" y="501.052">𝟏</text><rect x="3436.5" y="354.5" width="1348" height="206" stroke="#172C51" stroke-width="9.16667" stroke-miterlimit="8" fill="#70AD47"/><rect x="5160.5" y="354.5" width="334" height="206" stroke="#172C51" stroke-width="9.16667" stroke-miterlimit="8" fill="#ED7D31"/><path d="M5298.98 447.39C5296.19 447.39 5293.68 448.767 5291.45 451.523 5289.22 454.278 5287.39 458.291 5285.95 463.562 5291.46 463.412 5295.68 462.356 5298.6 460.395 5301.52 458.433 5302.98 455.655 5302.98 452.062 5302.98 450.534 5302.62 449.374 5301.92 448.58 5301.22 447.787 5300.24 447.39 5298.98 447.39ZM5300.1 442.718C5309.26 442.718 5313.85 446.027 5313.85 452.646 5313.85 454.922 5313.39 456.928 5312.48 458.665 5311.56 460.402 5310.04 461.974 5307.92 463.382 5305.79 464.79 5302.79 465.928 5298.91 466.796 5295.03 467.665 5290.35 468.159 5284.87 468.279 5284.48 470.045 5284.29 471.872 5284.29 473.759 5284.29 476.544 5284.87 478.64 5286.04 480.048 5287.21 481.456 5288.98 482.159 5291.34 482.159 5293.98 482.159 5296.36 481.628 5298.48 480.565 5300.61 479.501 5303.11 477.607 5305.99 474.882L5309.76 478.655C5306.73 482.07 5303.48 484.6 5299.99 486.247 5296.5 487.894 5292.72 488.718 5288.65 488.718 5285.14 488.718 5282.16 488.104 5279.71 486.876 5277.25 485.648 5275.4 483.829 5274.16 481.418 5272.92 479.007 5272.29 476.125 5272.29 472.771 5272.29 471.213 5272.5 469.222 5272.92 466.796 5273.49 463.502 5274.36 460.567 5275.53 457.991 5277 454.817 5278.91 452.092 5281.28 449.816 5283.64 447.54 5286.42 445.788 5289.61 444.56 5292.8 443.332 5296.3 442.718 5300.1 442.718Z" fill-rule="evenodd"/><text fill="#000000" fill-opacity="0" font-family="Arial,Arial_MSFontService,sans-serif" font-size="46" x="5272.29" y="482.968">𝒆</text><path d="M5340.44 461.52 5344.62 461.52C5344.49 463.614 5344.43 466.514 5344.43 470.222L5344.43 497.572C5344.43 498.837 5344.5 499.791 5344.64 500.434 5344.78 501.078 5345.03 501.601 5345.39 502.005 5345.75 502.408 5346.27 502.724 5346.95 502.953 5347.62 503.182 5348.47 503.357 5349.5 503.477 5350.52 503.597 5351.88 503.679 5353.55 503.722L5353.55 506.699 5325.32 506.699 5325.32 503.722C5327.74 503.613 5329.47 503.466 5330.51 503.28 5331.54 503.095 5332.33 502.817 5332.88 502.446 5333.42 502.076 5333.82 501.552 5334.07 500.876 5334.32 500.2 5334.45 499.098 5334.45 497.572L5334.45 473.919C5334.45 473.025 5334.28 472.381 5333.94 471.989 5333.6 471.596 5333.14 471.4 5332.55 471.4 5332.01 471.4 5331.24 471.651 5330.25 472.152 5329.25 472.654 5327.62 473.679 5325.35 475.228L5323.36 471.76Z" fill-rule="evenodd"/><text fill="#000000" fill-opacity="0" font-family="Arial,Arial_MSFontService,sans-serif" font-size="45.1792" x="5323.36" y="501.052">𝟏</text><text font-family="DengXian,DengXian_MSFontService,sans-serif" font-weight="700" font-size="92" transform="matrix(1 0 0 1 4368.9 223)">CKKS</text><rect x="4774.5" y="770.5" width="402" height="206" stroke="#000000" stroke-width="9.16667" stroke-miterlimit="8" fill="#5B9BD5"/><path d="M4925.72 859.442 4938.52 859.442 4932.91 883.745C4932.43 885.812 4932.02 887.728 4931.67 889.495 4931.33 891.262 4931.16 892.729 4931.16 893.897 4931.16 895.215 4931.41 896.218 4931.92 896.907 4932.43 897.596 4933.28 897.94 4934.48 897.94 4936.07 897.94 4937.71 897.192 4939.4 895.694 4941.09 894.197 4942.56 892.467 4943.8 890.506 4945.05 888.544 4945.94 886.306 4946.48 883.79L4951.87 859.442 4964.85 859.442 4957.57 889.989C4957.12 891.876 4956.9 893.583 4956.9 895.11 4956.9 896.099 4957.06 896.862 4957.39 897.401 4957.72 897.94 4958.29 898.21 4959.1 898.21 4959.94 898.21 4960.87 897.836 4961.88 897.087 4962.9 896.338 4964.1 895.2 4965.48 893.673L4968.71 896.907C4965.93 899.692 4963.38 901.691 4961.08 902.904 4958.77 904.117 4956.42 904.724 4954.02 904.724 4951.42 904.724 4949.37 904.035 4947.87 902.657 4946.37 901.28 4945.62 899.438 4945.62 897.132 4945.62 896.174 4945.71 895.455 4945.89 894.976L4945.26 894.886C4942.69 898.03 4940.28 900.366 4938.05 901.894 4935.82 903.421 4933.63 904.185 4931.47 904.185 4929.2 904.185 4927.28 903.526 4925.72 902.208L4925.36 902.343C4925.03 905.757 4924.87 909.201 4924.87 912.675 4924.87 914.472 4924.91 916.074 4925 917.481L4924.1 922.019 4914.27 922.019 4911.98 918.964C4912.45 917.466 4913.1 915.16 4913.91 912.046 4914.72 908.931 4915.37 906.191 4915.88 903.825Z" fill-rule="evenodd"/><text fill="#000000" fill-opacity="0" font-family="Arial,Arial_MSFontService,sans-serif" font-size="62.5762" x="4911.98" y="914.197">𝝁</text><path d="M4989.63 877.526C4992.84 877.526 4995.45 877.956 4997.48 878.818 4999.51 879.679 5000.98 880.846 5001.88 882.318 5002.79 883.791 5003.24 885.508 5003.24 887.471 5003.24 889.194 5002.92 890.797 5002.27 892.28 5001.63 893.763 5000.52 895.453 4998.94 897.351 4997.36 899.248 4994.69 901.964 4990.94 905.497 4989.78 906.587 4988.4 908.021 4986.8 909.799 4985.2 911.576 4983.93 913.098 4982.99 914.363L4982.99 914.69 4994.6 914.69C4996.02 914.69 4997.08 914.586 4997.78 914.379 4998.47 914.172 4999.02 913.812 4999.43 913.299 4999.83 912.787 5000.16 912.018 5000.43 910.993L5004.19 910.993 5003.44 922.705 4973.47 922.705 4973.47 920.546C4975.15 916.685 4978.58 911.713 4983.77 905.628 4986.13 902.858 4987.92 900.579 4989.16 898.79 4990.39 897.002 4991.31 895.312 4991.92 893.72 4992.53 892.127 4992.84 890.481 4992.84 888.78 4992.84 886.38 4992.3 884.499 4991.23 883.136 4990.16 881.773 4988.7 881.092 4986.85 881.092 4983.29 881.092 4981.02 883.654 4980.01 888.78L4974.12 888.78 4974.12 881.059C4977.68 879.619 4980.55 878.671 4982.73 878.213 4984.91 877.755 4987.21 877.526 4989.63 877.526Z" fill-rule="evenodd"/><text fill="#000000" fill-opacity="0" font-family="Arial,Arial_MSFontService,sans-serif" font-size="45.1792" x="4973.47" y="917.057">𝟐</text><rect x="3436.5" y="770.5" width="1348" height="206" stroke="#172C51" stroke-width="9.16667" stroke-miterlimit="8" fill="#70AD47"/><rect x="5160.5" y="770.5" width="334" height="206" stroke="#172C51" stroke-width="9.16667" stroke-miterlimit="8" fill="#ED7D31"/><path d="M5298.98 863.396C5296.19 863.396 5293.68 864.773 5291.45 867.528 5289.22 870.284 5287.39 874.297 5285.95 879.567 5291.46 879.418 5295.68 878.362 5298.6 876.4 5301.52 874.439 5302.98 871.661 5302.98 868.067 5302.98 866.54 5302.62 865.38 5301.92 864.586 5301.22 863.792 5300.24 863.396 5298.98 863.396ZM5300.1 858.724C5309.26 858.724 5313.85 862.033 5313.85 868.651 5313.85 870.927 5313.39 872.934 5312.48 874.671 5311.56 876.408 5310.04 877.98 5307.92 879.388 5305.79 880.795 5302.79 881.933 5298.91 882.802 5295.03 883.67 5290.35 884.164 5284.87 884.284 5284.48 886.051 5284.29 887.878 5284.29 889.765 5284.29 892.55 5284.87 894.646 5286.04 896.054 5287.21 897.461 5288.98 898.165 5291.34 898.165 5293.98 898.165 5296.36 897.633 5298.48 896.57 5300.61 895.507 5303.11 893.613 5305.99 890.888L5309.76 894.661C5306.73 898.075 5303.48 900.606 5299.99 902.253 5296.5 903.9 5292.72 904.724 5288.65 904.724 5285.14 904.724 5282.16 904.11 5279.71 902.882 5277.25 901.654 5275.4 899.835 5274.16 897.424 5272.92 895.013 5272.29 892.131 5272.29 888.776 5272.29 887.219 5272.5 885.228 5272.92 882.802 5273.49 879.508 5274.36 876.573 5275.53 873.997 5277 870.823 5278.91 868.097 5281.28 865.821 5283.64 863.545 5286.42 861.793 5289.61 860.565 5292.8 859.338 5296.3 858.724 5300.1 858.724Z" fill-rule="evenodd"/><text fill="#000000" fill-opacity="0" font-family="Arial,Arial_MSFontService,sans-serif" font-size="46" x="5272.29" y="898.974">𝒆</text><path d="M5337.88 877.526C5341.09 877.526 5343.71 877.956 5345.74 878.818 5347.76 879.679 5349.23 880.846 5350.14 882.318 5351.04 883.791 5351.49 885.508 5351.49 887.471 5351.49 889.194 5351.17 890.797 5350.53 892.28 5349.89 893.763 5348.77 895.453 5347.19 897.351 5345.61 899.248 5342.94 901.964 5339.19 905.497 5338.04 906.587 5336.66 908.021 5335.05 909.799 5333.45 911.576 5332.18 913.098 5331.24 914.363L5331.24 914.69 5342.86 914.69C5344.27 914.69 5345.33 914.586 5346.03 914.379 5346.73 914.172 5347.28 913.812 5347.68 913.299 5348.09 912.787 5348.42 912.018 5348.68 910.993L5352.44 910.993 5351.69 922.705 5321.72 922.705 5321.72 920.546C5323.4 916.685 5326.84 911.713 5332.03 905.628 5334.38 902.858 5336.18 900.579 5337.41 898.79 5338.64 897.002 5339.56 895.312 5340.17 893.72 5340.79 892.127 5341.09 890.481 5341.09 888.78 5341.09 886.38 5340.56 884.499 5339.49 883.136 5338.42 881.773 5336.96 881.092 5335.1 881.092 5331.55 881.092 5329.27 883.654 5328.27 888.78L5322.38 888.78 5322.38 881.059C5325.93 879.619 5328.8 878.671 5330.98 878.213 5333.16 877.755 5335.46 877.526 5337.88 877.526Z" fill-rule="evenodd"/><text fill="#000000" fill-opacity="0" font-family="Arial,Arial_MSFontService,sans-serif" font-size="45.1792" x="5321.72" y="917.057">𝟐</text><rect x="4486.5" y="1267.5" width="448" height="205" stroke="#000000" stroke-width="9.16667" stroke-miterlimit="8" fill="#5B9BD5"/><path d="M4609.27 1355.95 4622.07 1355.95 4616.46 1380.25C4615.98 1382.32 4615.57 1384.24 4615.22 1386 4614.88 1387.77 4614.71 1389.24 4614.71 1390.41 4614.71 1391.72 4614.96 1392.73 4615.47 1393.42 4615.98 1394.1 4616.83 1394.45 4618.03 1394.45 4619.62 1394.45 4621.26 1393.7 4622.95 1392.2 4624.64 1390.71 4626.11 1388.98 4627.35 1387.01 4628.6 1385.05 4629.49 1382.81 4630.03 1380.3L4635.42 1355.95 4648.4 1355.95 4641.12 1386.5C4640.67 1388.38 4640.45 1390.09 4640.45 1391.62 4640.45 1392.61 4640.61 1393.37 4640.94 1393.91 4641.27 1394.45 4641.84 1394.72 4642.65 1394.72 4643.49 1394.72 4644.42 1394.34 4645.43 1393.6 4646.45 1392.85 4647.65 1391.71 4649.03 1390.18L4652.26 1393.42C4649.48 1396.2 4646.93 1398.2 4644.63 1399.41 4642.32 1400.63 4639.97 1401.23 4637.57 1401.23 4634.97 1401.23 4632.92 1400.54 4631.42 1399.17 4629.92 1397.79 4629.17 1395.95 4629.17 1393.64 4629.17 1392.68 4629.26 1391.96 4629.44 1391.48L4628.81 1391.39C4626.24 1394.54 4623.83 1396.87 4621.6 1398.4 4619.37 1399.93 4617.18 1400.69 4615.02 1400.69 4612.75 1400.69 4610.83 1400.03 4609.27 1398.72L4608.91 1398.85C4608.58 1402.27 4608.42 1405.71 4608.42 1409.18 4608.42 1410.98 4608.46 1412.58 4608.55 1413.99L4607.65 1418.53 4597.82 1418.53 4595.53 1415.47C4596 1413.97 4596.65 1411.67 4597.46 1408.55 4598.27 1405.44 4598.92 1402.7 4599.43 1400.33Z" fill-rule="evenodd"/><text fill="#000000" fill-opacity="0" font-family="Arial,Arial_MSFontService,sans-serif" font-size="62.5762" x="4595.53" y="1410.71">𝝁</text><path d="M4675.73 1374.03 4679.92 1374.03C4679.79 1376.13 4679.72 1379.03 4679.72 1382.74L4679.72 1410.09C4679.72 1411.35 4679.79 1412.31 4679.94 1412.95 4680.08 1413.59 4680.33 1414.12 4680.69 1414.52 4681.05 1414.92 4681.57 1415.24 4682.24 1415.47 4682.92 1415.7 4683.77 1415.87 4684.79 1415.99 4685.82 1416.11 4687.17 1416.19 4688.85 1416.24L4688.85 1419.21 4660.62 1419.21 4660.62 1416.24C4663.04 1416.13 4664.77 1415.98 4665.8 1415.79 4666.84 1415.61 4667.63 1415.33 4668.17 1414.96 4668.72 1414.59 4669.12 1414.07 4669.37 1413.39 4669.62 1412.71 4669.75 1411.61 4669.75 1410.09L4669.75 1386.43C4669.75 1385.54 4669.58 1384.9 4669.24 1384.5 4668.9 1384.11 4668.44 1383.91 4667.85 1383.91 4667.3 1383.91 4666.53 1384.16 4665.54 1384.67 4664.55 1385.17 4662.92 1386.19 4660.65 1387.74L4658.65 1384.27Z" fill-rule="evenodd"/><text fill="#000000" fill-opacity="0" font-family="Arial,Arial_MSFontService,sans-serif" font-size="45.1792" x="4658.65" y="1413.57">𝟏</text><path d="M4711.62 1355.95 4724.42 1355.95 4718.81 1380.25C4718.33 1382.32 4717.91 1384.24 4717.57 1386 4717.23 1387.77 4717.05 1389.24 4717.05 1390.41 4717.05 1391.72 4717.31 1392.73 4717.82 1393.42 4718.33 1394.1 4719.18 1394.45 4720.38 1394.45 4721.96 1394.45 4723.6 1393.7 4725.3 1392.2 4726.99 1390.71 4728.46 1388.98 4729.7 1387.01 4730.94 1385.05 4731.83 1382.81 4732.37 1380.3L4737.76 1355.95 4750.74 1355.95 4743.47 1386.5C4743.02 1388.38 4742.79 1390.09 4742.79 1391.62 4742.79 1392.61 4742.96 1393.37 4743.29 1393.91 4743.62 1394.45 4744.19 1394.72 4744.99 1394.72 4745.83 1394.72 4746.76 1394.34 4747.78 1393.6 4748.8 1392.85 4750 1391.71 4751.37 1390.18L4754.61 1393.42C4751.82 1396.2 4749.28 1398.2 4746.97 1399.41 4744.67 1400.63 4742.31 1401.23 4739.92 1401.23 4737.31 1401.23 4735.26 1400.54 4733.76 1399.17 4732.27 1397.79 4731.52 1395.95 4731.52 1393.64 4731.52 1392.68 4731.61 1391.96 4731.79 1391.48L4731.16 1391.39C4728.58 1394.54 4726.18 1396.87 4723.95 1398.4 4721.72 1399.93 4719.52 1400.69 4717.37 1400.69 4715.09 1400.69 4713.17 1400.03 4711.62 1398.72L4711.26 1398.85C4710.93 1402.27 4710.76 1405.71 4710.76 1409.18 4710.76 1410.98 4710.81 1412.58 4710.9 1413.99L4710 1418.53 4700.16 1418.53 4697.87 1415.47C4698.35 1413.97 4698.99 1411.67 4699.8 1408.55 4700.61 1405.44 4701.27 1402.7 4701.78 1400.33Z" fill-rule="evenodd"/><text fill="#000000" fill-opacity="0" font-family="Arial,Arial_MSFontService,sans-serif" font-size="62.5762" x="4697.87" y="1410.71">𝝁</text><path d="M4775.53 1374.03C4778.73 1374.03 4781.35 1374.46 4783.38 1375.33 4785.41 1376.19 4786.87 1377.35 4787.78 1378.83 4788.68 1380.3 4789.14 1382.02 4789.14 1383.98 4789.14 1385.7 4788.81 1387.31 4788.17 1388.79 4787.53 1390.27 4786.41 1391.96 4784.83 1393.86 4783.25 1395.76 4780.59 1398.47 4776.83 1402.01 4775.68 1403.1 4774.3 1404.53 4772.7 1406.31 4771.09 1408.08 4769.82 1409.61 4768.88 1410.87L4768.88 1411.2 4780.5 1411.2C4781.92 1411.2 4782.97 1411.09 4783.67 1410.89 4784.37 1410.68 4784.92 1410.32 4785.32 1409.81 4785.73 1409.3 4786.06 1408.53 4786.32 1407.5L4790.08 1407.5 4789.33 1419.21 4759.36 1419.21 4759.36 1417.05C4761.04 1413.19 4764.48 1408.22 4769.67 1402.14 4772.03 1399.37 4773.82 1397.09 4775.05 1395.3 4776.28 1393.51 4777.21 1391.82 4777.82 1390.23 4778.43 1388.64 4778.73 1386.99 4778.73 1385.29 4778.73 1382.89 4778.2 1381.01 4777.13 1379.64 4776.06 1378.28 4774.6 1377.6 4772.75 1377.6 4769.19 1377.6 4766.91 1380.16 4765.91 1385.29L4760.02 1385.29 4760.02 1377.57C4763.57 1376.13 4766.44 1375.18 4768.62 1374.72 4770.8 1374.26 4773.1 1374.03 4775.53 1374.03Z" fill-rule="evenodd"/><text fill="#000000" fill-opacity="0" font-family="Arial,Arial_MSFontService,sans-serif" font-size="45.1792" x="4759.36" y="1413.57">𝟐</text><rect x="3436.5" y="1267.5" width="1050" height="205" stroke="#172C51" stroke-width="9.16667" stroke-miterlimit="8" fill="#70AD47"/><rect x="4934.5" y="1266.5" width="560" height="205" stroke="#172C51" stroke-width="9.16667" stroke-miterlimit="8" fill="#ED7D31"/><path d="M5182.49 1359.21C5179.71 1359.21 5177.2 1360.59 5174.97 1363.34 5172.74 1366.1 5170.9 1370.11 5169.47 1375.38 5174.98 1375.23 5179.19 1374.18 5182.11 1372.22 5185.03 1370.25 5186.49 1367.48 5186.49 1363.88 5186.49 1362.35 5186.14 1361.19 5185.44 1360.4 5184.73 1359.61 5183.75 1359.21 5182.49 1359.21ZM5183.62 1354.54C5192.78 1354.54 5197.36 1357.85 5197.36 1364.47 5197.36 1366.74 5196.91 1368.75 5195.99 1370.49 5195.08 1372.22 5193.56 1373.79 5191.43 1375.2 5189.31 1376.61 5186.3 1377.75 5182.43 1378.62 5178.55 1379.49 5173.87 1379.98 5168.39 1380.1 5168 1381.87 5167.8 1383.69 5167.8 1385.58 5167.8 1388.36 5168.39 1390.46 5169.56 1391.87 5170.72 1393.28 5172.49 1393.98 5174.86 1393.98 5177.49 1393.98 5179.87 1393.45 5182 1392.39 5184.13 1391.32 5186.63 1389.43 5189.5 1386.7L5193.27 1390.48C5190.25 1393.89 5186.99 1396.42 5183.5 1398.07 5180.02 1399.71 5176.23 1400.54 5172.16 1400.54 5168.66 1400.54 5165.68 1399.92 5163.22 1398.7 5160.77 1397.47 5158.92 1395.65 5157.67 1393.24 5156.43 1390.83 5155.81 1387.95 5155.81 1384.59 5155.81 1383.03 5156.02 1381.04 5156.44 1378.62 5157.01 1375.32 5157.88 1372.39 5159.04 1369.81 5160.51 1366.64 5162.43 1363.91 5164.79 1361.64 5167.16 1359.36 5169.94 1357.61 5173.13 1356.38 5176.32 1355.15 5179.81 1354.54 5183.62 1354.54Z" fill-rule="evenodd"/><text fill="#000000" fill-opacity="0" font-family="Arial,Arial_MSFontService,sans-serif" font-size="46" x="5155.81" y="1394.79">𝒆</text><path d="M5210.57 1373.86 5227.22 1373.86 5226.73 1376.02C5225.79 1376.11 5225.11 1376.4 5224.69 1376.89 5224.26 1377.38 5224.05 1378.02 5224.05 1378.8 5224.05 1379.46 5224.17 1380.24 5224.41 1381.14 5224.65 1382.05 5225.02 1383.13 5225.52 1384.4L5227.58 1389.83 5231.97 1384.4C5233.36 1382.65 5234.33 1381.34 5234.88 1380.46 5235.42 1379.57 5235.7 1378.84 5235.7 1378.25 5235.7 1377.51 5235.51 1376.98 5235.14 1376.66 5234.77 1376.34 5234.16 1376.13 5233.31 1376.02L5233.8 1373.86 5247.41 1373.86 5246.92 1376.06C5246.39 1376.14 5245.87 1376.35 5245.35 1376.68 5244.82 1377 5244.11 1377.62 5243.2 1378.51 5242.3 1379.4 5240.8 1381.07 5238.71 1383.51L5229.32 1394.41 5235.11 1409.49C5235.98 1411.78 5236.76 1413.43 5237.45 1414.45 5238.13 1415.46 5239.04 1416.1 5240.18 1416.36L5239.72 1418.52 5223.04 1418.52 5223.49 1416.36C5225.22 1416.19 5226.08 1415.4 5226.08 1414.01 5226.08 1413.22 5225.98 1412.42 5225.78 1411.62 5225.59 1410.81 5225.3 1409.92 5224.93 1408.93L5222.02 1401.25 5215.25 1409.33C5214.25 1410.53 5213.54 1411.48 5213.12 1412.17 5212.71 1412.87 5212.5 1413.56 5212.5 1414.23 5212.5 1415.54 5213.31 1416.25 5214.92 1416.36L5214.46 1418.52 5200.82 1418.52 5201.28 1416.36C5202.17 1416.12 5203.06 1415.62 5203.95 1414.86 5204.83 1414.09 5206.5 1412.3 5208.97 1409.49L5220.26 1396.73 5215.25 1383.51C5214.9 1382.62 5214.48 1381.61 5213.99 1380.47 5213.5 1379.34 5213.05 1378.47 5212.65 1377.87 5212.25 1377.27 5211.85 1376.84 5211.47 1376.58 5211.09 1376.32 5210.63 1376.13 5210.08 1376.02Z" fill-rule="evenodd"/><text fill="#000000" fill-opacity="0" font-family="Arial,Arial_MSFontService,sans-serif" font-size="44.6558" x="5200.82" y="1412.94">𝑿</text></g></svg>