<svg width="2556" height="1507" xmlns="http://www.w3.org/2000/svg" xmlns:xlink="http://www.w3.org/1999/xlink" xml:space="preserve" overflow="hidden"><g transform="translate(-368 -389)"><rect x="1478.5" y="394.5" width="1058" height="205" stroke="#172C51" stroke-width="9.16667" stroke-miterlimit="8" fill="#70AD47"/><rect x="2536.5" y="394.5" width="383" height="205" stroke="#172C51" stroke-width="9.16667" stroke-miterlimit="8" fill="#ED7D31"/><path d="M2698.8 486.64C2696.02 486.64 2693.51 488.017 2691.28 490.773 2689.05 493.528 2687.21 497.541 2685.78 502.812 2691.29 502.662 2695.5 501.606 2698.42 499.645 2701.34 497.683 2702.8 494.905 2702.8 491.312 2702.8 489.784 2702.45 488.624 2701.75 487.83 2701.04 487.037 2700.06 486.64 2698.8 486.64ZM2699.93 481.968C2709.09 481.968 2713.67 485.277 2713.67 491.896 2713.67 494.172 2713.22 496.178 2712.3 497.915 2711.39 499.652 2709.87 501.224 2707.74 502.632 2705.62 504.04 2702.62 505.178 2698.74 506.046 2694.86 506.915 2690.18 507.409 2684.7 507.528 2684.31 509.295 2684.12 511.122 2684.12 513.009 2684.12 515.794 2684.7 517.89 2685.87 519.298 2687.04 520.706 2688.8 521.409 2691.17 521.409 2693.8 521.409 2696.18 520.878 2698.31 519.815 2700.44 518.751 2702.94 516.857 2705.81 514.132L2709.59 517.905C2706.56 521.319 2703.3 523.85 2699.82 525.497 2696.33 527.144 2692.55 527.968 2688.47 527.968 2684.97 527.968 2681.99 527.354 2679.53 526.126 2677.08 524.898 2675.23 523.079 2673.99 520.668 2672.74 518.257 2672.12 515.375 2672.12 512.021 2672.12 510.463 2672.33 508.472 2672.75 506.046 2673.32 502.752 2674.19 499.817 2675.36 497.241 2676.82 494.067 2678.74 491.342 2681.11 489.066 2683.47 486.79 2686.25 485.038 2689.44 483.81 2692.63 482.582 2696.12 481.968 2699.93 481.968Z" fill-rule="evenodd"/><text fill="#000000" fill-opacity="0" font-family="Arial,Arial_MSFontService,sans-serif" font-size="46" x="2672.12" y="522.218">𝒆</text><path d="M2740.26 500.77 2744.45 500.77C2744.32 502.864 2744.25 505.764 2744.25 509.472L2744.25 536.822C2744.25 538.087 2744.33 539.041 2744.47 539.684 2744.61 540.328 2744.86 540.851 2745.22 541.255 2745.58 541.658 2746.1 541.974 2746.77 542.203 2747.45 542.432 2748.3 542.607 2749.33 542.727 2750.35 542.847 2751.7 542.928 2753.38 542.972L2753.38 545.949 2725.15 545.949 2725.15 542.972C2727.57 542.863 2729.3 542.716 2730.33 542.53 2731.37 542.345 2732.16 542.067 2732.71 541.696 2733.25 541.325 2733.65 540.802 2733.9 540.126 2734.15 539.45 2734.28 538.348 2734.28 536.822L2734.28 513.169C2734.28 512.275 2734.11 511.631 2733.77 511.239 2733.43 510.846 2732.97 510.65 2732.38 510.65 2731.83 510.65 2731.07 510.901 2730.07 511.402 2729.08 511.904 2727.45 512.929 2725.18 514.477L2723.19 511.01Z" fill-rule="evenodd"/><text fill="#000000" fill-opacity="0" font-family="Arial,Arial_MSFontService,sans-serif" font-size="45.1792" x="2723.19" y="540.302">𝟏</text><text font-family="DengXian,DengXian_MSFontService,sans-serif" font-weight="700" font-size="92" transform="matrix(1 0 0 1 423.95 526)">BFV</text><rect x="1273.5" y="393.5" width="205" height="205" stroke="#000000" stroke-width="9.16667" stroke-miterlimit="8" fill="#5B9BD5"/><path d="M1325.8 482.227 1338.6 482.227 1332.99 506.529C1332.51 508.596 1332.1 510.512 1331.75 512.279 1331.41 514.046 1331.24 515.514 1331.24 516.682 1331.24 517.999 1331.49 519.003 1332 519.691 1332.51 520.38 1333.36 520.725 1334.56 520.725 1336.15 520.725 1337.79 519.976 1339.48 518.478 1341.17 516.981 1342.64 515.252 1343.88 513.29 1345.12 511.328 1346.02 509.09 1346.55 506.574L1351.95 482.227 1364.93 482.227 1357.65 512.773C1357.2 514.66 1356.98 516.367 1356.98 517.894 1356.98 518.883 1357.14 519.646 1357.47 520.185 1357.8 520.725 1358.37 520.994 1359.18 520.994 1360.02 520.994 1360.94 520.62 1361.96 519.871 1362.98 519.122 1364.18 517.984 1365.56 516.457L1368.79 519.691C1366.01 522.477 1363.46 524.476 1361.15 525.688 1358.85 526.901 1356.5 527.508 1354.1 527.508 1351.5 527.508 1349.44 526.819 1347.95 525.441 1346.45 524.064 1345.7 522.222 1345.7 519.916 1345.7 518.958 1345.79 518.239 1345.97 517.76L1345.34 517.67C1342.77 520.814 1340.36 523.15 1338.13 524.678 1335.9 526.205 1333.71 526.969 1331.55 526.969 1329.27 526.969 1327.36 526.31 1325.8 524.992L1325.44 525.127C1325.11 528.541 1324.95 531.985 1324.95 535.459 1324.95 537.256 1324.99 538.858 1325.08 540.266L1324.18 544.803 1314.35 544.803 1312.05 541.748C1312.53 540.251 1313.18 537.945 1313.99 534.83 1314.79 531.715 1315.45 528.975 1315.96 526.609Z" fill-rule="evenodd"/><text fill="#000000" fill-opacity="0" font-family="Arial,Arial_MSFontService,sans-serif" font-size="62.5762" x="1312.05" y="536.981">𝝁</text><path d="M1392.26 500.31 1396.45 500.31C1396.32 502.404 1396.25 505.304 1396.25 509.012L1396.25 536.362C1396.25 537.627 1396.32 538.581 1396.46 539.224 1396.61 539.867 1396.86 540.391 1397.22 540.794 1397.58 541.198 1398.09 541.514 1398.77 541.743 1399.45 541.972 1400.3 542.147 1401.32 542.267 1402.35 542.387 1403.7 542.468 1405.38 542.512L1405.38 545.489 1377.15 545.489 1377.15 542.512C1379.57 542.403 1381.3 542.256 1382.33 542.07 1383.37 541.885 1384.16 541.607 1384.7 541.236 1385.25 540.865 1385.65 540.342 1385.9 539.666 1386.15 538.99 1386.27 537.888 1386.27 536.362L1386.27 512.709C1386.27 511.815 1386.1 511.171 1385.77 510.779 1385.43 510.386 1384.97 510.19 1384.38 510.19 1383.83 510.19 1383.06 510.441 1382.07 510.942 1381.08 511.444 1379.45 512.469 1377.18 514.017L1375.18 510.55Z" fill-rule="evenodd"/><text fill="#000000" fill-opacity="0" font-family="Arial,Arial_MSFontService,sans-serif" font-size="45.1792" x="1375.18" y="539.842">𝟏</text><rect x="861.5" y="393.5" width="411" height="205" stroke="#172C51" stroke-width="9.16667" stroke-miterlimit="8" fill="#70AD47"/><rect x="1478.5" y="806.5" width="1058" height="205" stroke="#172C51" stroke-width="9.16667" stroke-miterlimit="8" fill="#70AD47"/><rect x="2536.5" y="806.5" width="383" height="205" stroke="#172C51" stroke-width="9.16667" stroke-miterlimit="8" fill="#ED7D31"/><path d="M2698.8 899.14C2696.02 899.14 2693.51 900.517 2691.28 903.273 2689.05 906.028 2687.21 910.041 2685.78 915.312 2691.29 915.162 2695.5 914.106 2698.42 912.145 2701.34 910.183 2702.8 907.405 2702.8 903.812 2702.8 902.284 2702.45 901.124 2701.75 900.33 2701.04 899.536 2700.06 899.14 2698.8 899.14ZM2699.93 894.468C2709.09 894.468 2713.67 897.777 2713.67 904.396 2713.67 906.672 2713.22 908.678 2712.3 910.415 2711.39 912.152 2709.87 913.724 2707.74 915.132 2705.62 916.539 2702.62 917.677 2698.74 918.546 2694.86 919.414 2690.18 919.909 2684.7 920.028 2684.31 921.795 2684.12 923.622 2684.12 925.509 2684.12 928.294 2684.7 930.39 2685.87 931.798 2687.04 933.205 2688.8 933.909 2691.17 933.909 2693.8 933.909 2696.18 933.378 2698.31 932.315 2700.44 931.251 2702.94 929.357 2705.81 926.632L2709.59 930.405C2706.56 933.819 2703.3 936.35 2699.82 937.997 2696.33 939.644 2692.55 940.468 2688.47 940.468 2684.97 940.468 2681.99 939.854 2679.53 938.626 2677.08 937.398 2675.23 935.579 2673.99 933.168 2672.74 930.757 2672.12 927.875 2672.12 924.521 2672.12 922.963 2672.33 920.972 2672.75 918.546 2673.32 915.252 2674.19 912.317 2675.36 909.741 2676.82 906.567 2678.74 903.842 2681.11 901.565 2683.47 899.289 2686.25 897.537 2689.44 896.31 2692.63 895.082 2696.12 894.468 2699.93 894.468Z" fill-rule="evenodd"/><text fill="#000000" fill-opacity="0" font-family="Arial,Arial_MSFontService,sans-serif" font-size="46" x="2672.12" y="934.718">𝒆</text><path d="M2737.71 913.27C2740.92 913.27 2743.53 913.701 2745.56 914.562 2747.59 915.424 2749.06 916.59 2749.96 918.063 2750.87 919.535 2751.32 921.252 2751.32 923.215 2751.32 924.938 2751 926.541 2750.36 928.024 2749.71 929.507 2748.6 931.198 2747.02 933.095 2745.44 934.993 2742.77 937.708 2739.02 941.241 2737.86 942.332 2736.48 943.766 2734.88 945.543 2733.28 947.321 2732.01 948.842 2731.07 950.107L2731.07 950.434 2742.68 950.434C2744.1 950.434 2745.16 950.33 2745.86 950.123 2746.56 949.916 2747.11 949.556 2747.51 949.044 2747.91 948.531 2748.25 947.762 2748.51 946.737L2752.27 946.737 2751.52 958.449 2721.55 958.449 2721.55 956.29C2723.23 952.43 2726.67 947.457 2731.86 941.372 2734.21 938.602 2736.01 936.323 2737.24 934.535 2738.47 932.746 2739.39 931.056 2740 929.464 2740.61 927.872 2740.92 926.225 2740.92 924.524 2740.92 922.125 2740.38 920.244 2739.31 918.88 2738.25 917.517 2736.78 916.836 2734.93 916.836 2731.38 916.836 2729.1 919.398 2728.09 924.524L2722.2 924.524 2722.2 916.803C2725.76 915.364 2728.63 914.415 2730.81 913.957 2732.99 913.499 2735.29 913.27 2737.71 913.27Z" fill-rule="evenodd"/><text fill="#000000" fill-opacity="0" font-family="Arial,Arial_MSFontService,sans-serif" font-size="45.1792" x="2721.55" y="952.802">𝟐</text><rect x="1273.5" y="806.5" width="205" height="205" stroke="#000000" stroke-width="9.16667" stroke-miterlimit="8" fill="#5B9BD5"/><path d="M1325.8 894.727 1338.6 894.727 1332.99 919.029C1332.51 921.096 1332.1 923.012 1331.75 924.779 1331.41 926.546 1331.24 928.014 1331.24 929.182 1331.24 930.499 1331.49 931.503 1332 932.191 1332.51 932.88 1333.36 933.225 1334.56 933.225 1336.15 933.225 1337.79 932.476 1339.48 930.978 1341.17 929.481 1342.64 927.752 1343.88 925.79 1345.12 923.828 1346.02 921.59 1346.55 919.074L1351.95 894.727 1364.93 894.727 1357.65 925.273C1357.2 927.16 1356.98 928.867 1356.98 930.394 1356.98 931.383 1357.14 932.146 1357.47 932.685 1357.8 933.225 1358.37 933.494 1359.18 933.494 1360.02 933.494 1360.94 933.12 1361.96 932.371 1362.98 931.622 1364.18 930.484 1365.56 928.957L1368.79 932.191C1366.01 934.977 1363.46 936.976 1361.15 938.188 1358.85 939.401 1356.5 940.008 1354.1 940.008 1351.5 940.008 1349.44 939.319 1347.95 937.941 1346.45 936.564 1345.7 934.722 1345.7 932.416 1345.7 931.458 1345.79 930.739 1345.97 930.26L1345.34 930.17C1342.77 933.314 1340.36 935.65 1338.13 937.178 1335.9 938.705 1333.71 939.469 1331.55 939.469 1329.27 939.469 1327.36 938.81 1325.8 937.492L1325.44 937.627C1325.11 941.041 1324.95 944.485 1324.95 947.959 1324.95 949.756 1324.99 951.358 1325.08 952.766L1324.18 957.303 1314.35 957.303 1312.05 954.248C1312.53 952.751 1313.18 950.445 1313.99 947.33 1314.79 944.215 1315.45 941.475 1315.96 939.109Z" fill-rule="evenodd"/><text fill="#000000" fill-opacity="0" font-family="Arial,Arial_MSFontService,sans-serif" font-size="62.5762" x="1312.05" y="949.481">𝝁</text><path d="M1389.71 912.81C1392.92 912.81 1395.53 913.24 1397.56 914.102 1399.59 914.964 1401.06 916.13 1401.96 917.602 1402.87 919.075 1403.32 920.792 1403.32 922.755 1403.32 924.478 1403 926.081 1402.35 927.564 1401.71 929.047 1400.6 930.737 1399.02 932.635 1397.44 934.532 1394.77 937.248 1391.02 940.781 1389.86 941.871 1388.48 943.305 1386.88 945.083 1385.28 946.86 1384.01 948.382 1383.07 949.647L1383.07 949.974 1394.68 949.974C1396.1 949.974 1397.16 949.87 1397.85 949.663 1398.55 949.456 1399.1 949.096 1399.51 948.583 1399.91 948.071 1400.24 947.302 1400.5 946.277L1404.27 946.277 1403.51 957.989 1373.55 957.989 1373.55 955.83C1375.23 951.969 1378.66 946.997 1383.85 940.912 1386.21 938.142 1388 935.863 1389.23 934.074 1390.47 932.286 1391.39 930.596 1392 929.004 1392.61 927.411 1392.92 925.765 1392.92 924.064 1392.92 921.665 1392.38 919.783 1391.31 918.42 1390.24 917.057 1388.78 916.376 1386.93 916.376 1383.37 916.376 1381.09 918.938 1380.09 924.064L1374.2 924.064 1374.2 916.343C1377.76 914.904 1380.63 913.955 1382.81 913.497 1384.99 913.039 1387.29 912.81 1389.71 912.81Z" fill-rule="evenodd"/><text fill="#000000" fill-opacity="0" font-family="Arial,Arial_MSFontService,sans-serif" font-size="45.1792" x="1373.55" y="952.342">𝟐</text><rect x="861.5" y="805.5" width="411" height="206" stroke="#172C51" stroke-width="9.16667" stroke-miterlimit="8" fill="#70AD47"/><path d="M1776.5 704C1776.5 672.796 1801.8 647.5 1833 647.5 1864.2 647.5 1889.5 672.796 1889.5 704 1889.5 735.204 1864.2 760.5 1833 760.5 1801.8 760.5 1776.5 735.204 1776.5 704Z" fill="#FFFFFF" fill-rule="evenodd"/><path d="M1793.05 664.049 1872.95 743.951M1872.95 664.049 1793.05 743.951" stroke="#000000" stroke-width="4.58333" stroke-miterlimit="8" fill="none" fill-rule="evenodd"/><path d="M1776.5 704C1776.5 672.796 1801.8 647.5 1833 647.5 1864.2 647.5 1889.5 672.796 1889.5 704 1889.5 735.204 1864.2 760.5 1833 760.5 1801.8 760.5 1776.5 735.204 1776.5 704Z" stroke="#000000" stroke-width="4.58333" stroke-miterlimit="8" fill="none" fill-rule="evenodd"/><path d="M1856.94 1066.5 1856.94 1165.5 1850.06 1165.5 1850.06 1066.5ZM1867.25 1160.92 1853.5 1188.42 1839.75 1160.92Z"/><rect x="1478.5" y="1258.5" width="722" height="206" stroke="#172C51" stroke-width="9.16667" stroke-miterlimit="8" fill="#70AD47"/><rect x="2200.5" y="1258.5" width="719" height="206" stroke="#172C51" stroke-width="9.16667" stroke-miterlimit="8" fill="#ED7D31"/><path d="M2527.74 1351.44C2524.96 1351.44 2522.45 1352.82 2520.22 1355.58 2517.99 1358.33 2516.15 1362.35 2514.71 1367.62 2520.22 1367.47 2524.44 1366.41 2527.36 1364.45 2530.28 1362.49 2531.74 1359.71 2531.74 1356.12 2531.74 1354.59 2531.39 1353.43 2530.68 1352.63 2529.98 1351.84 2529 1351.44 2527.74 1351.44ZM2528.86 1346.77C2538.03 1346.77 2542.61 1350.08 2542.61 1356.7 2542.61 1358.98 2542.15 1360.98 2541.24 1362.72 2540.33 1364.46 2538.81 1366.03 2536.68 1367.44 2534.55 1368.84 2531.55 1369.98 2527.67 1370.85 2523.8 1371.72 2519.12 1372.21 2513.64 1372.33 2513.25 1374.1 2513.05 1375.93 2513.05 1377.81 2513.05 1380.6 2513.64 1382.69 2514.8 1384.1 2515.97 1385.51 2517.74 1386.21 2520.1 1386.21 2522.74 1386.21 2525.12 1385.68 2527.25 1384.62 2529.37 1383.56 2531.87 1381.66 2534.75 1378.94L2538.52 1382.71C2535.5 1386.12 2532.24 1388.65 2528.75 1390.3 2525.26 1391.95 2521.48 1392.77 2517.41 1392.77 2513.9 1392.77 2510.93 1392.16 2508.47 1390.93 2506.01 1389.7 2504.16 1387.88 2502.92 1385.47 2501.68 1383.06 2501.06 1380.18 2501.06 1376.83 2501.06 1375.27 2501.27 1373.28 2501.69 1370.85 2502.26 1367.56 2503.12 1364.62 2504.29 1362.05 2505.76 1358.87 2507.68 1356.15 2510.04 1353.87 2512.41 1351.59 2515.19 1349.84 2518.37 1348.61 2521.56 1347.39 2525.06 1346.77 2528.86 1346.77Z" fill-rule="evenodd"/><text fill="#000000" fill-opacity="0" font-family="Arial,Arial_MSFontService,sans-serif" font-size="46" x="2501.06" y="1387.02">𝒆</text><path d="M2555.82 1366.1 2572.47 1366.1 2571.98 1368.26C2571.04 1368.34 2570.36 1368.63 2569.94 1369.12 2569.51 1369.61 2569.3 1370.25 2569.3 1371.04 2569.3 1371.69 2569.42 1372.47 2569.66 1373.38 2569.9 1374.28 2570.27 1375.37 2570.77 1376.63L2572.83 1382.06 2577.21 1376.63C2578.61 1374.89 2579.58 1373.57 2580.13 1372.69 2580.67 1371.81 2580.94 1371.07 2580.94 1370.48 2580.94 1369.74 2580.76 1369.21 2580.39 1368.9 2580.02 1368.58 2579.41 1368.37 2578.56 1368.26L2579.05 1366.1 2592.66 1366.1 2592.17 1368.29C2591.64 1368.38 2591.12 1368.58 2590.59 1368.91 2590.07 1369.24 2589.36 1369.85 2588.45 1370.74 2587.55 1371.64 2586.05 1373.31 2583.95 1375.75L2574.56 1386.64 2580.36 1401.72C2581.23 1404.01 2582.01 1405.67 2582.69 1406.68 2583.38 1407.69 2584.29 1408.33 2585.43 1408.59L2584.97 1410.75 2568.28 1410.75 2568.74 1408.59C2570.46 1408.42 2571.33 1407.63 2571.33 1406.24 2571.33 1405.45 2571.23 1404.66 2571.03 1403.85 2570.84 1403.04 2570.55 1402.15 2570.18 1401.17L2567.27 1393.48 2560.5 1401.56C2559.49 1402.76 2558.79 1403.71 2558.37 1404.41 2557.96 1405.1 2557.75 1405.79 2557.75 1406.47 2557.75 1407.78 2558.56 1408.49 2560.17 1408.59L2559.71 1410.75 2546.07 1410.75 2546.53 1408.59C2547.42 1408.35 2548.31 1407.85 2549.19 1407.09 2550.08 1406.33 2551.75 1404.54 2554.22 1401.72L2565.5 1388.97 2560.5 1375.75C2560.15 1374.85 2559.73 1373.84 2559.24 1372.71 2558.75 1371.57 2558.3 1370.71 2557.9 1370.11 2557.49 1369.51 2557.1 1369.07 2556.72 1368.81 2556.34 1368.55 2555.87 1368.37 2555.33 1368.26Z" fill-rule="evenodd"/><text fill="#000000" fill-opacity="0" font-family="Arial,Arial_MSFontService,sans-serif" font-size="44.6558" x="2546.07" y="1405.17">𝑿</text><rect x="1095.5" y="1258.5" width="383" height="205" stroke="#000000" stroke-width="9.16667" stroke-miterlimit="8" fill="#5B9BD5"/><path d="M1185.76 1347.03 1198.56 1347.03 1192.95 1371.33C1192.47 1373.4 1192.06 1375.32 1191.71 1377.08 1191.37 1378.85 1191.2 1380.32 1191.2 1381.49 1191.2 1382.8 1191.45 1383.81 1191.96 1384.5 1192.47 1385.18 1193.32 1385.53 1194.52 1385.53 1196.11 1385.53 1197.75 1384.78 1199.44 1383.28 1201.13 1381.79 1202.6 1380.06 1203.84 1378.09 1205.09 1376.13 1205.98 1373.89 1206.52 1371.38L1211.91 1347.03 1224.89 1347.03 1217.61 1377.58C1217.16 1379.46 1216.94 1381.17 1216.94 1382.7 1216.94 1383.69 1217.1 1384.45 1217.43 1384.99 1217.76 1385.53 1218.33 1385.8 1219.14 1385.8 1219.98 1385.8 1220.91 1385.42 1221.92 1384.68 1222.94 1383.93 1224.14 1382.79 1225.52 1381.26L1228.75 1384.5C1225.97 1387.28 1223.42 1389.28 1221.12 1390.49 1218.81 1391.71 1216.46 1392.31 1214.06 1392.31 1211.46 1392.31 1209.41 1391.62 1207.91 1390.25 1206.41 1388.87 1205.66 1387.03 1205.66 1384.72 1205.66 1383.76 1205.75 1383.04 1205.93 1382.56L1205.3 1382.47C1202.73 1385.62 1200.32 1387.95 1198.09 1389.48 1195.86 1391.01 1193.67 1391.77 1191.51 1391.77 1189.24 1391.77 1187.32 1391.11 1185.76 1389.8L1185.4 1389.93C1185.07 1393.35 1184.91 1396.79 1184.91 1400.26 1184.91 1402.06 1184.95 1403.66 1185.04 1405.07L1184.14 1409.61 1174.31 1409.61 1172.02 1406.55C1172.49 1405.06 1173.14 1402.75 1173.95 1399.63 1174.76 1396.52 1175.41 1393.78 1175.92 1391.41Z" fill-rule="evenodd"/><text fill="#000000" fill-opacity="0" font-family="Arial,Arial_MSFontService,sans-serif" font-size="62.5762" x="1172.02" y="1401.79">𝝁</text><path d="M1252.22 1365.11 1256.41 1365.11C1256.28 1367.21 1256.21 1370.11 1256.21 1373.82L1256.21 1401.17C1256.21 1402.43 1256.28 1403.39 1256.43 1404.03 1256.57 1404.67 1256.82 1405.2 1257.18 1405.6 1257.54 1406 1258.06 1406.32 1258.73 1406.55 1259.41 1406.78 1260.26 1406.95 1261.28 1407.07 1262.31 1407.19 1263.66 1407.27 1265.34 1407.32L1265.34 1410.29 1237.11 1410.29 1237.11 1407.32C1239.53 1407.21 1241.26 1407.06 1242.29 1406.87 1243.33 1406.69 1244.12 1406.41 1244.66 1406.04 1245.21 1405.67 1245.61 1405.15 1245.86 1404.47 1246.11 1403.79 1246.23 1402.69 1246.23 1401.17L1246.23 1377.51C1246.23 1376.62 1246.07 1375.98 1245.73 1375.58 1245.39 1375.19 1244.93 1374.99 1244.34 1374.99 1243.79 1374.99 1243.02 1375.25 1242.03 1375.75 1241.04 1376.25 1239.41 1377.27 1237.14 1378.82L1235.14 1375.35Z" fill-rule="evenodd"/><text fill="#000000" fill-opacity="0" font-family="Arial,Arial_MSFontService,sans-serif" font-size="45.1792" x="1235.14" y="1404.65">𝟏</text><path d="M1288.11 1347.03 1300.91 1347.03 1295.29 1371.33C1294.82 1373.4 1294.4 1375.32 1294.06 1377.08 1293.72 1378.85 1293.54 1380.32 1293.54 1381.49 1293.54 1382.8 1293.8 1383.81 1294.31 1384.5 1294.82 1385.18 1295.67 1385.53 1296.87 1385.53 1298.45 1385.53 1300.09 1384.78 1301.79 1383.28 1303.48 1381.79 1304.95 1380.06 1306.19 1378.09 1307.43 1376.13 1308.32 1373.89 1308.86 1371.38L1314.25 1347.03 1327.23 1347.03 1319.96 1377.58C1319.51 1379.46 1319.28 1381.17 1319.28 1382.7 1319.28 1383.69 1319.45 1384.45 1319.78 1384.99 1320.11 1385.53 1320.68 1385.8 1321.48 1385.8 1322.32 1385.8 1323.25 1385.42 1324.27 1384.68 1325.29 1383.93 1326.49 1382.79 1327.86 1381.26L1331.1 1384.5C1328.31 1387.28 1325.77 1389.28 1323.46 1390.49 1321.15 1391.71 1318.8 1392.31 1316.41 1392.31 1313.8 1392.31 1311.75 1391.62 1310.25 1390.25 1308.76 1388.87 1308.01 1387.03 1308.01 1384.72 1308.01 1383.76 1308.1 1383.04 1308.28 1382.56L1307.65 1382.47C1305.07 1385.62 1302.67 1387.95 1300.44 1389.48 1298.21 1391.01 1296.01 1391.77 1293.86 1391.77 1291.58 1391.77 1289.66 1391.11 1288.11 1389.8L1287.75 1389.93C1287.42 1393.35 1287.25 1396.79 1287.25 1400.26 1287.25 1402.06 1287.3 1403.66 1287.39 1405.07L1286.49 1409.61 1276.65 1409.61 1274.36 1406.55C1274.84 1405.06 1275.48 1402.75 1276.29 1399.63 1277.1 1396.52 1277.76 1393.78 1278.27 1391.41Z" fill-rule="evenodd"/><text fill="#000000" fill-opacity="0" font-family="Arial,Arial_MSFontService,sans-serif" font-size="62.5762" x="1274.36" y="1401.79">𝝁</text><path d="M1352.02 1365.11C1355.22 1365.11 1357.84 1365.55 1359.87 1366.41 1361.9 1367.27 1363.36 1368.43 1364.27 1369.91 1365.17 1371.38 1365.62 1373.1 1365.62 1375.06 1365.62 1376.78 1365.3 1378.39 1364.66 1379.87 1364.02 1381.35 1362.9 1383.04 1361.32 1384.94 1359.74 1386.84 1357.08 1389.55 1353.32 1393.09 1352.17 1394.18 1350.79 1395.61 1349.19 1397.39 1347.58 1399.17 1346.31 1400.69 1345.37 1401.95L1345.37 1402.28 1356.99 1402.28C1358.41 1402.28 1359.46 1402.17 1360.16 1401.97 1360.86 1401.76 1361.41 1401.4 1361.81 1400.89 1362.22 1400.38 1362.55 1399.61 1362.81 1398.58L1366.57 1398.58 1365.82 1410.29 1335.85 1410.29 1335.85 1408.13C1337.53 1404.27 1340.97 1399.3 1346.16 1393.22 1348.52 1390.45 1350.31 1388.17 1351.54 1386.38 1352.77 1384.59 1353.69 1382.9 1354.31 1381.31 1354.92 1379.72 1355.22 1378.07 1355.22 1376.37 1355.22 1373.97 1354.69 1372.09 1353.62 1370.72 1352.55 1369.36 1351.09 1368.68 1349.23 1368.68 1345.68 1368.68 1343.4 1371.24 1342.4 1376.37L1336.51 1376.37 1336.51 1368.65C1340.06 1367.21 1342.93 1366.26 1345.11 1365.8 1347.29 1365.34 1349.59 1365.11 1352.02 1365.11Z" fill-rule="evenodd"/><text fill="#000000" fill-opacity="0" font-family="Arial,Arial_MSFontService,sans-serif" font-size="45.1792" x="1335.85" y="1404.65">𝟐</text><rect x="861.5" y="1258.5" width="234" height="205" stroke="#172C51" stroke-width="9.16667" stroke-miterlimit="8" fill="#70AD47"/><path d="M2919.5 1657.5C2919.5 1686.49 2915.58 1710 2910.75 1710L1899.25 1710C1894.42 1710 1890.5 1733.51 1890.5 1762.5 1890.5 1733.51 1886.58 1710 1881.75 1710L870.25 1710C865.418 1710 861.5 1686.49 861.5 1657.5" stroke="#000000" stroke-width="3.4375" stroke-linejoin="round" stroke-miterlimit="10" stroke-dasharray="13.75 10.3125" fill="none" fill-rule="evenodd"/><path d="M1904.37 1813.22C1901.56 1813.22 1899.09 1814.59 1896.96 1817.35 1894.83 1820.1 1893.1 1823.86 1891.77 1828.6 1890.44 1833.35 1889.77 1837.62 1889.77 1841.43 1889.77 1843.61 1890.09 1845.25 1890.74 1846.32 1891.38 1847.4 1892.38 1847.94 1893.73 1847.94 1895.7 1847.94 1897.72 1846.98 1899.77 1845.04 1901.82 1843.11 1903.47 1840.84 1904.73 1838.24 1905.99 1835.63 1907.11 1832.07 1908.1 1827.55L1908.46 1825.88C1908.94 1823.67 1909.18 1821.48 1909.18 1819.33 1909.18 1817.29 1908.8 1815.76 1908.06 1814.74 1907.31 1813.73 1906.08 1813.22 1904.37 1813.22ZM1903.83 1808.55C1908.3 1808.55 1912.1 1809.62 1915.24 1811.78L1919.29 1808.55 1924.32 1809.26 1912.91 1861.19C1912.58 1862.66 1912.37 1863.75 1912.28 1864.47 1912.19 1865.19 1912.14 1865.81 1912.14 1866.31 1912.14 1867.63 1912.47 1868.56 1913.13 1869.1 1913.79 1869.64 1914.96 1870.01 1916.64 1870.22L1916.14 1873.19 1897.5 1873.19 1904.82 1845.56 1904.24 1845.38C1901.78 1848.5 1899.35 1850.81 1896.94 1852.32 1894.53 1853.83 1891.64 1854.59 1888.29 1854.59 1884.88 1854.59 1882.23 1853.35 1880.36 1850.88 1878.49 1848.41 1877.55 1844.86 1877.55 1840.21 1877.55 1836.17 1878.14 1832.16 1879.31 1828.18 1880.47 1824.19 1882.15 1820.76 1884.34 1817.87 1886.52 1814.98 1889.27 1812.7 1892.58 1811.04 1895.89 1809.38 1899.64 1808.55 1903.83 1808.55Z" fill-rule="evenodd"/><text fill="#000000" fill-opacity="0" font-family="Arial,Arial_MSFontService,sans-serif" font-size="64.6426" x="1877.55" y="1865.11">𝒒</text><path d="M1478.5 1504.5C1478.5 1533.77 1474.55 1557.5 1469.67 1557.5L1178.83 1557.5C1173.95 1557.5 1170 1581.23 1170 1610.5 1170 1581.23 1166.05 1557.5 1161.17 1557.5L870.332 1557.5C865.454 1557.5 861.5 1533.77 861.5 1504.5" stroke="#000000" stroke-width="3.4375" stroke-linejoin="round" stroke-miterlimit="10" stroke-dasharray="13.75 10.3125" fill="none" fill-rule="evenodd"/><path d="M1168.14 1631.74 1178.92 1631.74 1176.32 1642.97 1187.23 1642.97 1186.02 1648.59 1175.01 1648.59 1170.66 1666.56C1169.91 1669.64 1169.39 1671.99 1169.11 1673.59 1168.82 1675.19 1168.68 1676.55 1168.68 1677.65 1168.68 1679.06 1168.93 1680.09 1169.44 1680.73 1169.95 1681.37 1170.7 1681.7 1171.69 1681.7 1173.04 1681.7 1174.42 1681.22 1175.85 1680.26 1177.27 1679.3 1178.8 1677.82 1180.45 1675.81L1183.91 1679.36C1180.88 1682.68 1178.11 1685 1175.58 1686.3 1173.05 1687.6 1170.06 1688.26 1166.61 1688.26 1163.2 1688.26 1160.58 1687.38 1158.75 1685.63 1156.93 1683.88 1156.01 1681.46 1156.01 1678.37 1156.01 1676.96 1156.12 1675.62 1156.33 1674.35 1156.54 1673.08 1156.97 1670.99 1157.63 1668.09L1162.26 1648.59 1155.25 1648.59 1156.1 1644.95C1158.2 1644.95 1159.79 1644.76 1160.86 1644.37 1161.94 1643.98 1162.85 1643.39 1163.58 1642.61 1164.32 1641.84 1165.03 1640.65 1165.72 1639.07 1166.4 1637.48 1167.21 1635.04 1168.14 1631.74Z" fill-rule="evenodd"/><text fill="#000000" fill-opacity="0" font-family="Arial,Arial_MSFontService,sans-serif" font-size="56.5117" x="1155.25" y="1681.19">𝒕</text></g></svg>