<svg width="2638" height="1724" xmlns="http://www.w3.org/2000/svg" xmlns:xlink="http://www.w3.org/1999/xlink" xml:space="preserve" overflow="hidden"><g transform="translate(-655 -273)"><rect x="1777.5" y="531.5" width="1058" height="205" stroke="#172C51" stroke-width="9.16667" stroke-miterlimit="8" fill="#70AD47"/><text font-family="DengXian,DengXian_MSFontService,sans-serif" font-weight="700" font-size="92" transform="matrix(1 0 0 1 2032.95 665)">noise budget</text><rect x="2835.5" y="531.5" width="383" height="205" stroke="#172C51" stroke-width="9.16667" stroke-miterlimit="8" fill="#ED7D31"/><path d="M3019.97 624.14C3017.19 624.14 3014.68 625.518 3012.45 628.273 3010.22 631.028 3008.38 635.041 3006.95 640.312 3012.46 640.162 3016.67 639.107 3019.59 637.145 3022.51 635.183 3023.97 632.406 3023.97 628.812 3023.97 627.285 3023.62 626.124 3022.92 625.331 3022.21 624.537 3021.23 624.14 3019.97 624.14ZM3021.1 619.468C3030.26 619.468 3034.84 622.778 3034.84 629.396 3034.84 631.672 3034.39 633.679 3033.47 635.416 3032.56 637.153 3031.04 638.725 3028.91 640.132 3026.79 641.54 3023.78 642.678 3019.91 643.546 3016.03 644.415 3011.35 644.909 3005.87 645.029 3005.48 646.796 3005.28 648.623 3005.28 650.509 3005.28 653.294 3005.87 655.391 3007.04 656.798 3008.2 658.206 3009.97 658.91 3012.34 658.91 3014.97 658.91 3017.35 658.378 3019.48 657.315 3021.61 656.252 3024.11 654.358 3026.98 651.632L3030.76 655.406C3027.73 658.82 3024.47 661.35 3020.98 662.998 3017.5 664.645 3013.72 665.468 3009.64 665.468 3006.14 665.468 3003.16 664.854 3000.7 663.626 2998.25 662.399 2996.4 660.579 2995.15 658.168 2993.91 655.758 2993.29 652.875 2993.29 649.521 2993.29 647.964 2993.5 645.972 2993.92 643.546 2994.49 640.252 2995.36 637.317 2996.52 634.742 2997.99 631.567 2999.91 628.842 3002.27 626.566 3004.64 624.29 3007.42 622.538 3010.61 621.31 3013.8 620.082 3017.29 619.468 3021.1 619.468Z" fill-rule="evenodd"/><text fill="#000000" fill-opacity="0" font-family="Arial,Arial_MSFontService,sans-serif" font-size="46" x="2993.29" y="659.718">ğ’†</text><text font-family="DengXian,DengXian_MSFontService,sans-serif" font-weight="700" font-size="83" transform="matrix(1 0 0 1 1157.21 375)">MSB</text><text font-family="DengXian,DengXian_MSFontService,sans-serif" font-weight="700" font-size="83" transform="matrix(1 0 0 1 1523.71 375)">payload</text><text font-family="DengXian,DengXian_MSFontService,sans-serif" font-weight="700" font-size="83" transform="matrix(1 0 0 1 2923.68 375)">noise</text><path d="M1191.94 415.5 1191.94 509.151 1185.06 509.151 1185.06 415.5ZM1202.25 504.568 1188.5 532.068 1174.75 504.568Z"/><path d="M1677.94 415.5 1677.94 508.692 1671.06 508.692 1671.06 415.5ZM1688.25 504.108 1674.5 531.608 1660.75 504.108Z"/><path d="M3029.94 412.5 3029.94 506.151 3023.06 506.151 3023.06 412.5ZM3040.25 501.568 3026.5 529.068 3012.75 501.568Z"/><path d="M3218.5 888.531C3218.5 917.794 3214.55 941.516 3209.67 941.516L2209.33 941.516C2204.45 941.516 2200.5 965.238 2200.5 994.5 2200.5 965.238 2196.55 941.516 2191.67 941.516L1191.33 941.516C1186.45 941.516 1182.5 917.794 1182.5 888.531" stroke="#000000" stroke-width="3.4375" stroke-linejoin="round" stroke-miterlimit="10" stroke-dasharray="13.75 10.3125" fill="none" fill-rule="evenodd"/><path d="M2203.59 1044.69C2200.77 1044.69 2198.3 1046.07 2196.18 1048.82 2194.05 1051.58 2192.32 1055.33 2190.99 1060.07 2189.65 1064.82 2188.99 1069.1 2188.99 1072.9 2188.99 1075.09 2189.31 1076.72 2189.95 1077.8 2190.6 1078.87 2191.59 1079.41 2192.94 1079.41 2194.92 1079.41 2196.93 1078.45 2198.98 1076.52 2201.03 1074.58 2202.69 1072.32 2203.95 1069.71 2205.21 1067.11 2206.33 1063.54 2207.32 1059.02L2207.68 1057.36C2208.16 1055.14 2208.39 1052.95 2208.39 1050.8 2208.39 1048.76 2208.02 1047.23 2207.27 1046.22 2206.52 1045.2 2205.29 1044.69 2203.59 1044.69ZM2203.05 1040.02C2207.51 1040.02 2211.31 1041.1 2214.46 1043.25L2218.5 1040.02 2223.53 1040.74 2212.12 1092.67C2211.79 1094.13 2211.58 1095.23 2211.49 1095.94 2211.4 1096.66 2211.36 1097.28 2211.36 1097.79 2211.36 1099.1 2211.69 1100.03 2212.35 1100.57 2213.01 1101.11 2214.17 1101.49 2215.85 1101.69L2215.36 1104.66 2196.71 1104.66 2204.04 1077.03 2203.45 1076.85C2201 1079.97 2198.56 1082.28 2196.15 1083.79 2193.74 1085.31 2190.86 1086.06 2187.51 1086.06 2184.09 1086.06 2181.45 1084.83 2179.58 1082.36 2177.71 1079.89 2176.77 1076.33 2176.77 1071.69 2176.77 1067.64 2177.35 1063.63 2178.52 1059.65 2179.69 1055.67 2181.37 1052.23 2183.55 1049.34 2185.74 1046.45 2188.49 1044.17 2191.8 1042.51 2195.11 1040.85 2198.86 1040.02 2203.05 1040.02Z" fill-rule="evenodd"/><text fill="#000000" fill-opacity="0" font-family="Arial,Arial_MSFontService,sans-serif" font-size="64.6426" x="2176.77" y="1096.58">ğ’’</text><path d="M1777.5 736.5C1777.5 765.495 1773.58 789 1768.75 789L1477.75 789C1472.92 789 1469 812.505 1469 841.5 1469 812.505 1465.08 789 1460.25 789L1169.25 789C1164.42 789 1160.5 765.495 1160.5 736.5" stroke="#000000" stroke-width="3.4375" stroke-linejoin="round" stroke-miterlimit="10" stroke-dasharray="13.75 10.3125" fill="none" fill-rule="evenodd"/><path d="M1467.36 863.216 1478.14 863.216 1475.53 874.446 1486.45 874.446 1485.24 880.061 1474.23 880.061 1469.87 898.03C1469.12 901.115 1468.61 903.458 1468.32 905.06 1468.04 906.663 1467.9 908.018 1467.9 909.126 1467.9 910.533 1468.15 911.559 1468.66 912.203 1469.17 912.847 1469.92 913.169 1470.91 913.169 1472.25 913.169 1473.64 912.69 1475.06 911.731 1476.48 910.773 1478.02 909.291 1479.67 907.284L1483.12 910.833C1480.1 914.157 1477.32 916.471 1474.79 917.773 1472.26 919.076 1469.27 919.727 1465.83 919.727 1462.42 919.727 1459.79 918.851 1457.97 917.099 1456.14 915.347 1455.23 912.929 1455.23 909.845 1455.23 908.437 1455.33 907.097 1455.54 905.824 1455.75 904.551 1456.19 902.462 1456.84 899.557L1461.47 880.061 1454.46 880.061 1455.32 876.423C1457.41 876.423 1459 876.228 1460.08 875.839 1461.16 875.449 1462.06 874.865 1462.8 874.087 1463.53 873.308 1464.24 872.125 1464.93 870.538 1465.62 868.951 1466.43 866.51 1467.36 863.216Z" fill-rule="evenodd"/><text fill="#000000" fill-opacity="0" font-family="Arial,Arial_MSFontService,sans-serif" font-size="56.5117" x="1454.46" y="912.663">ğ’•</text><rect x="3013.5" y="1414.5" width="205" height="206" stroke="#000000" stroke-width="9.16667" stroke-miterlimit="8" fill="#5B9BD5"/><path d="M3088.43 1503.42 3101.24 1503.42 3095.62 1527.72C3095.14 1529.79 3094.73 1531.7 3094.39 1533.47 3094.04 1535.24 3093.87 1536.71 3093.87 1537.87 3093.87 1539.19 3094.12 1540.19 3094.63 1540.88 3095.14 1541.57 3096 1541.92 3097.19 1541.92 3098.78 1541.92 3100.42 1541.17 3102.11 1539.67 3103.8 1538.17 3105.27 1536.44 3106.51 1534.48 3107.76 1532.52 3108.65 1530.28 3109.19 1527.77L3114.58 1503.42 3127.56 1503.42 3120.28 1533.96C3119.83 1535.85 3119.61 1537.56 3119.61 1539.09 3119.61 1540.07 3119.77 1540.84 3120.1 1541.38 3120.43 1541.92 3121 1542.19 3121.81 1542.19 3122.65 1542.19 3123.58 1541.81 3124.6 1541.06 3125.61 1540.31 3126.81 1539.18 3128.19 1537.65L3131.42 1540.88C3128.64 1543.67 3126.09 1545.67 3123.79 1546.88 3121.48 1548.09 3119.13 1548.7 3116.73 1548.7 3114.13 1548.7 3112.08 1548.01 3110.58 1546.63 3109.08 1545.26 3108.33 1543.41 3108.33 1541.11 3108.33 1540.15 3108.42 1539.43 3108.6 1538.95L3107.97 1538.86C3105.4 1542.01 3103 1544.34 3100.76 1545.87 3098.53 1547.4 3096.34 1548.16 3094.18 1548.16 3091.91 1548.16 3089.99 1547.5 3088.43 1546.18L3088.07 1546.32C3087.74 1549.73 3087.58 1553.18 3087.58 1556.65 3087.58 1558.45 3087.62 1560.05 3087.71 1561.46L3086.82 1565.99 3076.98 1565.99 3074.69 1562.94C3075.17 1561.44 3075.81 1559.14 3076.62 1556.02 3077.43 1552.91 3078.09 1550.17 3078.6 1547.8Z" fill-rule="evenodd"/><text fill="#000000" fill-opacity="0" font-family="Arial,Arial_MSFontService,sans-serif" font-size="62.5762" x="3074.69" y="1558.17">ğ</text><rect x="1183.5" y="1414.5" width="1035" height="206" stroke="#172C51" stroke-width="9.16667" stroke-miterlimit="8" fill="#70AD47"/><text font-family="DengXian,DengXian_MSFontService,sans-serif" font-weight="700" font-size="92" transform="matrix(1 0 0 1 1427.38 1548)">noise budget</text><rect x="2218.5" y="1414.5" width="383" height="205" stroke="#172C51" stroke-width="9.16667" stroke-miterlimit="8" fill="#ED7D31"/><path d="M2403.41 1507.04C2400.62 1507.04 2398.11 1508.42 2395.88 1511.17 2393.65 1513.93 2391.82 1517.94 2390.38 1523.21 2395.89 1523.06 2400.11 1522.01 2403.03 1520.05 2405.95 1518.08 2407.41 1515.31 2407.41 1511.71 2407.41 1510.19 2407.05 1509.02 2406.35 1508.23 2405.65 1507.44 2404.67 1507.04 2403.41 1507.04ZM2404.53 1502.37C2413.69 1502.37 2418.28 1505.68 2418.28 1512.3 2418.28 1514.57 2417.82 1516.58 2416.91 1518.32 2415.99 1520.05 2414.47 1521.63 2412.35 1523.03 2410.22 1524.44 2407.22 1525.58 2403.34 1526.45 2399.46 1527.32 2394.78 1527.81 2389.3 1527.93 2388.91 1529.7 2388.72 1531.52 2388.72 1533.41 2388.72 1536.2 2389.3 1538.29 2390.47 1539.7 2391.64 1541.11 2393.4 1541.81 2395.77 1541.81 2398.41 1541.81 2400.79 1541.28 2402.91 1540.22 2405.04 1539.15 2407.54 1537.26 2410.42 1534.53L2414.19 1538.31C2411.16 1541.72 2407.91 1544.25 2404.42 1545.9 2400.93 1547.55 2397.15 1548.37 2393.08 1548.37 2389.57 1548.37 2386.59 1547.76 2384.14 1546.53 2381.68 1545.3 2379.83 1543.48 2378.59 1541.07 2377.34 1538.66 2376.72 1535.78 2376.72 1532.42 2376.72 1530.86 2376.93 1528.87 2377.35 1526.45 2377.92 1523.15 2378.79 1520.22 2379.96 1517.64 2381.43 1514.47 2383.34 1511.74 2385.71 1509.47 2388.07 1507.19 2390.85 1505.44 2394.04 1504.21 2397.23 1502.98 2400.73 1502.37 2404.53 1502.37Z" fill-rule="evenodd"/><text fill="#000000" fill-opacity="0" font-family="Arial,Arial_MSFontService,sans-serif" font-size="46" x="2376.72" y="1542.62">ğ’†</text><text font-family="DengXian,DengXian_MSFontService,sans-serif" font-weight="700" font-size="83" transform="matrix(1 0 0 1 1157.21 1255)">MSB</text><text font-family="DengXian,DengXian_MSFontService,sans-serif" font-weight="700" font-size="83" transform="matrix(1 0 0 1 2884.46 1256)">payload</text><text font-family="DengXian,DengXian_MSFontService,sans-serif" font-weight="700" font-size="83" transform="matrix(1 0 0 1 2376.16 1257)">noise</text><path d="M1191.94 1295.5 1191.94 1389.15 1185.06 1389.15 1185.06 1295.5ZM1202.25 1384.57 1188.5 1412.07 1174.75 1384.57Z"/><path d="M3075.73 1295.31 3111.41 1392.2 3104.96 1394.58 3069.27 1297.69ZM3119.5 1384.33 3116.11 1414.89 3093.7 1393.84Z"/><path d="M2482.94 1295.5 2482.94 1389.15 2476.06 1389.15 2476.06 1295.5ZM2493.25 1384.57 2479.5 1412.07 2465.75 1384.57Z"/><path d="M3218.5 1758.58C3218.5 1787.83 3214.55 1811.54 3209.67 1811.54L2209.83 1811.54C2204.95 1811.54 2201 1835.25 2201 1864.5 2201 1835.25 2197.05 1811.54 2192.17 1811.54L1192.33 1811.54C1187.45 1811.54 1183.5 1787.83 1183.5 1758.58" stroke="#000000" stroke-width="3.4375" stroke-linejoin="round" stroke-miterlimit="10" stroke-dasharray="13.75 10.3125" fill="none" fill-rule="evenodd"/><path d="M2204.17 1914.52C2201.36 1914.52 2198.89 1915.89 2196.76 1918.65 2194.63 1921.4 2192.9 1925.15 2191.57 1929.9 2190.24 1934.65 2189.57 1938.92 2189.57 1942.73 2189.57 1944.91 2189.89 1946.55 2190.54 1947.62 2191.18 1948.7 2192.18 1949.24 2193.53 1949.24 2195.5 1949.24 2197.52 1948.27 2199.57 1946.34 2201.62 1944.41 2203.27 1942.14 2204.53 1939.54 2205.79 1936.93 2206.91 1933.37 2207.9 1928.85L2208.26 1927.18C2208.74 1924.97 2208.98 1922.78 2208.98 1920.63 2208.98 1918.59 2208.6 1917.06 2207.86 1916.04 2207.11 1915.03 2205.88 1914.52 2204.17 1914.52ZM2203.63 1909.84C2208.1 1909.84 2211.9 1910.92 2215.04 1913.08L2219.09 1909.84 2224.12 1910.56 2212.71 1962.49C2212.38 1963.96 2212.17 1965.05 2212.08 1965.77 2211.99 1966.49 2211.94 1967.1 2211.94 1967.61 2211.94 1968.93 2212.27 1969.86 2212.93 1970.4 2213.59 1970.94 2214.76 1971.31 2216.44 1971.52L2215.94 1974.49 2197.3 1974.49 2204.62 1946.86 2204.04 1946.68C2201.58 1949.79 2199.15 1952.11 2196.74 1953.62 2194.33 1955.13 2191.44 1955.89 2188.09 1955.89 2184.68 1955.89 2182.03 1954.65 2180.16 1952.18 2178.29 1949.71 2177.35 1946.16 2177.35 1941.51 2177.35 1937.47 2177.94 1933.46 2179.11 1929.47 2180.27 1925.49 2181.95 1922.06 2184.14 1919.17 2186.32 1916.28 2189.07 1914 2192.38 1912.34 2195.69 1910.68 2199.44 1909.84 2203.63 1909.84Z" fill-rule="evenodd"/><text fill="#000000" fill-opacity="0" font-family="Arial,Arial_MSFontService,sans-serif" font-size="64.6426" x="2177.35" y="1966.41">ğ’’</text><path d="M3218.5 1625.5C3218.5 1653.11 3218.5 1675.5 3218.5 1675.5L2910 1675.5C2910 1675.5 2910 1697.89 2910 1725.5 2910 1697.89 2910 1675.5 2910 1675.5L2601.5 1675.5C2601.5 1675.5 2601.5 1653.11 2601.5 1625.5" stroke="#000000" stroke-width="3.4375" stroke-linejoin="round" stroke-miterlimit="10" stroke-dasharray="13.75 10.3125" fill="none" fill-rule="evenodd"/><path d="M2914.48 1734.26 2925.26 1734.26 2922.65 1745.49 2933.57 1745.49 2932.36 1751.11 2921.35 1751.11 2916.99 1769.08C2916.24 1772.16 2915.73 1774.51 2915.44 1776.11 2915.16 1777.71 2915.02 1779.07 2915.02 1780.17 2915.02 1781.58 2915.27 1782.61 2915.78 1783.25 2916.29 1783.9 2917.04 1784.22 2918.03 1784.22 2919.37 1784.22 2920.76 1783.74 2922.18 1782.78 2923.6 1781.82 2925.14 1780.34 2926.79 1778.33L2930.25 1781.88C2927.22 1785.21 2924.44 1787.52 2921.91 1788.82 2919.38 1790.12 2916.39 1790.78 2912.95 1790.78 2909.54 1790.78 2906.92 1789.9 2905.09 1788.15 2903.26 1786.4 2902.35 1783.98 2902.35 1780.89 2902.35 1779.49 2902.45 1778.15 2902.66 1776.87 2902.87 1775.6 2903.31 1773.51 2903.97 1770.61L2908.59 1751.11 2901.59 1751.11 2902.44 1747.47C2904.54 1747.47 2906.12 1747.28 2907.2 1746.89 2908.28 1746.5 2909.18 1745.91 2909.92 1745.14 2910.65 1744.36 2911.36 1743.17 2912.05 1741.59 2912.74 1740 2913.55 1737.56 2914.48 1734.26Z" fill-rule="evenodd"/><text fill="#000000" fill-opacity="0" font-family="Arial,Arial_MSFontService,sans-serif" font-size="56.5117" x="2901.59" y="1783.71">ğ’•</text><text font-family="DengXian,DengXian_MSFontService,sans-serif" font-weight="700" font-size="92" transform="matrix(1 0 0 1 710.132 651)">BFV</text><text font-family="DengXian,DengXian_MSFontService,sans-serif" font-weight="700" font-size="92" transform="matrix(1 0 0 1 710.132 1547)">BGV</text><rect x="2602.5" y="1414.5" width="411" height="205" stroke="#172C51" stroke-width="9.16667" stroke-miterlimit="8" fill="#70AD47"/><text font-family="DengXian,DengXian_MSFontService,sans-serif" font-weight="700" font-size="73" transform="matrix(1 0 0 1 2674.92 1497)">payloa</text><text font-family="DengXian,DengXian_MSFontService,sans-serif" font-weight="700" font-size="73" transform="matrix(1 0 0 1 2895.49 1497)">d</text><text font-family="DengXian,DengXian_MSFontService,sans-serif" font-weight="700" font-size="73" transform="matrix(1 0 0 1 2686.95 1585)">budget</text><rect x="1572.5" y="531.5" width="205" height="205" stroke="#000000" stroke-width="9.16667" stroke-miterlimit="8" fill="#5B9BD5"/><path d="M1646.97 619.727 1659.77 619.727 1654.16 644.03C1653.68 646.096 1653.27 648.013 1652.92 649.78 1652.58 651.547 1652.41 653.014 1652.41 654.182 1652.41 655.5 1652.66 656.503 1653.17 657.192 1653.68 657.88 1654.53 658.225 1655.73 658.225 1657.32 658.225 1658.96 657.476 1660.65 655.979 1662.34 654.481 1663.81 652.752 1665.05 650.79 1666.29 648.829 1667.18 646.59 1667.72 644.075L1673.11 619.727 1686.1 619.727 1678.82 650.274C1678.37 652.16 1678.15 653.867 1678.15 655.395 1678.15 656.383 1678.31 657.147 1678.64 657.686 1678.97 658.225 1679.54 658.494 1680.35 658.494 1681.19 658.494 1682.11 658.12 1683.13 657.371 1684.15 656.623 1685.35 655.485 1686.73 653.957L1689.96 657.192C1687.18 659.977 1684.63 661.976 1682.32 663.189 1680.02 664.402 1677.67 665.008 1675.27 665.008 1672.67 665.008 1670.61 664.319 1669.12 662.942 1667.62 661.564 1666.87 659.722 1666.87 657.416 1666.87 656.458 1666.96 655.739 1667.14 655.26L1666.51 655.17C1663.94 658.315 1661.53 660.651 1659.3 662.178 1657.07 663.705 1654.88 664.469 1652.72 664.469 1650.44 664.469 1648.53 663.81 1646.97 662.492L1646.61 662.627C1646.28 666.041 1646.12 669.485 1646.12 672.959 1646.12 674.756 1646.16 676.358 1646.25 677.766L1645.35 682.303 1635.52 682.303 1633.22 679.248C1633.7 677.751 1634.35 675.445 1635.16 672.33 1635.96 669.216 1636.62 666.476 1637.13 664.11Z" fill-rule="evenodd"/><text fill="#000000" fill-opacity="0" font-family="Arial,Arial_MSFontService,sans-serif" font-size="62.5762" x="1633.22" y="674.481">ğ</text><rect x="1160.5" y="530.5" width="411" height="206" stroke="#172C51" stroke-width="9.16667" stroke-miterlimit="8" fill="#70AD47"/><text font-family="DengXian,DengXian_MSFontService,sans-serif" font-weight="700" font-size="73" transform="matrix(1 0 0 1 1233.45 613)">payloa</text><text font-family="DengXian,DengXian_MSFontService,sans-serif" font-weight="700" font-size="73" transform="matrix(1 0 0 1 1454.03 613)">d</text><text font-family="DengXian,DengXian_MSFontService,sans-serif" font-weight="700" font-size="73" transform="matrix(1 0 0 1 1245.49 701)">budget</text></g></svg>