<svg width="2556" height="1549" xmlns="http://www.w3.org/2000/svg" xmlns:xlink="http://www.w3.org/1999/xlink" xml:space="preserve" overflow="hidden"><g transform="translate(-368 -347)"><text font-family="DengXian,DengXian_MSFontService,sans-serif" font-weight="700" font-size="92" transform="matrix(1 0 0 1 423.95 526)">B</text><text font-family="DengXian,DengXian_MSFontService,sans-serif" font-weight="700" font-size="92" transform="matrix(1 0 0 1 479.523 526)">G</text><text font-family="DengXian,DengXian_MSFontService,sans-serif" font-weight="700" font-size="92" transform="matrix(1 0 0 1 543.69 526)">V</text><path d="M1776.5 704C1776.5 672.796 1801.8 647.5 1833 647.5 1864.2 647.5 1889.5 672.796 1889.5 704 1889.5 735.204 1864.2 760.5 1833 760.5 1801.8 760.5 1776.5 735.204 1776.5 704Z" fill="#FFFFFF" fill-rule="evenodd"/><path d="M1793.05 664.049 1872.95 743.951M1872.95 664.049 1793.05 743.951" stroke="#000000" stroke-width="4.58333" stroke-miterlimit="8" fill="none" fill-rule="evenodd"/><path d="M1776.5 704C1776.5 672.796 1801.8 647.5 1833 647.5 1864.2 647.5 1889.5 672.796 1889.5 704 1889.5 735.204 1864.2 760.5 1833 760.5 1801.8 760.5 1776.5 735.204 1776.5 704Z" stroke="#000000" stroke-width="4.58333" stroke-miterlimit="8" fill="none" fill-rule="evenodd"/><path d="M1856.94 1066.5 1856.94 1165.5 1850.06 1165.5 1850.06 1066.5ZM1867.25 1160.92 1853.5 1188.42 1839.75 1160.92Z"/><path d="M2919.5 1657.5C2919.5 1686.49 2915.58 1710 2910.75 1710L1899.25 1710C1894.42 1710 1890.5 1733.51 1890.5 1762.5 1890.5 1733.51 1886.58 1710 1881.75 1710L870.25 1710C865.418 1710 861.5 1686.49 861.5 1657.5" stroke="#000000" stroke-width="3.4375" stroke-linejoin="round" stroke-miterlimit="10" stroke-dasharray="13.75 10.3125" fill="none" fill-rule="evenodd"/><path d="M1904.37 1813.22C1901.56 1813.22 1899.09 1814.59 1896.96 1817.35 1894.83 1820.1 1893.1 1823.86 1891.77 1828.6 1890.44 1833.35 1889.77 1837.62 1889.77 1841.43 1889.77 1843.61 1890.09 1845.25 1890.74 1846.32 1891.38 1847.4 1892.38 1847.94 1893.73 1847.94 1895.7 1847.94 1897.72 1846.98 1899.77 1845.04 1901.82 1843.11 1903.47 1840.84 1904.73 1838.24 1905.99 1835.63 1907.11 1832.07 1908.1 1827.55L1908.46 1825.88C1908.94 1823.67 1909.18 1821.48 1909.18 1819.33 1909.18 1817.29 1908.8 1815.76 1908.06 1814.74 1907.31 1813.73 1906.08 1813.22 1904.37 1813.22ZM1903.83 1808.55C1908.3 1808.55 1912.1 1809.62 1915.24 1811.78L1919.29 1808.55 1924.32 1809.26 1912.91 1861.19C1912.58 1862.66 1912.37 1863.75 1912.28 1864.47 1912.19 1865.19 1912.14 1865.81 1912.14 1866.31 1912.14 1867.63 1912.47 1868.56 1913.13 1869.1 1913.79 1869.64 1914.96 1870.01 1916.64 1870.22L1916.14 1873.19 1897.5 1873.19 1904.82 1845.56 1904.24 1845.38C1901.78 1848.5 1899.35 1850.81 1896.94 1852.32 1894.53 1853.83 1891.64 1854.59 1888.29 1854.59 1884.88 1854.59 1882.23 1853.35 1880.36 1850.88 1878.49 1848.41 1877.55 1844.86 1877.55 1840.21 1877.55 1836.17 1878.14 1832.16 1879.31 1828.18 1880.47 1824.19 1882.15 1820.76 1884.34 1817.87 1886.52 1814.98 1889.27 1812.7 1892.58 1811.04 1895.89 1809.38 1899.64 1808.55 1903.83 1808.55Z" fill-rule="evenodd"/><text fill="#000000" fill-opacity="0" font-family="Arial,Arial_MSFontService,sans-serif" font-size="64.6426" x="1877.55" y="1865.11">𝒒</text><rect x="2709.5" y="351.5" width="210" height="205" stroke="#000000" stroke-width="9.16667" stroke-miterlimit="8" fill="#5B9BD5"/><path d="M2764.39 440.334 2777.19 440.334 2771.58 464.637C2771.1 466.703 2770.69 468.62 2770.34 470.387 2770 472.154 2769.82 473.621 2769.82 474.789 2769.82 476.107 2770.08 477.11 2770.59 477.799 2771.1 478.488 2771.95 478.832 2773.15 478.832 2774.74 478.832 2776.38 478.084 2778.07 476.586 2779.76 475.089 2781.23 473.359 2782.47 471.398 2783.71 469.436 2784.6 467.198 2785.14 464.682L2790.53 440.334 2803.52 440.334 2796.24 470.881C2795.79 472.768 2795.56 474.475 2795.56 476.002 2795.56 476.991 2795.73 477.754 2796.06 478.293 2796.39 478.832 2796.96 479.102 2797.77 479.102 2798.6 479.102 2799.53 478.728 2800.55 477.979 2801.57 477.23 2802.77 476.092 2804.15 474.565L2807.38 477.799C2804.59 480.584 2802.05 482.583 2799.74 483.796 2797.44 485.009 2795.09 485.616 2792.69 485.616 2790.08 485.616 2788.03 484.927 2786.54 483.549 2785.04 482.172 2784.29 480.33 2784.29 478.024 2784.29 477.065 2784.38 476.347 2784.56 475.867L2783.93 475.778C2781.35 478.922 2778.95 481.258 2776.72 482.785 2774.49 484.313 2772.3 485.076 2770.14 485.076 2767.86 485.076 2765.95 484.418 2764.39 483.1L2764.03 483.235C2763.7 486.649 2763.54 490.093 2763.54 493.567 2763.54 495.364 2763.58 496.966 2763.67 498.373L2762.77 502.91 2752.93 502.91 2750.64 499.856C2751.12 498.358 2751.77 496.052 2752.57 492.938 2753.38 489.823 2754.04 487.083 2754.55 484.717Z" fill-rule="evenodd"/><text fill="#000000" fill-opacity="0" font-family="Arial,Arial_MSFontService,sans-serif" font-size="62.5762" x="2750.64" y="495.088">𝝁</text><path d="M2830.85 458.418 2835.04 458.418C2834.91 460.511 2834.84 463.412 2834.84 467.12L2834.84 494.469C2834.84 495.734 2834.91 496.689 2835.05 497.332 2835.19 497.975 2835.45 498.499 2835.81 498.902 2836.17 499.306 2836.68 499.622 2837.36 499.851 2838.04 500.08 2838.89 500.254 2839.91 500.374 2840.94 500.494 2842.29 500.576 2843.97 500.62L2843.97 503.597 2815.73 503.597 2815.73 500.62C2818.16 500.511 2819.88 500.363 2820.92 500.178 2821.96 499.993 2822.75 499.715 2823.29 499.344 2823.84 498.973 2824.24 498.45 2824.49 497.774 2824.74 497.097 2824.86 495.996 2824.86 494.469L2824.86 470.817C2824.86 469.922 2824.69 469.279 2824.36 468.886 2824.02 468.494 2823.55 468.297 2822.96 468.297 2822.42 468.297 2821.65 468.548 2820.66 469.05 2819.67 469.552 2818.04 470.577 2815.77 472.125L2813.77 468.657Z" fill-rule="evenodd"/><text fill="#000000" fill-opacity="0" font-family="Arial,Arial_MSFontService,sans-serif" font-size="45.1792" x="2813.77" y="497.949">𝟏</text><rect x="860.5" y="351.5" width="1058" height="205" stroke="#172C51" stroke-width="9.16667" stroke-miterlimit="8" fill="#70AD47"/><rect x="1910.5" y="351.5" width="391" height="205" stroke="#172C51" stroke-width="9.16667" stroke-miterlimit="8" fill="#ED7D31"/><path d="M2077.38 443.957C2074.59 443.957 2072.08 445.335 2069.85 448.09 2067.62 450.845 2065.79 454.858 2064.35 460.129 2069.86 459.979 2074.07 458.924 2076.99 456.962 2079.91 455.001 2081.37 452.223 2081.37 448.629 2081.37 447.102 2081.02 445.941 2080.32 445.148 2079.61 444.354 2078.63 443.957 2077.38 443.957ZM2078.5 439.285C2087.66 439.285 2092.25 442.595 2092.25 449.213 2092.25 451.489 2091.79 453.496 2090.88 455.233 2089.96 456.97 2088.44 458.542 2086.32 459.949 2084.19 461.357 2081.19 462.495 2077.31 463.363 2073.43 464.232 2068.75 464.726 2063.27 464.846 2062.88 466.613 2062.69 468.44 2062.69 470.326 2062.69 473.112 2063.27 475.208 2064.44 476.615 2065.61 478.023 2067.37 478.727 2069.74 478.727 2072.38 478.727 2074.76 478.195 2076.88 477.132 2079.01 476.069 2081.51 474.175 2084.38 471.449L2088.16 475.223C2085.13 478.637 2081.88 481.168 2078.39 482.815 2074.9 484.462 2071.12 485.285 2067.04 485.285 2063.54 485.285 2060.56 484.671 2058.1 483.444 2055.65 482.216 2053.8 480.396 2052.56 477.986 2051.31 475.575 2050.69 472.692 2050.69 469.338 2050.69 467.781 2050.9 465.789 2051.32 463.363 2051.89 460.069 2052.76 457.134 2053.93 454.559 2055.39 451.384 2057.31 448.659 2059.68 446.383 2062.04 444.107 2064.82 442.355 2068.01 441.127 2071.2 439.899 2074.7 439.285 2078.5 439.285Z" fill-rule="evenodd"/><text fill="#000000" fill-opacity="0" font-family="Arial,Arial_MSFontService,sans-serif" font-size="46" x="2050.69" y="479.535">𝒆</text><path d="M2118.83 458.087 2123.02 458.087C2122.89 460.181 2122.83 463.082 2122.83 466.79L2122.83 494.139C2122.83 495.404 2122.9 496.358 2123.04 497.002 2123.18 497.645 2123.43 498.169 2123.79 498.572 2124.15 498.975 2124.67 499.292 2125.35 499.521 2126.02 499.75 2126.87 499.924 2127.9 500.044 2128.92 500.164 2130.27 500.246 2131.95 500.29L2131.95 503.267 2103.72 503.267 2103.72 500.29C2106.14 500.18 2107.87 500.033 2108.91 499.848 2109.94 499.662 2110.73 499.384 2111.28 499.014 2111.82 498.643 2112.22 498.119 2112.47 497.443 2112.72 496.767 2112.85 495.666 2112.85 494.139L2112.85 470.486C2112.85 469.592 2112.68 468.949 2112.34 468.556 2112 468.164 2111.54 467.967 2110.95 467.967 2110.41 467.967 2109.64 468.218 2108.64 468.72 2107.65 469.221 2106.02 470.246 2103.75 471.795L2101.76 468.327Z" fill-rule="evenodd"/><text fill="#000000" fill-opacity="0" font-family="Arial,Arial_MSFontService,sans-serif" font-size="45.1792" x="2101.76" y="497.619">𝟏</text><rect x="2293.5" y="351.5" width="420" height="205" stroke="#172C51" stroke-width="9.16667" stroke-miterlimit="8" fill="#70AD47"/><rect x="2709.5" y="801.5" width="210" height="204" stroke="#000000" stroke-width="9.16667" stroke-miterlimit="8" fill="#5B9BD5"/><path d="M2764.39 889.458 2777.19 889.458 2771.58 913.76C2771.1 915.827 2770.69 917.743 2770.34 919.51 2770 921.277 2769.82 922.745 2769.82 923.913 2769.82 925.23 2770.08 926.234 2770.59 926.922 2771.1 927.611 2771.95 927.956 2773.15 927.956 2774.74 927.956 2776.38 927.207 2778.07 925.71 2779.76 924.212 2781.23 922.483 2782.47 920.521 2783.71 918.56 2784.6 916.321 2785.14 913.805L2790.53 889.458 2803.52 889.458 2796.24 920.005C2795.79 921.891 2795.56 923.598 2795.56 925.126 2795.56 926.114 2795.73 926.878 2796.06 927.417 2796.39 927.956 2796.96 928.225 2797.77 928.225 2798.6 928.225 2799.53 927.851 2800.55 927.102 2801.57 926.353 2802.77 925.215 2804.15 923.688L2807.38 926.922C2804.59 929.708 2802.05 931.707 2799.74 932.92 2797.44 934.132 2795.09 934.739 2792.69 934.739 2790.08 934.739 2788.03 934.05 2786.54 932.672 2785.04 931.295 2784.29 929.453 2784.29 927.147 2784.29 926.189 2784.38 925.47 2784.56 924.991L2783.93 924.901C2781.35 928.046 2778.95 930.381 2776.72 931.909 2774.49 933.436 2772.3 934.2 2770.14 934.2 2767.86 934.2 2765.95 933.541 2764.39 932.223L2764.03 932.358C2763.7 935.772 2763.54 939.216 2763.54 942.69 2763.54 944.487 2763.58 946.089 2763.67 947.497L2762.77 952.034 2752.93 952.034 2750.64 948.979C2751.12 947.482 2751.77 945.176 2752.57 942.061 2753.38 938.947 2754.04 936.206 2754.55 933.84Z" fill-rule="evenodd"/><text fill="#000000" fill-opacity="0" font-family="Arial,Arial_MSFontService,sans-serif" font-size="62.5762" x="2750.64" y="944.212">𝝁</text><path d="M2828.3 907.541C2831.5 907.541 2834.12 907.972 2836.15 908.833 2838.18 909.695 2839.64 910.862 2840.55 912.334 2841.45 913.806 2841.91 915.523 2841.91 917.486 2841.91 919.209 2841.58 920.812 2840.94 922.295 2840.3 923.778 2839.19 925.469 2837.6 927.366 2836.02 929.264 2833.36 931.979 2829.61 935.512 2828.45 936.603 2827.07 938.037 2825.47 939.814 2823.86 941.592 2822.59 943.113 2821.66 944.378L2821.66 944.705 2833.27 944.705C2834.69 944.705 2835.75 944.601 2836.44 944.394 2837.14 944.187 2837.69 943.827 2838.1 943.315 2838.5 942.802 2838.83 942.033 2839.09 941.008L2842.86 941.008 2842.1 952.72 2812.14 952.72 2812.14 950.561C2813.82 946.701 2817.25 941.728 2822.44 935.643 2824.8 932.873 2826.59 930.594 2827.82 928.806 2829.06 927.017 2829.98 925.327 2830.59 923.735 2831.2 922.143 2831.5 920.496 2831.5 918.795 2831.5 916.396 2830.97 914.515 2829.9 913.152 2828.83 911.788 2827.37 911.107 2825.52 911.107 2821.96 911.107 2819.68 913.67 2818.68 918.795L2812.79 918.795 2812.79 911.074C2816.35 909.635 2819.21 908.686 2821.39 908.228 2823.58 907.77 2825.88 907.541 2828.3 907.541Z" fill-rule="evenodd"/><text fill="#000000" fill-opacity="0" font-family="Arial,Arial_MSFontService,sans-serif" font-size="45.1792" x="2812.14" y="947.073">𝟐</text><rect x="860.5" y="801.5" width="1058" height="204" stroke="#172C51" stroke-width="9.16667" stroke-miterlimit="8" fill="#70AD47"/><rect x="1910.5" y="800.5" width="391" height="205" stroke="#172C51" stroke-width="9.16667" stroke-miterlimit="8" fill="#ED7D31"/><path d="M2077.38 893.081C2074.59 893.081 2072.08 894.458 2069.85 897.213 2067.62 899.969 2065.79 903.982 2064.35 909.252 2069.86 909.103 2074.07 908.047 2076.99 906.085 2079.91 904.124 2081.37 901.346 2081.37 897.752 2081.37 896.225 2081.02 895.065 2080.32 894.271 2079.61 893.477 2078.63 893.081 2077.38 893.081ZM2078.5 888.409C2087.66 888.409 2092.25 891.718 2092.25 898.336 2092.25 900.612 2091.79 902.619 2090.88 904.356 2089.96 906.093 2088.44 907.665 2086.32 909.073 2084.19 910.48 2081.19 911.618 2077.31 912.487 2073.43 913.355 2068.75 913.849 2063.27 913.969 2062.88 915.736 2062.69 917.563 2062.69 919.45 2062.69 922.235 2063.27 924.331 2064.44 925.739 2065.61 927.146 2067.37 927.85 2069.74 927.85 2072.38 927.85 2074.76 927.318 2076.88 926.255 2079.01 925.192 2081.51 923.298 2084.38 920.573L2088.16 924.346C2085.13 927.76 2081.88 930.291 2078.39 931.938 2074.9 933.585 2071.12 934.409 2067.04 934.409 2063.54 934.409 2060.56 933.795 2058.1 932.567 2055.65 931.339 2053.8 929.52 2052.56 927.109 2051.31 924.698 2050.69 921.816 2050.69 918.461 2050.69 916.904 2050.9 914.913 2051.32 912.487 2051.89 909.193 2052.76 906.258 2053.93 903.682 2055.39 900.508 2057.31 897.782 2059.68 895.506 2062.04 893.23 2064.82 891.478 2068.01 890.25 2071.2 889.023 2074.7 888.409 2078.5 888.409Z" fill-rule="evenodd"/><text fill="#000000" fill-opacity="0" font-family="Arial,Arial_MSFontService,sans-serif" font-size="46" x="2050.69" y="928.659">𝒆</text><path d="M2116.28 907.211C2119.49 907.211 2122.11 907.641 2124.13 908.503 2126.16 909.364 2127.63 910.531 2128.53 912.003 2129.44 913.476 2129.89 915.193 2129.89 917.156 2129.89 918.879 2129.57 920.482 2128.93 921.965 2128.28 923.448 2127.17 925.138 2125.59 927.036 2124.01 928.933 2121.34 931.649 2117.59 935.182 2116.44 936.272 2115.06 937.706 2113.45 939.484 2111.85 941.261 2110.58 942.783 2109.64 944.048L2109.64 944.375 2121.26 944.375C2122.67 944.375 2123.73 944.271 2124.43 944.064 2125.13 943.857 2125.68 943.497 2126.08 942.984 2126.48 942.472 2126.82 941.703 2127.08 940.678L2130.84 940.678 2130.09 952.39 2100.12 952.39 2100.12 950.231C2101.8 946.37 2105.24 941.398 2110.43 935.313 2112.78 932.543 2114.58 930.264 2115.81 928.475 2117.04 926.687 2117.96 924.997 2118.57 923.405 2119.18 921.812 2119.49 920.166 2119.49 918.465 2119.49 916.065 2118.95 914.184 2117.89 912.821 2116.82 911.458 2115.36 910.777 2113.5 910.777 2109.95 910.777 2107.67 913.339 2106.67 918.465L2100.78 918.465 2100.78 910.744C2104.33 909.304 2107.2 908.356 2109.38 907.898 2111.56 907.44 2113.86 907.211 2116.28 907.211Z" fill-rule="evenodd"/><text fill="#000000" fill-opacity="0" font-family="Arial,Arial_MSFontService,sans-serif" font-size="45.1792" x="2100.12" y="946.742">𝟐</text><rect x="2293.5" y="800.5" width="420" height="205" stroke="#172C51" stroke-width="9.16667" stroke-miterlimit="8" fill="#70AD47"/><rect x="2554.5" y="1228.5" width="361" height="205" stroke="#000000" stroke-width="9.16667" stroke-miterlimit="8" fill="#5B9BD5"/><path d="M2633.64 1316.96 2646.45 1316.96 2640.83 1341.26C2640.35 1343.33 2639.94 1345.25 2639.6 1347.01 2639.25 1348.78 2639.08 1350.25 2639.08 1351.42 2639.08 1352.73 2639.33 1353.74 2639.84 1354.42 2640.35 1355.11 2641.2 1355.46 2642.4 1355.46 2643.99 1355.46 2645.63 1354.71 2647.32 1353.21 2649.01 1351.71 2650.48 1349.99 2651.72 1348.02 2652.97 1346.06 2653.86 1343.82 2654.4 1341.31L2659.79 1316.96 2672.77 1316.96 2665.49 1347.51C2665.04 1349.39 2664.82 1351.1 2664.82 1352.63 2664.82 1353.62 2664.98 1354.38 2665.31 1354.92 2665.64 1355.46 2666.21 1355.73 2667.02 1355.73 2667.86 1355.73 2668.79 1355.35 2669.81 1354.6 2670.82 1353.86 2672.02 1352.72 2673.4 1351.19L2676.63 1354.42C2673.85 1357.21 2671.3 1359.21 2669 1360.42 2666.69 1361.63 2664.34 1362.24 2661.94 1362.24 2659.34 1362.24 2657.29 1361.55 2655.79 1360.17 2654.29 1358.8 2653.54 1356.96 2653.54 1354.65 2653.54 1353.69 2653.63 1352.97 2653.81 1352.49L2653.18 1352.4C2650.61 1355.55 2648.21 1357.88 2645.97 1359.41 2643.74 1360.94 2641.55 1361.7 2639.39 1361.7 2637.12 1361.7 2635.2 1361.04 2633.64 1359.73L2633.28 1359.86C2632.95 1363.27 2632.79 1366.72 2632.79 1370.19 2632.79 1371.99 2632.83 1373.59 2632.92 1375L2632.03 1379.54 2622.19 1379.54 2619.9 1376.48C2620.38 1374.98 2621.02 1372.68 2621.83 1369.56 2622.64 1366.45 2623.3 1363.71 2623.81 1361.34Z" fill-rule="evenodd"/><text fill="#000000" fill-opacity="0" font-family="Arial,Arial_MSFontService,sans-serif" font-size="62.5762" x="2619.9" y="1371.71">𝝁</text><path d="M2700.1 1335.04 2704.29 1335.04C2704.16 1337.14 2704.09 1340.04 2704.09 1343.75L2704.09 1371.1C2704.09 1372.36 2704.17 1373.31 2704.31 1373.96 2704.45 1374.6 2704.7 1375.12 2705.06 1375.53 2705.42 1375.93 2705.94 1376.25 2706.61 1376.48 2707.29 1376.71 2708.14 1376.88 2709.17 1377 2710.19 1377.12 2711.54 1377.2 2713.22 1377.25L2713.22 1380.22 2684.99 1380.22 2684.99 1377.25C2687.41 1377.14 2689.14 1376.99 2690.17 1376.8 2691.21 1376.62 2692 1376.34 2692.55 1375.97 2693.09 1375.6 2693.49 1375.08 2693.74 1374.4 2693.99 1373.72 2694.12 1372.62 2694.12 1371.1L2694.12 1347.44C2694.12 1346.55 2693.95 1345.9 2693.61 1345.51 2693.27 1345.12 2692.81 1344.92 2692.22 1344.92 2691.67 1344.92 2690.9 1345.17 2689.91 1345.68 2688.92 1346.18 2687.29 1347.2 2685.02 1348.75L2683.03 1345.28Z" fill-rule="evenodd"/><text fill="#000000" fill-opacity="0" font-family="Arial,Arial_MSFontService,sans-serif" font-size="45.1792" x="2683.03" y="1374.58">𝟏</text><path d="M2735.99 1316.96 2748.79 1316.96 2743.18 1341.26C2742.7 1343.33 2742.29 1345.25 2741.94 1347.01 2741.6 1348.78 2741.42 1350.25 2741.42 1351.42 2741.42 1352.73 2741.68 1353.74 2742.19 1354.42 2742.7 1355.11 2743.55 1355.46 2744.75 1355.46 2746.34 1355.46 2747.98 1354.71 2749.67 1353.21 2751.36 1351.71 2752.83 1349.99 2754.07 1348.02 2755.31 1346.06 2756.2 1343.82 2756.74 1341.31L2762.13 1316.96 2775.12 1316.96 2767.84 1347.51C2767.39 1349.39 2767.16 1351.1 2767.16 1352.63 2767.16 1353.62 2767.33 1354.38 2767.66 1354.92 2767.99 1355.46 2768.56 1355.73 2769.37 1355.73 2770.2 1355.73 2771.13 1355.35 2772.15 1354.6 2773.17 1353.86 2774.37 1352.72 2775.74 1351.19L2778.98 1354.42C2776.19 1357.21 2773.65 1359.21 2771.34 1360.42 2769.04 1361.63 2766.69 1362.24 2764.29 1362.24 2761.68 1362.24 2759.63 1361.55 2758.14 1360.17 2756.64 1358.8 2755.89 1356.96 2755.89 1354.65 2755.89 1353.69 2755.98 1352.97 2756.16 1352.49L2755.53 1352.4C2752.95 1355.55 2750.55 1357.88 2748.32 1359.41 2746.09 1360.94 2743.9 1361.7 2741.74 1361.7 2739.46 1361.7 2737.55 1361.04 2735.99 1359.73L2735.63 1359.86C2735.3 1363.27 2735.14 1366.72 2735.14 1370.19 2735.14 1371.99 2735.18 1373.59 2735.27 1375L2734.37 1379.54 2724.53 1379.54 2722.24 1376.48C2722.72 1374.98 2723.37 1372.68 2724.17 1369.56 2724.98 1366.45 2725.64 1363.71 2726.15 1361.34Z" fill-rule="evenodd"/><text fill="#000000" fill-opacity="0" font-family="Arial,Arial_MSFontService,sans-serif" font-size="62.5762" x="2722.24" y="1371.71">𝝁</text><path d="M2799.9 1335.04C2803.1 1335.04 2805.72 1335.47 2807.75 1336.34 2809.78 1337.2 2811.24 1338.36 2812.15 1339.84 2813.05 1341.31 2813.51 1343.03 2813.51 1344.99 2813.51 1346.71 2813.18 1348.31 2812.54 1349.8 2811.9 1351.28 2810.79 1352.97 2809.2 1354.87 2807.62 1356.77 2804.96 1359.48 2801.21 1363.01 2800.05 1364.1 2798.67 1365.54 2797.07 1367.32 2795.46 1369.09 2794.19 1370.62 2793.26 1371.88L2793.26 1372.21 2804.87 1372.21C2806.29 1372.21 2807.34 1372.1 2808.04 1371.9 2808.74 1371.69 2809.29 1371.33 2809.7 1370.82 2810.1 1370.3 2810.43 1369.54 2810.69 1368.51L2814.46 1368.51 2813.7 1380.22 2783.74 1380.22 2783.74 1378.06C2785.42 1374.2 2788.85 1369.23 2794.04 1363.15 2796.4 1360.38 2798.19 1358.1 2799.42 1356.31 2800.65 1354.52 2801.58 1352.83 2802.19 1351.24 2802.8 1349.65 2803.1 1348 2803.1 1346.3 2803.1 1343.9 2802.57 1342.02 2801.5 1340.65 2800.43 1339.29 2798.97 1338.61 2797.12 1338.61 2793.56 1338.61 2791.28 1341.17 2790.28 1346.3L2784.39 1346.3 2784.39 1338.58C2787.95 1337.14 2790.81 1336.19 2792.99 1335.73 2795.18 1335.27 2797.48 1335.04 2799.9 1335.04Z" fill-rule="evenodd"/><text fill="#000000" fill-opacity="0" font-family="Arial,Arial_MSFontService,sans-serif" font-size="45.1792" x="2783.74" y="1374.58">𝟐</text><rect x="856.5" y="1228.5" width="825" height="205" stroke="#172C51" stroke-width="9.16667" stroke-miterlimit="8" fill="#70AD47"/><rect x="1681.5" y="1228.5" width="616" height="205" stroke="#172C51" stroke-width="9.16667" stroke-miterlimit="8" fill="#ED7D31"/><path d="M1957.6 1320.75C1954.82 1320.75 1952.31 1322.13 1950.08 1324.88 1947.85 1327.64 1946.01 1331.65 1944.58 1336.92 1950.09 1336.77 1954.3 1335.71 1957.22 1333.75 1960.14 1331.79 1961.6 1329.01 1961.6 1325.42 1961.6 1323.89 1961.25 1322.73 1960.54 1321.94 1959.84 1321.14 1958.86 1320.75 1957.6 1320.75ZM1958.73 1316.08C1967.89 1316.08 1972.47 1319.39 1972.47 1326 1972.47 1328.28 1972.01 1330.29 1971.1 1332.02 1970.19 1333.76 1968.67 1335.33 1966.54 1336.74 1964.42 1338.15 1961.41 1339.29 1957.54 1340.15 1953.66 1341.02 1948.98 1341.52 1943.5 1341.64 1943.11 1343.4 1942.91 1345.23 1942.91 1347.12 1942.91 1349.9 1943.5 1352 1944.66 1353.41 1945.83 1354.81 1947.6 1355.52 1949.97 1355.52 1952.6 1355.52 1954.98 1354.99 1957.11 1353.92 1959.23 1352.86 1961.74 1350.97 1964.61 1348.24L1968.38 1352.01C1965.36 1355.43 1962.1 1357.96 1958.61 1359.61 1955.12 1361.25 1951.34 1362.08 1947.27 1362.08 1943.77 1362.08 1940.79 1361.46 1938.33 1360.23 1935.88 1359.01 1934.03 1357.19 1932.78 1354.78 1931.54 1352.37 1930.92 1349.48 1930.92 1346.13 1930.92 1344.57 1931.13 1342.58 1931.55 1340.15 1932.12 1336.86 1932.99 1333.92 1934.15 1331.35 1935.62 1328.17 1937.54 1325.45 1939.9 1323.17 1942.27 1320.9 1945.05 1319.15 1948.24 1317.92 1951.43 1316.69 1954.92 1316.08 1958.73 1316.08Z" fill-rule="evenodd"/><text fill="#000000" fill-opacity="0" font-family="Arial,Arial_MSFontService,sans-serif" font-size="46" x="1930.92" y="1356.33">𝒆</text><path d="M1985.68 1335.4 2002.33 1335.4 2001.84 1337.56C2000.9 1337.65 2000.22 1337.94 1999.8 1338.43 1999.37 1338.92 1999.16 1339.56 1999.16 1340.34 1999.16 1341 1999.28 1341.78 1999.52 1342.68 1999.76 1343.59 2000.13 1344.67 2000.63 1345.94L2002.69 1351.37 2007.08 1345.94C2008.47 1344.19 2009.44 1342.88 2009.99 1341.99 2010.53 1341.11 2010.81 1340.37 2010.81 1339.79 2010.81 1339.04 2010.62 1338.51 2010.25 1338.2 2009.88 1337.88 2009.27 1337.67 2008.42 1337.56L2008.91 1335.4 2022.52 1335.4 2022.03 1337.59C2021.5 1337.68 2020.98 1337.89 2020.46 1338.21 2019.93 1338.54 2019.22 1339.15 2018.31 1340.05 2017.41 1340.94 2015.91 1342.61 2013.82 1345.05L2004.43 1355.95 2010.22 1371.03C2011.09 1373.32 2011.87 1374.97 2012.56 1375.98 2013.24 1377 2014.15 1377.64 2015.29 1377.9L2014.83 1380.06 1998.15 1380.06 1998.6 1377.9C2000.33 1377.72 2001.19 1376.94 2001.19 1375.54 2001.19 1374.76 2001.09 1373.96 2000.89 1373.15 2000.7 1372.35 2000.41 1371.45 2000.04 1370.47L1997.13 1362.78 1990.36 1370.86C1989.36 1372.06 1988.65 1373.01 1988.23 1373.71 1987.82 1374.41 1987.61 1375.1 1987.61 1375.77 1987.61 1377.08 1988.42 1377.79 1990.03 1377.9L1989.57 1380.06 1975.93 1380.06 1976.39 1377.9C1977.28 1377.66 1978.17 1377.16 1979.06 1376.39 1979.94 1375.63 1981.61 1373.84 1984.08 1371.03L1995.36 1358.27 1990.36 1345.05C1990.01 1344.16 1989.59 1343.14 1989.1 1342.01 1988.61 1340.88 1988.16 1340.01 1987.76 1339.41 1987.35 1338.81 1986.96 1338.38 1986.58 1338.12 1986.2 1337.85 1985.74 1337.67 1985.19 1337.56Z" fill-rule="evenodd"/><text fill="#000000" fill-opacity="0" font-family="Arial,Arial_MSFontService,sans-serif" font-size="44.6558" x="1975.93" y="1374.48">𝑿</text><rect x="2289.5" y="1228.5" width="265" height="205" stroke="#172C51" stroke-width="9.16667" stroke-miterlimit="8" fill="#70AD47"/><path d="M2919.5 1479.5C2919.5 1504.63 2919.5 1525 2919.5 1525L2604.5 1525C2604.5 1525 2604.5 1545.37 2604.5 1570.5 2604.5 1545.37 2604.5 1525 2604.5 1525L2289.5 1525C2289.5 1525 2289.5 1504.63 2289.5 1479.5" stroke="#000000" stroke-width="3.4375" stroke-linejoin="round" stroke-miterlimit="10" stroke-dasharray="13.75 10.3125" fill="none" fill-rule="evenodd"/><path d="M2614.68 1579.24 2625.46 1579.24 2622.85 1590.47 2633.77 1590.47 2632.56 1596.08 2621.55 1596.08 2617.19 1614.05C2616.45 1617.14 2615.93 1619.48 2615.64 1621.08 2615.36 1622.68 2615.22 1624.04 2615.22 1625.15 2615.22 1626.55 2615.47 1627.58 2615.98 1628.22 2616.49 1628.87 2617.24 1629.19 2618.23 1629.19 2619.57 1629.19 2620.96 1628.71 2622.38 1627.75 2623.8 1626.79 2625.34 1625.31 2626.99 1623.3L2630.45 1626.85C2627.42 1630.18 2624.64 1632.49 2622.11 1633.79 2619.58 1635.1 2616.59 1635.75 2613.15 1635.75 2609.74 1635.75 2607.12 1634.87 2605.29 1633.12 2603.46 1631.37 2602.55 1628.95 2602.55 1625.87 2602.55 1624.46 2602.65 1623.12 2602.86 1621.84 2603.07 1620.57 2603.51 1618.48 2604.17 1615.58L2608.79 1596.08 2601.79 1596.08 2602.64 1592.44C2604.74 1592.44 2606.32 1592.25 2607.4 1591.86 2608.48 1591.47 2609.39 1590.89 2610.12 1590.11 2610.85 1589.33 2611.56 1588.15 2612.25 1586.56 2612.94 1584.97 2613.75 1582.53 2614.68 1579.24Z" fill-rule="evenodd"/><text fill="#000000" fill-opacity="0" font-family="Arial,Arial_MSFontService,sans-serif" font-size="56.5117" x="2601.79" y="1628.68">𝒕</text></g></svg>