<svg width="2700" height="1648" xmlns="http://www.w3.org/2000/svg" xmlns:xlink="http://www.w3.org/1999/xlink" xml:space="preserve" overflow="hidden"><g transform="translate(-564 -270)"><rect x="2465.5" y="1335.5" width="392" height="206" stroke="#000000" stroke-width="9.16667" stroke-miterlimit="8" fill="#5B9BD5"/><path d="M2633.58 1424.53 2646.39 1424.53 2640.77 1448.84C2640.29 1450.9 2639.88 1452.82 2639.54 1454.59 2639.19 1456.35 2639.02 1457.82 2639.02 1458.99 2639.02 1460.31 2639.27 1461.31 2639.78 1462 2640.29 1462.69 2641.15 1463.03 2642.34 1463.03 2643.93 1463.03 2645.57 1462.28 2647.26 1460.79 2648.95 1459.29 2650.42 1457.56 2651.66 1455.6 2652.91 1453.64 2653.8 1451.4 2654.34 1448.88L2659.73 1424.53 2672.71 1424.53 2665.43 1455.08C2664.98 1456.97 2664.76 1458.67 2664.76 1460.2 2664.76 1461.19 2664.92 1461.95 2665.25 1462.49 2665.58 1463.03 2666.15 1463.3 2666.96 1463.3 2667.8 1463.3 2668.73 1462.93 2669.75 1462.18 2670.76 1461.43 2671.96 1460.29 2673.34 1458.76L2676.57 1462C2673.79 1464.78 2671.24 1466.78 2668.94 1468 2666.63 1469.21 2664.28 1469.81 2661.88 1469.81 2659.28 1469.81 2657.23 1469.13 2655.73 1467.75 2654.23 1466.37 2653.48 1464.53 2653.48 1462.22 2653.48 1461.26 2653.57 1460.55 2653.75 1460.07L2653.12 1459.98C2650.55 1463.12 2648.15 1465.46 2645.91 1466.98 2643.68 1468.51 2641.49 1469.28 2639.33 1469.28 2637.06 1469.28 2635.14 1468.62 2633.58 1467.3L2633.22 1467.43C2632.9 1470.85 2632.73 1474.29 2632.73 1477.77 2632.73 1479.56 2632.78 1481.16 2632.86 1482.57L2631.97 1487.11 2622.13 1487.11 2619.84 1484.05C2620.32 1482.56 2620.96 1480.25 2621.77 1477.14 2622.58 1474.02 2623.24 1471.28 2623.75 1468.92Z" fill-rule="evenodd"/><text fill="#000000" fill-opacity="0" font-family="Arial,Arial_MSFontService,sans-serif" font-size="62.5762" x="2619.84" y="1479.29">ğ</text><rect x="1148.5" y="1335.5" width="1317" height="206" stroke="#172C51" stroke-width="9.16667" stroke-miterlimit="8" fill="#70AD47"/><text font-family="DengXian,DengXian_MSFontService,sans-serif" font-weight="700" font-size="92" transform="matrix(1 0 0 1 1264.23 1469)">noise</text><text font-family="DengXian,DengXian_MSFontService,sans-serif" font-weight="700" font-size="92" transform="matrix(1 0 0 1 1510.01 1469)">and payload</text><text font-family="DengXian,DengXian_MSFontService,sans-serif" font-weight="700" font-size="92" transform="matrix(1 0 0 1 2048.55 1469)">budget</text><rect x="2849.5" y="1335.5" width="327" height="206" stroke="#172C51" stroke-width="9.16667" stroke-miterlimit="8" fill="#ED7D31"/><path d="M3006.06 1428.49C3003.28 1428.49 3000.77 1429.86 2998.54 1432.62 2996.31 1435.37 2994.48 1439.39 2993.04 1444.66 2998.55 1444.51 3002.76 1443.45 3005.68 1441.49 3008.6 1439.53 3010.06 1436.75 3010.06 1433.16 3010.06 1431.63 3009.71 1430.47 3009.01 1429.68 3008.3 1428.88 3007.32 1428.49 3006.06 1428.49ZM3007.19 1423.81C3016.35 1423.81 3020.93 1427.12 3020.93 1433.74 3020.93 1436.02 3020.48 1438.03 3019.56 1439.76 3018.65 1441.5 3017.13 1443.07 3015 1444.48 3012.88 1445.89 3009.88 1447.02 3006 1447.89 3002.12 1448.76 2997.44 1449.26 2991.96 1449.38 2991.57 1451.14 2991.38 1452.97 2991.38 1454.86 2991.38 1457.64 2991.96 1459.74 2993.13 1461.14 2994.3 1462.55 2996.06 1463.26 2998.43 1463.26 3001.06 1463.26 3003.44 1462.72 3005.57 1461.66 3007.7 1460.6 3010.2 1458.7 3013.07 1455.98L3016.85 1459.75C3013.82 1463.17 3010.56 1465.7 3007.08 1467.34 3003.59 1468.99 2999.81 1469.81 2995.73 1469.81 2992.23 1469.81 2989.25 1469.2 2986.79 1467.97 2984.34 1466.74 2982.49 1464.93 2981.25 1462.51 2980 1460.1 2979.38 1457.22 2979.38 1453.87 2979.38 1452.31 2979.59 1450.32 2980.01 1447.89 2980.58 1444.6 2981.45 1441.66 2982.62 1439.09 2984.08 1435.91 2986 1433.19 2988.37 1430.91 2990.73 1428.64 2993.51 1426.88 2996.7 1425.66 2999.89 1424.43 3003.38 1423.81 3007.19 1423.81Z" fill-rule="evenodd"/><text fill="#000000" fill-opacity="0" font-family="Arial,Arial_MSFontService,sans-serif" font-size="46" x="2979.38" y="1464.06">ğ’†</text><text font-family="DengXian,DengXian_MSFontService,sans-serif" font-weight="700" font-size="83" transform="matrix(1 0 0 1 1122.48 1176)">MSB</text><text font-family="DengXian,DengXian_MSFontService,sans-serif" font-weight="700" font-size="83" transform="matrix(1 0 0 1 2497.87 1176)">payload</text><text font-family="DengXian,DengXian_MSFontService,sans-serif" font-weight="700" font-size="83" transform="matrix(1 0 0 1 2819.27 1176)">+noise</text><path d="M1157.94 1216.5 1157.94 1310.15 1151.06 1310.15 1151.06 1216.5ZM1168.25 1305.57 1154.5 1333.07 1140.75 1305.57Z"/><path d="M3184.5 1679.5C3184.5 1708.77 3180.55 1732.5 3175.67 1732.5L2175.33 1732.5C2170.45 1732.5 2166.5 1756.23 2166.5 1785.5 2166.5 1756.23 2162.55 1732.5 2157.67 1732.5L1157.33 1732.5C1152.45 1732.5 1148.5 1708.77 1148.5 1679.5" stroke="#000000" stroke-width="3.4375" stroke-linejoin="round" stroke-miterlimit="10" stroke-dasharray="13.75 10.3125" fill="none" fill-rule="evenodd"/><path d="M2169.44 1835.63C2166.62 1835.63 2164.15 1837.01 2162.02 1839.76 2159.9 1842.52 2158.17 1846.27 2156.84 1851.02 2155.5 1855.76 2154.84 1860.04 2154.84 1863.84 2154.84 1866.03 2155.16 1867.66 2155.8 1868.74 2156.45 1869.82 2157.44 1870.36 2158.79 1870.36 2160.77 1870.36 2162.78 1869.39 2164.83 1867.46 2166.88 1865.53 2168.54 1863.26 2169.8 1860.65 2171.05 1858.05 2172.18 1854.48 2173.16 1849.96L2173.52 1848.3C2174 1846.08 2174.24 1843.9 2174.24 1841.74 2174.24 1839.7 2173.87 1838.18 2173.12 1837.16 2172.37 1836.14 2171.14 1835.63 2169.44 1835.63ZM2168.9 1830.96C2173.36 1830.96 2177.16 1832.04 2180.31 1834.19L2184.35 1830.96 2189.38 1831.68 2177.97 1883.61C2177.64 1885.08 2177.43 1886.17 2177.34 1886.89 2177.25 1887.61 2177.21 1888.22 2177.21 1888.73 2177.21 1890.05 2177.54 1890.97 2178.2 1891.51 2178.85 1892.05 2180.02 1892.43 2181.7 1892.64L2181.21 1895.6 2162.56 1895.6 2169.89 1867.97 2169.3 1867.8C2166.85 1870.91 2164.41 1873.22 2162 1874.74 2159.59 1876.25 2156.71 1877 2153.35 1877 2149.94 1877 2147.3 1875.77 2145.43 1873.3 2143.55 1870.83 2142.62 1867.27 2142.62 1862.63 2142.62 1858.59 2143.2 1854.57 2144.37 1850.59 2145.54 1846.61 2147.21 1843.17 2149.4 1840.28 2151.59 1837.39 2154.33 1835.11 2157.64 1833.45 2160.95 1831.79 2164.7 1830.96 2168.9 1830.96Z" fill-rule="evenodd"/><text fill="#000000" fill-opacity="0" font-family="Arial,Arial_MSFontService,sans-serif" font-size="64.6426" x="2142.62" y="1887.52">ğ’’</text><text font-family="DengXian,DengXian_MSFontService,sans-serif" font-weight="700" font-size="92" transform="matrix(1 0 0 1 619.184 1468)">CKKS</text><rect x="2429.5" y="1306.5" width="768" height="276" stroke="#000000" stroke-width="4.58333" stroke-linecap="square" stroke-miterlimit="8" stroke-dasharray="13.75 4.58333" fill="none"/><path d="M2458.5 1277.5C2458.5 1260.1 2460.85 1246 2463.75 1246L2808.25 1246C2811.15 1246 2813.5 1231.9 2813.5 1214.5 2813.5 1231.9 2815.85 1246 2818.75 1246L3163.25 1246C3166.15 1246 3168.5 1260.1 3168.5 1277.5" stroke="#000000" stroke-width="3.4375" stroke-linejoin="round" stroke-miterlimit="10" stroke-dasharray="13.75 10.3125" fill="none" fill-rule="evenodd"/><rect x="2984.5" y="532.5" width="205" height="205" stroke="#000000" stroke-width="9.16667" stroke-miterlimit="8" fill="#5B9BD5"/><path d="M3059.28 620.885 3072.08 620.885 3066.47 645.188C3065.99 647.254 3065.58 649.171 3065.23 650.938 3064.89 652.705 3064.72 654.172 3064.72 655.34 3064.72 656.658 3064.97 657.661 3065.48 658.35 3065.99 659.039 3066.84 659.383 3068.04 659.383 3069.63 659.383 3071.27 658.635 3072.96 657.137 3074.65 655.64 3076.12 653.91 3077.36 651.949 3078.61 649.987 3079.5 647.749 3080.04 645.233L3085.43 620.885 3098.41 620.885 3091.13 651.432C3090.68 653.319 3090.46 655.026 3090.46 656.553 3090.46 657.542 3090.62 658.305 3090.95 658.844 3091.28 659.383 3091.85 659.653 3092.66 659.653 3093.5 659.653 3094.43 659.279 3095.44 658.53 3096.46 657.781 3097.66 656.643 3099.04 655.116L3102.27 658.35C3099.49 661.135 3096.94 663.134 3094.64 664.347 3092.33 665.56 3089.98 666.167 3087.58 666.167 3084.98 666.167 3082.93 665.478 3081.43 664.1 3079.93 662.723 3079.18 660.881 3079.18 658.575 3079.18 657.616 3079.27 656.898 3079.45 656.419L3078.82 656.329C3076.25 659.473 3073.84 661.809 3071.61 663.336 3069.38 664.864 3067.19 665.628 3065.03 665.628 3062.76 665.628 3060.84 664.969 3059.28 663.651L3058.92 663.786C3058.59 667.2 3058.43 670.644 3058.43 674.118 3058.43 675.915 3058.47 677.517 3058.56 678.924L3057.66 683.461 3047.83 683.461 3045.54 680.407C3046.01 678.909 3046.66 676.603 3047.47 673.489 3048.28 670.374 3048.93 667.634 3049.44 665.268Z" fill-rule="evenodd"/><text fill="#000000" fill-opacity="0" font-family="Arial,Arial_MSFontService,sans-serif" font-size="62.5762" x="3045.54" y="675.639">ğ</text><rect x="1154.5" y="532.5" width="1035" height="205" stroke="#172C51" stroke-width="9.16667" stroke-miterlimit="8" fill="#70AD47"/><text font-family="DengXian,DengXian_MSFontService,sans-serif" font-weight="700" font-size="92" transform="matrix(1 0 0 1 1398.23 665)">noise budget</text><rect x="2189.5" y="532.5" width="383" height="205" stroke="#172C51" stroke-width="9.16667" stroke-miterlimit="8" fill="#ED7D31"/><path d="M2374.26 624.508C2371.47 624.508 2368.96 625.886 2366.73 628.641 2364.5 631.396 2362.67 635.409 2361.23 640.68 2366.74 640.53 2370.95 639.475 2373.87 637.513 2376.79 635.552 2378.25 632.774 2378.25 629.18 2378.25 627.653 2377.9 626.492 2377.2 625.699 2376.49 624.905 2375.51 624.508 2374.26 624.508ZM2375.38 619.836C2384.54 619.836 2389.12 623.146 2389.12 629.764 2389.12 632.04 2388.67 634.047 2387.75 635.784 2386.84 637.521 2385.32 639.093 2383.19 640.5 2381.07 641.908 2378.07 643.046 2374.19 643.914 2370.31 644.783 2365.63 645.277 2360.15 645.397 2359.76 647.164 2359.57 648.991 2359.57 650.877 2359.57 653.663 2360.15 655.759 2361.32 657.166 2362.49 658.574 2364.25 659.278 2366.62 659.278 2369.25 659.278 2371.64 658.746 2373.76 657.683 2375.89 656.62 2378.39 654.726 2381.26 652L2385.04 655.774C2382.01 659.188 2378.76 661.719 2375.27 663.366 2371.78 665.013 2368 665.836 2363.92 665.836 2360.42 665.836 2357.44 665.222 2354.98 663.995 2352.53 662.767 2350.68 660.947 2349.44 658.537 2348.19 656.126 2347.57 653.243 2347.57 649.889 2347.57 648.332 2347.78 646.34 2348.2 643.914 2348.77 640.62 2349.64 637.685 2350.81 635.11 2352.27 631.935 2354.19 629.21 2356.56 626.934 2358.92 624.658 2361.7 622.906 2364.89 621.678 2368.08 620.45 2371.57 619.836 2375.38 619.836Z" fill-rule="evenodd"/><text fill="#000000" fill-opacity="0" font-family="Arial,Arial_MSFontService,sans-serif" font-size="46" x="2347.57" y="660.086">ğ’†</text><text font-family="DengXian,DengXian_MSFontService,sans-serif" font-weight="700" font-size="83" transform="matrix(1 0 0 1 1128.06 373)">MSB</text><text font-family="DengXian,DengXian_MSFontService,sans-serif" font-weight="700" font-size="83" transform="matrix(1 0 0 1 2855.31 374)">payload</text><text font-family="DengXian,DengXian_MSFontService,sans-serif" font-weight="700" font-size="83" transform="matrix(1 0 0 1 2347.01 375)">noise</text><path d="M1162.94 412.5 1162.94 506.151 1156.06 506.151 1156.06 412.5ZM1173.25 501.568 1159.5 529.068 1145.75 501.568Z"/><path d="M3046.73 412.312 3082.41 509.2 3075.96 511.576 3040.27 414.688ZM3090.5 501.335 3087.11 531.892 3064.7 510.839Z"/><path d="M2453.94 412.5 2453.94 506.151 2447.06 506.151 2447.06 412.5ZM2464.25 501.568 2450.5 529.068 2436.75 501.568Z"/><path d="M3189.5 875.551C3189.5 904.808 3185.55 928.526 3180.67 928.526L2180.83 928.526C2175.95 928.526 2172 952.243 2172 981.5 2172 952.243 2168.05 928.526 2163.17 928.526L1163.33 928.526C1158.45 928.526 1154.5 904.808 1154.5 875.551" stroke="#000000" stroke-width="3.4375" stroke-linejoin="round" stroke-miterlimit="10" stroke-dasharray="13.75 10.3125" fill="none" fill-rule="evenodd"/><path d="M2175.02 1031.98C2172.21 1031.98 2169.73 1033.36 2167.61 1036.12 2165.48 1038.87 2163.75 1042.62 2162.42 1047.37 2161.09 1052.12 2160.42 1056.39 2160.42 1060.19 2160.42 1062.38 2160.74 1064.01 2161.39 1065.09 2162.03 1066.17 2163.03 1066.71 2164.37 1066.71 2166.35 1066.71 2168.36 1065.74 2170.42 1063.81 2172.47 1061.88 2174.12 1059.61 2175.38 1057 2176.64 1054.4 2177.76 1050.84 2178.75 1046.31L2179.11 1044.65C2179.59 1042.43 2179.83 1040.25 2179.83 1038.09 2179.83 1036.06 2179.45 1034.53 2178.7 1033.51 2177.96 1032.49 2176.73 1031.98 2175.02 1031.98ZM2174.48 1027.31C2178.94 1027.31 2182.75 1028.39 2185.89 1030.55L2189.93 1027.31 2194.97 1028.03 2183.56 1079.96C2183.23 1081.43 2183.02 1082.52 2182.93 1083.24 2182.84 1083.96 2182.79 1084.57 2182.79 1085.08 2182.79 1086.4 2183.12 1087.33 2183.78 1087.87 2184.44 1088.41 2185.61 1088.78 2187.28 1088.99L2186.79 1091.95 2168.15 1091.95 2175.47 1064.33 2174.89 1064.15C2172.43 1067.26 2170 1069.58 2167.59 1071.09 2165.17 1072.6 2162.29 1073.36 2158.94 1073.36 2155.52 1073.36 2152.88 1072.12 2151.01 1069.65 2149.14 1067.18 2148.2 1063.62 2148.2 1058.98 2148.2 1054.94 2148.79 1050.93 2149.95 1046.94 2151.12 1042.96 2152.8 1039.52 2154.99 1036.63 2157.17 1033.74 2159.92 1031.47 2163.23 1029.8 2166.54 1028.14 2170.29 1027.31 2174.48 1027.31Z" fill-rule="evenodd"/><text fill="#000000" fill-opacity="0" font-family="Arial,Arial_MSFontService,sans-serif" font-size="64.6426" x="2148.2" y="1083.87">ğ’’</text><path d="M3189.5 742.5C3189.5 770.391 3189.5 793.001 3189.5 793.001L2881 793C2881 793 2881 815.61 2881 843.5 2881 815.61 2881 793 2881 793L2572.5 793C2572.5 793 2572.5 770.39 2572.5 742.5" stroke="#000000" stroke-width="3.4375" stroke-linejoin="round" stroke-miterlimit="10" stroke-dasharray="13.75 10.3125" fill="none" fill-rule="evenodd"/><path d="M2885.33 851.732 2896.11 851.732 2893.5 862.962 2904.42 862.962 2903.21 868.577 2892.2 868.577 2887.84 886.546C2887.09 889.631 2886.58 891.974 2886.29 893.576 2886.01 895.179 2885.87 896.534 2885.87 897.642 2885.87 899.049 2886.12 900.075 2886.63 900.719 2887.14 901.363 2887.89 901.685 2888.88 901.685 2890.22 901.685 2891.61 901.206 2893.03 900.247 2894.45 899.289 2895.99 897.807 2897.63 895.8L2901.09 899.349C2898.07 902.673 2895.29 904.987 2892.76 906.289 2890.23 907.592 2887.24 908.243 2883.8 908.243 2880.38 908.243 2877.76 907.367 2875.94 905.615 2874.11 903.864 2873.2 901.445 2873.2 898.361 2873.2 896.953 2873.3 895.613 2873.51 894.34 2873.72 893.067 2874.16 890.978 2874.81 888.073L2879.44 868.577 2872.43 868.577 2873.29 864.939C2875.38 864.939 2876.97 864.744 2878.05 864.355 2879.13 863.965 2880.03 863.381 2880.77 862.603 2881.5 861.824 2882.21 860.641 2882.9 859.054 2883.59 857.467 2884.4 855.026 2885.33 851.732Z" fill-rule="evenodd"/><text fill="#000000" fill-opacity="0" font-family="Arial,Arial_MSFontService,sans-serif" font-size="56.5117" x="2872.43" y="901.179">ğ’•</text><text font-family="DengXian,DengXian_MSFontService,sans-serif" font-weight="700" font-size="92" transform="matrix(1 0 0 1 680.98 665)">BGV</text><rect x="2573.5" y="532.5" width="411" height="205" stroke="#172C51" stroke-width="9.16667" stroke-miterlimit="8" fill="#70AD47"/><text font-family="DengXian,DengXian_MSFontService,sans-serif" font-weight="700" font-size="73" transform="matrix(1 0 0 1 2645.77 614)">payload </text><text font-family="DengXian,DengXian_MSFontService,sans-serif" font-weight="700" font-size="73" transform="matrix(1 0 0 1 2657.8 702)">budget</text></g></svg>