<svg width="2885" height="1148" xmlns="http://www.w3.org/2000/svg" xmlns:xlink="http://www.w3.org/1999/xlink" xml:space="preserve" overflow="hidden"><g transform="translate(-299 -550)"><rect x="2819.5" y="561.5" width="360" height="206" stroke="#000000" stroke-width="9.16667" stroke-miterlimit="8" fill="#5B9BD5"/><path d="M2898.59 650.458 2911.39 650.458 2905.78 674.76C2905.3 676.827 2904.89 678.743 2904.54 680.51 2904.2 682.277 2904.03 683.745 2904.03 684.913 2904.03 686.23 2904.28 687.234 2904.79 687.922 2905.3 688.611 2906.15 688.956 2907.35 688.956 2908.94 688.956 2910.58 688.207 2912.27 686.71 2913.96 685.212 2915.43 683.483 2916.67 681.521 2917.91 679.559 2918.8 677.321 2919.34 674.805L2924.73 650.458 2937.72 650.458 2930.44 681.004C2929.99 682.891 2929.77 684.598 2929.77 686.126 2929.77 687.114 2929.93 687.878 2930.26 688.417 2930.59 688.956 2931.16 689.225 2931.97 689.225 2932.81 689.225 2933.73 688.851 2934.75 688.102 2935.77 687.353 2936.97 686.215 2938.35 684.688L2941.58 687.922C2938.8 690.708 2936.25 692.707 2933.94 693.919 2931.64 695.132 2929.29 695.739 2926.89 695.739 2924.29 695.739 2922.23 695.05 2920.74 693.672 2919.24 692.295 2918.49 690.453 2918.49 688.147 2918.49 687.189 2918.58 686.47 2918.76 685.991L2918.13 685.901C2915.56 689.045 2913.15 691.381 2910.92 692.909 2908.69 694.436 2906.5 695.2 2904.34 695.2 2902.06 695.2 2900.15 694.541 2898.59 693.223L2898.23 693.358C2897.9 696.772 2897.74 700.216 2897.74 703.69 2897.74 705.487 2897.78 707.089 2897.87 708.497L2896.97 713.034 2887.14 713.034 2884.84 709.979C2885.32 708.482 2885.97 706.176 2886.78 703.061 2887.58 699.947 2888.24 697.206 2888.75 694.84Z" fill-rule="evenodd"/><text fill="#000000" fill-opacity="0" font-family="Arial,Arial_MSFontService,sans-serif" font-size="62.5762" x="2884.84" y="705.212">𝝁</text><path d="M2965.05 668.541 2969.24 668.541C2969.11 670.635 2969.04 673.535 2969.04 677.243L2969.04 704.593C2969.04 705.858 2969.11 706.812 2969.25 707.455 2969.4 708.099 2969.65 708.622 2970.01 709.025 2970.37 709.429 2970.88 709.745 2971.56 709.974 2972.24 710.203 2973.09 710.378 2974.11 710.498 2975.14 710.618 2976.49 710.699 2978.17 710.743L2978.17 713.72 2949.94 713.72 2949.94 710.743C2952.36 710.634 2954.09 710.487 2955.12 710.301 2956.16 710.116 2956.95 709.838 2957.49 709.467 2958.04 709.096 2958.44 708.573 2958.69 707.897 2958.94 707.221 2959.06 706.119 2959.06 704.593L2959.06 680.94C2959.06 680.046 2958.89 679.402 2958.56 679.01 2958.22 678.617 2957.75 678.421 2957.17 678.421 2956.62 678.421 2955.85 678.672 2954.86 679.173 2953.87 679.675 2952.24 680.7 2949.97 682.248L2947.97 678.781Z" fill-rule="evenodd"/><text fill="#000000" fill-opacity="0" font-family="Arial,Arial_MSFontService,sans-serif" font-size="45.1792" x="2947.97" y="708.073">𝟏</text><path d="M3000.94 650.458 3013.74 650.458 3008.12 674.76C3007.64 676.827 3007.23 678.743 3006.89 680.51 3006.54 682.277 3006.37 683.745 3006.37 684.913 3006.37 686.23 3006.63 687.234 3007.14 687.922 3007.64 688.611 3008.5 688.956 3009.7 688.956 3011.28 688.956 3012.92 688.207 3014.61 686.71 3016.31 685.212 3017.77 683.483 3019.02 681.521 3020.26 679.559 3021.15 677.321 3021.69 674.805L3027.08 650.458 3040.06 650.458 3032.79 681.004C3032.34 682.891 3032.11 684.598 3032.11 686.126 3032.11 687.114 3032.28 687.878 3032.61 688.417 3032.94 688.956 3033.5 689.225 3034.31 689.225 3035.15 689.225 3036.08 688.851 3037.1 688.102 3038.12 687.353 3039.31 686.215 3040.69 684.688L3043.93 687.922C3041.14 690.708 3038.6 692.707 3036.29 693.919 3033.98 695.132 3031.63 695.739 3029.24 695.739 3026.63 695.739 3024.58 695.05 3023.08 693.672 3021.58 692.295 3020.84 690.453 3020.84 688.147 3020.84 687.189 3020.93 686.47 3021.11 685.991L3020.48 685.901C3017.9 689.045 3015.5 691.381 3013.27 692.909 3011.04 694.436 3008.84 695.2 3006.69 695.2 3004.41 695.2 3002.49 694.541 3000.94 693.223L3000.58 693.358C3000.25 696.772 3000.08 700.216 3000.08 703.69 3000.08 705.487 3000.13 707.089 3000.22 708.497L2999.32 713.034 2989.48 713.034 2987.19 709.979C2987.67 708.482 2988.31 706.176 2989.12 703.061 2989.93 699.947 2990.59 697.206 2991.1 694.84Z" fill-rule="evenodd"/><text fill="#000000" fill-opacity="0" font-family="Arial,Arial_MSFontService,sans-serif" font-size="62.5762" x="2987.19" y="705.212">𝝁</text><path d="M3064.84 668.541C3068.05 668.541 3070.67 668.972 3072.7 669.833 3074.72 670.695 3076.19 671.861 3077.1 673.334 3078 674.806 3078.45 676.523 3078.45 678.486 3078.45 680.209 3078.13 681.812 3077.49 683.295 3076.84 684.778 3075.73 686.469 3074.15 688.366 3072.57 690.263 3069.9 692.979 3066.15 696.512 3065 697.603 3063.62 699.036 3062.01 700.814 3060.41 702.592 3059.14 704.113 3058.2 705.378L3058.2 705.705 3069.82 705.705C3071.23 705.705 3072.29 705.601 3072.99 705.394 3073.69 705.187 3074.24 704.827 3074.64 704.315 3075.05 703.802 3075.38 703.033 3075.64 702.008L3079.4 702.008 3078.65 713.72 3048.68 713.72 3048.68 711.561C3050.36 707.701 3053.8 702.728 3058.99 696.643 3061.34 693.873 3063.14 691.594 3064.37 689.805 3065.6 688.017 3066.52 686.327 3067.13 684.735 3067.74 683.143 3068.05 681.496 3068.05 679.795 3068.05 677.396 3067.52 675.515 3066.45 674.151 3065.38 672.788 3063.92 672.107 3062.06 672.107 3058.51 672.107 3056.23 674.669 3055.23 679.795L3049.34 679.795 3049.34 672.074C3052.89 670.635 3055.76 669.686 3057.94 669.228 3060.12 668.77 3062.42 668.541 3064.84 668.541Z" fill-rule="evenodd"/><text fill="#000000" fill-opacity="0" font-family="Arial,Arial_MSFontService,sans-serif" font-size="45.1792" x="3048.68" y="708.073">𝟐</text><rect x="1121.5" y="562.5" width="825" height="204" stroke="#172C51" stroke-width="9.16667" stroke-miterlimit="8" fill="#70AD47"/><rect x="1946.5" y="561.5" width="616" height="205" stroke="#172C51" stroke-width="9.16667" stroke-miterlimit="8" fill="#ED7D31"/><path d="M2222.55 654.245C2219.76 654.245 2217.26 655.623 2215.02 658.378 2212.79 661.133 2210.96 665.146 2209.52 670.417 2215.03 670.267 2219.25 669.212 2222.17 667.25 2225.09 665.289 2226.55 662.511 2226.55 658.917 2226.55 657.39 2226.2 656.229 2225.49 655.436 2224.79 654.642 2223.81 654.245 2222.55 654.245ZM2223.67 649.573C2232.84 649.573 2237.42 652.883 2237.42 659.501 2237.42 661.777 2236.96 663.784 2236.05 665.521 2235.14 667.258 2233.61 668.83 2231.49 670.237 2229.36 671.645 2226.36 672.783 2222.48 673.651 2218.6 674.52 2213.92 675.014 2208.44 675.134 2208.05 676.901 2207.86 678.728 2207.86 680.614 2207.86 683.4 2208.44 685.496 2209.61 686.903 2210.78 688.311 2212.55 689.015 2214.91 689.015 2217.55 689.015 2219.93 688.483 2222.06 687.42 2224.18 686.357 2226.68 684.463 2229.56 681.737L2233.33 685.511C2230.31 688.925 2227.05 691.456 2223.56 693.103 2220.07 694.75 2216.29 695.573 2212.22 695.573 2208.71 695.573 2205.73 694.959 2203.28 693.732 2200.82 692.504 2198.97 690.684 2197.73 688.274 2196.49 685.863 2195.87 682.98 2195.87 679.626 2195.87 678.069 2196.08 676.077 2196.49 673.651 2197.06 670.357 2197.93 667.422 2199.1 664.847 2200.57 661.672 2202.48 658.947 2204.85 656.671 2207.22 654.395 2209.99 652.643 2213.18 651.415 2216.37 650.187 2219.87 649.573 2223.67 649.573Z" fill-rule="evenodd"/><text fill="#000000" fill-opacity="0" font-family="Arial,Arial_MSFontService,sans-serif" font-size="46" x="2195.87" y="689.823">𝒆</text><path d="M2250.63 668.899 2267.28 668.899 2266.79 671.058C2265.85 671.145 2265.17 671.434 2264.74 671.925 2264.32 672.416 2264.11 673.054 2264.11 673.839 2264.11 674.493 2264.23 675.273 2264.47 676.178 2264.71 677.083 2265.08 678.168 2265.58 679.433L2267.64 684.864 2272.02 679.433C2273.42 677.688 2274.39 676.374 2274.93 675.491 2275.48 674.608 2275.75 673.871 2275.75 673.283 2275.75 672.541 2275.57 672.012 2275.2 671.696 2274.83 671.38 2274.22 671.167 2273.36 671.058L2273.86 668.899 2287.46 668.899 2286.97 671.091C2286.45 671.178 2285.93 671.385 2285.4 671.712 2284.88 672.039 2284.17 672.65 2283.26 673.544 2282.36 674.439 2280.86 676.107 2278.76 678.55L2269.37 689.444 2275.16 704.525C2276.04 706.815 2276.82 708.467 2277.5 709.482 2278.19 710.496 2279.1 711.134 2280.23 711.395L2279.78 713.555 2263.09 713.555 2263.55 711.395C2265.27 711.221 2266.13 710.436 2266.13 709.04 2266.13 708.255 2266.04 707.459 2265.84 706.652 2265.64 705.845 2265.36 704.951 2264.99 703.969L2262.08 696.281 2255.31 704.362C2254.3 705.561 2253.59 706.51 2253.18 707.208 2252.77 707.906 2252.56 708.593 2252.56 709.269 2252.56 710.578 2253.36 711.286 2254.98 711.395L2254.52 713.555 2240.88 713.555 2241.34 711.395C2242.23 711.155 2243.12 710.654 2244 709.891 2244.89 709.127 2246.56 707.339 2249.02 704.525L2260.31 691.766 2255.31 678.55C2254.96 677.655 2254.54 676.641 2254.05 675.507 2253.56 674.373 2253.11 673.506 2252.71 672.906 2252.3 672.307 2251.91 671.876 2251.53 671.614 2251.15 671.352 2250.68 671.167 2250.14 671.058Z" fill-rule="evenodd"/><text fill="#000000" fill-opacity="0" font-family="Arial,Arial_MSFontService,sans-serif" font-size="44.6558" x="2240.88" y="707.973">𝑿</text><rect x="2554.5" y="561.5" width="265" height="206" stroke="#172C51" stroke-width="9.16667" stroke-miterlimit="8" fill="#70AD47"/><text font-family="DengXian,DengXian_MSFontService,sans-serif" font-weight="700" font-size="92" transform="matrix(1 0 0 1 354.358 1028)">MODSWITCH</text><path d="M3179.5 1433.42C3179.5 1460.78 3175.8 1482.96 3171.24 1482.96L2287.76 1482.96C2283.2 1482.96 2279.5 1505.14 2279.5 1532.5 2279.5 1505.14 2275.8 1482.96 2271.24 1482.96L1387.76 1482.96C1383.2 1482.96 1379.5 1460.78 1379.5 1433.42" stroke="#000000" stroke-width="3.4375" stroke-linejoin="round" stroke-miterlimit="10" stroke-dasharray="13.75 10.3125" fill="none" fill-rule="evenodd"/><path d="M2187.81 1618.22C2185.83 1618.22 2183.82 1619.19 2181.77 1621.12 2179.72 1623.05 2178.08 1625.29 2176.85 1627.84 2175.62 1630.38 2174.5 1633.98 2173.48 1638.62L2173.12 1640.28C2172.64 1642.5 2172.4 1644.67 2172.4 1646.79 2172.4 1648.98 2172.77 1650.55 2173.5 1651.51 2174.24 1652.47 2175.47 1652.95 2177.21 1652.95 2178.71 1652.95 2180.07 1652.61 2181.3 1651.94 2182.52 1651.26 2183.68 1650.16 2184.78 1648.64 2185.87 1647.11 2186.93 1645.14 2187.97 1642.73 2189 1640.32 2189.89 1637.44 2190.64 1634.08 2191.39 1630.73 2191.76 1627.61 2191.76 1624.74 2191.76 1622.52 2191.44 1620.88 2190.8 1619.82 2190.15 1618.76 2189.16 1618.22 2187.81 1618.22ZM2168 1611.62C2170.48 1611.62 2172.47 1612.32 2173.95 1613.71 2175.43 1615.1 2176.17 1616.94 2176.17 1619.21 2176.17 1619.96 2176.08 1620.68 2175.91 1621.37L2176.35 1621.73C2179.11 1618.22 2181.77 1615.66 2184.35 1614.05 2186.93 1612.43 2189.91 1611.62 2193.29 1611.62 2196.67 1611.62 2199.3 1612.85 2201.17 1615.3 2203.05 1617.76 2203.98 1621.31 2203.98 1625.95 2203.98 1629.99 2203.4 1634.01 2202.23 1637.99 2201.06 1641.97 2199.38 1645.41 2197.2 1648.3 2195.01 1651.19 2192.26 1653.47 2188.95 1655.13 2185.65 1656.79 2181.91 1657.62 2177.75 1657.62 2175.08 1657.62 2172.51 1657.16 2170.02 1656.23L2168.31 1664.22C2168.04 1665.54 2167.85 1666.57 2167.73 1667.3 2167.61 1668.04 2167.55 1668.72 2167.55 1669.35 2167.55 1670.63 2167.89 1671.56 2168.56 1672.13 2169.23 1672.7 2170.39 1673.07 2172.04 1673.25L2171.55 1676.22 2152.86 1676.22 2164.23 1625.68C2164.67 1623.68 2164.9 1622.19 2164.9 1621.23 2164.9 1620.25 2164.73 1619.48 2164.41 1618.94 2164.08 1618.4 2163.51 1618.13 2162.7 1618.13 2161.77 1618.13 2160.77 1618.55 2159.69 1619.39 2158.61 1620.23 2157.35 1621.47 2155.91 1623.12L2152.68 1619.89C2155.68 1616.83 2158.33 1614.69 2160.65 1613.46 2162.98 1612.23 2165.42 1611.62 2168 1611.62Z" fill-rule="evenodd"/><text fill="#000000" fill-opacity="0" font-family="Arial,Arial_MSFontService,sans-serif" font-size="64.5977" x="2152.68" y="1668.14">𝒑</text><path d="M2213.85 1601.67 2251.54 1601.67 2251.54 1606.68 2213.85 1606.68Z" fill-rule="evenodd"/><text fill="#000000" fill-opacity="0" font-family="Arial,Arial_MSFontService,sans-serif" font-size="5.00537" x="2213.85" y="1606.05">−</text><path d="M2279.46 1578.15 2283.65 1578.15C2283.52 1580.24 2283.45 1583.14 2283.45 1586.85L2283.45 1614.2C2283.45 1615.47 2283.52 1616.42 2283.67 1617.06 2283.81 1617.71 2284.06 1618.23 2284.42 1618.63 2284.78 1619.04 2285.3 1619.35 2285.97 1619.58 2286.65 1619.81 2287.5 1619.99 2288.52 1620.11 2289.55 1620.23 2290.9 1620.31 2292.58 1620.35L2292.58 1623.33 2264.35 1623.33 2264.35 1620.35C2266.77 1620.24 2268.5 1620.1 2269.53 1619.91 2270.57 1619.73 2271.36 1619.45 2271.9 1619.08 2272.45 1618.71 2272.85 1618.18 2273.1 1617.51 2273.35 1616.83 2273.47 1615.73 2273.47 1614.2L2273.47 1590.55C2273.47 1589.66 2273.31 1589.01 2272.97 1588.62 2272.63 1588.23 2272.17 1588.03 2271.58 1588.03 2271.03 1588.03 2270.26 1588.28 2269.27 1588.78 2268.28 1589.28 2266.65 1590.31 2264.38 1591.86L2262.38 1588.39Z" fill-rule="evenodd"/><text fill="#000000" fill-opacity="0" font-family="Arial,Arial_MSFontService,sans-serif" font-size="45.1792" x="2262.38" y="1617.68">𝟏</text><path d="M2332.46 1616.29C2329.65 1616.29 2327.18 1617.67 2325.05 1620.43 2322.92 1623.18 2321.19 1626.93 2319.86 1631.68 2318.53 1636.43 2317.86 1640.7 2317.86 1644.5 2317.86 1646.69 2318.19 1648.32 2318.83 1649.4 2319.47 1650.48 2320.47 1651.02 2321.82 1651.02 2323.79 1651.02 2325.81 1650.05 2327.86 1648.12 2329.91 1646.19 2331.56 1643.92 2332.82 1641.31 2334.08 1638.71 2335.2 1635.15 2336.19 1630.62L2336.55 1628.96C2337.03 1626.74 2337.27 1624.56 2337.27 1622.4 2337.27 1620.37 2336.9 1618.84 2336.15 1617.82 2335.4 1616.8 2334.17 1616.29 2332.46 1616.29ZM2331.92 1611.62C2336.39 1611.62 2340.19 1612.7 2343.33 1614.86L2347.38 1611.62 2352.41 1612.34 2341 1664.27C2340.67 1665.74 2340.46 1666.83 2340.37 1667.55 2340.28 1668.27 2340.23 1668.88 2340.23 1669.39 2340.23 1670.71 2340.56 1671.64 2341.22 1672.18 2341.88 1672.71 2343.05 1673.09 2344.73 1673.3L2344.23 1676.26 2325.59 1676.26 2332.91 1648.64 2332.33 1648.46C2329.87 1651.57 2327.44 1653.89 2325.03 1655.4 2322.62 1656.91 2319.73 1657.67 2316.38 1657.67 2312.97 1657.67 2310.32 1656.43 2308.45 1653.96 2306.58 1651.49 2305.64 1647.93 2305.64 1643.29 2305.64 1639.25 2306.23 1635.23 2307.4 1631.25 2308.56 1627.27 2310.24 1623.83 2312.43 1620.94 2314.61 1618.05 2317.36 1615.78 2320.67 1614.11 2323.98 1612.45 2327.73 1611.62 2331.92 1611.62Z" fill-rule="evenodd"/><text fill="#000000" fill-opacity="0" font-family="Arial,Arial_MSFontService,sans-serif" font-size="64.6426" x="2305.64" y="1668.18">𝒒</text><rect x="2815.5" y="997.5" width="360" height="205" stroke="#000000" stroke-width="9.16667" stroke-miterlimit="8" fill="#5B9BD5"/><path d="M2894.58 1086.31 2907.38 1086.31 2901.77 1110.61C2901.29 1112.68 2900.88 1114.59 2900.53 1116.36 2900.19 1118.13 2900.01 1119.59 2900.01 1120.76 2900.01 1122.08 2900.27 1123.08 2900.78 1123.77 2901.29 1124.46 2902.14 1124.81 2903.34 1124.81 2904.93 1124.81 2906.56 1124.06 2908.26 1122.56 2909.95 1121.06 2911.42 1119.33 2912.66 1117.37 2913.9 1115.41 2914.79 1113.17 2915.33 1110.65L2920.72 1086.31 2933.71 1086.31 2926.43 1116.85C2925.98 1118.74 2925.75 1120.45 2925.75 1121.98 2925.75 1122.96 2925.92 1123.73 2926.25 1124.27 2926.58 1124.81 2927.15 1125.07 2927.96 1125.07 2928.79 1125.07 2929.72 1124.7 2930.74 1123.95 2931.76 1123.2 2932.96 1122.07 2934.33 1120.54L2937.57 1123.77C2934.78 1126.56 2932.24 1128.56 2929.93 1129.77 2927.63 1130.98 2925.27 1131.59 2922.88 1131.59 2920.27 1131.59 2918.22 1130.9 2916.72 1129.52 2915.23 1128.14 2914.48 1126.3 2914.48 1124 2914.48 1123.04 2914.57 1122.32 2914.75 1121.84L2914.12 1121.75C2911.54 1124.9 2909.14 1127.23 2906.91 1128.76 2904.68 1130.29 2902.48 1131.05 2900.33 1131.05 2898.05 1131.05 2896.14 1130.39 2894.58 1129.07L2894.22 1129.21C2893.89 1132.62 2893.72 1136.07 2893.72 1139.54 2893.72 1141.34 2893.77 1142.94 2893.86 1144.35L2892.96 1148.88 2883.12 1148.88 2880.83 1145.83C2881.31 1144.33 2881.96 1142.03 2882.76 1138.91 2883.57 1135.8 2884.23 1133.06 2884.74 1130.69Z" fill-rule="evenodd"/><text fill="#000000" fill-opacity="0" font-family="Arial,Arial_MSFontService,sans-serif" font-size="62.5762" x="2880.83" y="1141.06">𝝁</text><path d="M2961.04 1104.39 2965.23 1104.39C2965.09 1106.48 2965.03 1109.39 2965.03 1113.09L2965.03 1140.44C2965.03 1141.71 2965.1 1142.66 2965.24 1143.3 2965.38 1143.95 2965.63 1144.47 2965.99 1144.88 2966.35 1145.28 2966.87 1145.59 2967.55 1145.82 2968.22 1146.05 2969.08 1146.23 2970.1 1146.35 2971.13 1146.47 2972.48 1146.55 2974.16 1146.59L2974.16 1149.57 2945.92 1149.57 2945.92 1146.59C2948.34 1146.48 2950.07 1146.34 2951.11 1146.15 2952.15 1145.97 2952.94 1145.69 2953.48 1145.32 2954.03 1144.95 2954.42 1144.42 2954.68 1143.75 2954.93 1143.07 2955.05 1141.97 2955.05 1140.44L2955.05 1116.79C2955.05 1115.9 2954.88 1115.25 2954.54 1114.86 2954.21 1114.47 2953.74 1114.27 2953.15 1114.27 2952.61 1114.27 2951.84 1114.52 2950.85 1115.02 2949.86 1115.52 2948.23 1116.55 2945.96 1118.1L2943.96 1114.63Z" fill-rule="evenodd"/><text fill="#000000" fill-opacity="0" font-family="Arial,Arial_MSFontService,sans-serif" font-size="45.1792" x="2943.96" y="1143.92">𝟏</text><path d="M2996.92 1086.31 3009.73 1086.31 3004.11 1110.61C3003.63 1112.68 3003.22 1114.59 3002.88 1116.36 3002.53 1118.13 3002.36 1119.59 3002.36 1120.76 3002.36 1122.08 3002.61 1123.08 3003.12 1123.77 3003.63 1124.46 3004.49 1124.81 3005.68 1124.81 3007.27 1124.81 3008.91 1124.06 3010.6 1122.56 3012.29 1121.06 3013.76 1119.33 3015.01 1117.37 3016.25 1115.41 3017.14 1113.17 3017.68 1110.65L3023.07 1086.31 3036.05 1086.31 3028.77 1116.85C3028.32 1118.74 3028.1 1120.45 3028.1 1121.98 3028.1 1122.96 3028.26 1123.73 3028.59 1124.27 3028.92 1124.81 3029.49 1125.07 3030.3 1125.07 3031.14 1125.07 3032.07 1124.7 3033.09 1123.95 3034.1 1123.2 3035.3 1122.07 3036.68 1120.54L3039.91 1123.77C3037.13 1126.56 3034.58 1128.56 3032.28 1129.77 3029.97 1130.98 3027.62 1131.59 3025.22 1131.59 3022.62 1131.59 3020.57 1130.9 3019.07 1129.52 3017.57 1128.14 3016.82 1126.3 3016.82 1124 3016.82 1123.04 3016.91 1122.32 3017.09 1121.84L3016.47 1121.75C3013.89 1124.9 3011.49 1127.23 3009.26 1128.76 3007.02 1130.29 3004.83 1131.05 3002.67 1131.05 3000.4 1131.05 2998.48 1130.39 2996.92 1129.07L2996.56 1129.21C2996.24 1132.62 2996.07 1136.07 2996.07 1139.54 2996.07 1141.34 2996.12 1142.94 2996.21 1144.35L2995.31 1148.88 2985.47 1148.88 2983.18 1145.83C2983.66 1144.33 2984.3 1142.03 2985.11 1138.91 2985.92 1135.8 2986.58 1133.06 2987.09 1130.69Z" fill-rule="evenodd"/><text fill="#000000" fill-opacity="0" font-family="Arial,Arial_MSFontService,sans-serif" font-size="62.5762" x="2983.18" y="1141.06">𝝁</text><path d="M3060.83 1104.39C3064.04 1104.39 3066.66 1104.82 3068.68 1105.68 3070.71 1106.54 3072.18 1107.71 3073.08 1109.18 3073.99 1110.66 3074.44 1112.37 3074.44 1114.34 3074.44 1116.06 3074.12 1117.66 3073.48 1119.15 3072.83 1120.63 3071.72 1122.32 3070.14 1124.22 3068.56 1126.11 3065.89 1128.83 3062.14 1132.36 3060.98 1133.45 3059.61 1134.89 3058 1136.66 3056.4 1138.44 3055.13 1139.96 3054.19 1141.23L3054.19 1141.55 3065.8 1141.55C3067.22 1141.55 3068.28 1141.45 3068.98 1141.24 3069.68 1141.04 3070.23 1140.68 3070.63 1140.16 3071.03 1139.65 3071.37 1138.88 3071.63 1137.86L3075.39 1137.86 3074.64 1149.57 3044.67 1149.57 3044.67 1147.41C3046.35 1143.55 3049.79 1138.58 3054.98 1132.49 3057.33 1129.72 3059.13 1127.44 3060.36 1125.66 3061.59 1123.87 3062.51 1122.18 3063.12 1120.58 3063.73 1118.99 3064.04 1117.35 3064.04 1115.64 3064.04 1113.25 3063.5 1111.36 3062.44 1110 3061.37 1108.64 3059.91 1107.96 3058.05 1107.96 3054.5 1107.96 3052.22 1110.52 3051.21 1115.64L3045.33 1115.64 3045.33 1107.92C3048.88 1106.48 3051.75 1105.54 3053.93 1105.08 3056.11 1104.62 3058.41 1104.39 3060.83 1104.39Z" fill-rule="evenodd"/><text fill="#000000" fill-opacity="0" font-family="Arial,Arial_MSFontService,sans-serif" font-size="45.1792" x="3044.67" y="1143.92">𝟐</text><rect x="1379.5" y="998.5" width="826" height="204" stroke="#172C51" stroke-width="9.16667" stroke-miterlimit="8" fill="#70AD47"/><rect x="2199.5" y="997.5" width="359" height="205" stroke="#172C51" stroke-width="9.16667" stroke-miterlimit="8" fill="#ED7D31"/><path d="M2347.37 1090.09C2344.59 1090.09 2342.08 1091.47 2339.85 1094.23 2337.62 1096.98 2335.78 1101 2334.35 1106.27 2339.86 1106.12 2344.07 1105.06 2346.99 1103.1 2349.91 1101.14 2351.37 1098.36 2351.37 1094.77 2351.37 1093.24 2351.02 1092.08 2350.32 1091.29 2349.61 1090.49 2348.63 1090.09 2347.37 1090.09ZM2348.5 1085.42C2357.66 1085.42 2362.24 1088.73 2362.24 1095.35 2362.24 1097.63 2361.79 1099.63 2360.87 1101.37 2359.96 1103.11 2358.44 1104.68 2356.31 1106.09 2354.19 1107.49 2351.19 1108.63 2347.31 1109.5 2343.43 1110.37 2338.75 1110.86 2333.27 1110.98 2332.88 1112.75 2332.69 1114.58 2332.69 1116.46 2332.69 1119.25 2333.27 1121.35 2334.44 1122.75 2335.6 1124.16 2337.37 1124.86 2339.74 1124.86 2342.37 1124.86 2344.75 1124.33 2346.88 1123.27 2349.01 1122.21 2351.51 1120.31 2354.38 1117.59L2358.16 1121.36C2355.13 1124.77 2351.87 1127.31 2348.39 1128.95 2344.9 1130.6 2341.12 1131.42 2337.04 1131.42 2333.54 1131.42 2330.56 1130.81 2328.1 1129.58 2325.65 1128.35 2323.8 1126.53 2322.56 1124.12 2321.31 1121.71 2320.69 1118.83 2320.69 1115.48 2320.69 1113.92 2320.9 1111.93 2321.32 1109.5 2321.89 1106.21 2322.76 1103.27 2323.93 1100.7 2325.39 1097.52 2327.31 1094.8 2329.68 1092.52 2332.04 1090.24 2334.82 1088.49 2338.01 1087.26 2341.2 1086.04 2344.69 1085.42 2348.5 1085.42Z" fill-rule="evenodd"/><text fill="#000000" fill-opacity="0" font-family="Arial,Arial_MSFontService,sans-serif" font-size="46" x="2320.69" y="1125.67">𝒆</text><path d="M2375.45 1104.75 2392.1 1104.75 2391.61 1106.91C2390.68 1106.99 2389.99 1107.28 2389.57 1107.77 2389.14 1108.27 2388.93 1108.9 2388.93 1109.69 2388.93 1110.34 2389.05 1111.12 2389.29 1112.03 2389.53 1112.93 2389.9 1114.02 2390.4 1115.28L2392.46 1120.71 2396.85 1115.28C2398.24 1113.54 2399.21 1112.22 2399.76 1111.34 2400.31 1110.46 2400.58 1109.72 2400.58 1109.13 2400.58 1108.39 2400.39 1107.86 2400.02 1107.55 2399.65 1107.23 2399.04 1107.02 2398.19 1106.91L2398.68 1104.75 2412.29 1104.75 2411.8 1106.94C2411.28 1107.03 2410.75 1107.23 2410.23 1107.56 2409.71 1107.89 2408.99 1108.5 2408.09 1109.39 2407.18 1110.29 2405.68 1111.96 2403.59 1114.4L2394.2 1125.29 2399.99 1140.38C2400.86 1142.67 2401.64 1144.32 2402.33 1145.33 2403.02 1146.35 2403.93 1146.98 2405.06 1147.25L2404.6 1149.4 2387.92 1149.4 2388.38 1147.25C2390.1 1147.07 2390.96 1146.29 2390.96 1144.89 2390.96 1144.1 2390.86 1143.31 2390.67 1142.5 2390.47 1141.69 2390.19 1140.8 2389.81 1139.82L2386.9 1132.13 2380.13 1140.21C2379.13 1141.41 2378.42 1142.36 2378 1143.06 2377.59 1143.76 2377.38 1144.44 2377.38 1145.12 2377.38 1146.43 2378.19 1147.14 2379.8 1147.25L2379.35 1149.4 2365.7 1149.4 2366.16 1147.25C2367.06 1147.01 2367.94 1146.5 2368.83 1145.74 2369.71 1144.98 2371.39 1143.19 2373.85 1140.38L2385.14 1127.62 2380.13 1114.4C2379.78 1113.51 2379.36 1112.49 2378.87 1111.36 2378.38 1110.22 2377.93 1109.36 2377.53 1108.76 2377.13 1108.16 2376.73 1107.73 2376.35 1107.46 2375.97 1107.2 2375.51 1107.02 2374.96 1106.91Z" fill-rule="evenodd"/><text fill="#000000" fill-opacity="0" font-family="Arial,Arial_MSFontService,sans-serif" font-size="44.6558" x="2365.7" y="1143.82">𝑿</text><rect x="2550.5" y="997.5" width="265" height="205" stroke="#172C51" stroke-width="9.16667" stroke-miterlimit="8" fill="#70AD47"/><path d="M3179.5 1249.5C3179.5 1274.63 3179.5 1295 3179.5 1295L2865 1295C2865 1295 2865 1315.37 2865 1340.5 2865 1315.37 2865 1295 2865 1295L2550.5 1295C2550.5 1295 2550.5 1274.63 2550.5 1249.5" stroke="#000000" stroke-width="3.4375" stroke-linejoin="round" stroke-miterlimit="10" stroke-dasharray="13.75 10.3125" fill="none" fill-rule="evenodd"/><path d="M2875.61 1348.58 2886.39 1348.58 2883.79 1359.81 2894.71 1359.81 2893.49 1365.43 2882.49 1365.43 2878.13 1383.4C2877.38 1386.48 2876.86 1388.83 2876.58 1390.43 2876.29 1392.03 2876.15 1393.39 2876.15 1394.49 2876.15 1395.9 2876.41 1396.93 2876.92 1397.57 2877.43 1398.21 2878.17 1398.54 2879.16 1398.54 2880.51 1398.54 2881.9 1398.06 2883.32 1397.1 2884.74 1396.14 2886.27 1394.66 2887.92 1392.65L2891.38 1396.2C2888.36 1399.52 2885.58 1401.84 2883.05 1403.14 2880.52 1404.44 2877.53 1405.1 2874.09 1405.1 2870.67 1405.1 2868.05 1404.22 2866.22 1402.47 2864.4 1400.72 2863.48 1398.3 2863.48 1395.21 2863.48 1393.8 2863.59 1392.46 2863.8 1391.19 2864.01 1389.92 2864.44 1387.83 2865.1 1384.93L2869.73 1365.43 2862.72 1365.43 2863.57 1361.79C2865.67 1361.79 2867.26 1361.6 2868.34 1361.21 2869.41 1360.82 2870.32 1360.23 2871.05 1359.45 2871.79 1358.68 2872.5 1357.49 2873.19 1355.91 2873.88 1354.32 2874.69 1351.88 2875.61 1348.58Z" fill-rule="evenodd"/><text fill="#000000" fill-opacity="0" font-family="Arial,Arial_MSFontService,sans-serif" font-size="56.5117" x="2862.72" y="1398.03">𝒕</text><path d="M1379.5 1223.5C1379.5 1248.63 1379.5 1269 1379.5 1269L1250.5 1269C1250.5 1269 1250.5 1289.37 1250.5 1314.5 1250.5 1289.37 1250.5 1269 1250.5 1269L1121.5 1269C1121.5 1269 1121.5 1248.63 1121.5 1223.5" stroke="#000000" stroke-width="3.4375" stroke-linejoin="round" stroke-miterlimit="10" stroke-dasharray="13.75 10.3125" fill="none" fill-rule="evenodd"/><path d="M1257.37 1365.7C1255.4 1365.7 1253.38 1366.66 1251.33 1368.6 1249.28 1370.53 1247.64 1372.77 1246.41 1375.31 1245.18 1377.86 1244.06 1381.45 1243.04 1386.09L1242.68 1387.76C1242.2 1389.97 1241.97 1392.14 1241.97 1394.27 1241.97 1396.46 1242.33 1398.03 1243.07 1398.99 1243.8 1399.94 1245.04 1400.42 1246.77 1400.42 1248.27 1400.42 1249.63 1400.09 1250.86 1399.41 1252.09 1398.74 1253.25 1397.64 1254.34 1396.11 1255.43 1394.58 1256.5 1392.61 1257.53 1390.2 1258.56 1387.79 1259.45 1384.91 1260.2 1381.56 1260.95 1378.2 1261.33 1375.09 1261.33 1372.21 1261.33 1370 1261 1368.36 1260.36 1367.29 1259.72 1366.23 1258.72 1365.7 1257.37 1365.7ZM1237.56 1359.1C1240.05 1359.1 1242.03 1359.79 1243.52 1361.18 1245 1362.58 1245.74 1364.41 1245.74 1366.69 1245.74 1367.44 1245.65 1368.15 1245.47 1368.84L1245.92 1369.2C1248.67 1365.7 1251.34 1363.14 1253.91 1361.52 1256.49 1359.9 1259.47 1359.1 1262.85 1359.1 1266.24 1359.1 1268.87 1360.32 1270.74 1362.78 1272.61 1365.23 1273.55 1368.78 1273.55 1373.43 1273.55 1377.47 1272.96 1381.48 1271.79 1385.46 1270.63 1389.45 1268.95 1392.88 1266.76 1395.77 1264.58 1398.66 1261.83 1400.94 1258.52 1402.6 1255.21 1404.26 1251.47 1405.1 1247.31 1405.1 1244.65 1405.1 1242.07 1404.63 1239.58 1403.7L1237.88 1411.7C1237.61 1413.02 1237.41 1414.04 1237.29 1414.78 1237.17 1415.51 1237.11 1416.19 1237.11 1416.82 1237.11 1418.11 1237.45 1419.04 1238.12 1419.6 1238.8 1420.17 1239.96 1420.55 1241.61 1420.73L1241.11 1423.69 1222.42 1423.69 1233.79 1373.16C1234.24 1371.15 1234.46 1369.67 1234.46 1368.71 1234.46 1367.72 1234.3 1366.96 1233.97 1366.42 1233.64 1365.88 1233.07 1365.61 1232.26 1365.61 1231.33 1365.61 1230.33 1366.03 1229.25 1366.87 1228.17 1367.71 1226.92 1368.95 1225.48 1370.6L1222.24 1367.36C1225.24 1364.31 1227.9 1362.16 1230.22 1360.94 1232.54 1359.71 1234.99 1359.1 1237.56 1359.1Z" fill-rule="evenodd"/><text fill="#000000" fill-opacity="0" font-family="Arial,Arial_MSFontService,sans-serif" font-size="64.5977" x="1222.24" y="1415.62">𝒑</text><path d="M1121.5 766.5 1121.5 1188.54" stroke="#000000" stroke-width="4.58333" stroke-miterlimit="8" stroke-dasharray="18.3333 13.75 4.58333 13.75" fill="none" fill-rule="evenodd"/><path d="M1379.5 766.5 1379.5 1188.86" stroke="#000000" stroke-width="4.58333" stroke-miterlimit="8" stroke-dasharray="18.3333 13.75 4.58333 13.75" fill="none" fill-rule="evenodd"/><path d="M1946.5 774.5 1946.5 983.749" stroke="#000000" stroke-width="4.58333" stroke-miterlimit="8" stroke-dasharray="18.3333 13.75 4.58333 13.75" fill="none" fill-rule="evenodd"/><path d="M2205.5 766.5 2205.5 984.035" stroke="#000000" stroke-width="4.58333" stroke-miterlimit="8" stroke-dasharray="18.3333 13.75 4.58333 13.75" fill="none" fill-rule="evenodd"/><text font-family="DengXian,DengXian_MSFontService,sans-serif" font-weight="700" font-size="92" transform="matrix(1 0 0 1 543.509 664)">BGV</text></g></svg>