<svg width="2790" height="1014" xmlns="http://www.w3.org/2000/svg" xmlns:xlink="http://www.w3.org/1999/xlink" xml:space="preserve" overflow="hidden"><g transform="translate(-364 -550)"><path d="M3149.5 1287.51C3149.5 1317.89 3145.4 1342.51 3140.33 1342.51L2258.16 1342.51C2253.1 1342.51 2249 1367.13 2249 1397.5 2249 1367.13 2244.9 1342.51 2239.84 1342.51L1357.66 1342.51C1352.6 1342.51 1348.5 1317.88 1348.5 1287.51" stroke="#000000" stroke-width="3.4375" stroke-linejoin="round" stroke-miterlimit="10" stroke-dasharray="13.75 10.3125" fill="none" fill-rule="evenodd"/><path d="M2154.13 1472.91 2139.04 1512.35 2166.53 1512.35ZM2152.29 1460.69 2163.79 1460.69 2183.11 1519.17 2183.11 1522.41 2128.8 1522.41 2128.8 1519.09Z" fill-rule="evenodd"/><text fill="#000000" fill-opacity="0" font-family="Arial,Arial_MSFontService,sans-serif" font-size="61.7227" x="2128.8" y="1514.69">𝚫</text><path d="M2188.52 1467.18 2226.21 1467.18 2226.21 1472.18 2188.52 1472.18Z" fill-rule="evenodd"/><text fill="#000000" fill-opacity="0" font-family="Arial,Arial_MSFontService,sans-serif" font-size="5.00537" x="2188.52" y="1471.56">−</text><path d="M2254.13 1443.66 2258.32 1443.66C2258.19 1445.75 2258.13 1448.65 2258.13 1452.36L2258.13 1479.71C2258.13 1480.97 2258.2 1481.93 2258.34 1482.57 2258.48 1483.21 2258.73 1483.74 2259.09 1484.14 2259.45 1484.55 2259.97 1484.86 2260.64 1485.09 2261.32 1485.32 2262.17 1485.49 2263.2 1485.61 2264.22 1485.73 2265.57 1485.82 2267.25 1485.86L2267.25 1488.84 2239.02 1488.84 2239.02 1485.86C2241.44 1485.75 2243.17 1485.6 2244.21 1485.42 2245.24 1485.23 2246.03 1484.95 2246.58 1484.58 2247.12 1484.21 2247.52 1483.69 2247.77 1483.01 2248.02 1482.34 2248.15 1481.24 2248.15 1479.71L2248.15 1456.06C2248.15 1455.16 2247.98 1454.52 2247.64 1454.13 2247.3 1453.73 2246.84 1453.54 2246.25 1453.54 2245.7 1453.54 2244.94 1453.79 2243.94 1454.29 2242.95 1454.79 2241.32 1455.82 2239.05 1457.36L2237.06 1453.9Z" fill-rule="evenodd"/><text fill="#000000" fill-opacity="0" font-family="Arial,Arial_MSFontService,sans-serif" font-size="45.1792" x="2237.06" y="1483.19">𝟏</text><path d="M2307.14 1481.8C2304.32 1481.8 2301.85 1483.18 2299.72 1485.93 2297.6 1488.69 2295.87 1492.44 2294.53 1497.19 2293.2 1501.93 2292.54 1506.21 2292.54 1510.01 2292.54 1512.2 2292.86 1513.83 2293.5 1514.91 2294.15 1515.99 2295.14 1516.52 2296.49 1516.52 2298.47 1516.52 2300.48 1515.56 2302.53 1513.63 2304.58 1511.7 2306.24 1509.43 2307.49 1506.82 2308.75 1504.22 2309.88 1500.65 2310.86 1496.13L2311.22 1494.47C2311.7 1492.25 2311.94 1490.07 2311.94 1487.91 2311.94 1485.87 2311.57 1484.35 2310.82 1483.33 2310.07 1482.31 2308.84 1481.8 2307.14 1481.8ZM2306.6 1477.13C2311.06 1477.13 2314.86 1478.21 2318.01 1480.36L2322.05 1477.13 2327.08 1477.85 2315.67 1529.78C2315.34 1531.24 2315.13 1532.34 2315.04 1533.06 2314.95 1533.77 2314.91 1534.39 2314.91 1534.9 2314.91 1536.22 2315.24 1537.14 2315.89 1537.68 2316.55 1538.22 2317.72 1538.6 2319.4 1538.81L2318.9 1541.77 2300.26 1541.77 2307.58 1514.14 2307 1513.96C2304.54 1517.08 2302.11 1519.39 2299.7 1520.9 2297.29 1522.42 2294.41 1523.17 2291.05 1523.17 2287.64 1523.17 2285 1521.94 2283.12 1519.47 2281.25 1517 2280.32 1513.44 2280.32 1508.8 2280.32 1504.76 2280.9 1500.74 2282.07 1496.76 2283.24 1492.78 2284.91 1489.34 2287.1 1486.45 2289.29 1483.56 2292.03 1481.28 2295.34 1479.62 2298.65 1477.96 2302.4 1477.13 2306.6 1477.13Z" fill-rule="evenodd"/><text fill="#000000" fill-opacity="0" font-family="Arial,Arial_MSFontService,sans-serif" font-size="64.6426" x="2280.32" y="1533.69">𝒒</text><rect x="2141.5" y="561.5" width="448" height="205" stroke="#000000" stroke-width="9.16667" stroke-miterlimit="8" fill="#5B9BD5"/><path d="M2264.19 650.338 2277 650.338 2271.38 674.641C2270.9 676.707 2270.49 678.624 2270.14 680.391 2269.8 682.157 2269.63 683.625 2269.63 684.793 2269.63 686.111 2269.88 687.114 2270.39 687.803 2270.9 688.491 2271.75 688.836 2272.95 688.836 2274.54 688.836 2276.18 688.087 2277.87 686.59 2279.56 685.092 2281.03 683.363 2282.27 681.401 2283.52 679.44 2284.41 677.201 2284.95 674.685L2290.34 650.338 2303.32 650.338 2296.04 680.885C2295.59 682.771 2295.37 684.478 2295.37 686.006 2295.37 686.994 2295.53 687.758 2295.86 688.297 2296.19 688.836 2296.76 689.105 2297.57 689.105 2298.41 689.105 2299.34 688.731 2300.35 687.982 2301.37 687.234 2302.57 686.096 2303.95 684.568L2307.18 687.803C2304.4 690.588 2301.85 692.587 2299.55 693.8 2297.24 695.013 2294.89 695.619 2292.49 695.619 2289.89 695.619 2287.84 694.93 2286.34 693.553 2284.84 692.175 2284.09 690.333 2284.09 688.027 2284.09 687.069 2284.18 686.35 2284.36 685.871L2283.73 685.781C2281.16 688.926 2278.75 691.262 2276.52 692.789 2274.29 694.316 2272.1 695.08 2269.94 695.08 2267.67 695.08 2265.75 694.421 2264.19 693.103L2263.83 693.238C2263.5 696.652 2263.34 700.096 2263.34 703.57 2263.34 705.367 2263.38 706.969 2263.47 708.377L2262.58 712.914 2252.74 712.914 2250.45 709.859C2250.93 708.362 2251.57 706.056 2252.38 702.941 2253.19 699.827 2253.85 697.086 2254.35 694.721Z" fill-rule="evenodd"/><text fill="#000000" fill-opacity="0" font-family="Arial,Arial_MSFontService,sans-serif" font-size="62.5762" x="2250.45" y="705.092">𝝁</text><path d="M2330.65 668.421 2334.84 668.421C2334.71 670.515 2334.64 673.415 2334.64 677.123L2334.64 704.473C2334.64 705.738 2334.71 706.692 2334.86 707.335 2335 707.979 2335.25 708.502 2335.61 708.906 2335.97 709.309 2336.49 709.625 2337.16 709.854 2337.84 710.083 2338.69 710.258 2339.71 710.378 2340.74 710.498 2342.09 710.58 2343.77 710.623L2343.77 713.6 2315.54 713.6 2315.54 710.623C2317.96 710.514 2319.69 710.367 2320.72 710.182 2321.76 709.996 2322.55 709.718 2323.1 709.347 2323.64 708.977 2324.04 708.453 2324.29 707.777 2324.54 707.101 2324.67 705.999 2324.67 704.473L2324.67 680.82C2324.67 679.926 2324.5 679.282 2324.16 678.89 2323.82 678.497 2323.36 678.301 2322.77 678.301 2322.22 678.301 2321.45 678.552 2320.46 679.053 2319.47 679.555 2317.84 680.58 2315.57 682.129L2313.58 678.661Z" fill-rule="evenodd"/><text fill="#000000" fill-opacity="0" font-family="Arial,Arial_MSFontService,sans-serif" font-size="45.1792" x="2313.58" y="707.953">𝟏</text><path d="M2366.54 650.338 2379.34 650.338 2373.73 674.641C2373.25 676.707 2372.83 678.624 2372.49 680.391 2372.15 682.157 2371.97 683.625 2371.97 684.793 2371.97 686.111 2372.23 687.114 2372.74 687.803 2373.25 688.491 2374.1 688.836 2375.3 688.836 2376.89 688.836 2378.52 688.087 2380.22 686.59 2381.91 685.092 2383.38 683.363 2384.62 681.401 2385.86 679.44 2386.75 677.201 2387.29 674.685L2392.68 650.338 2405.67 650.338 2398.39 680.885C2397.94 682.771 2397.71 684.478 2397.71 686.006 2397.71 686.994 2397.88 687.758 2398.21 688.297 2398.54 688.836 2399.11 689.105 2399.92 689.105 2400.75 689.105 2401.68 688.731 2402.7 687.982 2403.72 687.234 2404.92 686.096 2406.29 684.568L2409.53 687.803C2406.74 690.588 2404.2 692.587 2401.89 693.8 2399.59 695.013 2397.23 695.619 2394.84 695.619 2392.23 695.619 2390.18 694.93 2388.68 693.553 2387.19 692.175 2386.44 690.333 2386.44 688.027 2386.44 687.069 2386.53 686.35 2386.71 685.871L2386.08 685.781C2383.5 688.926 2381.1 691.262 2378.87 692.789 2376.64 694.316 2374.44 695.08 2372.29 695.08 2370.01 695.08 2368.1 694.421 2366.54 693.103L2366.18 693.238C2365.85 696.652 2365.68 700.096 2365.68 703.57 2365.68 705.367 2365.73 706.969 2365.82 708.377L2364.92 712.914 2355.08 712.914 2352.79 709.859C2353.27 708.362 2353.92 706.056 2354.72 702.941 2355.53 699.827 2356.19 697.086 2356.7 694.721Z" fill-rule="evenodd"/><text fill="#000000" fill-opacity="0" font-family="Arial,Arial_MSFontService,sans-serif" font-size="62.5762" x="2352.79" y="705.092">𝝁</text><path d="M2430.45 668.421C2433.65 668.421 2436.27 668.852 2438.3 669.713 2440.33 670.575 2441.79 671.742 2442.7 673.214 2443.6 674.686 2444.06 676.403 2444.06 678.366 2444.06 680.089 2443.73 681.692 2443.09 683.175 2442.45 684.659 2441.34 686.349 2439.75 688.246 2438.17 690.144 2435.51 692.859 2431.76 696.392 2430.6 697.483 2429.22 698.917 2427.62 700.694 2426.01 702.472 2424.74 703.993 2423.81 705.258L2423.81 705.585 2435.42 705.585C2436.84 705.585 2437.89 705.482 2438.59 705.274 2439.29 705.067 2439.84 704.707 2440.24 704.195 2440.65 703.682 2440.98 702.913 2441.24 701.888L2445 701.888 2444.25 713.6 2414.29 713.6 2414.29 711.441C2415.96 707.581 2419.4 702.608 2424.59 696.523 2426.95 693.753 2428.74 691.474 2429.97 689.686 2431.2 687.897 2432.13 686.207 2432.74 684.615 2433.35 683.023 2433.65 681.376 2433.65 679.675 2433.65 677.276 2433.12 675.395 2432.05 674.032 2430.98 672.669 2429.52 671.987 2427.67 671.987 2424.11 671.987 2421.83 674.55 2420.83 679.675L2414.94 679.675 2414.94 671.954C2418.49 670.515 2421.36 669.566 2423.54 669.108 2425.72 668.65 2428.03 668.421 2430.45 668.421Z" fill-rule="evenodd"/><text fill="#000000" fill-opacity="0" font-family="Arial,Arial_MSFontService,sans-serif" font-size="45.1792" x="2414.29" y="707.953">𝟐</text><rect x="1091.5" y="561.5" width="1050" height="206" stroke="#172C51" stroke-width="9.16667" stroke-miterlimit="8" fill="#70AD47"/><rect x="2589.5" y="561.5" width="560" height="205" stroke="#172C51" stroke-width="9.16667" stroke-miterlimit="8" fill="#ED7D31"/><path d="M2837.41 653.597C2834.63 653.597 2832.12 654.975 2829.89 657.73 2827.66 660.485 2825.82 664.498 2824.39 669.769 2829.9 669.619 2834.11 668.564 2837.03 666.602 2839.95 664.641 2841.41 661.863 2841.41 658.269 2841.41 656.742 2841.06 655.581 2840.36 654.788 2839.65 653.994 2838.67 653.597 2837.41 653.597ZM2838.54 648.925C2847.7 648.925 2852.28 652.235 2852.28 658.853 2852.28 661.129 2851.83 663.136 2850.91 664.873 2850 666.61 2848.48 668.182 2846.35 669.589 2844.23 670.997 2841.22 672.135 2837.35 673.003 2833.47 673.872 2828.79 674.366 2823.31 674.486 2822.92 676.253 2822.72 678.08 2822.72 679.966 2822.72 682.752 2823.31 684.848 2824.48 686.255 2825.64 687.663 2827.41 688.367 2829.78 688.367 2832.41 688.367 2834.79 687.835 2836.92 686.772 2839.05 685.709 2841.55 683.815 2844.42 681.089L2848.2 684.863C2845.17 688.277 2841.91 690.807 2838.42 692.455 2834.94 694.102 2831.16 694.925 2827.08 694.925 2823.58 694.925 2820.6 694.311 2818.14 693.084 2815.69 691.856 2813.84 690.036 2812.59 687.626 2811.35 685.215 2810.73 682.332 2810.73 678.978 2810.73 677.421 2810.94 675.429 2811.36 673.003 2811.93 669.709 2812.8 666.774 2813.96 664.199 2815.43 661.024 2817.35 658.299 2819.71 656.023 2822.08 653.747 2824.86 651.995 2828.05 650.767 2831.24 649.539 2834.73 648.925 2838.54 648.925Z" fill-rule="evenodd"/><text fill="#000000" fill-opacity="0" font-family="Arial,Arial_MSFontService,sans-serif" font-size="46" x="2810.73" y="689.175">𝒆</text><path d="M2865.49 668.251 2882.14 668.251 2881.65 670.41C2880.72 670.497 2880.03 670.786 2879.61 671.277 2879.18 671.768 2878.97 672.406 2878.97 673.191 2878.97 673.845 2879.09 674.625 2879.33 675.53 2879.57 676.435 2879.94 677.52 2880.44 678.785L2882.5 684.216 2886.89 678.785C2888.28 677.04 2889.25 675.726 2889.8 674.843 2890.34 673.96 2890.62 673.224 2890.62 672.635 2890.62 671.893 2890.43 671.364 2890.06 671.048 2889.69 670.732 2889.08 670.519 2888.23 670.41L2888.72 668.251 2902.33 668.251 2901.84 670.443C2901.32 670.53 2900.79 670.737 2900.27 671.064 2899.74 671.391 2899.03 672.002 2898.13 672.896 2897.22 673.791 2895.72 675.459 2893.63 677.902L2884.24 688.796 2890.03 703.877C2890.9 706.167 2891.68 707.819 2892.37 708.834 2893.05 709.848 2893.97 710.486 2895.1 710.747L2894.64 712.907 2877.96 712.907 2878.41 710.747C2880.14 710.573 2881 709.788 2881 708.392 2881 707.607 2880.9 706.811 2880.7 706.004 2880.51 705.197 2880.23 704.303 2879.85 703.321L2876.94 695.633 2870.17 703.714C2869.17 704.913 2868.46 705.862 2868.04 706.56 2867.63 707.258 2867.42 707.945 2867.42 708.621 2867.42 709.93 2868.23 710.638 2869.84 710.747L2869.39 712.907 2855.74 712.907 2856.2 710.747C2857.1 710.508 2857.98 710.006 2858.87 709.243 2859.75 708.479 2861.42 706.691 2863.89 703.877L2875.18 691.119 2870.17 677.902C2869.82 677.008 2869.4 675.993 2868.91 674.859 2868.42 673.725 2867.97 672.858 2867.57 672.258 2867.17 671.659 2866.77 671.228 2866.39 670.966 2866.01 670.704 2865.55 670.519 2865 670.41Z" fill-rule="evenodd"/><text fill="#000000" fill-opacity="0" font-family="Arial,Arial_MSFontService,sans-serif" font-size="44.6558" x="2855.74" y="707.325">𝑿</text><text font-family="DengXian,DengXian_MSFontService,sans-serif" font-weight="700" font-size="92" transform="matrix(1 0 0 1 419.027 1019)">RESCAL</text><text font-family="DengXian,DengXian_MSFontService,sans-serif" font-weight="700" font-size="92" transform="matrix(1 0 0 1 736.423 1019)">E</text><text font-family="DengXian,DengXian_MSFontService,sans-serif" font-weight="700" font-size="92" transform="matrix(1 0 0 1 487.819 664)">CKKS</text><rect x="2398.5" y="988.5" width="447" height="206" stroke="#000000" stroke-width="9.16667" stroke-miterlimit="8" fill="#5B9BD5"/><path d="M2520.85 1077.39 2533.66 1077.39 2528.04 1101.69C2527.56 1103.76 2527.15 1105.68 2526.81 1107.44 2526.46 1109.21 2526.29 1110.68 2526.29 1111.85 2526.29 1113.16 2526.54 1114.17 2527.05 1114.86 2527.56 1115.54 2528.42 1115.89 2529.61 1115.89 2531.2 1115.89 2532.84 1115.14 2534.53 1113.64 2536.23 1112.14 2537.69 1110.42 2538.94 1108.45 2540.18 1106.49 2541.07 1104.25 2541.61 1101.74L2547 1077.39 2559.98 1077.39 2552.7 1107.94C2552.26 1109.82 2552.03 1111.53 2552.03 1113.06 2552.03 1114.05 2552.2 1114.81 2552.52 1115.35 2552.85 1115.89 2553.42 1116.16 2554.23 1116.16 2555.07 1116.16 2556 1115.78 2557.02 1115.03 2558.04 1114.29 2559.23 1113.15 2560.61 1111.62L2563.84 1114.86C2561.06 1117.64 2558.51 1119.64 2556.21 1120.85 2553.9 1122.07 2551.55 1122.67 2549.16 1122.67 2546.55 1122.67 2544.5 1121.98 2543 1120.61 2541.5 1119.23 2540.76 1117.39 2540.76 1115.08 2540.76 1114.12 2540.84 1113.4 2541.02 1112.92L2540.4 1112.83C2537.82 1115.98 2535.42 1118.31 2533.19 1119.84 2530.95 1121.37 2528.76 1122.13 2526.6 1122.13 2524.33 1122.13 2522.41 1121.47 2520.85 1120.16L2520.5 1120.29C2520.17 1123.7 2520 1127.15 2520 1130.62 2520 1132.42 2520.05 1134.02 2520.14 1135.43L2519.24 1139.97 2509.4 1139.97 2507.11 1136.91C2507.59 1135.41 2508.23 1133.11 2509.04 1129.99 2509.85 1126.88 2510.51 1124.14 2511.02 1121.77Z" fill-rule="evenodd"/><text fill="#000000" fill-opacity="0" font-family="Arial,Arial_MSFontService,sans-serif" font-size="62.5762" x="2507.11" y="1132.14">𝝁</text><path d="M2587.31 1095.47 2591.5 1095.47C2591.37 1097.57 2591.31 1100.47 2591.31 1104.18L2591.31 1131.53C2591.31 1132.79 2591.38 1133.74 2591.52 1134.39 2591.66 1135.03 2591.91 1135.55 2592.27 1135.96 2592.63 1136.36 2593.15 1136.68 2593.82 1136.91 2594.5 1137.14 2595.35 1137.31 2596.38 1137.43 2597.4 1137.55 2598.75 1137.63 2600.43 1137.68L2600.43 1140.65 2572.2 1140.65 2572.2 1137.68C2574.62 1137.57 2576.35 1137.42 2577.39 1137.23 2578.42 1137.05 2579.21 1136.77 2579.76 1136.4 2580.3 1136.03 2580.7 1135.51 2580.95 1134.83 2581.2 1134.15 2581.33 1133.05 2581.33 1131.53L2581.33 1107.87C2581.33 1106.98 2581.16 1106.33 2580.82 1105.94 2580.48 1105.55 2580.02 1105.35 2579.43 1105.35 2578.89 1105.35 2578.12 1105.6 2577.12 1106.11 2576.13 1106.61 2574.5 1107.63 2572.23 1109.18L2570.24 1105.71Z" fill-rule="evenodd"/><text fill="#000000" fill-opacity="0" font-family="Arial,Arial_MSFontService,sans-serif" font-size="45.1792" x="2570.24" y="1135.01">𝟏</text><path d="M2623.2 1077.39 2636 1077.39 2630.39 1101.69C2629.91 1103.76 2629.5 1105.68 2629.15 1107.44 2628.81 1109.21 2628.64 1110.68 2628.64 1111.85 2628.64 1113.16 2628.89 1114.17 2629.4 1114.86 2629.91 1115.54 2630.76 1115.89 2631.96 1115.89 2633.55 1115.89 2635.19 1115.14 2636.88 1113.64 2638.57 1112.14 2640.04 1110.42 2641.28 1108.45 2642.52 1106.49 2643.42 1104.25 2643.95 1101.74L2649.35 1077.39 2662.33 1077.39 2655.05 1107.94C2654.6 1109.82 2654.38 1111.53 2654.38 1113.06 2654.38 1114.05 2654.54 1114.81 2654.87 1115.35 2655.2 1115.89 2655.77 1116.16 2656.58 1116.16 2657.42 1116.16 2658.34 1115.78 2659.36 1115.03 2660.38 1114.29 2661.58 1113.15 2662.96 1111.62L2666.19 1114.86C2663.41 1117.64 2660.86 1119.64 2658.55 1120.85 2656.25 1122.07 2653.9 1122.67 2651.5 1122.67 2648.9 1122.67 2646.84 1121.98 2645.35 1120.61 2643.85 1119.23 2643.1 1117.39 2643.1 1115.08 2643.1 1114.12 2643.19 1113.4 2643.37 1112.92L2642.74 1112.83C2640.17 1115.98 2637.76 1118.31 2635.53 1119.84 2633.3 1121.37 2631.11 1122.13 2628.95 1122.13 2626.67 1122.13 2624.76 1121.47 2623.2 1120.16L2622.84 1120.29C2622.51 1123.7 2622.35 1127.15 2622.35 1130.62 2622.35 1132.42 2622.39 1134.02 2622.48 1135.43L2621.58 1139.97 2611.75 1139.97 2609.45 1136.91C2609.93 1135.41 2610.58 1133.11 2611.39 1129.99 2612.19 1126.88 2612.85 1124.14 2613.36 1121.77Z" fill-rule="evenodd"/><text fill="#000000" fill-opacity="0" font-family="Arial,Arial_MSFontService,sans-serif" font-size="62.5762" x="2609.45" y="1132.14">𝝁</text><path d="M2687.11 1095.47C2690.31 1095.47 2692.93 1095.9 2694.96 1096.77 2696.99 1097.63 2698.46 1098.79 2699.36 1100.27 2700.27 1101.74 2700.72 1103.46 2700.72 1105.42 2700.72 1107.14 2700.4 1108.74 2699.75 1110.23 2699.11 1111.71 2698 1113.4 2696.42 1115.3 2694.83 1117.2 2692.17 1119.91 2688.42 1123.44 2687.26 1124.54 2685.88 1125.97 2684.28 1127.75 2682.68 1129.52 2681.41 1131.05 2680.47 1132.31L2680.47 1132.64 2692.08 1132.64C2693.5 1132.64 2694.56 1132.53 2695.25 1132.33 2695.95 1132.12 2696.5 1131.76 2696.91 1131.25 2697.31 1130.73 2697.64 1129.97 2697.9 1128.94L2701.67 1128.94 2700.91 1140.65 2670.95 1140.65 2670.95 1138.49C2672.63 1134.63 2676.06 1129.66 2681.25 1123.58 2683.61 1120.81 2685.4 1118.53 2686.63 1116.74 2687.87 1114.95 2688.79 1113.26 2689.4 1111.67 2690.01 1110.08 2690.31 1108.43 2690.31 1106.73 2690.31 1104.33 2689.78 1102.45 2688.71 1101.08 2687.64 1099.72 2686.18 1099.04 2684.33 1099.04 2680.77 1099.04 2678.49 1101.6 2677.49 1106.73L2671.6 1106.73 2671.6 1099.01C2675.16 1097.57 2678.03 1096.62 2680.21 1096.16 2682.39 1095.7 2684.69 1095.47 2687.11 1095.47Z" fill-rule="evenodd"/><text fill="#000000" fill-opacity="0" font-family="Arial,Arial_MSFontService,sans-serif" font-size="45.1792" x="2670.95" y="1135.01">𝟐</text><rect x="1348.5" y="989.5" width="1050" height="205" stroke="#172C51" stroke-width="9.16667" stroke-miterlimit="8" fill="#70AD47"/><rect x="2845.5" y="988.5" width="304" height="206" stroke="#172C51" stroke-width="9.16667" stroke-miterlimit="8" fill="#ED7D31"/><path d="M2965.75 1081.34C2962.96 1081.34 2960.45 1082.72 2958.22 1085.48 2955.99 1088.23 2954.16 1092.24 2952.72 1097.52 2958.23 1097.37 2962.44 1096.31 2965.36 1094.35 2968.28 1092.39 2969.74 1089.61 2969.74 1086.02 2969.74 1084.49 2969.39 1083.33 2968.69 1082.53 2967.98 1081.74 2967 1081.34 2965.75 1081.34ZM2966.87 1076.67C2976.03 1076.67 2980.61 1079.98 2980.61 1086.6 2980.61 1088.88 2980.16 1090.88 2979.24 1092.62 2978.33 1094.36 2976.81 1095.93 2974.68 1097.34 2972.56 1098.74 2969.56 1099.88 2965.68 1100.75 2961.8 1101.62 2957.12 1102.11 2951.64 1102.23 2951.25 1104 2951.06 1105.83 2951.06 1107.71 2951.06 1110.5 2951.64 1112.59 2952.81 1114 2953.98 1115.41 2955.74 1116.11 2958.11 1116.11 2960.74 1116.11 2963.12 1115.58 2965.25 1114.52 2967.38 1113.46 2969.88 1111.56 2972.75 1108.84L2976.53 1112.61C2973.5 1116.02 2970.24 1118.55 2966.76 1120.2 2963.27 1121.85 2959.49 1122.67 2955.41 1122.67 2951.91 1122.67 2948.93 1122.06 2946.47 1120.83 2944.02 1119.6 2942.17 1117.78 2940.93 1115.37 2939.68 1112.96 2939.06 1110.08 2939.06 1106.72 2939.06 1105.17 2939.27 1103.18 2939.69 1100.75 2940.26 1097.46 2941.13 1094.52 2942.3 1091.95 2943.76 1088.77 2945.68 1086.05 2948.05 1083.77 2950.41 1081.49 2953.19 1079.74 2956.38 1078.51 2959.57 1077.29 2963.06 1076.67 2966.87 1076.67Z" fill-rule="evenodd"/><text fill="#000000" fill-opacity="0" font-family="Arial,Arial_MSFontService,sans-serif" font-size="46" x="2939.06" y="1116.92">𝒆</text><path d="M2993.82 1096 3010.48 1096 3009.98 1098.16C3009.05 1098.24 3008.37 1098.53 3007.94 1099.02 3007.51 1099.51 3007.3 1100.15 3007.3 1100.94 3007.3 1101.59 3007.42 1102.37 3007.66 1103.28 3007.9 1104.18 3008.27 1105.27 3008.77 1106.53L3010.84 1111.96 3015.22 1106.53C3016.61 1104.79 3017.59 1103.47 3018.13 1102.59 3018.68 1101.71 3018.95 1100.97 3018.95 1100.38 3018.95 1099.64 3018.76 1099.11 3018.39 1098.79 3018.02 1098.48 3017.41 1098.27 3016.56 1098.16L3017.05 1096 3030.66 1096 3030.17 1098.19C3029.65 1098.28 3029.12 1098.48 3028.6 1098.81 3028.08 1099.14 3027.36 1099.75 3026.46 1100.64 3025.55 1101.54 3024.05 1103.21 3021.96 1105.65L3012.57 1116.54 3018.36 1131.62C3019.23 1133.91 3020.01 1135.57 3020.7 1136.58 3021.39 1137.59 3022.3 1138.23 3023.43 1138.49L3022.97 1140.65 3006.29 1140.65 3006.75 1138.49C3008.47 1138.32 3009.33 1137.53 3009.33 1136.14 3009.33 1135.35 3009.23 1134.56 3009.04 1133.75 3008.84 1132.94 3008.56 1132.05 3008.19 1131.07L3005.27 1123.38 2998.5 1131.46C2997.5 1132.66 2996.79 1133.61 2996.38 1134.31 2995.96 1135 2995.75 1135.69 2995.75 1136.37 2995.75 1137.68 2996.56 1138.38 2998.17 1138.49L2997.72 1140.65 2984.07 1140.65 2984.53 1138.49C2985.43 1138.25 2986.32 1137.75 2987.2 1136.99 2988.08 1136.23 2989.76 1134.44 2992.22 1131.62L3003.51 1118.86 2998.5 1105.65C2998.15 1104.75 2997.73 1103.74 2997.24 1102.61 2996.75 1101.47 2996.3 1100.6 2995.9 1100 2995.5 1099.4 2995.1 1098.97 2994.72 1098.71 2994.34 1098.45 2993.88 1098.27 2993.33 1098.16Z" fill-rule="evenodd"/><text fill="#000000" fill-opacity="0" font-family="Arial,Arial_MSFontService,sans-serif" font-size="44.6558" x="2984.07" y="1135.07">𝑿</text><path d="M1348.5 1215.5C1348.5 1240.63 1348.5 1261 1348.5 1261L1220 1261C1220 1261 1220 1281.37 1220 1306.5 1220 1281.37 1220 1261 1220 1261L1091.5 1261C1091.5 1261 1091.5 1240.63 1091.5 1215.5" stroke="#000000" stroke-width="3.4375" stroke-linejoin="round" stroke-miterlimit="10" stroke-dasharray="13.75 10.3125" fill="none" fill-rule="evenodd"/><path d="M1091.5 766.5 1091.5 1188.54" stroke="#000000" stroke-width="4.58333" stroke-miterlimit="8" stroke-dasharray="18.3333 13.75 4.58333 13.75" fill="none" fill-rule="evenodd"/><path d="M1348.5 772.5 1348.5 1194.54" stroke="#000000" stroke-width="4.58333" stroke-miterlimit="8" stroke-dasharray="18.3333 13.75 4.58333 13.75" fill="none" fill-rule="evenodd"/><path d="M2589.5 766.5 2589.5 989.036" stroke="#000000" stroke-width="4.58333" stroke-miterlimit="8" stroke-dasharray="18.3333 13.75 4.58333 13.75" fill="none" fill-rule="evenodd"/><path d="M2843.5 772.5 2843.5 1194.54" stroke="#000000" stroke-width="4.58333" stroke-miterlimit="8" stroke-dasharray="18.3333 13.75 4.58333 13.75" fill="none" fill-rule="evenodd"/><path d="M1212.7 1356.08 1195.58 1401 1226.85 1401ZM1211.13 1346.15 1217.78 1346.15 1236.73 1405.31 1236.73 1408.19 1187.63 1408.19 1187.63 1405.31Z" fill-rule="evenodd"/><text fill="#000000" fill-opacity="0" font-family="Arial,Arial_MSFontService,sans-serif" font-size="62.0371" x="1187.63" y="1400.43">Δ</text></g></svg>