<svg width="2625" height="1529" xmlns="http://www.w3.org/2000/svg" xmlns:xlink="http://www.w3.org/1999/xlink" xml:space="preserve" overflow="hidden"><g transform="translate(-299 -367)"><path d="M1776.5 704C1776.5 672.796 1801.8 647.5 1833 647.5 1864.2 647.5 1889.5 672.796 1889.5 704 1889.5 735.204 1864.2 760.5 1833 760.5 1801.8 760.5 1776.5 735.204 1776.5 704Z" fill="#FFFFFF" fill-rule="evenodd"/><path d="M1793.05 664.049 1872.95 743.951M1872.95 664.049 1793.05 743.951" stroke="#000000" stroke-width="4.58333" stroke-miterlimit="8" fill="none" fill-rule="evenodd"/><path d="M1776.5 704C1776.5 672.796 1801.8 647.5 1833 647.5 1864.2 647.5 1889.5 672.796 1889.5 704 1889.5 735.204 1864.2 760.5 1833 760.5 1801.8 760.5 1776.5 735.204 1776.5 704Z" stroke="#000000" stroke-width="4.58333" stroke-miterlimit="8" fill="none" fill-rule="evenodd"/><path d="M1856.94 1066.5 1856.94 1165.5 1850.06 1165.5 1850.06 1066.5ZM1867.25 1160.92 1853.5 1188.42 1839.75 1160.92Z"/><path d="M2919.5 1657.5C2919.5 1686.49 2915.58 1710 2910.75 1710L1899.25 1710C1894.42 1710 1890.5 1733.51 1890.5 1762.5 1890.5 1733.51 1886.58 1710 1881.75 1710L870.25 1710C865.418 1710 861.5 1686.49 861.5 1657.5" stroke="#000000" stroke-width="3.4375" stroke-linejoin="round" stroke-miterlimit="10" stroke-dasharray="13.75 10.3125" fill="none" fill-rule="evenodd"/><path d="M1904.37 1813.22C1901.56 1813.22 1899.09 1814.59 1896.96 1817.35 1894.83 1820.1 1893.1 1823.86 1891.77 1828.6 1890.44 1833.35 1889.77 1837.62 1889.77 1841.43 1889.77 1843.61 1890.09 1845.25 1890.74 1846.32 1891.38 1847.4 1892.38 1847.94 1893.73 1847.94 1895.7 1847.94 1897.72 1846.98 1899.77 1845.04 1901.82 1843.11 1903.47 1840.84 1904.73 1838.24 1905.99 1835.63 1907.11 1832.07 1908.1 1827.55L1908.46 1825.88C1908.94 1823.67 1909.18 1821.48 1909.18 1819.33 1909.18 1817.29 1908.8 1815.76 1908.06 1814.74 1907.31 1813.73 1906.08 1813.22 1904.37 1813.22ZM1903.83 1808.55C1908.3 1808.55 1912.1 1809.62 1915.24 1811.78L1919.29 1808.55 1924.32 1809.26 1912.91 1861.19C1912.58 1862.66 1912.37 1863.75 1912.28 1864.47 1912.19 1865.19 1912.14 1865.81 1912.14 1866.31 1912.14 1867.63 1912.47 1868.56 1913.13 1869.1 1913.79 1869.64 1914.96 1870.01 1916.64 1870.22L1916.14 1873.19 1897.5 1873.19 1904.82 1845.56 1904.24 1845.38C1901.78 1848.5 1899.35 1850.81 1896.94 1852.32 1894.53 1853.83 1891.64 1854.59 1888.29 1854.59 1884.88 1854.59 1882.23 1853.35 1880.36 1850.88 1878.49 1848.41 1877.55 1844.86 1877.55 1840.21 1877.55 1836.17 1878.14 1832.16 1879.31 1828.18 1880.47 1824.19 1882.15 1820.76 1884.34 1817.87 1886.52 1814.98 1889.27 1812.7 1892.58 1811.04 1895.89 1809.38 1899.64 1808.55 1903.83 1808.55Z" fill-rule="evenodd"/><text fill="#000000" fill-opacity="0" font-family="Arial,Arial_MSFontService,sans-serif" font-size="64.6426" x="1877.55" y="1865.11">𝒒</text><rect x="2198.5" y="371.5" width="402" height="205" stroke="#000000" stroke-width="9.16667" stroke-miterlimit="8" fill="#5B9BD5"/><path d="M2349.81 460.247 2362.62 460.247 2357 484.55C2356.52 486.616 2356.11 488.533 2355.77 490.3 2355.42 492.067 2355.25 493.534 2355.25 494.702 2355.25 496.02 2355.5 497.023 2356.01 497.712 2356.52 498.401 2357.38 498.745 2358.57 498.745 2360.16 498.745 2361.8 497.996 2363.49 496.499 2365.18 495.002 2366.65 493.272 2367.89 491.311 2369.14 489.349 2370.03 487.11 2370.57 484.595L2375.96 460.247 2388.94 460.247 2381.66 490.794C2381.21 492.681 2380.99 494.388 2380.99 495.915 2380.99 496.903 2381.15 497.667 2381.48 498.206 2381.81 498.745 2382.38 499.015 2383.19 499.015 2384.03 499.015 2384.96 498.64 2385.98 497.892 2386.99 497.143 2388.19 496.005 2389.57 494.478L2392.8 497.712C2390.02 500.497 2387.47 502.496 2385.17 503.709 2382.86 504.922 2380.51 505.528 2378.11 505.528 2375.51 505.528 2373.46 504.84 2371.96 503.462 2370.46 502.084 2369.71 500.243 2369.71 497.937 2369.71 496.978 2369.8 496.259 2369.98 495.78L2369.35 495.69C2366.78 498.835 2364.38 501.171 2362.14 502.698 2359.91 504.226 2357.72 504.989 2355.56 504.989 2353.29 504.989 2351.37 504.33 2349.81 503.013L2349.45 503.147C2349.12 506.562 2348.96 510.006 2348.96 513.479 2348.96 515.276 2349 516.879 2349.09 518.286L2348.2 522.823 2338.36 522.823 2336.07 519.769C2336.55 518.271 2337.19 515.965 2338 512.851 2338.81 509.736 2339.47 506.996 2339.98 504.63Z" fill-rule="evenodd"/><text fill="#000000" fill-opacity="0" font-family="Arial,Arial_MSFontService,sans-serif" font-size="62.5762" x="2336.07" y="515.001">𝝁</text><path d="M2416.27 478.33 2420.46 478.33C2420.33 480.424 2420.26 483.325 2420.26 487.033L2420.26 514.382C2420.26 515.647 2420.34 516.601 2420.48 517.245 2420.62 517.888 2420.87 518.411 2421.23 518.815 2421.59 519.219 2422.11 519.535 2422.78 519.764 2423.46 519.993 2424.31 520.167 2425.34 520.287 2426.36 520.407 2427.71 520.489 2429.39 520.533L2429.39 523.51 2401.16 523.51 2401.16 520.533C2403.58 520.423 2405.31 520.276 2406.34 520.091 2407.38 519.906 2408.17 519.627 2408.72 519.257 2409.26 518.886 2409.66 518.362 2409.91 517.686 2410.16 517.01 2410.29 515.909 2410.29 514.382L2410.29 490.729C2410.29 489.835 2410.12 489.192 2409.78 488.799 2409.44 488.407 2408.98 488.21 2408.39 488.21 2407.84 488.21 2407.08 488.461 2406.08 488.963 2405.09 489.464 2403.46 490.489 2401.19 492.038L2399.2 488.57Z" fill-rule="evenodd"/><text fill="#000000" fill-opacity="0" font-family="Arial,Arial_MSFontService,sans-serif" font-size="45.1792" x="2399.2" y="517.862">𝟏</text><rect x="860.5" y="371.5" width="1348" height="205" stroke="#172C51" stroke-width="9.16667" stroke-miterlimit="8" fill="#70AD47"/><rect x="2584.5" y="371.5" width="335" height="205" stroke="#172C51" stroke-width="9.16667" stroke-miterlimit="8" fill="#ED7D31"/><path d="M2723.07 464.2C2720.28 464.2 2717.78 465.578 2715.54 468.333 2713.31 471.088 2711.48 475.101 2710.04 480.372 2715.55 480.222 2719.77 479.167 2722.69 477.205 2725.61 475.243 2727.07 472.466 2727.07 468.872 2727.07 467.345 2726.72 466.184 2726.01 465.391 2725.31 464.597 2724.33 464.2 2723.07 464.2ZM2724.19 459.528C2733.36 459.528 2737.94 462.838 2737.94 469.456 2737.94 471.732 2737.48 473.739 2736.57 475.476 2735.65 477.213 2734.13 478.785 2732.01 480.192 2729.88 481.6 2726.88 482.738 2723 483.606 2719.12 484.475 2714.44 484.969 2708.96 485.089 2708.57 486.856 2708.38 488.683 2708.38 490.569 2708.38 493.354 2708.96 495.451 2710.13 496.858 2711.3 498.266 2713.07 498.97 2715.43 498.97 2718.07 498.97 2720.45 498.438 2722.57 497.375 2724.7 496.312 2727.2 494.418 2730.08 491.692L2733.85 495.466C2730.83 498.88 2727.57 501.41 2724.08 503.058 2720.59 504.705 2716.81 505.528 2712.74 505.528 2709.23 505.528 2706.25 504.914 2703.8 503.687 2701.34 502.459 2699.49 500.639 2698.25 498.229 2697.01 495.818 2696.39 492.935 2696.39 489.581 2696.39 488.024 2696.6 486.032 2697.01 483.606 2697.58 480.312 2698.45 477.377 2699.62 474.802 2701.09 471.627 2703 468.902 2705.37 466.626 2707.74 464.35 2710.51 462.598 2713.7 461.37 2716.89 460.142 2720.39 459.528 2724.19 459.528Z" fill-rule="evenodd"/><text fill="#000000" fill-opacity="0" font-family="Arial,Arial_MSFontService,sans-serif" font-size="46" x="2696.39" y="499.778">𝒆</text><path d="M2764.53 478.33 2768.72 478.33C2768.58 480.424 2768.52 483.325 2768.52 487.033L2768.52 514.382C2768.52 515.647 2768.59 516.601 2768.73 517.245 2768.87 517.888 2769.12 518.411 2769.48 518.815 2769.84 519.219 2770.36 519.535 2771.04 519.764 2771.71 519.993 2772.56 520.167 2773.59 520.287 2774.61 520.407 2775.97 520.489 2777.65 520.533L2777.65 523.51 2749.41 523.51 2749.41 520.533C2751.83 520.423 2753.56 520.276 2754.6 520.091 2755.63 519.906 2756.43 519.627 2756.97 519.257 2757.52 518.886 2757.91 518.362 2758.16 517.686 2758.42 517.01 2758.54 515.909 2758.54 514.382L2758.54 490.729C2758.54 489.835 2758.37 489.192 2758.03 488.799 2757.7 488.407 2757.23 488.21 2756.64 488.21 2756.1 488.21 2755.33 488.461 2754.34 488.963 2753.34 489.464 2751.71 490.489 2749.45 492.038L2747.45 488.57Z" fill-rule="evenodd"/><text fill="#000000" fill-opacity="0" font-family="Arial,Arial_MSFontService,sans-serif" font-size="45.1792" x="2747.45" y="517.862">𝟏</text><text font-family="DengXian,DengXian_MSFontService,sans-serif" font-weight="700" font-size="92" transform="matrix(1 0 0 1 354.316 504)">CKKS</text><rect x="2198.5" y="787.5" width="402" height="205" stroke="#000000" stroke-width="9.16667" stroke-miterlimit="8" fill="#5B9BD5"/><path d="M2349.81 876.253 2362.62 876.253 2357 900.555C2356.52 902.622 2356.11 904.539 2355.77 906.305 2355.42 908.072 2355.25 909.54 2355.25 910.708 2355.25 912.026 2355.5 913.029 2356.01 913.718 2356.52 914.406 2357.38 914.751 2358.57 914.751 2360.16 914.751 2361.8 914.002 2363.49 912.505 2365.18 911.007 2366.65 909.278 2367.89 907.316 2369.14 905.355 2370.03 903.116 2370.57 900.6L2375.96 876.253 2388.94 876.253 2381.66 906.8C2381.21 908.686 2380.99 910.393 2380.99 911.921 2380.99 912.909 2381.15 913.673 2381.48 914.212 2381.81 914.751 2382.38 915.02 2383.19 915.02 2384.03 915.02 2384.96 914.646 2385.98 913.897 2386.99 913.149 2388.19 912.011 2389.57 910.483L2392.8 913.718C2390.02 916.503 2387.47 918.502 2385.17 919.715 2382.86 920.928 2380.51 921.534 2378.11 921.534 2375.51 921.534 2373.46 920.845 2371.96 919.468 2370.46 918.09 2369.71 916.248 2369.71 913.942 2369.71 912.984 2369.8 912.265 2369.98 911.786L2369.35 911.696C2366.78 914.841 2364.38 917.177 2362.14 918.704 2359.91 920.231 2357.72 920.995 2355.56 920.995 2353.29 920.995 2351.37 920.336 2349.81 919.018L2349.45 919.153C2349.12 922.567 2348.96 926.011 2348.96 929.485 2348.96 931.282 2349 932.884 2349.09 934.292L2348.2 938.829 2338.36 938.829 2336.07 935.774C2336.55 934.277 2337.19 931.971 2338 928.856 2338.81 925.742 2339.47 923.001 2339.98 920.636Z" fill-rule="evenodd"/><text fill="#000000" fill-opacity="0" font-family="Arial,Arial_MSFontService,sans-serif" font-size="62.5762" x="2336.07" y="931.007">𝝁</text><path d="M2413.72 894.336C2416.93 894.336 2419.54 894.767 2421.57 895.628 2423.6 896.49 2425.07 897.657 2425.97 899.129 2426.88 900.601 2427.33 902.318 2427.33 904.281 2427.33 906.004 2427.01 907.607 2426.37 909.09 2425.72 910.574 2424.61 912.264 2423.03 914.161 2421.45 916.059 2418.78 918.774 2415.03 922.307 2413.87 923.398 2412.49 924.832 2410.89 926.609 2409.29 928.387 2408.02 929.908 2407.08 931.173L2407.08 931.5 2418.69 931.5C2420.11 931.5 2421.17 931.397 2421.87 931.189 2422.57 930.982 2423.12 930.622 2423.52 930.11 2423.92 929.597 2424.26 928.828 2424.52 927.803L2428.28 927.803 2427.53 939.515 2397.56 939.515 2397.56 937.356C2399.24 933.496 2402.68 928.523 2407.87 922.438 2410.22 919.668 2412.02 917.389 2413.25 915.601 2414.48 913.812 2415.4 912.122 2416.01 910.53 2416.62 908.938 2416.93 907.291 2416.93 905.59 2416.93 903.191 2416.39 901.31 2415.32 899.947 2414.26 898.584 2412.79 897.902 2410.94 897.902 2407.39 897.902 2405.11 900.465 2404.1 905.59L2398.21 905.59 2398.21 897.869C2401.77 896.43 2404.64 895.481 2406.82 895.023 2409 894.565 2411.3 894.336 2413.72 894.336Z" fill-rule="evenodd"/><text fill="#000000" fill-opacity="0" font-family="Arial,Arial_MSFontService,sans-serif" font-size="45.1792" x="2397.56" y="933.868">𝟐</text><rect x="860.5" y="787.5" width="1348" height="205" stroke="#172C51" stroke-width="9.16667" stroke-miterlimit="8" fill="#70AD47"/><rect x="2584.5" y="787.5" width="335" height="205" stroke="#172C51" stroke-width="9.16667" stroke-miterlimit="8" fill="#ED7D31"/><path d="M2723.07 880.206C2720.28 880.206 2717.78 881.583 2715.54 884.339 2713.31 887.094 2711.48 891.107 2710.04 896.378 2715.55 896.228 2719.77 895.172 2722.69 893.211 2725.61 891.249 2727.07 888.471 2727.07 884.878 2727.07 883.35 2726.72 882.19 2726.01 881.396 2725.31 880.603 2724.33 880.206 2723.07 880.206ZM2724.19 875.534C2733.36 875.534 2737.94 878.843 2737.94 885.462 2737.94 887.738 2737.48 889.744 2736.57 891.481 2735.65 893.218 2734.13 894.791 2732.01 896.198 2729.88 897.606 2726.88 898.744 2723 899.612 2719.12 900.481 2714.44 900.975 2708.96 901.095 2708.57 902.861 2708.38 904.688 2708.38 906.575 2708.38 909.36 2708.96 911.457 2710.13 912.864 2711.3 914.272 2713.07 914.975 2715.43 914.975 2718.07 914.975 2720.45 914.444 2722.57 913.381 2724.7 912.318 2727.2 910.423 2730.08 907.698L2733.85 911.471C2730.83 914.886 2727.57 917.416 2724.08 919.063 2720.59 920.71 2716.81 921.534 2712.74 921.534 2709.23 921.534 2706.25 920.92 2703.8 919.692 2701.34 918.464 2699.49 916.645 2698.25 914.234 2697.01 911.823 2696.39 908.941 2696.39 905.587 2696.39 904.029 2696.6 902.038 2697.01 899.612 2697.58 896.318 2698.45 893.383 2699.62 890.807 2701.09 887.633 2703 884.908 2705.37 882.632 2707.74 880.356 2710.51 878.604 2713.7 877.376 2716.89 876.148 2720.39 875.534 2724.19 875.534Z" fill-rule="evenodd"/><text fill="#000000" fill-opacity="0" font-family="Arial,Arial_MSFontService,sans-serif" font-size="46" x="2696.39" y="915.784">𝒆</text><path d="M2761.98 894.336C2765.18 894.336 2767.8 894.767 2769.83 895.628 2771.86 896.49 2773.32 897.657 2774.23 899.129 2775.13 900.601 2775.59 902.318 2775.59 904.281 2775.59 906.004 2775.26 907.607 2774.62 909.09 2773.98 910.574 2772.86 912.264 2771.28 914.161 2769.7 916.059 2767.04 918.774 2763.28 922.307 2762.13 923.398 2760.75 924.832 2759.15 926.609 2757.54 928.387 2756.27 929.908 2755.33 931.173L2755.33 931.5 2766.95 931.5C2768.37 931.5 2769.42 931.397 2770.12 931.189 2770.82 930.982 2771.37 930.622 2771.77 930.11 2772.18 929.597 2772.51 928.828 2772.77 927.803L2776.53 927.803 2775.78 939.515 2745.81 939.515 2745.81 937.356C2747.49 933.496 2750.93 928.523 2756.12 922.438 2758.48 919.668 2760.27 917.389 2761.5 915.601 2762.73 913.812 2763.66 912.122 2764.27 910.53 2764.88 908.938 2765.18 907.291 2765.18 905.59 2765.18 903.191 2764.65 901.31 2763.58 899.947 2762.51 898.584 2761.05 897.902 2759.2 897.902 2755.64 897.902 2753.36 900.465 2752.36 905.59L2746.47 905.59 2746.47 897.869C2750.02 896.43 2752.89 895.481 2755.07 895.023 2757.25 894.565 2759.56 894.336 2761.98 894.336Z" fill-rule="evenodd"/><text fill="#000000" fill-opacity="0" font-family="Arial,Arial_MSFontService,sans-serif" font-size="45.1792" x="2745.81" y="933.868">𝟐</text><rect x="1910.5" y="1284.5" width="448" height="205" stroke="#000000" stroke-width="9.16667" stroke-miterlimit="8" fill="#5B9BD5"/><path d="M2033.36 1372.76 2046.17 1372.76 2040.55 1397.06C2040.07 1399.13 2039.66 1401.05 2039.32 1402.81 2038.97 1404.58 2038.8 1406.05 2038.8 1407.22 2038.8 1408.53 2039.05 1409.54 2039.56 1410.23 2040.07 1410.91 2040.93 1411.26 2042.12 1411.26 2043.71 1411.26 2045.35 1410.51 2047.04 1409.01 2048.73 1407.52 2050.2 1405.79 2051.44 1403.82 2052.69 1401.86 2053.58 1399.62 2054.12 1397.11L2059.51 1372.76 2072.49 1372.76 2065.21 1403.31C2064.76 1405.19 2064.54 1406.9 2064.54 1408.43 2064.54 1409.42 2064.7 1410.18 2065.03 1410.72 2065.36 1411.26 2065.93 1411.53 2066.74 1411.53 2067.58 1411.53 2068.51 1411.15 2069.53 1410.41 2070.54 1409.66 2071.74 1408.52 2073.12 1406.99L2076.35 1410.23C2073.57 1413.01 2071.02 1415.01 2068.72 1416.22 2066.41 1417.44 2064.06 1418.04 2061.66 1418.04 2059.06 1418.04 2057.01 1417.35 2055.51 1415.98 2054.01 1414.6 2053.26 1412.76 2053.26 1410.45 2053.26 1409.49 2053.35 1408.77 2053.53 1408.29L2052.9 1408.2C2050.33 1411.35 2047.93 1413.69 2045.69 1415.21 2043.46 1416.74 2041.27 1417.5 2039.11 1417.5 2036.84 1417.5 2034.92 1416.84 2033.36 1415.53L2033 1415.66C2032.67 1419.08 2032.51 1422.52 2032.51 1425.99 2032.51 1427.79 2032.55 1429.39 2032.64 1430.8L2031.75 1435.34 2021.91 1435.34 2019.62 1432.28C2020.1 1430.79 2020.74 1428.48 2021.55 1425.36 2022.36 1422.25 2023.02 1419.51 2023.53 1417.14Z" fill-rule="evenodd"/><text fill="#000000" fill-opacity="0" font-family="Arial,Arial_MSFontService,sans-serif" font-size="62.5762" x="2019.62" y="1427.52">𝝁</text><path d="M2099.82 1390.84 2104.01 1390.84C2103.88 1392.94 2103.81 1395.84 2103.81 1399.55L2103.81 1426.9C2103.81 1428.16 2103.89 1429.12 2104.03 1429.76 2104.17 1430.4 2104.42 1430.93 2104.78 1431.33 2105.14 1431.73 2105.66 1432.05 2106.33 1432.28 2107.01 1432.51 2107.86 1432.68 2108.89 1432.8 2109.91 1432.92 2111.26 1433 2112.94 1433.05L2112.94 1436.02 2084.71 1436.02 2084.71 1433.05C2087.13 1432.94 2088.86 1432.79 2089.89 1432.61 2090.93 1432.42 2091.72 1432.14 2092.27 1431.77 2092.81 1431.4 2093.21 1430.88 2093.46 1430.2 2093.71 1429.52 2093.84 1428.42 2093.84 1426.9L2093.84 1403.24C2093.84 1402.35 2093.67 1401.71 2093.33 1401.31 2092.99 1400.92 2092.53 1400.72 2091.94 1400.72 2091.39 1400.72 2090.63 1400.98 2089.63 1401.48 2088.64 1401.98 2087.01 1403 2084.74 1404.55L2082.75 1401.08Z" fill-rule="evenodd"/><text fill="#000000" fill-opacity="0" font-family="Arial,Arial_MSFontService,sans-serif" font-size="45.1792" x="2082.75" y="1430.38">𝟏</text><path d="M2135.71 1372.76 2148.51 1372.76 2142.9 1397.06C2142.42 1399.13 2142.01 1401.05 2141.66 1402.81 2141.32 1404.58 2141.15 1406.05 2141.15 1407.22 2141.15 1408.53 2141.4 1409.54 2141.91 1410.23 2142.42 1410.91 2143.27 1411.26 2144.47 1411.26 2146.06 1411.26 2147.7 1410.51 2149.39 1409.01 2151.08 1407.52 2152.55 1405.79 2153.79 1403.82 2155.03 1401.86 2155.92 1399.62 2156.46 1397.11L2161.85 1372.76 2174.84 1372.76 2167.56 1403.31C2167.11 1405.19 2166.89 1406.9 2166.89 1408.43 2166.89 1409.42 2167.05 1410.18 2167.38 1410.72 2167.71 1411.26 2168.28 1411.53 2169.09 1411.53 2169.93 1411.53 2170.85 1411.15 2171.87 1410.41 2172.89 1409.66 2174.09 1408.52 2175.47 1406.99L2178.7 1410.23C2175.91 1413.01 2173.37 1415.01 2171.06 1416.22 2168.76 1417.44 2166.41 1418.04 2164.01 1418.04 2161.4 1418.04 2159.35 1417.35 2157.86 1415.98 2156.36 1414.6 2155.61 1412.76 2155.61 1410.45 2155.61 1409.49 2155.7 1408.77 2155.88 1408.29L2155.25 1408.2C2152.68 1411.35 2150.27 1413.69 2148.04 1415.21 2145.81 1416.74 2143.62 1417.5 2141.46 1417.5 2139.18 1417.5 2137.27 1416.84 2135.71 1415.53L2135.35 1415.66C2135.02 1419.08 2134.86 1422.52 2134.86 1425.99 2134.86 1427.79 2134.9 1429.39 2134.99 1430.8L2134.09 1435.34 2124.25 1435.34 2121.96 1432.28C2122.44 1430.79 2123.09 1428.48 2123.9 1425.36 2124.7 1422.25 2125.36 1419.51 2125.87 1417.14Z" fill-rule="evenodd"/><text fill="#000000" fill-opacity="0" font-family="Arial,Arial_MSFontService,sans-serif" font-size="62.5762" x="2121.96" y="1427.52">𝝁</text><path d="M2199.62 1390.84C2202.82 1390.84 2205.44 1391.28 2207.47 1392.14 2209.5 1393 2210.96 1394.17 2211.87 1395.64 2212.77 1397.11 2213.23 1398.83 2213.23 1400.79 2213.23 1402.51 2212.91 1404.12 2212.26 1405.6 2211.62 1407.08 2210.51 1408.77 2208.93 1410.67 2207.34 1412.57 2204.68 1415.28 2200.93 1418.82 2199.77 1419.91 2198.39 1421.34 2196.79 1423.12 2195.18 1424.9 2193.91 1426.42 2192.98 1427.68L2192.98 1428.01 2204.59 1428.01C2206.01 1428.01 2207.07 1427.91 2207.76 1427.7 2208.46 1427.49 2209.01 1427.13 2209.42 1426.62 2209.82 1426.11 2210.15 1425.34 2210.41 1424.31L2214.18 1424.31 2213.42 1436.02 2183.46 1436.02 2183.46 1433.86C2185.14 1430 2188.57 1425.03 2193.76 1418.95 2196.12 1416.18 2197.91 1413.9 2199.14 1412.11 2200.38 1410.32 2201.3 1408.63 2201.91 1407.04 2202.52 1405.45 2202.82 1403.8 2202.82 1402.1 2202.82 1399.7 2202.29 1397.82 2201.22 1396.46 2200.15 1395.09 2198.69 1394.41 2196.84 1394.41 2193.28 1394.41 2191 1396.97 2190 1402.1L2184.11 1402.1 2184.11 1394.38C2187.67 1392.94 2190.53 1391.99 2192.71 1391.53 2194.9 1391.07 2197.2 1390.84 2199.62 1390.84Z" fill-rule="evenodd"/><text fill="#000000" fill-opacity="0" font-family="Arial,Arial_MSFontService,sans-serif" font-size="45.1792" x="2183.46" y="1430.38">𝟐</text><rect x="860.5" y="1284.5" width="1050" height="205" stroke="#172C51" stroke-width="9.16667" stroke-miterlimit="8" fill="#70AD47"/><rect x="2358.5" y="1283.5" width="561" height="205" stroke="#172C51" stroke-width="9.16667" stroke-miterlimit="8" fill="#ED7D31"/><path d="M2606.59 1376.02C2603.8 1376.02 2601.29 1377.4 2599.06 1380.15 2596.83 1382.91 2595 1386.92 2593.56 1392.19 2599.07 1392.04 2603.28 1390.99 2606.2 1389.03 2609.12 1387.06 2610.58 1384.29 2610.58 1380.69 2610.58 1379.17 2610.23 1378 2609.53 1377.21 2608.82 1376.42 2607.84 1376.02 2606.59 1376.02ZM2607.71 1371.35C2616.87 1371.35 2621.45 1374.66 2621.45 1381.28 2621.45 1383.55 2621 1385.56 2620.08 1387.3 2619.17 1389.03 2617.65 1390.61 2615.52 1392.01 2613.4 1393.42 2610.4 1394.56 2606.52 1395.43 2602.64 1396.3 2597.96 1396.79 2592.48 1396.91 2592.09 1398.68 2591.9 1400.5 2591.9 1402.39 2591.9 1405.18 2592.48 1407.27 2593.65 1408.68 2594.82 1410.09 2596.58 1410.79 2598.95 1410.79 2601.58 1410.79 2603.96 1410.26 2606.09 1409.2 2608.22 1408.13 2610.72 1406.24 2613.59 1403.51L2617.37 1407.29C2614.34 1410.7 2611.08 1413.23 2607.6 1414.88 2604.11 1416.53 2600.33 1417.35 2596.25 1417.35 2592.75 1417.35 2589.77 1416.73 2587.31 1415.51 2584.86 1414.28 2583.01 1412.46 2581.77 1410.05 2580.52 1407.64 2579.9 1404.76 2579.9 1401.4 2579.9 1399.84 2580.11 1397.85 2580.53 1395.43 2581.1 1392.13 2581.97 1389.2 2583.14 1386.62 2584.6 1383.45 2586.52 1380.72 2588.89 1378.45 2591.25 1376.17 2594.03 1374.42 2597.22 1373.19 2600.41 1371.96 2603.9 1371.35 2607.71 1371.35Z" fill-rule="evenodd"/><text fill="#000000" fill-opacity="0" font-family="Arial,Arial_MSFontService,sans-serif" font-size="46" x="2579.9" y="1411.6">𝒆</text><path d="M2634.66 1390.67 2651.32 1390.67 2650.82 1392.83C2649.89 1392.92 2649.21 1393.21 2648.78 1393.7 2648.35 1394.19 2648.14 1394.83 2648.14 1395.61 2648.14 1396.27 2648.26 1397.05 2648.5 1397.95 2648.74 1398.86 2649.11 1399.94 2649.61 1401.21L2651.68 1406.64 2656.06 1401.21C2657.45 1399.46 2658.43 1398.15 2658.97 1397.27 2659.52 1396.38 2659.79 1395.65 2659.79 1395.06 2659.79 1394.32 2659.6 1393.79 2659.23 1393.47 2658.86 1393.16 2658.25 1392.94 2657.4 1392.83L2657.89 1390.67 2671.5 1390.67 2671.01 1392.87C2670.49 1392.95 2669.96 1393.16 2669.44 1393.49 2668.92 1393.81 2668.2 1394.43 2667.3 1395.32 2666.39 1396.21 2664.89 1397.88 2662.8 1400.33L2653.41 1411.22 2659.2 1426.3C2660.07 1428.59 2660.85 1430.24 2661.54 1431.26 2662.23 1432.27 2663.14 1432.91 2664.27 1433.17L2663.81 1435.33 2647.13 1435.33 2647.59 1433.17C2649.31 1433 2650.17 1432.21 2650.17 1430.82 2650.17 1430.03 2650.07 1429.23 2649.88 1428.43 2649.68 1427.62 2649.4 1426.73 2649.03 1425.74L2646.11 1418.06 2639.34 1426.14C2638.34 1427.34 2637.63 1428.29 2637.22 1428.98 2636.8 1429.68 2636.59 1430.37 2636.59 1431.04 2636.59 1432.35 2637.4 1433.06 2639.01 1433.17L2638.56 1435.33 2624.91 1435.33 2625.37 1433.17C2626.27 1432.93 2627.16 1432.43 2628.04 1431.67 2628.92 1430.9 2630.6 1429.11 2633.06 1426.3L2644.35 1413.54 2639.34 1400.33C2638.99 1399.43 2638.57 1398.42 2638.08 1397.28 2637.59 1396.15 2637.14 1395.28 2636.74 1394.68 2636.34 1394.08 2635.94 1393.65 2635.56 1393.39 2635.18 1393.13 2634.72 1392.94 2634.17 1392.83Z" fill-rule="evenodd"/><text fill="#000000" fill-opacity="0" font-family="Arial,Arial_MSFontService,sans-serif" font-size="44.6558" x="2624.91" y="1429.75">𝑿</text></g></svg>