<svg width="4510" height="1424" xmlns="http://www.w3.org/2000/svg" xmlns:xlink="http://www.w3.org/1999/xlink" xml:space="preserve" overflow="hidden"><g transform="translate(-100 -315)"><rect x="1805.5" y="602.5" width="361" height="206" stroke="#000000" stroke-width="9.16667" stroke-miterlimit="8" fill="#5B9BD5"/><path d="M1884.86 691.438 1897.67 691.438 1892.05 715.741C1891.57 717.807 1891.16 719.724 1890.82 721.491 1890.47 723.258 1890.3 724.725 1890.3 725.893 1890.3 727.211 1890.55 728.214 1891.06 728.903 1891.57 729.592 1892.43 729.936 1893.62 729.936 1895.21 729.936 1896.85 729.187 1898.54 727.69 1900.24 726.193 1901.7 724.463 1902.95 722.501 1904.19 720.54 1905.08 718.301 1905.62 715.786L1911.01 691.438 1923.99 691.438 1916.71 721.985C1916.27 723.872 1916.04 725.579 1916.04 727.106 1916.04 728.094 1916.21 728.858 1916.53 729.397 1916.86 729.936 1917.43 730.206 1918.24 730.206 1919.08 730.206 1920.01 729.831 1921.03 729.083 1922.04 728.334 1923.24 727.196 1924.62 725.668L1927.85 728.903C1925.07 731.688 1922.52 733.687 1920.22 734.9 1917.91 736.113 1915.56 736.719 1913.17 736.719 1910.56 736.719 1908.51 736.03 1907.01 734.653 1905.51 733.275 1904.77 731.433 1904.77 729.127 1904.77 728.169 1904.85 727.45 1905.03 726.971L1904.41 726.881C1901.83 730.026 1899.43 732.362 1897.2 733.889 1894.96 735.417 1892.77 736.18 1890.61 736.18 1888.34 736.18 1886.42 735.521 1884.86 734.204L1884.51 734.338C1884.18 737.752 1884.01 741.196 1884.01 744.67 1884.01 746.467 1884.06 748.07 1884.15 749.477L1883.25 754.014 1873.41 754.014 1871.12 750.959C1871.6 749.462 1872.24 747.156 1873.05 744.042 1873.86 740.927 1874.52 738.187 1875.03 735.821Z" fill-rule="evenodd"/><text fill="#000000" fill-opacity="0" font-family="Arial,Arial_MSFontService,sans-serif" font-size="62.5762" x="1871.12" y="746.192">𝝁</text><path d="M1951.32 709.521 1955.51 709.521C1955.38 711.615 1955.32 714.516 1955.32 718.223L1955.32 745.573C1955.32 746.838 1955.39 747.792 1955.53 748.436 1955.67 749.079 1955.92 749.602 1956.28 750.006 1956.64 750.409 1957.16 750.726 1957.83 750.955 1958.51 751.184 1959.36 751.358 1960.39 751.478 1961.41 751.598 1962.76 751.68 1964.44 751.723L1964.44 754.7 1936.21 754.7 1936.21 751.723C1938.63 751.614 1940.36 751.467 1941.4 751.282 1942.43 751.096 1943.22 750.818 1943.77 750.448 1944.31 750.077 1944.71 749.553 1944.96 748.877 1945.21 748.201 1945.34 747.1 1945.34 745.573L1945.34 721.92C1945.34 721.026 1945.17 720.383 1944.83 719.99 1944.49 719.597 1944.03 719.401 1943.44 719.401 1942.9 719.401 1942.13 719.652 1941.13 720.154 1940.14 720.655 1938.51 721.68 1936.24 723.229L1934.25 719.761Z" fill-rule="evenodd"/><text fill="#000000" fill-opacity="0" font-family="Arial,Arial_MSFontService,sans-serif" font-size="45.1792" x="1934.25" y="749.053">𝟏</text><path d="M1987.21 691.438 2000.01 691.438 1994.4 715.741C1993.92 717.807 1993.51 719.724 1993.16 721.491 1992.82 723.258 1992.65 724.725 1992.65 725.893 1992.65 727.211 1992.9 728.214 1993.41 728.903 1993.92 729.592 1994.77 729.936 1995.97 729.936 1997.56 729.936 1999.2 729.187 2000.89 727.69 2002.58 726.193 2004.05 724.463 2005.29 722.501 2006.53 720.54 2007.43 718.301 2007.96 715.786L2013.35 691.438 2026.34 691.438 2019.06 721.985C2018.61 723.872 2018.39 725.579 2018.39 727.106 2018.39 728.094 2018.55 728.858 2018.88 729.397 2019.21 729.936 2019.78 730.206 2020.59 730.206 2021.43 730.206 2022.35 729.831 2023.37 729.083 2024.39 728.334 2025.59 727.196 2026.97 725.668L2030.2 728.903C2027.42 731.688 2024.87 733.687 2022.56 734.9 2020.26 736.113 2017.91 736.719 2015.51 736.719 2012.91 736.719 2010.85 736.03 2009.36 734.653 2007.86 733.275 2007.11 731.433 2007.11 729.127 2007.11 728.169 2007.2 727.45 2007.38 726.971L2006.75 726.881C2004.18 730.026 2001.77 732.362 1999.54 733.889 1997.31 735.417 1995.12 736.18 1992.96 736.18 1990.68 736.18 1988.77 735.521 1987.21 734.204L1986.85 734.338C1986.52 737.752 1986.36 741.196 1986.36 744.67 1986.36 746.467 1986.4 748.07 1986.49 749.477L1985.59 754.014 1975.76 754.014 1973.46 750.959C1973.94 749.462 1974.59 747.156 1975.4 744.042 1976.2 740.927 1976.86 738.187 1977.37 735.821Z" fill-rule="evenodd"/><text fill="#000000" fill-opacity="0" font-family="Arial,Arial_MSFontService,sans-serif" font-size="62.5762" x="1973.46" y="746.192">𝝁</text><path d="M2051.12 709.521C2054.32 709.521 2056.94 709.952 2058.97 710.813 2061 711.675 2062.47 712.842 2063.37 714.314 2064.28 715.786 2064.73 717.504 2064.73 719.467 2064.73 721.19 2064.41 722.793 2063.76 724.276 2063.12 725.759 2062.01 727.449 2060.43 729.346 2058.84 731.244 2056.18 733.959 2052.43 737.492 2051.27 738.583 2049.89 740.017 2048.29 741.794 2046.69 743.572 2045.42 745.093 2044.48 746.358L2044.48 746.685 2056.09 746.685C2057.51 746.685 2058.57 746.582 2059.26 746.375 2059.96 746.167 2060.51 745.807 2060.92 745.295 2061.32 744.782 2061.65 744.014 2061.91 742.989L2065.68 742.989 2064.92 754.7 2034.96 754.7 2034.96 752.541C2036.64 748.681 2040.07 743.708 2045.26 737.623 2047.62 734.853 2049.41 732.574 2050.64 730.786 2051.88 728.997 2052.8 727.307 2053.41 725.715 2054.02 724.123 2054.32 722.476 2054.32 720.775 2054.32 718.376 2053.79 716.495 2052.72 715.132 2051.65 713.769 2050.19 713.087 2048.34 713.087 2044.78 713.087 2042.5 715.65 2041.5 720.775L2035.61 720.775 2035.61 713.054C2039.17 711.615 2042.03 710.666 2044.22 710.208 2046.4 709.75 2048.7 709.521 2051.12 709.521Z" fill-rule="evenodd"/><text fill="#000000" fill-opacity="0" font-family="Arial,Arial_MSFontService,sans-serif" font-size="45.1792" x="2034.96" y="749.053">𝟐</text><rect x="107.5" y="603.5" width="825" height="204" stroke="#172C51" stroke-width="9.16667" stroke-miterlimit="8" fill="#70AD47"/><rect x="932.5" y="602.5" width="617" height="205" stroke="#172C51" stroke-width="9.16667" stroke-miterlimit="8" fill="#ED7D31"/><path d="M1208.82 695.226C1206.04 695.226 1203.53 696.603 1201.3 699.358 1199.07 702.114 1197.23 706.127 1195.8 711.398 1201.31 711.248 1205.52 710.192 1208.44 708.231 1211.36 706.269 1212.82 703.491 1212.82 699.898 1212.82 698.37 1212.47 697.21 1211.77 696.416 1211.06 695.622 1210.08 695.226 1208.82 695.226ZM1209.95 690.554C1219.11 690.554 1223.69 693.863 1223.69 700.482 1223.69 702.758 1223.24 704.764 1222.32 706.501 1221.41 708.238 1219.89 709.81 1217.76 711.218 1215.64 712.625 1212.63 713.763 1208.76 714.632 1204.88 715.5 1200.2 715.995 1194.72 716.114 1194.33 717.881 1194.13 719.708 1194.13 721.595 1194.13 724.38 1194.72 726.476 1195.89 727.884 1197.05 729.291 1198.82 729.995 1201.19 729.995 1203.82 729.995 1206.2 729.464 1208.33 728.4 1210.46 727.337 1212.96 725.443 1215.83 722.718L1219.61 726.491C1216.58 729.905 1213.32 732.436 1209.83 734.083 1206.35 735.73 1202.56 736.554 1198.49 736.554 1194.99 736.554 1192.01 735.94 1189.55 734.712 1187.1 733.484 1185.25 731.665 1184 729.254 1182.76 726.843 1182.14 723.961 1182.14 720.607 1182.14 719.049 1182.35 717.058 1182.77 714.632 1183.34 711.338 1184.21 708.403 1185.37 705.827 1186.84 702.653 1188.76 699.927 1191.12 697.651 1193.49 695.375 1196.27 693.623 1199.46 692.396 1202.65 691.168 1206.14 690.554 1209.95 690.554Z" fill-rule="evenodd"/><text fill="#000000" fill-opacity="0" font-family="Arial,Arial_MSFontService,sans-serif" font-size="46" x="1182.14" y="730.804">𝒆</text><path d="M1236.9 709.879 1253.55 709.879 1253.06 712.038C1252.13 712.126 1251.44 712.415 1251.02 712.905 1250.59 713.396 1250.38 714.034 1250.38 714.819 1250.38 715.473 1250.5 716.253 1250.74 717.158 1250.98 718.063 1251.35 719.148 1251.85 720.413L1253.91 725.844 1258.3 720.413C1259.69 718.669 1260.66 717.355 1261.21 716.471 1261.75 715.588 1262.03 714.852 1262.03 714.263 1262.03 713.521 1261.84 712.993 1261.47 712.676 1261.1 712.36 1260.49 712.147 1259.64 712.038L1260.13 709.879 1273.74 709.879 1273.25 712.071C1272.73 712.158 1272.2 712.366 1271.68 712.693 1271.15 713.02 1270.44 713.63 1269.54 714.525 1268.63 715.419 1267.13 717.087 1265.04 719.53L1255.65 730.424 1261.44 745.506C1262.31 747.796 1263.09 749.448 1263.78 750.462 1264.46 751.476 1265.38 752.114 1266.51 752.376L1266.05 754.535 1249.37 754.535 1249.82 752.376C1251.55 752.201 1252.41 751.416 1252.41 750.02 1252.41 749.235 1252.31 748.439 1252.11 747.632 1251.92 746.825 1251.63 745.931 1251.26 744.95L1248.35 737.262 1241.58 745.342C1240.58 746.542 1239.87 747.49 1239.45 748.188 1239.04 748.886 1238.83 749.573 1238.83 750.249 1238.83 751.558 1239.64 752.267 1241.25 752.376L1240.8 754.535 1227.15 754.535 1227.61 752.376C1228.51 752.136 1229.39 751.634 1230.28 750.871 1231.16 750.108 1232.83 748.319 1235.3 745.506L1246.59 732.747 1241.58 719.53C1241.23 718.636 1240.81 717.622 1240.32 716.488 1239.83 715.354 1239.38 714.487 1238.98 713.887 1238.58 713.287 1238.18 712.856 1237.8 712.595 1237.42 712.333 1236.96 712.147 1236.41 712.038Z" fill-rule="evenodd"/><text fill="#000000" fill-opacity="0" font-family="Arial,Arial_MSFontService,sans-serif" font-size="44.6558" x="1227.15" y="748.953">𝑿</text><rect x="1540.5" y="602.5" width="265" height="206" stroke="#172C51" stroke-width="9.16667" stroke-miterlimit="8" fill="#70AD47"/><path d="M2166.5 1474.5C2166.5 1501.84 2162.81 1524 2158.25 1524L1274.25 1524C1269.69 1524 1266 1546.16 1266 1573.5 1266 1546.16 1262.31 1524 1257.75 1524L373.749 1524C369.193 1524 365.5 1501.84 365.5 1474.5" stroke="#000000" stroke-width="3.4375" stroke-linejoin="round" stroke-miterlimit="10" stroke-dasharray="13.75 10.3125" fill="none" fill-rule="evenodd"/><path d="M1174.08 1659.2C1172.11 1659.2 1170.09 1660.17 1168.04 1662.1 1165.99 1664.03 1164.35 1666.27 1163.12 1668.82 1161.9 1671.36 1160.77 1674.96 1159.75 1679.6L1159.39 1681.26C1158.92 1683.48 1158.68 1685.65 1158.68 1687.78 1158.68 1689.96 1159.04 1691.53 1159.78 1692.49 1160.51 1693.45 1161.75 1693.93 1163.48 1693.93 1164.98 1693.93 1166.34 1693.59 1167.57 1692.92 1168.8 1692.24 1169.96 1691.14 1171.05 1689.62 1172.15 1688.09 1173.21 1686.12 1174.24 1683.71 1175.27 1681.3 1176.17 1678.42 1176.91 1675.06 1177.66 1671.71 1178.04 1668.59 1178.04 1665.72 1178.04 1663.5 1177.72 1661.86 1177.07 1660.8 1176.43 1659.74 1175.43 1659.2 1174.08 1659.2ZM1154.27 1652.6C1156.76 1652.6 1158.74 1653.3 1160.23 1654.69 1161.71 1656.08 1162.45 1657.92 1162.45 1660.19 1162.45 1660.94 1162.36 1661.66 1162.18 1662.35L1162.63 1662.71C1165.38 1659.2 1168.05 1656.64 1170.63 1655.03 1173.2 1653.41 1176.18 1652.6 1179.56 1652.6 1182.95 1652.6 1185.58 1653.83 1187.45 1656.29 1189.32 1658.74 1190.26 1662.29 1190.26 1666.93 1190.26 1670.97 1189.67 1674.99 1188.5 1678.97 1187.34 1682.95 1185.66 1686.39 1183.47 1689.28 1181.29 1692.17 1178.54 1694.45 1175.23 1696.11 1171.92 1697.77 1168.18 1698.6 1164.02 1698.6 1161.36 1698.6 1158.78 1698.14 1156.3 1697.21L1154.59 1705.2C1154.32 1706.52 1154.12 1707.55 1154 1708.28 1153.88 1709.02 1153.82 1709.7 1153.82 1710.33 1153.82 1711.61 1154.16 1712.54 1154.84 1713.11 1155.51 1713.68 1156.67 1714.05 1158.32 1714.23L1157.82 1717.2 1139.13 1717.2 1150.5 1666.66C1150.95 1664.66 1151.17 1663.17 1151.17 1662.21 1151.17 1661.23 1151.01 1660.46 1150.68 1659.92 1150.35 1659.38 1149.78 1659.12 1148.97 1659.12 1148.04 1659.12 1147.04 1659.53 1145.96 1660.37 1144.88 1661.21 1143.63 1662.45 1142.19 1664.1L1138.96 1660.87C1141.95 1657.81 1144.61 1655.67 1146.93 1654.44 1149.25 1653.22 1151.7 1652.6 1154.27 1652.6Z" fill-rule="evenodd"/><text fill="#000000" fill-opacity="0" font-family="Arial,Arial_MSFontService,sans-serif" font-size="64.5977" x="1138.96" y="1709.12">𝒑</text><path d="M1200.12 1642.65 1237.81 1642.65 1237.81 1647.66 1200.12 1647.66Z" fill-rule="evenodd"/><text fill="#000000" fill-opacity="0" font-family="Arial,Arial_MSFontService,sans-serif" font-size="5.00537" x="1200.12" y="1647.03">−</text><path d="M1265.74 1619.13 1269.92 1619.13C1269.79 1621.22 1269.73 1624.13 1269.73 1627.83L1269.73 1655.18C1269.73 1656.45 1269.8 1657.4 1269.94 1658.04 1270.08 1658.69 1270.33 1659.21 1270.69 1659.62 1271.05 1660.02 1271.57 1660.33 1272.25 1660.56 1272.92 1660.79 1273.77 1660.97 1274.8 1661.09 1275.82 1661.21 1277.18 1661.29 1278.85 1661.33L1278.85 1664.31 1250.62 1664.31 1250.62 1661.33C1253.04 1661.22 1254.77 1661.08 1255.81 1660.89 1256.84 1660.71 1257.63 1660.43 1258.18 1660.06 1258.72 1659.69 1259.12 1659.16 1259.37 1658.49 1259.62 1657.81 1259.75 1656.71 1259.75 1655.18L1259.75 1631.53C1259.75 1630.64 1259.58 1629.99 1259.24 1629.6 1258.9 1629.21 1258.44 1629.01 1257.85 1629.01 1257.31 1629.01 1256.54 1629.26 1255.55 1629.76 1254.55 1630.26 1252.92 1631.29 1250.65 1632.84L1248.66 1629.37Z" fill-rule="evenodd"/><text fill="#000000" fill-opacity="0" font-family="Arial,Arial_MSFontService,sans-serif" font-size="45.1792" x="1248.66" y="1658.66">𝟏</text><path d="M1318.74 1657.27C1315.92 1657.27 1313.45 1658.65 1311.33 1661.41 1309.2 1664.16 1307.47 1667.91 1306.14 1672.66 1304.8 1677.41 1304.14 1681.68 1304.14 1685.48 1304.14 1687.67 1304.46 1689.3 1305.1 1690.38 1305.75 1691.46 1306.74 1692 1308.09 1692 1310.07 1692 1312.08 1691.03 1314.13 1689.1 1316.18 1687.17 1317.84 1684.9 1319.1 1682.29 1320.35 1679.69 1321.48 1676.13 1322.47 1671.6L1322.83 1669.94C1323.3 1667.73 1323.54 1665.54 1323.54 1663.38 1323.54 1661.35 1323.17 1659.82 1322.42 1658.8 1321.67 1657.78 1320.44 1657.27 1318.74 1657.27ZM1318.2 1652.6C1322.66 1652.6 1326.46 1653.68 1329.61 1655.84L1333.65 1652.6 1338.68 1653.32 1327.27 1705.25C1326.94 1706.72 1326.73 1707.81 1326.64 1708.53 1326.55 1709.25 1326.51 1709.86 1326.51 1710.37 1326.51 1711.69 1326.84 1712.62 1327.5 1713.16 1328.16 1713.7 1329.32 1714.07 1331 1714.28L1330.51 1717.24 1311.86 1717.24 1319.19 1689.62 1318.6 1689.44C1316.15 1692.55 1313.71 1694.87 1311.3 1696.38 1308.89 1697.89 1306.01 1698.65 1302.66 1698.65 1299.24 1698.65 1296.6 1697.41 1294.73 1694.94 1292.85 1692.47 1291.92 1688.91 1291.92 1684.27 1291.92 1680.23 1292.5 1676.22 1293.67 1672.23 1294.84 1668.25 1296.52 1664.81 1298.7 1661.92 1300.89 1659.03 1303.64 1656.76 1306.95 1655.09 1310.25 1653.43 1314.01 1652.6 1318.2 1652.6Z" fill-rule="evenodd"/><text fill="#000000" fill-opacity="0" font-family="Arial,Arial_MSFontService,sans-serif" font-size="64.6426" x="1291.92" y="1709.16">𝒒</text><rect x="1801.5" y="1038.5" width="361" height="205" stroke="#000000" stroke-width="9.16667" stroke-miterlimit="8" fill="#5B9BD5"/><path d="M1880.85 1127.29 1893.66 1127.29 1888.04 1151.59C1887.56 1153.66 1887.15 1155.57 1886.81 1157.34 1886.46 1159.11 1886.29 1160.57 1886.29 1161.74 1886.29 1163.06 1886.54 1164.06 1887.05 1164.75 1887.56 1165.44 1888.41 1165.79 1889.61 1165.79 1891.2 1165.79 1892.84 1165.04 1894.53 1163.54 1896.22 1162.04 1897.69 1160.31 1898.93 1158.35 1900.18 1156.39 1901.07 1154.15 1901.61 1151.64L1907 1127.29 1919.98 1127.29 1912.7 1157.83C1912.25 1159.72 1912.03 1161.43 1912.03 1162.96 1912.03 1163.94 1912.19 1164.71 1912.52 1165.25 1912.85 1165.79 1913.42 1166.06 1914.23 1166.06 1915.07 1166.06 1916 1165.68 1917.02 1164.93 1918.03 1164.18 1919.23 1163.05 1920.61 1161.52L1923.84 1164.75C1921.06 1167.54 1918.51 1169.54 1916.21 1170.75 1913.9 1171.96 1911.55 1172.57 1909.15 1172.57 1906.55 1172.57 1904.5 1171.88 1903 1170.5 1901.5 1169.12 1900.75 1167.28 1900.75 1164.98 1900.75 1164.02 1900.84 1163.3 1901.02 1162.82L1900.39 1162.73C1897.82 1165.88 1895.42 1168.21 1893.18 1169.74 1890.95 1171.27 1888.76 1172.03 1886.6 1172.03 1884.33 1172.03 1882.41 1171.37 1880.85 1170.05L1880.49 1170.19C1880.16 1173.6 1880 1177.05 1880 1180.52 1880 1182.32 1880.04 1183.92 1880.13 1185.33L1879.24 1189.86 1869.4 1189.86 1867.11 1186.81C1867.59 1185.31 1868.23 1183.01 1869.04 1179.89 1869.85 1176.78 1870.51 1174.04 1871.02 1171.67Z" fill-rule="evenodd"/><text fill="#000000" fill-opacity="0" font-family="Arial,Arial_MSFontService,sans-serif" font-size="62.5762" x="1867.11" y="1182.04">𝝁</text><path d="M1947.31 1145.37 1951.5 1145.37C1951.37 1147.46 1951.3 1150.37 1951.3 1154.07L1951.3 1181.42C1951.3 1182.69 1951.38 1183.64 1951.52 1184.29 1951.66 1184.93 1951.91 1185.45 1952.27 1185.86 1952.63 1186.26 1953.15 1186.58 1953.82 1186.8 1954.5 1187.03 1955.35 1187.21 1956.37 1187.33 1957.4 1187.45 1958.75 1187.53 1960.43 1187.57L1960.43 1190.55 1932.2 1190.55 1932.2 1187.57C1934.62 1187.46 1936.35 1187.32 1937.38 1187.13 1938.42 1186.95 1939.21 1186.67 1939.76 1186.3 1940.3 1185.93 1940.7 1185.4 1940.95 1184.73 1941.2 1184.05 1941.33 1182.95 1941.33 1181.42L1941.33 1157.77C1941.33 1156.88 1941.16 1156.23 1940.82 1155.84 1940.48 1155.45 1940.02 1155.25 1939.43 1155.25 1938.88 1155.25 1938.11 1155.5 1937.12 1156 1936.13 1156.5 1934.5 1157.53 1932.23 1159.08L1930.24 1155.61Z" fill-rule="evenodd"/><text fill="#000000" fill-opacity="0" font-family="Arial,Arial_MSFontService,sans-serif" font-size="45.1792" x="1930.24" y="1184.9">𝟏</text><path d="M1983.2 1127.29 1996 1127.29 1990.39 1151.59C1989.91 1153.66 1989.5 1155.57 1989.15 1157.34 1988.81 1159.11 1988.63 1160.57 1988.63 1161.74 1988.63 1163.06 1988.89 1164.06 1989.4 1164.75 1989.91 1165.44 1990.76 1165.79 1991.96 1165.79 1993.55 1165.79 1995.19 1165.04 1996.88 1163.54 1998.57 1162.04 2000.04 1160.31 2001.28 1158.35 2002.52 1156.39 2003.41 1154.15 2003.95 1151.64L2009.34 1127.29 2022.33 1127.29 2015.05 1157.83C2014.6 1159.72 2014.37 1161.43 2014.37 1162.96 2014.37 1163.94 2014.54 1164.71 2014.87 1165.25 2015.2 1165.79 2015.77 1166.06 2016.58 1166.06 2017.41 1166.06 2018.34 1165.68 2019.36 1164.93 2020.38 1164.18 2021.58 1163.05 2022.95 1161.52L2026.19 1164.75C2023.4 1167.54 2020.86 1169.54 2018.55 1170.75 2016.25 1171.96 2013.9 1172.57 2011.5 1172.57 2008.89 1172.57 2006.84 1171.88 2005.35 1170.5 2003.85 1169.12 2003.1 1167.28 2003.1 1164.98 2003.1 1164.02 2003.19 1163.3 2003.37 1162.82L2002.74 1162.73C2000.16 1165.88 1997.76 1168.21 1995.53 1169.74 1993.3 1171.27 1991.1 1172.03 1988.95 1172.03 1986.67 1172.03 1984.76 1171.37 1983.2 1170.05L1982.84 1170.19C1982.51 1173.6 1982.35 1177.05 1982.35 1180.52 1982.35 1182.32 1982.39 1183.92 1982.48 1185.33L1981.58 1189.86 1971.74 1189.86 1969.45 1186.81C1969.93 1185.31 1970.58 1183.01 1971.38 1179.89 1972.19 1176.78 1972.85 1174.04 1973.36 1171.67Z" fill-rule="evenodd"/><text fill="#000000" fill-opacity="0" font-family="Arial,Arial_MSFontService,sans-serif" font-size="62.5762" x="1969.45" y="1182.04">𝝁</text><path d="M2047.11 1145.37C2050.31 1145.37 2052.93 1145.8 2054.96 1146.66 2056.99 1147.52 2058.45 1148.69 2059.36 1150.16 2060.26 1151.64 2060.72 1153.35 2060.72 1155.32 2060.72 1157.04 2060.39 1158.64 2059.75 1160.13 2059.11 1161.61 2058 1163.3 2056.41 1165.2 2054.83 1167.09 2052.17 1169.81 2048.42 1173.34 2047.26 1174.43 2045.88 1175.87 2044.28 1177.64 2042.67 1179.42 2041.4 1180.94 2040.47 1182.21L2040.47 1182.54 2052.08 1182.54C2053.5 1182.54 2054.55 1182.43 2055.25 1182.22 2055.95 1182.02 2056.5 1181.66 2056.91 1181.14 2057.31 1180.63 2057.64 1179.86 2057.9 1178.84L2061.67 1178.84 2060.91 1190.55 2030.95 1190.55 2030.95 1188.39C2032.63 1184.53 2036.06 1179.56 2041.25 1173.47 2043.61 1170.7 2045.4 1168.42 2046.63 1166.64 2047.86 1164.85 2048.79 1163.16 2049.4 1161.56 2050.01 1159.97 2050.31 1158.33 2050.31 1156.62 2050.31 1154.23 2049.78 1152.34 2048.71 1150.98 2047.64 1149.62 2046.18 1148.94 2044.33 1148.94 2040.77 1148.94 2038.49 1151.5 2037.49 1156.62L2031.6 1156.62 2031.6 1148.9C2035.16 1147.46 2038.02 1146.52 2040.2 1146.06 2042.39 1145.6 2044.69 1145.37 2047.11 1145.37Z" fill-rule="evenodd"/><text fill="#000000" fill-opacity="0" font-family="Arial,Arial_MSFontService,sans-serif" font-size="45.1792" x="2030.95" y="1184.9">𝟐</text><rect x="365.5" y="1039.5" width="826" height="204" stroke="#172C51" stroke-width="9.16667" stroke-miterlimit="8" fill="#70AD47"/><rect x="1186.5" y="1038.5" width="359" height="205" stroke="#172C51" stroke-width="9.16667" stroke-miterlimit="8" fill="#ED7D31"/><path d="M1333.65 1131.08C1330.86 1131.08 1328.36 1132.45 1326.12 1135.21 1323.89 1137.96 1322.06 1141.98 1320.62 1147.25 1326.13 1147.1 1330.35 1146.04 1333.27 1144.08 1336.19 1142.12 1337.65 1139.34 1337.65 1135.75 1337.65 1134.22 1337.3 1133.06 1336.59 1132.27 1335.89 1131.47 1334.91 1131.08 1333.65 1131.08ZM1334.77 1126.4C1343.94 1126.4 1348.52 1129.71 1348.52 1136.33 1348.52 1138.61 1348.06 1140.61 1347.15 1142.35 1346.23 1144.09 1344.71 1145.66 1342.59 1147.07 1340.46 1148.48 1337.46 1149.61 1333.58 1150.48 1329.7 1151.35 1325.02 1151.84 1319.54 1151.96 1319.15 1153.73 1318.96 1155.56 1318.96 1157.44 1318.96 1160.23 1319.54 1162.33 1320.71 1163.73 1321.88 1165.14 1323.65 1165.84 1326.01 1165.84 1328.65 1165.84 1331.03 1165.31 1333.15 1164.25 1335.28 1163.19 1337.78 1161.29 1340.66 1158.57L1344.43 1162.34C1341.41 1165.76 1338.15 1168.29 1334.66 1169.93 1331.17 1171.58 1327.39 1172.4 1323.32 1172.4 1319.81 1172.4 1316.83 1171.79 1314.38 1170.56 1311.92 1169.33 1310.07 1167.51 1308.83 1165.1 1307.59 1162.69 1306.97 1159.81 1306.97 1156.46 1306.97 1154.9 1307.18 1152.91 1307.59 1150.48 1308.16 1147.19 1309.03 1144.25 1310.2 1141.68 1311.67 1138.5 1313.58 1135.78 1315.95 1133.5 1318.32 1131.23 1321.09 1129.47 1324.28 1128.25 1327.47 1127.02 1330.97 1126.4 1334.77 1126.4Z" fill-rule="evenodd"/><text fill="#000000" fill-opacity="0" font-family="Arial,Arial_MSFontService,sans-serif" font-size="46" x="1306.97" y="1166.65">𝒆</text><path d="M1361.73 1145.73 1378.38 1145.73 1377.89 1147.89C1376.95 1147.98 1376.27 1148.26 1375.84 1148.76 1375.42 1149.25 1375.21 1149.88 1375.21 1150.67 1375.21 1151.32 1375.33 1152.1 1375.57 1153.01 1375.81 1153.91 1376.18 1155 1376.68 1156.26L1378.74 1161.69 1383.12 1156.26C1384.52 1154.52 1385.49 1153.2 1386.03 1152.32 1386.58 1151.44 1386.85 1150.7 1386.85 1150.11 1386.85 1149.37 1386.67 1148.84 1386.3 1148.53 1385.93 1148.21 1385.31 1148 1384.46 1147.89L1384.95 1145.73 1398.56 1145.73 1398.07 1147.92C1397.55 1148.01 1397.03 1148.22 1396.5 1148.54 1395.98 1148.87 1395.27 1149.48 1394.36 1150.37 1393.46 1151.27 1391.96 1152.94 1389.86 1155.38L1380.47 1166.27 1386.26 1181.36C1387.14 1183.65 1387.92 1185.3 1388.6 1186.31 1389.29 1187.33 1390.2 1187.96 1391.33 1188.23L1390.88 1190.38 1374.19 1190.38 1374.65 1188.23C1376.37 1188.05 1377.23 1187.27 1377.23 1185.87 1377.23 1185.08 1377.14 1184.29 1376.94 1183.48 1376.74 1182.67 1376.46 1181.78 1376.09 1180.8L1373.18 1173.11 1366.41 1181.19C1365.4 1182.39 1364.69 1183.34 1364.28 1184.04 1363.86 1184.74 1363.66 1185.42 1363.66 1186.1 1363.66 1187.41 1364.46 1188.12 1366.08 1188.23L1365.62 1190.38 1351.98 1190.38 1352.44 1188.23C1353.33 1187.99 1354.22 1187.48 1355.1 1186.72 1355.99 1185.96 1357.66 1184.17 1360.12 1181.36L1371.41 1168.6 1366.41 1155.38C1366.06 1154.49 1365.64 1153.47 1365.15 1152.34 1364.66 1151.2 1364.21 1150.34 1363.8 1149.74 1363.4 1149.14 1363.01 1148.71 1362.63 1148.44 1362.25 1148.18 1361.78 1148 1361.24 1147.89Z" fill-rule="evenodd"/><text fill="#000000" fill-opacity="0" font-family="Arial,Arial_MSFontService,sans-serif" font-size="44.6558" x="1351.98" y="1184.8">𝑿</text><rect x="1536.5" y="1038.5" width="265" height="205" stroke="#172C51" stroke-width="9.16667" stroke-miterlimit="8" fill="#70AD47"/><path d="M2166.5 1290.5C2166.5 1315.63 2166.5 1336 2166.5 1336L1851.5 1336C1851.5 1336 1851.5 1356.37 1851.5 1381.5 1851.5 1356.37 1851.5 1336 1851.5 1336L1536.5 1336C1536.5 1336 1536.5 1315.63 1536.5 1290.5" stroke="#000000" stroke-width="3.4375" stroke-linejoin="round" stroke-miterlimit="10" stroke-dasharray="13.75 10.3125" fill="none" fill-rule="evenodd"/><path d="M1861.89 1389.56 1872.67 1389.56 1870.06 1400.79 1880.98 1400.79 1879.77 1406.41 1868.76 1406.41 1864.4 1424.38C1863.66 1427.46 1863.14 1429.81 1862.85 1431.41 1862.57 1433.01 1862.43 1434.37 1862.43 1435.47 1862.43 1436.88 1862.68 1437.91 1863.19 1438.55 1863.7 1439.2 1864.45 1439.52 1865.44 1439.52 1866.78 1439.52 1868.17 1439.04 1869.59 1438.08 1871.01 1437.12 1872.55 1435.64 1874.2 1433.63L1877.66 1437.18C1874.63 1440.51 1871.85 1442.82 1869.32 1444.12 1866.79 1445.42 1863.8 1446.08 1860.36 1446.08 1856.95 1446.08 1854.33 1445.2 1852.5 1443.45 1850.67 1441.7 1849.76 1439.28 1849.76 1436.19 1849.76 1434.79 1849.86 1433.45 1850.07 1432.17 1850.28 1430.9 1850.72 1428.81 1851.38 1425.91L1856 1406.41 1849 1406.41 1849.85 1402.77C1851.95 1402.77 1853.53 1402.58 1854.61 1402.19 1855.69 1401.8 1856.59 1401.21 1857.33 1400.43 1858.06 1399.66 1858.77 1398.47 1859.46 1396.89 1860.15 1395.3 1860.96 1392.86 1861.89 1389.56Z" fill-rule="evenodd"/><text fill="#000000" fill-opacity="0" font-family="Arial,Arial_MSFontService,sans-serif" font-size="56.5117" x="1849" y="1439.01">𝒕</text><path d="M365.5 1264.5C365.5 1289.63 365.5 1310 365.499 1310L236.501 1310C236.5 1310 236.5 1330.37 236.5 1355.5 236.5 1330.37 236.5 1310 236.499 1310L107.501 1310C107.5 1310 107.5 1289.63 107.5 1264.5" stroke="#000000" stroke-width="3.4375" stroke-linejoin="round" stroke-miterlimit="10" stroke-dasharray="13.75 10.3125" fill="none" fill-rule="evenodd"/><path d="M243.648 1406.68C241.672 1406.68 239.658 1407.64 237.606 1409.58 235.555 1411.51 233.915 1413.75 232.687 1416.29 231.459 1418.84 230.336 1422.43 229.318 1427.07L228.959 1428.74C228.48 1430.95 228.24 1433.12 228.24 1435.25 228.24 1437.44 228.607 1439.01 229.341 1439.97 230.074 1440.92 231.31 1441.4 233.047 1441.4 234.544 1441.4 235.907 1441.07 237.134 1440.39 238.362 1439.72 239.523 1438.62 240.616 1437.09 241.709 1435.56 242.772 1433.59 243.805 1431.18 244.839 1428.77 245.73 1425.89 246.478 1422.54 247.227 1419.18 247.601 1416.07 247.601 1413.19 247.601 1410.98 247.279 1409.34 246.635 1408.27 245.992 1407.21 244.996 1406.68 243.648 1406.68ZM223.838 1400.08C226.323 1400.08 228.307 1400.77 229.79 1402.16 231.272 1403.56 232.013 1405.39 232.013 1407.67 232.013 1408.42 231.924 1409.13 231.744 1409.82L232.193 1410.18C234.948 1406.68 237.614 1404.12 240.189 1402.5 242.765 1400.88 245.745 1400.08 249.129 1400.08 252.513 1400.08 255.141 1401.3 257.012 1403.76 258.884 1406.21 259.82 1409.76 259.82 1414.41 259.82 1418.45 259.236 1422.46 258.068 1426.44 256.9 1430.43 255.223 1433.86 253.037 1436.75 250.851 1439.64 248.103 1441.92 244.794 1443.58 241.484 1445.24 237.748 1446.08 233.586 1446.08 230.92 1446.08 228.345 1445.61 225.859 1444.68L224.152 1452.68C223.883 1454 223.688 1455.02 223.568 1455.76 223.448 1456.49 223.388 1457.17 223.388 1457.8 223.388 1459.09 223.725 1460.02 224.399 1460.59 225.073 1461.15 226.233 1461.53 227.881 1461.71L227.386 1464.67 208.699 1464.67 220.064 1414.14C220.513 1412.13 220.738 1410.65 220.738 1409.69 220.738 1408.7 220.573 1407.94 220.244 1407.4 219.914 1406.86 219.345 1406.59 218.537 1406.59 217.608 1406.59 216.605 1407.01 215.527 1407.85 214.449 1408.69 213.191 1409.93 211.754 1411.58L208.519 1408.34C211.514 1405.29 214.172 1403.15 216.493 1401.92 218.814 1400.69 221.262 1400.08 223.838 1400.08Z" fill-rule="evenodd"/><text fill="#000000" fill-opacity="0" font-family="Arial,Arial_MSFontService,sans-serif" font-size="64.5977" x="208.519" y="1456.6">𝒑</text><path d="M107.5 807.5 107.5 1229.54" stroke="#000000" stroke-width="4.58333" stroke-miterlimit="8" stroke-dasharray="18.3333 13.75 4.58333 13.75" fill="none" fill-rule="evenodd"/><path d="M365.5 807.5 365.5 1229.86" stroke="#000000" stroke-width="4.58333" stroke-miterlimit="8" stroke-dasharray="18.3333 13.75 4.58333 13.75" fill="none" fill-rule="evenodd"/><path d="M932.5 815.5 932.5 1024.75" stroke="#000000" stroke-width="4.58333" stroke-miterlimit="8" stroke-dasharray="18.3333 13.75 4.58333 13.75" fill="none" fill-rule="evenodd"/><path d="M1191.5 807.5 1191.5 1025.03" stroke="#000000" stroke-width="4.58333" stroke-miterlimit="8" stroke-dasharray="18.3333 13.75 4.58333 13.75" fill="none" fill-rule="evenodd"/><text font-family="DengXian,DengXian_MSFontService,sans-serif" font-weight="700" font-size="92" transform="matrix(1 0 0 1 840.557 429)">BGV</text><text font-family="DengXian,DengXian_MSFontService,sans-serif" font-weight="700" font-size="92" transform="matrix(1 0 0 1 1019.31 429)">-</text><text font-family="DengXian,DengXian_MSFontService,sans-serif" font-weight="700" font-size="92" transform="matrix(1 0 0 1 1065.14 429)">MODSWITCH</text><path d="M4605.5 1381.5C4605.5 1411.6 4601.43 1436 4596.42 1436L3714.08 1436C3709.07 1436 3705 1460.4 3705 1490.5 3705 1460.4 3700.93 1436 3695.92 1436L2813.58 1436C2808.57 1436 2804.5 1411.6 2804.5 1381.5" stroke="#000000" stroke-width="3.4375" stroke-linejoin="round" stroke-miterlimit="10" stroke-dasharray="13.75 10.3125" fill="none" fill-rule="evenodd"/><path d="M3609.99 1566.81 3594.9 1606.25 3622.39 1606.25ZM3608.15 1554.59 3619.65 1554.59 3638.97 1613.08 3638.97 1616.31 3584.66 1616.31 3584.66 1612.99Z" fill-rule="evenodd"/><text fill="#000000" fill-opacity="0" font-family="Arial,Arial_MSFontService,sans-serif" font-size="61.7227" x="3584.66" y="1608.6">𝚫</text><path d="M3644.38 1561.08 3682.07 1561.08 3682.07 1566.09 3644.38 1566.09Z" fill-rule="evenodd"/><text fill="#000000" fill-opacity="0" font-family="Arial,Arial_MSFontService,sans-serif" font-size="5.00537" x="3644.38" y="1565.46">−</text><path d="M3710 1537.56 3714.18 1537.56C3714.05 1539.66 3713.99 1542.56 3713.99 1546.26L3713.99 1573.61C3713.99 1574.88 3714.06 1575.83 3714.2 1576.48 3714.34 1577.12 3714.59 1577.64 3714.95 1578.05 3715.31 1578.45 3715.83 1578.77 3716.51 1579 3717.18 1579.22 3718.03 1579.4 3719.06 1579.52 3720.08 1579.64 3721.44 1579.72 3723.11 1579.76L3723.11 1582.74 3694.88 1582.74 3694.88 1579.76C3697.3 1579.65 3699.03 1579.51 3700.07 1579.32 3701.1 1579.14 3701.89 1578.86 3702.44 1578.49 3702.98 1578.12 3703.38 1577.59 3703.63 1576.92 3703.88 1576.24 3704.01 1575.14 3704.01 1573.61L3704.01 1549.96C3704.01 1549.07 3703.84 1548.42 3703.5 1548.03 3703.16 1547.64 3702.7 1547.44 3702.11 1547.44 3701.57 1547.44 3700.8 1547.69 3699.81 1548.19 3698.81 1548.7 3697.18 1549.72 3694.91 1551.27L3692.92 1547.8Z" fill-rule="evenodd"/><text fill="#000000" fill-opacity="0" font-family="Arial,Arial_MSFontService,sans-serif" font-size="45.1792" x="3692.92" y="1577.09">𝟏</text><path d="M3763 1575.7C3760.18 1575.7 3757.71 1577.08 3755.58 1579.84 3753.46 1582.59 3751.73 1586.34 3750.4 1591.09 3749.06 1595.84 3748.4 1600.11 3748.4 1603.92 3748.4 1606.1 3748.72 1607.73 3749.36 1608.81 3750.01 1609.89 3751 1610.43 3752.35 1610.43 3754.33 1610.43 3756.34 1609.46 3758.39 1607.53 3760.44 1605.6 3762.1 1603.33 3763.36 1600.73 3764.61 1598.12 3765.74 1594.56 3766.73 1590.03L3767.08 1588.37C3767.56 1586.16 3767.8 1583.97 3767.8 1581.81 3767.8 1579.78 3767.43 1578.25 3766.68 1577.23 3765.93 1576.21 3764.7 1575.7 3763 1575.7ZM3762.46 1571.03C3766.92 1571.03 3770.72 1572.11 3773.87 1574.27L3777.91 1571.03 3782.94 1571.75 3771.53 1623.68C3771.2 1625.15 3770.99 1626.24 3770.9 1626.96 3770.81 1627.68 3770.77 1628.29 3770.77 1628.8 3770.77 1630.12 3771.1 1631.05 3771.76 1631.59 3772.42 1632.13 3773.58 1632.5 3775.26 1632.71L3774.77 1635.68 3756.12 1635.68 3763.45 1608.05 3762.86 1607.87C3760.41 1610.98 3757.97 1613.3 3755.56 1614.81 3753.15 1616.32 3750.27 1617.08 3746.92 1617.08 3743.5 1617.08 3740.86 1615.84 3738.99 1613.37 3737.11 1610.9 3736.18 1607.34 3736.18 1602.7 3736.18 1598.66 3736.76 1594.65 3737.93 1590.66 3739.1 1586.68 3740.78 1583.24 3742.96 1580.35 3745.15 1577.46 3747.9 1575.19 3751.21 1573.53 3754.51 1571.86 3758.27 1571.03 3762.46 1571.03Z" fill-rule="evenodd"/><text fill="#000000" fill-opacity="0" font-family="Arial,Arial_MSFontService,sans-serif" font-size="64.6426" x="3736.18" y="1627.59">𝒒</text><rect x="3597.5" y="655.5" width="447" height="205" stroke="#000000" stroke-width="9.16667" stroke-miterlimit="8" fill="#5B9BD5"/><path d="M3720.05 744.242 3732.86 744.242 3727.24 768.545C3726.76 770.611 3726.35 772.528 3726.01 774.295 3725.66 776.062 3725.49 777.529 3725.49 778.697 3725.49 780.015 3725.74 781.018 3726.25 781.707 3726.76 782.396 3727.62 782.74 3728.81 782.74 3730.4 782.74 3732.04 781.992 3733.73 780.494 3735.43 778.997 3736.89 777.267 3738.14 775.306 3739.38 773.344 3740.27 771.106 3740.81 768.59L3746.2 744.242 3759.18 744.242 3751.9 774.789C3751.45 776.676 3751.23 778.383 3751.23 779.91 3751.23 780.899 3751.39 781.662 3751.72 782.201 3752.05 782.74 3752.62 783.01 3753.43 783.01 3754.27 783.01 3755.2 782.636 3756.22 781.887 3757.23 781.138 3758.43 780 3759.81 778.473L3763.04 781.707C3760.26 784.492 3757.71 786.491 3755.41 787.704 3753.1 788.917 3750.75 789.524 3748.35 789.524 3745.75 789.524 3743.7 788.835 3742.2 787.457 3740.7 786.08 3739.95 784.238 3739.95 781.932 3739.95 780.973 3740.04 780.255 3740.22 779.776L3739.6 779.686C3737.02 782.83 3734.62 785.166 3732.39 786.693 3730.15 788.221 3727.96 788.984 3725.8 788.984 3723.53 788.984 3721.61 788.326 3720.05 787.008L3719.69 787.143C3719.37 790.557 3719.2 794.001 3719.2 797.475 3719.2 799.272 3719.25 800.874 3719.34 802.281L3718.44 806.818 3708.6 806.818 3706.31 803.764C3706.79 802.266 3707.43 799.96 3708.24 796.846 3709.05 793.731 3709.71 790.991 3710.22 788.625Z" fill-rule="evenodd"/><text fill="#000000" fill-opacity="0" font-family="Arial,Arial_MSFontService,sans-serif" font-size="62.5762" x="3706.31" y="798.996">𝝁</text><path d="M3786.51 762.326 3790.7 762.326C3790.57 764.419 3790.51 767.32 3790.51 771.028L3790.51 798.377C3790.51 799.642 3790.58 800.597 3790.72 801.24 3790.86 801.883 3791.11 802.407 3791.47 802.81 3791.83 803.214 3792.35 803.53 3793.02 803.759 3793.7 803.988 3794.55 804.162 3795.58 804.282 3796.6 804.402 3797.95 804.484 3799.63 804.528L3799.63 807.505 3771.4 807.505 3771.4 804.528C3773.82 804.419 3775.55 804.271 3776.59 804.086 3777.62 803.901 3778.41 803.623 3778.96 803.252 3779.5 802.881 3779.9 802.358 3780.15 801.682 3780.4 801.005 3780.53 799.904 3780.53 798.377L3780.53 774.725C3780.53 773.83 3780.36 773.187 3780.02 772.794 3779.68 772.402 3779.22 772.206 3778.63 772.206 3778.08 772.206 3777.32 772.456 3776.32 772.958 3775.33 773.46 3773.7 774.485 3771.43 776.033L3769.44 772.565Z" fill-rule="evenodd"/><text fill="#000000" fill-opacity="0" font-family="Arial,Arial_MSFontService,sans-serif" font-size="45.1792" x="3769.44" y="801.857">𝟏</text><path d="M3822.4 744.242 3835.2 744.242 3829.59 768.545C3829.11 770.611 3828.7 772.528 3828.35 774.295 3828.01 776.062 3827.84 777.529 3827.84 778.697 3827.84 780.015 3828.09 781.018 3828.6 781.707 3829.11 782.396 3829.96 782.74 3831.16 782.74 3832.75 782.74 3834.39 781.992 3836.08 780.494 3837.77 778.997 3839.24 777.267 3840.48 775.306 3841.72 773.344 3842.61 771.106 3843.15 768.59L3848.54 744.242 3861.53 744.242 3854.25 774.789C3853.8 776.676 3853.58 778.383 3853.58 779.91 3853.58 780.899 3853.74 781.662 3854.07 782.201 3854.4 782.74 3854.97 783.01 3855.78 783.01 3856.62 783.01 3857.54 782.636 3858.56 781.887 3859.58 781.138 3860.78 780 3862.16 778.473L3865.39 781.707C3862.61 784.492 3860.06 786.491 3857.75 787.704 3855.45 788.917 3853.1 789.524 3850.7 789.524 3848.1 789.524 3846.04 788.835 3844.55 787.457 3843.05 786.08 3842.3 784.238 3842.3 781.932 3842.3 780.973 3842.39 780.255 3842.57 779.776L3841.94 779.686C3839.37 782.83 3836.96 785.166 3834.73 786.693 3832.5 788.221 3830.31 788.984 3828.15 788.984 3825.87 788.984 3823.96 788.326 3822.4 787.008L3822.04 787.143C3821.71 790.557 3821.55 794.001 3821.55 797.475 3821.55 799.272 3821.59 800.874 3821.68 802.281L3820.78 806.818 3810.95 806.818 3808.65 803.764C3809.13 802.266 3809.78 799.96 3810.59 796.846 3811.39 793.731 3812.05 790.991 3812.56 788.625Z" fill-rule="evenodd"/><text fill="#000000" fill-opacity="0" font-family="Arial,Arial_MSFontService,sans-serif" font-size="62.5762" x="3808.65" y="798.996">𝝁</text><path d="M3886.31 762.326C3889.51 762.326 3892.13 762.756 3894.16 763.618 3896.19 764.479 3897.66 765.646 3898.56 767.118 3899.47 768.591 3899.92 770.308 3899.92 772.271 3899.92 773.994 3899.6 775.597 3898.95 777.08 3898.31 778.563 3897.2 780.253 3895.62 782.151 3894.03 784.048 3891.37 786.764 3887.62 790.297 3886.46 791.387 3885.08 792.821 3883.48 794.599 3881.88 796.376 3880.6 797.898 3879.67 799.163L3879.67 799.49 3891.28 799.49C3892.7 799.49 3893.76 799.386 3894.45 799.179 3895.15 798.972 3895.7 798.612 3896.11 798.099 3896.51 797.587 3896.84 796.818 3897.1 795.793L3900.87 795.793 3900.11 807.505 3870.15 807.505 3870.15 805.346C3871.83 801.485 3875.26 796.513 3880.45 790.428 3882.81 787.658 3884.6 785.379 3885.83 783.59 3887.07 781.802 3887.99 780.112 3888.6 778.519 3889.21 776.927 3889.51 775.281 3889.51 773.58 3889.51 771.18 3888.98 769.299 3887.91 767.936 3886.84 766.573 3885.38 765.892 3883.53 765.892 3879.97 765.892 3877.69 768.454 3876.69 773.58L3870.8 773.58 3870.8 765.859C3874.36 764.419 3877.22 763.471 3879.41 763.013 3881.59 762.555 3883.89 762.326 3886.31 762.326Z" fill-rule="evenodd"/><text fill="#000000" fill-opacity="0" font-family="Arial,Arial_MSFontService,sans-serif" font-size="45.1792" x="3870.15" y="801.857">𝟐</text><rect x="2547.5" y="655.5" width="1050" height="206" stroke="#172C51" stroke-width="9.16667" stroke-miterlimit="8" fill="#70AD47"/><rect x="4044.5" y="655.5" width="561" height="205" stroke="#172C51" stroke-width="9.16667" stroke-miterlimit="8" fill="#ED7D31"/><path d="M4293.28 747.502C4290.49 747.502 4287.98 748.879 4285.75 751.635 4283.52 754.39 4281.69 758.403 4280.25 763.674 4285.76 763.524 4289.97 762.468 4292.89 760.507 4295.81 758.545 4297.27 755.767 4297.27 752.174 4297.27 750.646 4296.92 749.486 4296.22 748.692 4295.51 747.899 4294.53 747.502 4293.28 747.502ZM4294.4 742.83C4303.56 742.83 4308.15 746.139 4308.15 752.758 4308.15 755.034 4307.69 757.04 4306.77 758.777 4305.86 760.514 4304.34 762.086 4302.22 763.494 4300.09 764.901 4297.09 766.04 4293.21 766.908 4289.33 767.776 4284.65 768.271 4279.17 768.39 4278.78 770.157 4278.59 771.984 4278.59 773.871 4278.59 776.656 4279.17 778.752 4280.34 780.16 4281.51 781.568 4283.27 782.271 4285.64 782.271 4288.27 782.271 4290.66 781.74 4292.78 780.677 4294.91 779.613 4297.41 777.719 4300.28 774.994L4304.06 778.767C4301.03 782.181 4297.78 784.712 4294.29 786.359 4290.8 788.006 4287.02 788.83 4282.94 788.83 4279.44 788.83 4276.46 788.216 4274 786.988 4271.55 785.76 4269.7 783.941 4268.46 781.53 4267.21 779.119 4266.59 776.237 4266.59 772.883 4266.59 771.325 4266.8 769.334 4267.22 766.908 4267.79 763.614 4268.66 760.679 4269.83 758.103 4271.29 754.929 4273.21 752.204 4275.58 749.928 4277.94 747.651 4280.72 745.9 4283.91 744.672 4287.1 743.444 4290.6 742.83 4294.4 742.83Z" fill-rule="evenodd"/><text fill="#000000" fill-opacity="0" font-family="Arial,Arial_MSFontService,sans-serif" font-size="46" x="4266.59" y="783.08">𝒆</text><path d="M4321.35 762.155 4338.01 762.155 4337.52 764.315C4336.58 764.402 4335.9 764.691 4335.47 765.182 4335.05 765.672 4334.83 766.31 4334.83 767.095 4334.83 767.75 4334.95 768.529 4335.19 769.434 4335.43 770.34 4335.8 771.425 4336.31 772.69L4338.37 778.12 4342.75 772.69C4344.15 770.945 4345.12 769.631 4345.66 768.747 4346.21 767.864 4346.48 767.128 4346.48 766.539 4346.48 765.798 4346.29 765.269 4345.92 764.953 4345.55 764.636 4344.94 764.424 4344.09 764.315L4344.58 762.155 4358.19 762.155 4357.7 764.347C4357.18 764.435 4356.65 764.642 4356.13 764.969 4355.61 765.296 4354.89 765.907 4353.99 766.801 4353.08 767.695 4351.58 769.364 4349.49 771.806L4340.1 782.7 4345.89 797.782C4346.76 800.072 4347.54 801.724 4348.23 802.738 4348.92 803.752 4349.83 804.39 4350.96 804.652L4350.5 806.811 4333.82 806.811 4334.28 804.652C4336 804.477 4336.86 803.692 4336.86 802.297 4336.86 801.511 4336.76 800.715 4336.57 799.908 4336.37 799.101 4336.09 798.207 4335.72 797.226L4332.8 789.538 4326.03 797.618C4325.03 798.818 4324.32 799.767 4323.91 800.464 4323.49 801.162 4323.28 801.849 4323.28 802.526 4323.28 803.834 4324.09 804.543 4325.71 804.652L4325.25 806.811 4311.61 806.811 4312.06 804.652C4312.96 804.412 4313.85 803.91 4314.73 803.147 4315.61 802.384 4317.29 800.595 4319.75 797.782L4331.04 785.023 4326.03 771.806C4325.68 770.912 4325.26 769.898 4324.77 768.764 4324.28 767.63 4323.84 766.763 4323.43 766.163 4323.03 765.563 4322.64 765.132 4322.25 764.871 4321.87 764.609 4321.41 764.424 4320.86 764.315Z" fill-rule="evenodd"/><text fill="#000000" fill-opacity="0" font-family="Arial,Arial_MSFontService,sans-serif" font-size="44.6558" x="4311.61" y="801.229">𝑿</text><text font-family="DengXian,DengXian_MSFontService,sans-serif" font-weight="700" font-size="92" transform="matrix(1 0 0 1 3229.8 455)">CKKS</text><text font-family="DengXian,DengXian_MSFontService,sans-serif" font-weight="700" font-size="92" transform="matrix(1 0 0 1 3448.66 455)">-</text><text font-family="DengXian,DengXian_MSFontService,sans-serif" font-weight="700" font-size="92" transform="matrix(1 0 0 1 3494.49 455)">RESCALE</text><rect x="3853.5" y="1082.5" width="448" height="205" stroke="#000000" stroke-width="9.16667" stroke-miterlimit="8" fill="#5B9BD5"/><path d="M3976.72 1171.29 3989.52 1171.29 3983.9 1195.6C3983.42 1197.66 3983.01 1199.58 3982.67 1201.35 3982.32 1203.11 3982.15 1204.58 3982.15 1205.75 3982.15 1207.07 3982.41 1208.07 3982.92 1208.76 3983.42 1209.45 3984.28 1209.79 3985.48 1209.79 3987.06 1209.79 3988.7 1209.04 3990.4 1207.55 3992.09 1206.05 3993.55 1204.32 3994.8 1202.36 3996.04 1200.4 3996.93 1198.16 3997.47 1195.64L4002.86 1171.29 4015.84 1171.29 4008.57 1201.84C4008.12 1203.73 4007.89 1205.44 4007.89 1206.96 4007.89 1207.95 4008.06 1208.71 4008.39 1209.25 4008.72 1209.79 4009.28 1210.06 4010.09 1210.06 4010.93 1210.06 4011.86 1209.69 4012.88 1208.94 4013.9 1208.19 4015.09 1207.05 4016.47 1205.53L4019.71 1208.76C4016.92 1211.54 4014.38 1213.54 4012.07 1214.76 4009.76 1215.97 4007.41 1216.58 4005.02 1216.58 4002.41 1216.58 4000.36 1215.89 3998.86 1214.51 3997.37 1213.13 3996.62 1211.29 3996.62 1208.98 3996.62 1208.03 3996.71 1207.31 3996.89 1206.83L3996.26 1206.74C3993.68 1209.88 3991.28 1212.22 3989.05 1213.75 3986.82 1215.27 3984.62 1216.04 3982.47 1216.04 3980.19 1216.04 3978.27 1215.38 3976.72 1214.06L3976.36 1214.2C3976.03 1217.61 3975.86 1221.05 3975.86 1224.53 3975.86 1226.32 3975.91 1227.93 3976 1229.33L3975.1 1233.87 3965.26 1233.87 3962.97 1230.82C3963.45 1229.32 3964.09 1227.01 3964.9 1223.9 3965.71 1220.78 3966.37 1218.04 3966.88 1215.68Z" fill-rule="evenodd"/><text fill="#000000" fill-opacity="0" font-family="Arial,Arial_MSFontService,sans-serif" font-size="62.5762" x="3962.97" y="1226.05">𝝁</text><path d="M4043.18 1189.38 4047.36 1189.38C4047.23 1191.47 4047.17 1194.37 4047.17 1198.08L4047.17 1225.43C4047.17 1226.69 4047.24 1227.65 4047.38 1228.29 4047.52 1228.94 4047.77 1229.46 4048.13 1229.86 4048.49 1230.27 4049.01 1230.58 4049.69 1230.81 4050.36 1231.04 4051.21 1231.21 4052.24 1231.33 4053.26 1231.45 4054.62 1231.54 4056.3 1231.58L4056.3 1234.56 4028.06 1234.56 4028.06 1231.58C4030.48 1231.47 4032.21 1231.32 4033.25 1231.14 4034.28 1230.95 4035.07 1230.68 4035.62 1230.3 4036.16 1229.93 4036.56 1229.41 4036.81 1228.73 4037.06 1228.06 4037.19 1226.96 4037.19 1225.43L4037.19 1201.78C4037.19 1200.88 4037.02 1200.24 4036.68 1199.85 4036.34 1199.45 4035.88 1199.26 4035.29 1199.26 4034.75 1199.26 4033.98 1199.51 4032.99 1200.01 4031.99 1200.51 4030.36 1201.54 4028.09 1203.09L4026.1 1199.62Z" fill-rule="evenodd"/><text fill="#000000" fill-opacity="0" font-family="Arial,Arial_MSFontService,sans-serif" font-size="45.1792" x="4026.1" y="1228.91">𝟏</text><path d="M4079.06 1171.29 4091.87 1171.29 4086.25 1195.6C4085.77 1197.66 4085.36 1199.58 4085.01 1201.35 4084.67 1203.11 4084.5 1204.58 4084.5 1205.75 4084.5 1207.07 4084.75 1208.07 4085.26 1208.76 4085.77 1209.45 4086.62 1209.79 4087.82 1209.79 4089.41 1209.79 4091.05 1209.04 4092.74 1207.55 4094.43 1206.05 4095.9 1204.32 4097.14 1202.36 4098.39 1200.4 4099.28 1198.16 4099.82 1195.64L4105.21 1171.29 4118.19 1171.29 4110.91 1201.84C4110.46 1203.73 4110.24 1205.44 4110.24 1206.96 4110.24 1207.95 4110.4 1208.71 4110.73 1209.25 4111.06 1209.79 4111.63 1210.06 4112.44 1210.06 4113.28 1210.06 4114.21 1209.69 4115.22 1208.94 4116.24 1208.19 4117.44 1207.05 4118.82 1205.53L4122.05 1208.76C4119.27 1211.54 4116.72 1213.54 4114.42 1214.76 4112.11 1215.97 4109.76 1216.58 4107.36 1216.58 4104.76 1216.58 4102.71 1215.89 4101.21 1214.51 4099.71 1213.13 4098.96 1211.29 4098.96 1208.98 4098.96 1208.03 4099.05 1207.31 4099.23 1206.83L4098.6 1206.74C4096.03 1209.88 4093.62 1212.22 4091.39 1213.75 4089.16 1215.27 4086.97 1216.04 4084.81 1216.04 4082.54 1216.04 4080.62 1215.38 4079.06 1214.06L4078.7 1214.2C4078.37 1217.61 4078.21 1221.05 4078.21 1224.53 4078.21 1226.32 4078.25 1227.93 4078.34 1229.33L4077.45 1233.87 4067.61 1233.87 4065.32 1230.82C4065.8 1229.32 4066.44 1227.01 4067.25 1223.9 4068.06 1220.78 4068.72 1218.04 4069.22 1215.68Z" fill-rule="evenodd"/><text fill="#000000" fill-opacity="0" font-family="Arial,Arial_MSFontService,sans-serif" font-size="62.5762" x="4065.32" y="1226.05">𝝁</text><path d="M4142.97 1189.38C4146.18 1189.38 4148.79 1189.81 4150.82 1190.67 4152.85 1191.53 4154.32 1192.7 4155.22 1194.17 4156.13 1195.64 4156.58 1197.36 4156.58 1199.32 4156.58 1201.05 4156.26 1202.65 4155.61 1204.13 4154.97 1205.62 4153.86 1207.31 4152.28 1209.2 4150.7 1211.1 4148.03 1213.82 4144.28 1217.35 4143.12 1218.44 4141.74 1219.87 4140.14 1221.65 4138.54 1223.43 4137.27 1224.95 4136.33 1226.22L4136.33 1226.54 4147.94 1226.54C4149.36 1226.54 4150.42 1226.44 4151.12 1226.23 4151.81 1226.02 4152.37 1225.66 4152.77 1225.15 4153.17 1224.64 4153.5 1223.87 4153.77 1222.85L4157.53 1222.85 4156.78 1234.56 4126.81 1234.56 4126.81 1232.4C4128.49 1228.54 4131.92 1223.57 4137.11 1217.48 4139.47 1214.71 4141.26 1212.43 4142.5 1210.64 4143.73 1208.85 4144.65 1207.16 4145.26 1205.57 4145.87 1203.98 4146.18 1202.33 4146.18 1200.63 4146.18 1198.23 4145.64 1196.35 4144.57 1194.99 4143.5 1193.63 4142.04 1192.94 4140.19 1192.94 4136.63 1192.94 4134.36 1195.51 4133.35 1200.63L4127.46 1200.63 4127.46 1192.91C4131.02 1191.47 4133.89 1190.52 4136.07 1190.07 4138.25 1189.61 4140.55 1189.38 4142.97 1189.38Z" fill-rule="evenodd"/><text fill="#000000" fill-opacity="0" font-family="Arial,Arial_MSFontService,sans-serif" font-size="45.1792" x="4126.81" y="1228.91">𝟐</text><rect x="2804.5" y="1083.5" width="1049" height="205" stroke="#172C51" stroke-width="9.16667" stroke-miterlimit="8" fill="#70AD47"/><rect x="4301.5" y="1082.5" width="304" height="205" stroke="#172C51" stroke-width="9.16667" stroke-miterlimit="8" fill="#ED7D31"/><path d="M4421.61 1175.25C4418.82 1175.25 4416.31 1176.63 4414.08 1179.38 4411.85 1182.14 4410.02 1186.15 4408.58 1191.42 4414.09 1191.27 4418.31 1190.21 4421.23 1188.25 4424.15 1186.29 4425.6 1183.51 4425.6 1179.92 4425.6 1178.39 4425.25 1177.23 4424.55 1176.44 4423.85 1175.64 4422.86 1175.25 4421.61 1175.25ZM4422.73 1170.58C4431.89 1170.58 4436.48 1173.89 4436.48 1180.5 4436.48 1182.78 4436.02 1184.79 4435.11 1186.52 4434.19 1188.26 4432.67 1189.83 4430.55 1191.24 4428.42 1192.65 4425.42 1193.79 4421.54 1194.65 4417.66 1195.52 4412.98 1196.02 4407.5 1196.14 4407.11 1197.9 4406.92 1199.73 4406.92 1201.62 4406.92 1204.4 4407.5 1206.5 4408.67 1207.91 4409.84 1209.31 4411.6 1210.02 4413.97 1210.02 4416.61 1210.02 4418.99 1209.49 4421.11 1208.42 4423.24 1207.36 4425.74 1205.47 4428.61 1202.74L4432.39 1206.51C4429.36 1209.93 4426.11 1212.46 4422.62 1214.11 4419.13 1215.75 4415.35 1216.58 4411.27 1216.58 4407.77 1216.58 4404.79 1215.96 4402.34 1214.73 4399.88 1213.51 4398.03 1211.69 4396.79 1209.28 4395.54 1206.87 4394.92 1203.98 4394.92 1200.63 4394.92 1199.07 4395.13 1197.08 4395.55 1194.65 4396.12 1191.36 4396.99 1188.43 4398.16 1185.85 4399.62 1182.68 4401.54 1179.95 4403.91 1177.67 4406.27 1175.4 4409.05 1173.65 4412.24 1172.42 4415.43 1171.19 4418.93 1170.58 4422.73 1170.58Z" fill-rule="evenodd"/><text fill="#000000" fill-opacity="0" font-family="Arial,Arial_MSFontService,sans-serif" font-size="46" x="4394.92" y="1210.83">𝒆</text><path d="M4449.69 1189.9 4466.34 1189.9 4465.85 1192.06C4464.91 1192.15 4464.23 1192.44 4463.8 1192.93 4463.38 1193.42 4463.16 1194.06 4463.16 1194.84 4463.16 1195.5 4463.28 1196.28 4463.52 1197.18 4463.76 1198.09 4464.13 1199.17 4464.64 1200.44L4466.7 1205.87 4471.08 1200.44C4472.48 1198.69 4473.45 1197.38 4473.99 1196.49 4474.54 1195.61 4474.81 1194.87 4474.81 1194.29 4474.81 1193.54 4474.62 1193.02 4474.25 1192.7 4473.88 1192.38 4473.27 1192.17 4472.42 1192.06L4472.91 1189.9 4486.52 1189.9 4486.03 1192.09C4485.51 1192.18 4484.98 1192.39 4484.46 1192.72 4483.94 1193.04 4483.22 1193.65 4482.32 1194.55 4481.41 1195.44 4479.91 1197.11 4477.82 1199.55L4468.43 1210.45 4474.22 1225.53C4475.09 1227.82 4475.87 1229.47 4476.56 1230.48 4477.25 1231.5 4478.16 1232.14 4479.29 1232.4L4478.83 1234.56 4462.15 1234.56 4462.61 1232.4C4464.33 1232.22 4465.19 1231.44 4465.19 1230.04 4465.19 1229.26 4465.09 1228.46 4464.9 1227.65 4464.7 1226.85 4464.42 1225.95 4464.05 1224.97L4461.14 1217.28 4454.36 1225.36C4453.36 1226.56 4452.65 1227.51 4452.24 1228.21 4451.82 1228.91 4451.62 1229.6 4451.62 1230.27 4451.62 1231.58 4452.42 1232.29 4454.04 1232.4L4453.58 1234.56 4439.94 1234.56 4440.39 1232.4C4441.29 1232.16 4442.18 1231.66 4443.06 1230.89 4443.94 1230.13 4445.62 1228.34 4448.08 1225.53L4459.37 1212.77 4454.36 1199.55C4454.01 1198.66 4453.59 1197.64 4453.1 1196.51 4452.61 1195.38 4452.17 1194.51 4451.76 1193.91 4451.36 1193.31 4450.97 1192.88 4450.58 1192.62 4450.2 1192.36 4449.74 1192.17 4449.19 1192.06Z" fill-rule="evenodd"/><text fill="#000000" fill-opacity="0" font-family="Arial,Arial_MSFontService,sans-serif" font-size="44.6558" x="4439.94" y="1228.98">𝑿</text><path d="M2804.5 1309.5C2804.5 1334.63 2804.5 1355 2804.5 1355L2676 1355C2676 1355 2676 1375.37 2676 1400.5 2676 1375.37 2676 1355 2676 1355L2547.5 1355C2547.5 1355 2547.5 1334.63 2547.5 1309.5" stroke="#000000" stroke-width="3.4375" stroke-linejoin="round" stroke-miterlimit="10" stroke-dasharray="13.75 10.3125" fill="none" fill-rule="evenodd"/><path d="M2547.5 860.5 2547.5 1282.54" stroke="#000000" stroke-width="4.58333" stroke-miterlimit="8" stroke-dasharray="18.3333 13.75 4.58333 13.75" fill="none" fill-rule="evenodd"/><path d="M2804.5 865.5 2804.5 1287.54" stroke="#000000" stroke-width="4.58333" stroke-miterlimit="8" stroke-dasharray="18.3333 13.75 4.58333 13.75" fill="none" fill-rule="evenodd"/><path d="M4044.5 860.5 4044.5 1083.04" stroke="#000000" stroke-width="4.58333" stroke-miterlimit="8" stroke-dasharray="18.3333 13.75 4.58333 13.75" fill="none" fill-rule="evenodd"/><path d="M4299.5 865.5 4299.5 1287.54" stroke="#000000" stroke-width="4.58333" stroke-miterlimit="8" stroke-dasharray="18.3333 13.75 4.58333 13.75" fill="none" fill-rule="evenodd"/><path d="M2668.56 1449.98 2651.45 1494.9 2682.71 1494.9ZM2666.99 1440.05 2673.64 1440.05 2692.59 1499.22 2692.59 1502.09 2643.5 1502.09 2643.5 1499.22Z" fill-rule="evenodd"/><text fill="#000000" fill-opacity="0" font-family="Arial,Arial_MSFontService,sans-serif" font-size="62.0371" x="2643.5" y="1494.34">Δ</text></g></svg>